<?xml version="1.0" standalone="no"?>
<!DOCTYPE svg PUBLIC "-//W3C//DTD SVG 1.1//EN" "http://www.w3.org/Graphics/SVG/1.1/DTD/svg11.dtd" >
<svg xmlns="http://www.w3.org/2000/svg" xmlns:xlink="http://www.w3.org/1999/xlink" version="1.1">
<metadata>
Created by FontForge 20170731 at Fri Apr 19 19:20:17 2002
 By Aleksey,,,
(r) (c) 1995 [T-26] Chicago www.t26.com 773.862.1201 T0006 ID#5066228 designer: Frank Heine
</metadata>
<defs>
<font id="AmplifierBold" horiz-adv-x="0" >
  <font-face 
    font-family="AmplifierBold"
    font-weight="400"
    font-stretch="normal"
    units-per-em="1000"
    panose-1="0 0 4 0 0 0 0 0 0 0"
    ascent="800"
    descent="-200"
    x-height="555"
    cap-height="740"
    bbox="-136 -288 1277 1030"
    underline-thickness="156"
    underline-position="-444"
    unicode-range="U+0020-F002"
  />
<missing-glyph horiz-adv-x="500" 
d="M63 0v750h375v-750h-375zM125 63h250v625h-250v-625z" />
    <glyph glyph-name=".notdef" horiz-adv-x="500" 
d="M63 0v750h375v-750h-375zM125 63h250v625h-250v-625z" />
    <glyph glyph-name="glyph1" 
 />
    <glyph glyph-name="glyph2" horiz-adv-x="250" 
 />
    <glyph glyph-name="space" unicode=" " horiz-adv-x="250" 
 />
    <glyph glyph-name="exclam" unicode="!" horiz-adv-x="450" 
d="M165 284q-7 233 -54 456h238q-47 -223 -54 -456h-130zM350 86q0 -49 -35 -84.5t-85 -35.5q-49 0 -84.5 35.5t-35.5 84.5q0 50 35.5 85t84.5 35q50 0 85 -35t35 -85z" />
    <glyph glyph-name="quotedbl" unicode="&#x22;" horiz-adv-x="635" 
d="M90 754h165v-330q0 -34 -24 -58t-59 -24q-34 0 -58 24t-24 58v330zM380 754h165v-330q0 -34 -24 -58t-59 -24q-34 0 -58 24t-24 58v330z" />
    <glyph glyph-name="numbersign" unicode="#" horiz-adv-x="658" 
d="M202 497h-92l17 88h92l31 155h101l-30 -155h68l31 155h101l-31 -155h91l-17 -88h-91l-15 -78h91l-17 -88h-92l-32 -164h-101l32 164h-69l-32 -164h-101l32 164h-91l17 88h92zM372 497h-69l-15 -78h69z" />
    <glyph glyph-name="dollar" unicode="$" horiz-adv-x="691" 
d="M357 753q93 -6 189 -52v-192h-85q-31 145 -104 165v-212l107 -58q71 -39 102 -80q35 -47 35 -117q0 -97 -67.5 -164.5t-176.5 -75.5v-75h-68v77q-113 15 -207 100v224h76q11 -157 131 -168v184l-72 39q-66 36 -96 72q-41 48 -41 119q0 90 55 146.5t154 66.5v76h68v-75z
M357 131q61 19 61 72q0 38 -57 67l-4 2v-141zM289 673q-55 -21 -55 -83q0 -53 55 -90v173z" />
    <glyph glyph-name="percent" unicode="%" horiz-adv-x="1093" 
d="M1021 193q0 -120 -68 -178q-53 -46 -134 -46t-134 46q-68 58 -68 178t68 179q53 46 134 46t134 -46q68 -59 68 -179zM880 203q0 139 -61 139t-61 -139q0 -128 61 -128t61 128zM335 539q0 139 -61 139t-61 -139q0 -128 61 -128t61 128zM795 754l-401 -788h-100l321 631
h-146q7 -28 7 -68q0 -120 -68 -178q-53 -46 -134 -46t-134 46q-68 58 -68 178q0 105 52 163q42 48 112 59q19 3 42 3h517z" />
    <glyph glyph-name="ampersand" unicode="&#x26;" horiz-adv-x="956" 
d="M886 149q0 -73 -66 -128t-161 -55q-57 0 -108 29q-64 -29 -161 -29q-145 0 -226 74q-74 67 -74 173q0 53 22 103q24 55 67 88q-41 51 -41 130q0 98 72 161q66 59 158 59q118 0 170 -78q35 -52 35 -125q0 -121 -114 -193l127 -142v228h190v-76h-84v-179q0 -43 -17 -71
l21 -24q24 -28 46 -28q29 0 29 28q0 14 -20.5 34.5t-20.5 46.5q0 64 75 64q37 0 59 -25t22 -65zM431 570q0 108 -60 108t-60 -108q0 -112 60 -112t60 112zM485 64l-180 201q-36 -36 -36 -98q0 -58 38.5 -91.5t96.5 -33.5q56 0 81 22z" />
    <glyph glyph-name="quotesingle" unicode="'" horiz-adv-x="345" 
d="M255 424q0 -34 -24 -58t-59 -24q-34 0 -58 24t-24 58v330h165v-330z" />
    <glyph glyph-name="parenleft" unicode="(" horiz-adv-x="517" 
d="M417 26l-74 -92q-273 154 -273 436t273 436l74 -92q-163 -112 -163 -344t163 -344z" />
    <glyph glyph-name="parenright" unicode=")" horiz-adv-x="517" 
d="M447 370q0 -282 -273 -436l-74 92q163 112 163 344t-163 344l74 92q273 -154 273 -436z" />
    <glyph glyph-name="asterisk" unicode="*" horiz-adv-x="532" 
d="M308 585l107 24q8 2 16 2q23 0 37 -15t14 -36t-13.5 -36t-36.5 -15q-8 0 -17 2l-107 24l75 -80q17 -18 17 -38q0 -21 -16.5 -36t-37.5 -15q-38 0 -50 39l-31 105l-31 -105q-12 -39 -50 -39q-22 0 -37.5 15t-15.5 36t16 38l74 80l-105 -24q-8 -2 -16 -2q-23 0 -36.5 15
t-13.5 36t13.5 36t36.5 15q8 0 16 -2l105 -24l-74 80q-16 17 -16 38t15.5 36t37.5 15q38 0 50 -39l31 -105l31 105q12 39 50 39q22 0 37.5 -15t15.5 -36t-16 -38z" />
    <glyph glyph-name="plus" unicode="+" horiz-adv-x="695" 
d="M439 280v-103q0 -37 -27 -64t-65 -27q-37 0 -64 27t-27 64v103h-176v157h176v178h183v-178h176v-157h-176z" />
    <glyph glyph-name="comma" unicode="," horiz-adv-x="430" 
d="M127 -211l-27 66q11 2 43 12q66 26 66 85q0 24 -8 42q-6 -1 -13 -1q-44 0 -73 30t-29 70q0 49 32 81t85 32q63 0 102.5 -51t39.5 -127q0 -114 -83 -179q-64 -50 -135 -60z" />
    <glyph glyph-name="hyphen" unicode="-" horiz-adv-x="484" 
d="M404 280h-324v157h324v-157z" />
    <glyph glyph-name="hyphen" unicode="&#x2010;" horiz-adv-x="484" 
d="M404 280h-324v157h324v-157z" />
    <glyph glyph-name="period" unicode="." horiz-adv-x="410" 
d="M205 206q50 0 85 -35t35 -85q0 -49 -35 -84.5t-85 -35.5q-49 0 -84.5 35.5t-35.5 84.5q0 50 35.5 85t84.5 35z" />
    <glyph glyph-name="slash" unicode="/" horiz-adv-x="582" 
d="M541 767l-340 -814h-160l340 814h160z" />
    <glyph glyph-name="zero" unicode="0" horiz-adv-x="641" 
d="M588 267q0 -160 -92 -239q-72 -62 -178 -62t-178 62q-92 79 -92 239q0 154 92 236q75 65 178 65t178 -65q92 -82 92 -236zM410 280q0 212 -92 212t-92 -212q0 -196 92 -196t92 196z" />
    <glyph glyph-name="one" unicode="1" horiz-adv-x="585" 
d="M560 0h-510v157h167v245q-54 -25 -155 -51l-36 67q104 30 162 59q72 36 125 94l87 -30v-384h160v-157z" />
    <glyph glyph-name="two" unicode="2" horiz-adv-x="633" 
d="M588 0h-520v77l239 226q46 43 46 87q0 37 -24 64q-27 31 -76 31q-41 0 -66.5 -16.5t-25.5 -43.5q0 -25 19.5 -35.5t39.5 -20.5q20 -16 20 -49q0 -30 -22.5 -48t-57.5 -18q-44 0 -75 27q-37 32 -37 93q0 86 68 138.5t177 52.5q107 0 176.5 -56t69.5 -150q0 -71 -67 -136
l-68 -66h184v-157z" />
    <glyph glyph-name="three" unicode="3" horiz-adv-x="604" 
d="M549 30q0 -110 -81.5 -181t-205.5 -71q-111 0 -189 75q-61 59 -61 122q0 32 21.5 54.5t58.5 22.5q46 0 72 -47q39 -70 104 -70q43 0 70.5 24t27.5 62q0 102 -163 102h-110l258 356h-110q-56 0 -77 -38q-13 -25 -18 -89h-76v203h475v-106l-147 -201q79 -33 118 -97
q33 -55 33 -121z" />
    <glyph glyph-name="four" unicode="4" horiz-adv-x="687" 
d="M319 140v249l-155 -249h155zM645 -27h-76v91h-67v-179q0 -37 -27 -64t-65 -27q-37 0 -64 26.5t-27 64.5v115h-288v93l287 462h184v-415h67v90h76v-257z" />
    <glyph glyph-name="five" unicode="5" horiz-adv-x="600" 
d="M302 310q111 0 183 -69q76 -73 76 -194q0 -113 -72 -189q-76 -80 -197 -80q-149 0 -271 174l151 100q62 -116 125 -116q39 0 62 33q20 29 20 72q0 54 -24 85q-20 26 -50 26q-55 0 -98 -78l-162 27l103 454h241q37 0 52 9q24 14 42 61l83 -27q-26 -100 -64 -144
q-49 -56 -141 -56h-171l-30 -131q61 43 142 43z" />
    <glyph glyph-name="six" unicode="6" horiz-adv-x="632" 
d="M584 242q0 -110 -68 -189q-76 -87 -199 -87q-146 0 -214 113q-53 88 -53 226q0 449 301 449q77 0 132 -35q62 -40 62 -109q0 -36 -24 -61t-58 -25q-35 0 -58.5 22t-23.5 58q0 12 3.5 25.5t3.5 20.5q0 28 -37 28q-106 0 -108 -200q41 15 94 15q114 0 184 -79
q63 -71 63 -172zM319 417q-88 0 -88 -167q0 -166 88 -166t88 166q0 167 -88 167z" />
    <glyph glyph-name="seven" unicode="7" horiz-adv-x="630" 
d="M641 555q-157 -196 -225.5 -367t-82.5 -394h-184q22 363 173 604h-216v-80h-76v237h611z" />
    <glyph glyph-name="eight" unicode="8" horiz-adv-x="674" 
d="M626 209q0 -108 -72 -173q-77 -70 -217 -70q-144 0 -221 74q-68 65 -68 169q0 111 76 176q-51 57 -51 143q0 102 73.5 164t190.5 62q100 0 164 -61q61 -59 61 -143q0 -79 -60 -133q124 -61 124 -208zM418 570q0 49 -21 78.5t-60 29.5t-60 -29.5t-21 -78.5
q0 -50 21.5 -79.5t59.5 -29.5t59.5 29.5t21.5 79.5zM443 165q0 58 -29.5 90t-76.5 32t-76.5 -32t-29.5 -90q0 -59 29 -91t77 -32q47 0 76.5 32.5t29.5 90.5z" />
    <glyph glyph-name="nine" unicode="9" horiz-adv-x="637" 
d="M313 449q-88 0 -88 -167q0 -166 88 -166t88 166q0 167 -88 167zM389 56q-41 -16 -95 -16q-114 0 -183 79q-63 72 -63 173q0 110 68 188q74 86 198 86q146 0 215 -112q53 -88 53 -226q0 -196 -67 -313q-78 -137 -234 -137q-76 0 -132 38q-63 41 -63 107q0 38 23 62t60 24
q35 0 58.5 -22t23.5 -58q0 -12 -3.5 -25.5t-3.5 -20.5q0 -28 37 -28q54 0 84 69q23 56 24 132z" />
    <glyph glyph-name="colon" unicode=":" horiz-adv-x="450" 
d="M350 86q0 -49 -35 -84.5t-85 -35.5q-49 0 -84.5 35.5t-35.5 84.5q0 50 35.5 85t84.5 35q50 0 85 -35t35 -85zM350 451q0 -49 -35 -84.5t-85 -35.5q-49 0 -84.5 35.5t-35.5 84.5q0 50 35.5 85t84.5 35q50 0 85 -35t35 -85z" />
    <glyph glyph-name="semicolon" unicode=";" horiz-adv-x="454" 
d="M349 451q0 -49 -35 -84.5t-85 -35.5q-49 0 -84.5 35.5t-35.5 84.5q0 50 35.5 85t84.5 35q50 0 85 -35t35 -85zM141 -211l-27 66q11 2 43 12q66 26 66 85q0 24 -8 42q-6 -1 -13 -1q-44 0 -73 30t-29 70q0 49 32 81t85 32q63 0 102.5 -51t39.5 -127q0 -114 -83 -179
q-64 -50 -135 -60z" />
    <glyph glyph-name="less" unicode="&#x3c;" horiz-adv-x="481" 
d="M396 187l-86 -66l-186 166q-34 30 -34 62t34 62l186 166l86 -66l-106 -162z" />
    <glyph glyph-name="equal" unicode="=" horiz-adv-x="620" 
d="M90 202v111h440v-111h-440zM90 404v111h440v-111h-440z" />
    <glyph glyph-name="greater" unicode="&#x3e;" horiz-adv-x="481" 
d="M391 349q0 -32 -34 -62l-186 -166l-86 66l106 162l-106 162l86 66l186 -166q34 -30 34 -62z" />
    <glyph glyph-name="question" unicode="?" horiz-adv-x="574" 
d="M509 543q0 -104 -84 -156l-46 -26q-18 -12 -18 -33v-47h-182v53q0 54 19.5 84.5t82.5 70.5q55 35 55 98q0 47 -23 71q-18 20 -45 20q-43 0 -43 -34q0 -7 2 -19t2 -21q0 -39 -23.5 -59t-58.5 -20q-37 0 -59.5 24.5t-22.5 59.5q0 67 63 108q57 37 138 37q113 0 178 -57
t65 -154zM390 86q0 -49 -35 -84.5t-85 -35.5q-49 0 -84.5 35.5t-35.5 84.5q0 50 35.5 85t84.5 35q50 0 85 -35t35 -85z" />
    <glyph glyph-name="at" unicode="@" horiz-adv-x="944" 
d="M856 360q0 -97 -41 -170h-278q-42 -20 -92 -20q-71 0 -112 38q-37 34 -37 85q0 57 38.5 88t108.5 31q35 0 68 -9v27q0 37 -2 49q-6 28 -27 28q-28 0 -28 -32q0 -52 -51 -52q-48 0 -48 47q0 44 41 67q35 19 88 19q91 0 126 -60q14 -24 14 -60v-105q0 -24 3 -37
q11 -48 59 -48q75 0 75 115q0 120 -84.5 204.5t-204.5 84.5t-204 -84t-84 -205q0 -128 86 -220q88 -95 219 -95q81 0 161 43l24 -56q-92 -57 -202 -57q-159 0 -271.5 112.5t-112.5 271.5t112.5 271.5t271.5 112.5t271.5 -112.5t112.5 -271.5zM511 289v46q-20 10 -46 10
q-56 0 -56 -50q0 -47 46 -47q33 0 56 41z" />
    <glyph glyph-name="A" unicode="A" horiz-adv-x="704" 
d="M727 0h-371v76h91l-28 85h-162l-50 -161h-192l323 770l297 -694h92v-76zM392 279l-54 166l-54 -166h108z" />
    <glyph glyph-name="B" unicode="B" horiz-adv-x="670" 
d="M619 222q0 -77 -48 -135q-50 -61 -140 -80q-33 -7 -101 -7h-235v740h222q87 0 141 -32q42 -25 68.5 -72t26.5 -98q0 -71 -50 -121q116 -65 116 -195zM405 564q0 71 -49 93q-16 7 -50 7h-29v-200h29q34 0 50 7q49 22 49 93zM437 190q0 90 -64 110q-20 6 -55 6h-41v-230h41
q55 0 79 18q40 30 40 96z" />
    <glyph glyph-name="C" unicode="C" horiz-adv-x="668" 
d="M604 70q-115 -103 -229 -103q-147 0 -233.5 104.5t-86.5 285.5q0 158 58 261q77 136 241 136q103 0 166 -62q68 -67 76 -192h-185q-3 96 -63 96q-110 0 -110 -241q0 -107 41 -169t111 -62q125 0 138 169h76v-223z" />
    <glyph glyph-name="D" unicode="D" horiz-adv-x="709" 
d="M654 371q0 -103 -46.5 -192.5t-122.5 -135.5q-70 -43 -186 -43h-199v664h-87v76h280q121 0 191 -42q76 -46 123 -134.5t47 -192.5zM472 370q0 190 -83 269q-26 25 -73 25h-32v-588h32q47 0 73 25q83 79 83 269z" />
    <glyph glyph-name="E" unicode="E" horiz-adv-x="658" 
d="M306 583v-138h60q54 0 72 17q13 13 13 47v38h76v-353h-76v46q0 35 -13 48q-18 18 -72 18h-60v-149h314v-157h-595v157h99v583h410q32 0 55.5 -23.5t23.5 -55.5t-23.5 -55t-55.5 -23h-228z" />
    <glyph glyph-name="F" unicode="F" horiz-adv-x="607" 
d="M597 583h-319v-137h77q54 0 71 17q14 12 14 46v38h76v-352h-76v45q0 35 -14 48q-18 18 -71 18h-77v-235q0 -37 -27 -64t-65 -27q-37 0 -64 27t-27 64v669h502v-157z" />
    <glyph glyph-name="G" unicode="G" horiz-adv-x="703" 
d="M236 395q0 -131 37 -201t101 -70q28 0 46 12v146h-127v140h390v-76h-80v-276q-115 -103 -229 -103q-146 0 -232.5 103t-86.5 276q0 213 86 316q76 92 214 92q81 0 138 -36q63 -40 63 -107q0 -38 -24.5 -63t-58.5 -25q-40 0 -60.5 23t-20.5 57q0 8 1 18t1 19q0 38 -39 38
q-119 0 -119 -283z" />
    <glyph glyph-name="H" unicode="H" horiz-adv-x="712" 
d="M701 0h-358v76h85v215h-150v-291h-183v740h183v-291h150v291h184v-664h89v-76z" />
    <glyph glyph-name="I" unicode="I" horiz-adv-x="521" 
d="M479 0h-442v157h129v426h-129v157h442v-157h-129v-426h129v-157z" />
    <glyph glyph-name="J" unicode="J" horiz-adv-x="450" 
d="M-136 -81q0 37 24 61t58 24q39 0 60.5 -22.5t21.5 -56.5q0 -12 -3 -25.5t-3 -20.5q0 -28 35 -28q75 0 106 103q14 46 14 118v511h-167v157h350v-668q0 -62 -13 -105q-29 -97 -116 -149q-73 -43 -165 -43q-83 0 -139 35q-63 40 -63 109z" />
    <glyph glyph-name="K" unicode="K" horiz-adv-x="680" 
d="M703 0h-347v76h68l-134 235h-12v-240q0 -38 -26.5 -64.5t-65.5 -26.5q-38 0 -64.5 26.5t-26.5 64.5v669h183v-256q34 32 101 127q57 80 93 139l158 -73q-39 -71 -107 -163q-61 -82 -90 -111l197 -327h73v-76z" />
    <glyph glyph-name="L" unicode="L" horiz-adv-x="653" 
d="M598 0h-503v740h183v-600h75q79 0 111 24q44 34 60 139h74v-303z" />
    <glyph glyph-name="M" unicode="M" horiz-adv-x="800" 
d="M792 0h-276v371l-88 -191h-63l-87 189v-298q0 -38 -27 -64.5t-65 -26.5t-64.5 26.5t-26.5 64.5v669h147l154 -354l155 354h149v-664h92v-76z" />
    <glyph glyph-name="N" unicode="N" horiz-adv-x="695" 
d="M713 664h-47q-37 0 -51 -12q-20 -16 -20 -66v-586h-136l-181 392v-316h85v-76h-268v740h156l200 -437v283q0 50 -19 66q-13 12 -50 12h-38v76h369v-76z" />
    <glyph glyph-name="O" unicode="O" horiz-adv-x="670" 
d="M615 360q0 -226 -97 -324q-69 -70 -183 -70t-183 70q-97 98 -97 324t97 324q69 70 183 70t183 -70q97 -98 97 -324zM432 380q0 140 -17 208q-23 90 -80 90t-80 -90q-17 -68 -17 -208q0 -139 17 -207q23 -89 80 -89t80 89q17 68 17 207z" />
    <glyph glyph-name="P" unicode="P" horiz-adv-x="638" 
d="M407 493q0 171 -92 171h-37v-341h33q21 0 32 4q64 23 64 166zM278 246v-89h160v-157h-343v740h214q93 0 149 -24q133 -57 133 -223t-133 -223q-56 -24 -149 -24h-31z" />
    <glyph glyph-name="Q" unicode="Q" horiz-adv-x="713" 
d="M432 380q0 140 -17 208q-23 90 -80 90t-80 -90q-17 -68 -17 -208q0 -139 17 -207q23 -89 80 -89t80 89q17 68 17 207zM307 -33q-252 22 -252 393q0 226 97 324q69 70 183 70t183 -70q97 -98 97 -324q0 -276 -150 -362q0 -38 21 -63t59 -25q36 0 36 28q0 7 -3 20.5
t-3 25.5q0 34 21.5 56.5t60.5 22.5q34 0 58 -24t24 -61q0 -69 -63 -109q-56 -35 -138 -35q-155 0 -231 133z" />
    <glyph glyph-name="R" unicode="R" horiz-adv-x="706" 
d="M735 -8q-48 -23 -106 -23q-70 0 -117 25t-86 85l-142 216h-6v-295h-183v740h215q93 0 150 -23q131 -53 131 -202q0 -123 -120 -182l143 -207q44 -64 79 -64q26 0 42 8v-78zM407 518q0 146 -91 146h-38v-293h33q19 0 31 4q65 22 65 143z" />
    <glyph glyph-name="S" unicode="S" horiz-adv-x="654" 
d="M601 207q0 -103 -75.5 -172t-195.5 -69q-134 0 -248 103v224h76q11 -169 152 -169q45 0 76.5 20.5t31.5 58.5q0 36 -57 67l-144 78q-66 36 -96 72q-41 48 -41 119q0 99 67 157t185 58q102 0 214 -53v-192h-85q-19 88 -48 126q-33 43 -92 43q-36 0 -61.5 -23.5
t-25.5 -64.5q0 -61 79 -104l151 -82q71 -39 102 -80q35 -47 35 -117z" />
    <glyph glyph-name="T" unicode="T" horiz-adv-x="592" 
d="M596 583h-211v-512q0 -37 -27 -64t-65 -27q-37 0 -64 27t-27 64v512h-206v157h600v-157z" />
    <glyph glyph-name="U" unicode="U" horiz-adv-x="697" 
d="M615 211q0 -39 -5 -63q-18 -86 -95 -136q-69 -46 -159 -46q-89 0 -159 46q-76 50 -94 136q-5 24 -5 63v453h-87v76h365v-76h-94v-481q0 -34 12 -52q21 -31 63 -31q41 0 62 31q12 18 12 52v557h184v-529z" />
    <glyph glyph-name="V" unicode="V" horiz-adv-x="649" 
d="M679 664h-93l-206 -664h-125l-227 740h190l148 -534l140 458h-93v76h266v-76z" />
    <glyph glyph-name="W" unicode="W" horiz-adv-x="760" 
d="M698 740l-66 -740h-164l-86 276l-86 -276h-162l-62 642q-4 45 24 73q27 25 67 25q39 0 64 -22.5t27 -63.5l19 -354l109 333l108 -330l20 361h-91v76h279z" />
    <glyph glyph-name="X" unicode="X" horiz-adv-x="640" 
d="M621 740l-204 -375l201 -365h-210l-121 241l-90 -165h94v-76h-279v76h97l135 243l-231 421h208l96 -187l98 187h206z" />
    <glyph glyph-name="Y" unicode="Y" horiz-adv-x="605" 
d="M627 664h-89l-161 -295l26 -55v-243q0 -37 -27 -64t-65 -27q-37 0 -64 27t-27 64v232l-220 437h324v-76h-86l99 -210l114 210h-89v76h265v-76z" />
    <glyph glyph-name="Z" unicode="Z" horiz-adv-x="624" 
d="M612 740l-324 -583h289v-157h-530v95l317 569h-99q-123 0 -127 -171h-76v247h550z" />
    <glyph glyph-name="bracketleft" unicode="[" horiz-adv-x="520" 
d="M253 660v-580h167v-157h-350v894h350v-157h-167z" />
    <glyph glyph-name="backslash" unicode="\" 
 />
    <glyph glyph-name="bracketright" unicode="]" horiz-adv-x="520" 
d="M450 -77h-350v157h167v580h-167v157h350v-894z" />
    <glyph glyph-name="asciicircum" unicode="^" horiz-adv-x="505" 
d="M458 648l-53 -60l-153 90l-153 -90l-53 60l154 153q25 25 52 25t52 -25z" />
    <glyph glyph-name="underscore" unicode="_" horiz-adv-x="700" 
d="M700 -288h-700v156h700v-156z" />
    <glyph glyph-name="grave" unicode="`" horiz-adv-x="377" 
d="M326 654l-54 -61l-175 96q-49 27 -49 68q0 30 18.5 51t51.5 21t75 -42z" />
    <glyph glyph-name="a" unicode="a" horiz-adv-x="640" 
d="M378 153v75q-32 15 -73 15t-63.5 -22.5t-22.5 -57.5t20 -54.5t49 -19.5q48 0 90 64zM630 0h-211q-61 -31 -146 -31q-108 0 -172 58q-58 54 -58 133q0 90 60 138t169 48q56 0 106 -13v75q0 87 -47 87q-41 0 -41 -52q0 -79 -75 -79q-36 0 -58.5 20.5t-22.5 55.5
q0 67 65 102q55 29 137 29q89 0 148 -43q54 -39 67 -103q4 -20 4 -46v-303h75v-76z" />
    <glyph glyph-name="b" unicode="b" horiz-adv-x="661" 
d="M430 273q0 100 -30 161t-77 61q-29 0 -50 -17v-375q22 -58 59 -58q38 0 66 54q32 63 32 174zM90 273v489h183v-197q29 6 63 6q100 0 179 -65q98 -82 98 -232q0 -156 -93 -238q-75 -67 -182 -67q-68 0 -114 31h-199q35 65 49 120q16 63 16 153z" />
    <glyph glyph-name="c" unicode="c" horiz-adv-x="659" 
d="M612 111q-67 -68 -118 -98q-73 -44 -156 -44q-114 0 -191 61q-99 78 -99 235q0 159 94 240q77 66 193 66q51 0 99 -16v16h165v-217q0 -82 -84 -82q-33 0 -53 19q-9 10 -28 43q-44 79 -99 79q-45 0 -72 -33q-31 -36 -31 -108q0 -75 34 -113q28 -33 71 -33q32 0 66 27
q19 15 77 76z" />
    <glyph glyph-name="d" unicode="d" horiz-adv-x="659" 
d="M644 0h-205q-56 -31 -120 -31q-105 0 -179 66q-92 82 -92 239q0 151 97 232q77 65 178 65q31 0 63 -5v196h183v-686h75v-76zM386 103v375q-21 17 -50 17q-47 0 -76 -60.5t-29 -161.5q0 -112 32 -175q26 -53 64 -53q37 0 59 58z" />
    <glyph glyph-name="e" unicode="e" horiz-adv-x="647" 
d="M411 350q-5 63 -28.5 104t-57.5 41q-36 0 -59 -39.5t-28 -105.5h173zM334 127q38 0 90.5 20.5t73.5 20.5q37 0 58.5 -20.5t21.5 -55.5q0 -55 -59 -84q-80 -39 -191 -39q-139 0 -214 92q-66 81 -66 207t67 209q77 94 217 94q164 0 232 -146q33 -71 33 -176v-17h-364
q6 -105 101 -105z" />
    <glyph glyph-name="f" unicode="f" horiz-adv-x="562" 
d="M415 662q0 9 2 20t2 15q0 14 -22 14q-44 0 -44 -113v-43h205v-157h-205v-547h76v-76h-259v623h-166v157h166v7q0 69 25 115q29 54 88 83q53 27 114 27t109 -25q60 -31 60 -88q0 -35 -20 -56t-54 -21q-77 0 -77 65z" />
    <glyph glyph-name="g" unicode="g" horiz-adv-x="646" 
d="M631 566q-35 -65 -49 -120q-16 -63 -16 -153v-338q0 -63 -22 -102q-31 -55 -109 -82q-60 -21 -129 -21q-92 0 -163 35q-91 45 -91 130q0 78 82 123q-86 76 -86 223q0 158 92 240q74 65 180 65q59 0 105 -27l14 27h192zM382 135v260q-20 14 -47 14q-46 0 -72 -33
q-31 -37 -31 -109q0 -74 34 -113q28 -32 71 -32q22 0 45 13zM468 -77q0 56 -69 56h-124q-90 0 -90 -64q0 -41 37.5 -65t95.5 -24q59 0 104.5 28.5t45.5 68.5z" />
    <glyph glyph-name="h" unicode="h" horiz-adv-x="659" 
d="M399 428q0 67 -48 67q-36 0 -57 -35.5t-21 -94.5v-289h75v-76h-258v686h-84v76h243v-240q60 49 153 49q157 0 177 -146q3 -22 3 -46v-308q0 -38 -27 -64.5t-65 -26.5t-64.5 26.5t-26.5 64.5v357z" />
    <glyph glyph-name="i" unicode="i" horiz-adv-x="530" 
d="M385 708q0 -45 -32.5 -76.5t-79.5 -31.5t-79 31.5t-32 76.5q0 44 32 75t79 31t79.5 -31t32.5 -75zM527 0h-510v157h167v322h-82v76h266v-398h159v-157z" />
    <glyph glyph-name="j" unicode="j" horiz-adv-x="444" 
d="M374 708q0 -45 -32.5 -76.5t-79.5 -31.5t-79 31.5t-32 76.5q0 44 32 75t79 31t79.5 -31t32.5 -75zM357 40q0 -50 -9 -80q-21 -69 -85 -108q-58 -35 -132 -35q-60 0 -107 20v71q28 -13 61 -13q89 0 89 106v397h-159v157h342v-515z" />
    <glyph glyph-name="k" unicode="k" horiz-adv-x="666" 
d="M673 0h-343v76h58l-118 135v-140q0 -39 -27 -65t-65 -26t-64.5 26t-26.5 65v691h183v-348q65 64 125 141h237q-101 -132 -236 -254l210 -225h67v-76z" />
    <glyph glyph-name="l" unicode="l" horiz-adv-x="426" 
d="M292 153q0 -106 90 -106q33 0 61 13v-71q-47 -20 -107 -20q-74 0 -132 35q-64 39 -85 108q-9 30 -9 80v413h-156v157h338v-609z" />
    <glyph glyph-name="m" unicode="m" horiz-adv-x="880" 
d="M800 396v-320h76v-76h-259v443q0 52 -31 52q-50 0 -50 -126v-369h-182v443q0 52 -31 52q-50 0 -50 -126v-369h-183v282q0 90 -16 153q-14 55 -49 120h195q3 -6 17 -38q52 54 140 54q81 0 122 -55q53 55 148 55q59 0 99.5 -34t50.5 -95q3 -18 3 -46z" />
    <glyph glyph-name="n" unicode="n" horiz-adv-x="661" 
d="M398 428q0 67 -48 67q-36 0 -57 -35.5t-21 -94.5v-365h-182v282q0 90 -16 153q-14 55 -49 120h194q13 -27 19 -42q61 58 163 58q157 0 177 -146q3 -22 3 -46v-303h75v-76h-333v76h75v352z" />
    <glyph glyph-name="o" unicode="o" horiz-adv-x="636" 
d="M588 270q0 -160 -92 -239q-72 -62 -178 -62t-178 62q-92 79 -92 239q0 154 92 236q75 65 178 65t178 -65q92 -82 92 -236zM410 283q0 212 -92 212t-92 -212q0 -196 92 -196t92 196z" />
    <glyph glyph-name="p" unicode="p" horiz-adv-x="661" 
d="M430 267q0 111 -32 174q-28 54 -66 54q-37 0 -59 -58v-375q21 -17 50 -17q47 0 77 61t30 161zM90 282q0 90 -16 153q-14 55 -49 120h194l9 -21q50 37 117 37q104 0 178 -66q90 -82 90 -238q0 -150 -98 -232q-79 -66 -179 -66q-34 0 -63 6v-124h81v-76h-349v76h85v431z
" />
    <glyph glyph-name="q" unicode="q" horiz-adv-x="660" 
d="M570 -225h-137v213q-50 -19 -109 -19q-101 0 -178 65q-98 82 -98 233q0 157 92 238q74 66 180 66q49 0 79 -10q28 43 79 43q37 0 64.5 -26t27.5 -61v-742zM387 142v230q-22 41 -64 41q-35 0 -60 -29q-33 -39 -33 -114q0 -66 29 -104.5t77 -38.5q24 0 51 15z" />
    <glyph glyph-name="r" unicode="r" horiz-adv-x="540" 
d="M90 0v282q0 90 -16 153q-14 55 -49 120h192q10 -17 18 -35q62 51 141 51q61 0 94 -31t33 -81q0 -44 -22.5 -71.5t-60.5 -27.5q-33 0 -56 22t-23 57q0 33 22 56q-37 0 -61 -45q-19 -34 -25 -80q-4 -28 -4 -65v-147h159v-158h-342z" />
    <glyph glyph-name="s" unicode="s" horiz-adv-x="600" 
d="M542 154q0 -78 -68 -131.5t-159 -53.5q-137 0 -243 90v174h76q1 -62 45 -100q39 -35 92 -35q73 0 73 48q0 22 -17 34q-10 7 -44 18q-107 35 -154 70q-67 50 -67 127q0 74 52 123q56 53 149 53q42 0 76 -13v13h165v-228h-80q-32 96 -123 96q-56 0 -56 -35q0 -30 66 -51
q105 -33 149 -65q68 -50 68 -134z" />
    <glyph glyph-name="t" unicode="t" horiz-adv-x="640" 
d="M159 112q-9 30 -9 80v206h-146v157h146v164h183v-164h253v-157h-253v-216q0 -30 7 -45q18 -38 66 -38q56 0 89 44.5t33 120.5h76q0 -295 -232 -295q-71 0 -128 35q-64 39 -85 108z" />
    <glyph glyph-name="u" unicode="u" horiz-adv-x="667" 
d="M399 555h183v-487q0 -35 -27.5 -61.5t-64.5 -26.5q-54 0 -80 46q-46 -57 -140 -57q-157 0 -177 146q-3 22 -3 46v318h-75v76h258v-443q0 -67 48 -67q36 0 57 35.5t21 94.5v380z" />
    <glyph glyph-name="v" unicode="v" horiz-adv-x="597" 
d="M359 479v76h258v-76h-93l-182 -479h-119l-213 555h191l131 -370l107 294h-80z" />
    <glyph glyph-name="w" unicode="w" horiz-adv-x="744" 
d="M683 422q0 -40 -12 -93l-75 -329h-149l-66 207l-66 -207h-164l-108 555h278v-76h-87l37 -253l60 197q23 77 63.5 112.5t115.5 35.5q87 0 134 -50q39 -41 39 -99zM422 429l68 -203l39 183q4 18 4 33q0 53 -45 53q-54 0 -66 -66z" />
    <glyph glyph-name="x" unicode="x" horiz-adv-x="675" 
d="M683 0h-232l-148 188l-87 -112h75v-76h-261v76h89l134 172l-238 307h220l98 -128l98 128h216l-205 -266z" />
    <glyph glyph-name="y" unicode="y" horiz-adv-x="628" 
d="M224 33l8 22l-214 500h197l100 -298l107 298h226v-76h-79l-190 -445h-73q-34 -95 -69 -134q-42 -46 -111 -46q-55 0 -90 33t-35 76q0 37 21 59.5t58 22.5q36 0 55 -22q16 -19 16 -46q0 -10 -3 -20t-3 -13q0 -14 14 -14q28 0 65 103z" />
    <glyph glyph-name="z" unicode="z" horiz-adv-x="610" 
d="M567 0h-530v101l317 378h-102q-49 0 -70 -27t-26 -100h-76v203h474v-108l-242 -290h255v-157z" />
    <glyph glyph-name="braceleft" unicode="{" horiz-adv-x="550" 
d="M346 687v-187q0 -93 -93 -130q93 -37 93 -130v-186q0 -41 19 -60q22 -22 85 -29v-77q-142 0 -208 34q-79 41 -79 141v177q0 93 -93 130q93 37 93 130v178q0 100 79 140q66 34 208 34v-76q-63 -7 -83.5 -27.5t-20.5 -61.5z" />
    <glyph glyph-name="bar" unicode="|" horiz-adv-x="698" 
d="M499 250q0 26 -31 48l-249 177q-21 -15 -21 -38q0 -25 30 -46l251 -179q20 15 20 38zM358 678q-56 0 -56 -62q0 -28 17 -49q11 -13 41 -33l158 -107q43 -29 58 -46q32 -36 32 -87q0 -82 -69 -124q28 -23 28 -75q0 -69 -60 -114q-63 -48 -168 -48q-89 0 -147 37
q-63 41 -63 110q0 35 24 59.5t58 24.5q37 0 60 -22t23 -55q0 -12 -4 -27t-4 -22q0 -29 49 -29q29 0 45 18t16 44q0 28 -17 49q-11 13 -41 33l-158 107q-43 29 -58 46q-32 36 -32 87q0 82 69 124q-28 28 -28 75q0 68 61 115t162 47q86 0 142 -35q63 -39 63 -110
q0 -36 -24 -61t-58 -25t-57.5 22.5t-23.5 54.5q0 12 4 27t4 22q0 29 -46 29z" />
    <glyph glyph-name="braceright" unicode="}" horiz-adv-x="550" 
d="M480 370q-93 -37 -93 -130v-177q0 -100 -79 -141q-66 -34 -208 -34v77q63 7 85 29q19 19 19 60v186q0 93 93 130q-93 37 -93 130v187q0 41 -19 60q-22 22 -85 29v76q142 0 208 -34q79 -40 79 -140v-178q0 -93 93 -130z" />
    <glyph glyph-name="asciitilde" unicode="~" horiz-adv-x="462" 
d="M429 782q-26 -173 -120 -173q-34 0 -95.5 24.5t-74.5 24.5q-12 0 -16 -12q-2 -5 -7 -37h-83q26 173 120 173q35 0 97.5 -24.5t72.5 -24.5q12 0 16 12q2 5 7 37h83z" />
    <glyph glyph-name="nonbreakingspace" unicode="&#xa0;" horiz-adv-x="250" 
 />
    <glyph glyph-name="exclamdown" unicode="&#xa1;" horiz-adv-x="450" 
d="M340 446q0 -49 -35 -84.5t-85 -35.5q-49 0 -84.5 35.5t-35.5 84.5q0 50 35.5 85t84.5 35q50 0 85 -35t35 -85zM339 -208h-238q47 223 54 456h130q7 -233 54 -456z" />
    <glyph glyph-name="cent" unicode="&#xa2;" horiz-adv-x="741" 
d="M409 569q33 -3 67 -14v16h165v-217q0 -82 -84 -82q-33 0 -53 19q-9 9 -28 43q-33 59 -67 73v-276q30 12 113 98l132 -118q-61 -62 -107 -92q-66 -42 -138 -49v-78h-68v79q-104 12 -169 74q-82 78 -82 220q0 146 79 226q66 67 172 78v74h68v-74zM341 407q-67 -26 -67 -135
q0 -108 67 -138v273z" />
    <glyph glyph-name="sterling" unicode="&#xa3;" horiz-adv-x="823" 
d="M230 515q0 69 25 115q29 54 88 83q53 27 114 27t109 -25q60 -31 60 -88q0 -35 -20 -56t-54 -21q-77 0 -77 65q0 9 2 20t2 15q0 14 -22 14q-44 0 -44 -113v-122h147v-68h-147v-58h147v-68h-147v-95h75q79 0 111 24q44 34 60 139h74v-303h-503v235h-150v68h150v58h-150v68
h150v86z" />
    <glyph glyph-name="currency" unicode="&#xa4;" horiz-adv-x="705" 
d="M18 390l50 68h34q19 128 80 203q77 93 212 93q103 0 166 -62q68 -67 76 -192h-185q-3 96 -63 96q-81 0 -103 -138h223l-50 -68h-179q-1 -17 -1 -35t1 -36h179l-50 -68h-117q34 -127 139 -127q125 0 138 169h76v-223q-115 -103 -229 -103q-124 0 -205.5 75t-105.5 209h-86
l50 68h28q-1 19 -1 38q0 17 1 33h-78z" />
    <glyph glyph-name="yen" unicode="&#xa5;" horiz-adv-x="681" 
d="M221 361h-121v68h86l-156 311h324v-76h-86l99 -210l114 210h-89v76h265v-76h-89l-128 -235h141v-68h-172l26 -58h146v-68h-148v-164q0 -37 -27 -64t-65 -27q-37 0 -64 27t-27 64v164h-150v68h150z" />
    <glyph glyph-name="brokenbar" unicode="&#xa6;" 
 />
    <glyph glyph-name="section" unicode="&#xa7;" horiz-adv-x="637" 
d="M589 242q0 -110 -68 -189q-76 -87 -199 -87q-146 0 -214 113q-53 88 -53 226q0 449 301 449q77 0 132 -35q62 -40 62 -109q0 -36 -24 -61t-58 -25q-35 0 -58.5 22t-23.5 58q0 12 3.5 25.5t3.5 20.5q0 28 -37 28q-106 0 -108 -200q41 15 94 15q114 0 184 -79
q63 -71 63 -172zM324 417q-88 0 -88 -167q0 -166 88 -166t88 166q0 167 -88 167z" />
    <glyph glyph-name="dieresis" unicode="&#xa8;" horiz-adv-x="530" 
d="M477 694q0 -35 -25.5 -60.5t-60.5 -25.5t-59.5 25.5t-24.5 60.5t24.5 60t59.5 25t60.5 -25t25.5 -60zM223 694q0 -35 -25 -60.5t-60 -25.5t-60 25.5t-25 60.5t25 60t60 25t60 -25t25 -60z" />
    <glyph glyph-name="copyright" unicode="&#xa9;" horiz-adv-x="944" 
d="M856 360q0 -159 -112.5 -271.5t-271.5 -112.5t-271.5 112.5t-112.5 271.5t112.5 271.5t271.5 112.5t271.5 -112.5t112.5 -271.5zM761 361q0 120 -84.5 204.5t-204.5 84.5t-204.5 -84.5t-84.5 -204.5t84.5 -204.5t204.5 -84.5t204.5 84.5t84.5 204.5zM607 212
q-64 -58 -125 -58q-77 0 -123.5 55t-46.5 151q0 83 32 137q41 71 128 71q122 0 132 -147h-114q-1 48 -23 48q-44 0 -44 -105q0 -51 17 -81t46 -30q58 0 64 85h57v-126z" />
    <glyph glyph-name="ordfeminine" unicode="&#xaa;" horiz-adv-x="550" 
d="M314 470v51q-22 11 -50 11q-59 0 -59 -55q0 -51 47 -51q33 0 62 44zM488 365h-146q-42 -22 -100 -22q-75 0 -118 41q-40 36 -40 91q0 61 41 94.5t116 33.5q39 0 73 -9v51q0 60 -32 60q-28 0 -28 -36q0 -54 -52 -54q-56 0 -56 52q0 46 45 70q38 20 94 20q61 0 102 -29
q37 -27 46 -71q3 -14 3 -32v-208h52v-52z" />
    <glyph glyph-name="guillemotleft" unicode="&#xab;" horiz-adv-x="805" 
d="M720 187l-86 -66l-186 166q-34 30 -34 62t34 62l186 166l86 -66l-106 -162zM396 187l-86 -66l-186 166q-34 30 -34 62t34 62l186 166l86 -66l-106 -162z" />
    <glyph glyph-name="logicalnot" unicode="&#xac;" horiz-adv-x="403" 
d="M269 153q0 -106 90 -106q33 0 61 13v-71q-47 -20 -107 -20q-74 0 -132 35q-64 39 -85 108q-9 30 -9 80v570h182v-609z" />
    <glyph glyph-name="minus" unicode="&#xad;" 
 />
    <glyph glyph-name="minus" unicode="&#x2212;" 
 />
    <glyph glyph-name="registered" unicode="&#xae;" horiz-adv-x="944" 
d="M856 360q0 -159 -112.5 -271.5t-271.5 -112.5t-271.5 112.5t-112.5 271.5t112.5 271.5t271.5 112.5t271.5 -112.5t112.5 -271.5zM761 361q0 120 -84.5 204.5t-204.5 84.5t-204.5 -84.5t-84.5 -204.5t84.5 -204.5t204.5 -84.5t204.5 84.5t84.5 204.5zM658 161
q-17 -7 -46 -7q-62 0 -99 56l-59 90v-130h-112v390h114q32 0 50 -3q104 -17 104 -119q0 -64 -56 -94l66 -95q19 -28 30 -28q5 0 8 1v-61zM463 376q35 0 35 63t-35 63h-9v-126h9z" />
    <glyph glyph-name="macron" unicode="&#xaf;" horiz-adv-x="485" 
d="M432 628h-379v116h379v-116z" />
    <glyph glyph-name="macron" unicode="&#x2c9;" horiz-adv-x="485" 
d="M432 628h-379v116h379v-116z" />
    <glyph glyph-name="degree" unicode="&#xb0;" horiz-adv-x="674" 
d="M626 209q0 -108 -72 -173q-77 -70 -217 -70q-144 0 -221 74q-68 65 -68 169q0 111 76 176q-51 57 -51 143q0 102 73.5 164t190.5 62q100 0 164 -61q61 -59 61 -143q0 -79 -60 -133q124 -61 124 -208zM418 570q0 49 -21 78.5t-60 29.5t-60 -29.5t-21 -78.5
q0 -50 21.5 -79.5t59.5 -29.5t59.5 29.5t21.5 79.5zM443 165q0 58 -29.5 90t-76.5 32t-76.5 -32t-29.5 -90q0 -59 29 -91t77 -32q47 0 76.5 32.5t29.5 90.5z" />
    <glyph glyph-name="plusminus" unicode="&#xb1;" 
 />
    <glyph glyph-name="twosuperior" unicode="&#xb2;" horiz-adv-x="457" 
d="M397 357h-334v55l163 179q22 24 22 48q0 56 -60 56q-47 0 -47 -23q0 -11 17 -18q32 -13 32 -43q0 -21 -15.5 -33.5t-39.5 -12.5q-30 0 -51 19q-24 20 -24 55q0 53 41 84t110 31q70 0 116 -33.5t46 -92.5q0 -48 -38 -91l-73 -82h135v-98z" />
    <glyph glyph-name="threesuperior" unicode="&#xb3;" horiz-adv-x="437" 
d="M90 377q-35 32 -35 65q0 51 52 51q26 0 46 -29q22 -32 55 -32q20 0 34.5 11.5t14.5 31.5q0 48 -73 48h-97l140 160h-43q-23 0 -32.5 -13t-11.5 -49h-57v119h286v-60l-71 -82q79 -39 79 -121q0 -63 -49 -102t-125 -39q-68 0 -113 41z" />
    <glyph glyph-name="acute" unicode="&#xb4;" horiz-adv-x="377" 
d="M329 757q0 -41 -49 -68l-175 -96l-54 61l133 133q42 42 75 42t51.5 -21t18.5 -51z" />
    <glyph glyph-name="mu" unicode="&#xb5;" horiz-adv-x="672" 
d="M273 112q0 -67 48 -67q36 0 57 35.5t21 94.5v380h183v-282q0 -90 16 -153q14 -55 49 -120h-195q-12 25 -23 51q-10 -24 -29 -41q-46 -40 -127 -41v-103q0 -37 -27 -64t-65 -27q-37 0 -64 26.5t-27 64.5v613h-75v76h258v-443z" />
    <glyph glyph-name="mu" unicode="&#x3bc;" horiz-adv-x="672" 
d="M273 112q0 -67 48 -67q36 0 57 35.5t21 94.5v380h183v-282q0 -90 16 -153q14 -55 49 -120h-195q-12 25 -23 51q-10 -24 -29 -41q-46 -40 -127 -41v-103q0 -37 -27 -64t-65 -27q-37 0 -64 26.5t-27 64.5v613h-75v76h258v-443z" />
    <glyph glyph-name="paragraph" unicode="&#xb6;" horiz-adv-x="681" 
d="M373 704q37 -30 55 -30q30 0 30 34q0 68 77 68q74 0 74 -70q0 -48 -39 -81v-625h-68v608q-10 -3 -54 -10v-598h-162v350q-13 -2 -23 -2q-70 0 -117 40q-61 51 -61 156q0 102 58 154q47 42 118 42q67 0 112 -36z" />
    <glyph glyph-name="periodcentered" unicode="&#xb7;" horiz-adv-x="637" 
d="M313 637q-88 0 -88 -167q0 -166 88 -166t88 166q0 167 -88 167zM389 244q-41 -16 -95 -16q-114 0 -183 79q-63 72 -63 173q0 110 68 188q74 86 198 86q146 0 215 -112q53 -88 53 -226q0 -196 -67 -313q-78 -137 -234 -137q-76 0 -132 38q-63 41 -63 107q0 38 23 62t60 24
q35 0 58.5 -22t23.5 -58q0 -12 -3.5 -25.5t-3.5 -20.5q0 -28 37 -28q54 0 84 69q23 56 24 132z" />
    <glyph glyph-name="periodcentered" unicode="&#x2219;" horiz-adv-x="637" 
d="M313 637q-88 0 -88 -167q0 -166 88 -166t88 166q0 167 -88 167zM389 244q-41 -16 -95 -16q-114 0 -183 79q-63 72 -63 173q0 110 68 188q74 86 198 86q146 0 215 -112q53 -88 53 -226q0 -196 -67 -313q-78 -137 -234 -137q-76 0 -132 38q-63 41 -63 107q0 38 23 62t60 24
q35 0 58.5 -22t23.5 -58q0 -12 -3.5 -25.5t-3.5 -20.5q0 -28 37 -28q54 0 84 69q23 56 24 132z" />
    <glyph glyph-name="cedilla" unicode="&#xb8;" horiz-adv-x="369" 
d="M235 -14q43 -10 68.5 -41.5t25.5 -72.5q0 -50 -38 -85.5t-91 -35.5q-51 0 -80.5 21.5t-29.5 56.5q0 23 15 39t41 16q12 0 30.5 -6t29.5 -6q26 0 26 26q0 23 -30 31q-15 4 -47 4h-102l33 101h164z" />
    <glyph glyph-name="onesuperior" unicode="&#xb9;" horiz-adv-x="441" 
d="M381 357h-311v98h97v191q-31 -13 -86 -26l-26 51q121 35 174 87l60 -18v-285h92v-98z" />
    <glyph glyph-name="ordmasculine" unicode="&#xba;" horiz-adv-x="550" 
d="M480 547q0 -104 -69 -160q-56 -46 -136 -46t-136 46q-69 56 -69 160q0 101 66 158q57 49 139 49t139 -49q66 -57 66 -158zM338 552q0 126 -63 126t-63 -126q0 -41 14 -70q16 -35 49 -35t50 35q13 29 13 70z" />
    <glyph glyph-name="guillemotright" unicode="&#xbb;" horiz-adv-x="805" 
d="M391 349q0 -32 -34 -62l-186 -166l-86 66l106 162l-106 162l86 66l186 -166q34 -30 34 -62zM715 349q0 -32 -34 -62l-186 -166l-86 66l106 162l-106 162l86 66l186 -166q34 -30 34 -62z" />
    <glyph glyph-name="onequarter" unicode="&#xbc;" horiz-adv-x="1039" 
d="M848 767l-521 -814h-107l521 814h107zM386 357h-311v98h97v191q-31 -13 -86 -26l-26 51q121 35 174 87l60 -18v-285h92v-98zM972 58h-57v46h-26v-64q0 -25 -17.5 -43t-43.5 -18q-25 0 -43 18t-18 43v33h-166v58l164 252h124v-222h26v45h57v-148zM767 161v108l-69 -108h69
z" />
    <glyph glyph-name="onehalf" unicode="&#xbd;" horiz-adv-x="1073" 
d="M848 767l-521 -814h-107l521 814h107zM386 357h-311v98h97v191q-31 -13 -86 -26l-26 51q121 35 174 87l60 -18v-285h92v-98zM1013 0h-334v55l163 179q22 24 22 48q0 56 -60 56q-47 0 -47 -23q0 -11 17 -18q32 -13 32 -43q0 -21 -15.5 -33.5t-39.5 -12.5q-30 0 -51 19
q-24 20 -24 55q0 53 41 84t110 31q70 0 116 -33.5t46 -92.5q0 -48 -38 -91l-73 -82h135v-98z" />
    <glyph glyph-name="threequarters" unicode="&#xbe;" horiz-adv-x="1009" 
d="M818 767l-521 -814h-107l521 814h107zM95 377q-35 32 -35 65q0 51 52 51q26 0 46 -29q22 -32 55 -32q20 0 34.5 11.5t14.5 31.5q0 48 -73 48h-97l140 160h-43q-23 0 -32.5 -13t-11.5 -49h-57v119h286v-60l-71 -82q79 -39 79 -121q0 -63 -49 -102t-125 -39q-68 0 -113 41z
M942 58h-57v46h-26v-64q0 -25 -17.5 -43t-43.5 -18q-25 0 -43 18t-18 43v33h-166v58l164 252h124v-222h26v45h57v-148zM737 161v108l-69 -108h69z" />
    <glyph glyph-name="questiondown" unicode="&#xbf;" horiz-adv-x="574" 
d="M424 446q0 -49 -35 -84.5t-85 -35.5q-49 0 -84.5 35.5t-35.5 84.5q0 50 35.5 85t84.5 35q50 0 85 -35t35 -85zM509 -77q0 -67 -63 -108q-57 -37 -138 -37q-113 0 -178 57t-65 154q0 104 84 156l46 26q18 12 18 33v47h182v-53q0 -54 -19 -83q-20 -32 -83 -72
q-55 -35 -55 -98q0 -47 23 -71q18 -20 45 -20q43 0 43 34q0 7 -2 19t-2 21q0 39 25 60q22 19 57 19q37 0 59.5 -24.5t22.5 -59.5z" />
    <glyph glyph-name="Agrave" unicode="&#xc0;" horiz-adv-x="704" 
d="M727 0h-371v76h91l-28 85h-162l-50 -161h-192l323 770l297 -694h92v-76zM392 279l-54 166l-54 -166h108zM489 819l-54 -61l-175 96q-49 27 -49 68q0 30 18.5 51t51.5 21t75 -42z" />
    <glyph glyph-name="Aacute" unicode="&#xc1;" horiz-adv-x="704" 
d="M727 0h-371v76h91l-28 85h-162l-50 -161h-192l323 770l297 -694h92v-76zM392 279l-54 166l-54 -166h108zM465 922q0 -41 -49 -68l-175 -96l-54 61l133 133q42 42 75 42t51.5 -21t18.5 -51z" />
    <glyph glyph-name="Acircumflex" unicode="&#xc2;" horiz-adv-x="704" 
d="M727 0h-371v76h91l-28 85h-162l-50 -161h-192l323 770l297 -694h92v-76zM392 279l-54 166l-54 -166h108zM544 813l-53 -60l-153 90l-153 -90l-53 60l154 153q25 25 52 25t52 -25z" />
    <glyph glyph-name="Atilde" unicode="&#xc3;" horiz-adv-x="704" 
d="M727 0h-371v76h91l-28 85h-162l-50 -161h-192l323 770l297 -694h92v-76zM392 279l-54 166l-54 -166h108zM536 967q-26 -173 -120 -173q-34 0 -95.5 24.5t-74.5 24.5q-12 0 -16 -12q-2 -5 -7 -37h-83q26 173 120 173q35 0 97.5 -24.5t72.5 -24.5q12 0 16 12q2 5 7 37h83z
" />
    <glyph glyph-name="Adieresis" unicode="&#xc4;" horiz-adv-x="704" 
d="M727 0h-371v76h91l-28 85h-162l-50 -161h-192l323 770l297 -694h92v-76zM392 279l-54 166l-54 -166h108zM550 879q0 -35 -25.5 -60.5t-60.5 -25.5t-59.5 25.5t-24.5 60.5t24.5 60t59.5 25t60.5 -25t25.5 -60zM296 879q0 -35 -25 -60.5t-60 -25.5t-60 25.5t-25 60.5t25 60
t60 25t60 -25t25 -60z" />
    <glyph glyph-name="Aring" unicode="&#xc5;" horiz-adv-x="704" 
d="M727 0h-371v76h91l-28 85h-162l-50 -161h-192l323 770l297 -694h92v-76zM392 279l-54 166l-54 -166h108zM457 911q0 -49 -35 -83.5t-84 -34.5t-84 34.5t-35 83.5t35 84t84 35t84 -35t35 -84zM375 916q0 54 -37 54t-37 -54t37 -54t37 54z" />
    <glyph glyph-name="AE" unicode="&#xc6;" horiz-adv-x="990" 
d="M267 76h86v-76h-348l472 740h389q32 0 55.5 -23.5t23.5 -55.5t-23.5 -55t-55.5 -23h-228v-138h60q54 0 72 17q13 13 13 47v38h76v-353h-76v46q0 35 -13 48q-18 18 -72 18h-60v-149h314v-157h-496v161h-148zM456 279v195l-102 -195h102z" />
    <glyph glyph-name="Ccedilla" unicode="&#xc7;" horiz-adv-x="668" 
d="M276 -19q-104 33 -162.5 130.5t-58.5 245.5q0 158 58 261q77 136 241 136q103 0 166 -62q68 -67 76 -192h-185q-3 96 -63 96q-110 0 -110 -241q0 -107 41 -169t111 -62q125 0 138 169h76v-223q-20 -18 -41 -34q-52 -37 -105 -55q78 -28 78 -109q0 -50 -38 -85.5
t-91 -35.5q-51 0 -80.5 21.5t-29.5 56.5q0 23 15 39t41 16q12 0 30.5 -6t29.5 -6q26 0 26 26q0 23 -30 31q-15 4 -47 4h-102z" />
    <glyph glyph-name="Egrave" unicode="&#xc8;" horiz-adv-x="658" 
d="M306 583v-138h60q54 0 72 17q13 13 13 47v38h76v-353h-76v46q0 35 -13 48q-18 18 -72 18h-60v-149h314v-157h-595v157h99v583h410q32 0 55.5 -23.5t23.5 -55.5t-23.5 -55t-55.5 -23h-228zM493 839l-54 -61l-175 96q-49 27 -49 68q0 30 18.5 51t51.5 21t75 -42z" />
    <glyph glyph-name="Eacute" unicode="&#xc9;" horiz-adv-x="658" 
d="M306 583v-138h60q54 0 72 17q13 13 13 47v38h76v-353h-76v46q0 35 -13 48q-18 18 -72 18h-60v-149h314v-157h-595v157h99v583h410q32 0 55.5 -23.5t23.5 -55.5t-23.5 -55t-55.5 -23h-228zM496 942q0 -41 -49 -68l-175 -96l-54 61l133 133q42 42 75 42t51.5 -21t18.5 -51z
" />
    <glyph glyph-name="Ecircumflex" unicode="&#xca;" horiz-adv-x="658" 
d="M306 583v-138h60q54 0 72 17q13 13 13 47v38h76v-353h-76v46q0 35 -13 48q-18 18 -72 18h-60v-149h314v-157h-595v157h99v583h410q32 0 55.5 -23.5t23.5 -55.5t-23.5 -55t-55.5 -23h-228zM562 833l-53 -60l-153 90l-153 -90l-53 60l154 153q25 25 52 25t52 -25z" />
    <glyph glyph-name="Edieresis" unicode="&#xcb;" horiz-adv-x="658" 
d="M306 583v-138h60q54 0 72 17q13 13 13 47v38h76v-353h-76v46q0 35 -13 48q-18 18 -72 18h-60v-149h314v-157h-595v157h99v583h410q32 0 55.5 -23.5t23.5 -55.5t-23.5 -55t-55.5 -23h-228zM566 879q0 -35 -25.5 -60.5t-60.5 -25.5t-59.5 25.5t-24.5 60.5t24.5 60t59.5 25
t60.5 -25t25.5 -60zM312 879q0 -35 -25 -60.5t-60 -25.5t-60 25.5t-25 60.5t25 60t60 25t60 -25t25 -60z" />
    <glyph glyph-name="Igrave" unicode="&#xcc;" horiz-adv-x="521" 
d="M479 0h-442v157h129v426h-129v157h442v-157h-129v-426h129v-157zM397 839l-54 -61l-175 96q-49 27 -49 68q0 30 18.5 51t51.5 21t75 -42z" />
    <glyph glyph-name="Iacute" unicode="&#xcd;" horiz-adv-x="521" 
d="M479 0h-442v157h129v426h-129v157h442v-157h-129v-426h129v-157zM397 942q0 -41 -49 -68l-175 -96l-54 61l133 133q42 42 75 42t51.5 -21t18.5 -51z" />
    <glyph glyph-name="Icircumflex" unicode="&#xce;" horiz-adv-x="521" 
d="M479 0h-442v157h129v426h-129v157h442v-157h-129v-426h129v-157zM464 833l-53 -60l-153 90l-153 -90l-53 60l154 153q25 25 52 25t52 -25z" />
    <glyph glyph-name="Idieresis" unicode="&#xcf;" horiz-adv-x="521" 
d="M479 0h-442v157h129v426h-129v157h442v-157h-129v-426h129v-157zM470 879q0 -35 -25.5 -60.5t-60.5 -25.5t-59.5 25.5t-24.5 60.5t24.5 60t59.5 25t60.5 -25t25.5 -60zM216 879q0 -35 -25 -60.5t-60 -25.5t-60 25.5t-25 60.5t25 60t60 25t60 -25t25 -60z" />
    <glyph glyph-name="Eth" unicode="&#xd0;" horiz-adv-x="759" 
d="M334 409h123v-73h-123v-260h32q47 0 73 25q83 79 83 269t-83 269q-26 25 -73 25h-32v-255zM150 336h-122v73h122v255h-87v76h280q121 0 191 -42q76 -46 123 -134.5t47 -192.5q0 -103 -46.5 -192.5t-122.5 -135.5q-70 -43 -186 -43h-199v336z" />
    <glyph glyph-name="Ntilde" unicode="&#xd1;" horiz-adv-x="695" 
d="M713 664h-47q-37 0 -51 -12q-20 -16 -20 -66v-586h-136l-181 392v-316h85v-76h-268v740h156l200 -437v283q0 50 -19 66q-13 12 -50 12h-38v76h369v-76zM565 967q-26 -173 -120 -173q-34 0 -95.5 24.5t-74.5 24.5q-12 0 -16 -12q-2 -5 -7 -37h-83q26 173 120 173
q35 0 97.5 -24.5t72.5 -24.5q12 0 16 12q2 5 7 37h83z" />
    <glyph glyph-name="Ograve" unicode="&#xd2;" horiz-adv-x="670" 
d="M615 360q0 -226 -97 -324q-69 -70 -183 -70t-183 70q-97 98 -97 324t97 324q69 70 183 70t183 -70q97 -98 97 -324zM432 380q0 140 -17 208q-23 90 -80 90t-80 -90q-17 -68 -17 -208q0 -139 17 -207q23 -89 80 -89t80 89q17 68 17 207zM474 839l-54 -61l-175 96
q-49 27 -49 68q0 30 18.5 51t51.5 21t75 -42z" />
    <glyph glyph-name="Oacute" unicode="&#xd3;" horiz-adv-x="670" 
d="M615 360q0 -226 -97 -324q-69 -70 -183 -70t-183 70q-97 98 -97 324t97 324q69 70 183 70t183 -70q97 -98 97 -324zM432 380q0 140 -17 208q-23 90 -80 90t-80 -90q-17 -68 -17 -208q0 -139 17 -207q23 -89 80 -89t80 89q17 68 17 207zM474 942q0 -41 -49 -68l-175 -96
l-54 61l133 133q42 42 75 42t51.5 -21t18.5 -51z" />
    <glyph glyph-name="Ocircumflex" unicode="&#xd4;" horiz-adv-x="670" 
d="M615 360q0 -226 -97 -324q-69 -70 -183 -70t-183 70q-97 98 -97 324t97 324q69 70 183 70t183 -70q97 -98 97 -324zM432 380q0 140 -17 208q-23 90 -80 90t-80 -90q-17 -68 -17 -208q0 -139 17 -207q23 -89 80 -89t80 89q17 68 17 207zM541 833l-53 -60l-153 90l-153 -90
l-53 60l154 153q25 25 52 25t52 -25z" />
    <glyph glyph-name="Otilde" unicode="&#xd5;" horiz-adv-x="670" 
d="M615 360q0 -226 -97 -324q-69 -70 -183 -70t-183 70q-97 98 -97 324t97 324q69 70 183 70t183 -70q97 -98 97 -324zM432 380q0 140 -17 208q-23 90 -80 90t-80 -90q-17 -68 -17 -208q0 -139 17 -207q23 -89 80 -89t80 89q17 68 17 207zM533 967q-26 -173 -120 -173
q-34 0 -95.5 24.5t-74.5 24.5q-12 0 -16 -12q-2 -5 -7 -37h-83q26 173 120 173q35 0 97.5 -24.5t72.5 -24.5q12 0 16 12q2 5 7 37h83z" />
    <glyph glyph-name="Odieresis" unicode="&#xd6;" horiz-adv-x="670" 
d="M615 360q0 -226 -97 -324q-69 -70 -183 -70t-183 70q-97 98 -97 324t97 324q69 70 183 70t183 -70q97 -98 97 -324zM432 380q0 140 -17 208q-23 90 -80 90t-80 -90q-17 -68 -17 -208q0 -139 17 -207q23 -89 80 -89t80 89q17 68 17 207zM547 879q0 -35 -25.5 -60.5
t-60.5 -25.5t-59.5 25.5t-24.5 60.5t24.5 60t59.5 25t60.5 -25t25.5 -60zM293 879q0 -35 -25 -60.5t-60 -25.5t-60 25.5t-25 60.5t25 60t60 25t60 -25t25 -60z" />
    <glyph glyph-name="multiply" unicode="&#xd7;" 
 />
    <glyph glyph-name="Oslash" unicode="&#xd8;" horiz-adv-x="684" 
d="M439 422l-169 -275q24 -63 72 -63q57 0 80 89q17 68 17 207v42zM246 323l171 281q-23 74 -75 74q-57 0 -80 -90q-17 -68 -17 -208q0 -38 1 -57zM111 103q-49 95 -49 257q0 226 97 324q69 70 183 70q85 0 143 -38l32 51l99 -55l-50 -82q56 -99 56 -270q0 -226 -97 -324
q-69 -70 -183 -70q-91 0 -155 46l-36 -59l-97 56z" />
    <glyph glyph-name="Ugrave" unicode="&#xd9;" horiz-adv-x="697" 
d="M615 211q0 -39 -5 -63q-18 -86 -95 -136q-69 -46 -159 -46q-89 0 -159 46q-76 50 -94 136q-5 24 -5 63v453h-87v76h365v-76h-94v-481q0 -34 12 -52q21 -31 63 -31q41 0 62 31q12 18 12 52v557h184v-529zM491 839l-54 -61l-175 96q-49 27 -49 68q0 30 18.5 51t51.5 21
t75 -42z" />
    <glyph glyph-name="Uacute" unicode="&#xda;" horiz-adv-x="697" 
d="M615 211q0 -39 -5 -63q-18 -86 -95 -136q-69 -46 -159 -46q-89 0 -159 46q-76 50 -94 136q-5 24 -5 63v453h-87v76h365v-76h-94v-481q0 -34 12 -52q21 -31 63 -31q41 0 62 31q12 18 12 52v557h184v-529zM500 942q0 -41 -49 -68l-175 -96l-54 61l133 133q42 42 75 42
t51.5 -21t18.5 -51z" />
    <glyph glyph-name="Ucircumflex" unicode="&#xdb;" horiz-adv-x="697" 
d="M615 211q0 -39 -5 -63q-18 -86 -95 -136q-69 -46 -159 -46q-89 0 -159 46q-76 50 -94 136q-5 24 -5 63v453h-87v76h365v-76h-94v-481q0 -34 12 -52q21 -31 63 -31q41 0 62 31q12 18 12 52v557h184v-529zM562 833l-53 -60l-153 90l-153 -90l-53 60l154 153q25 25 52 25
t52 -25z" />
    <glyph glyph-name="Udieresis" unicode="&#xdc;" horiz-adv-x="697" 
d="M615 211q0 -39 -5 -63q-18 -86 -95 -136q-69 -46 -159 -46q-89 0 -159 46q-76 50 -94 136q-5 24 -5 63v453h-87v76h365v-76h-94v-481q0 -34 12 -52q21 -31 63 -31q41 0 62 31q12 18 12 52v557h184v-529zM568 879q0 -35 -25.5 -60.5t-60.5 -25.5t-59.5 25.5t-24.5 60.5
t24.5 60t59.5 25t60.5 -25t25.5 -60zM314 879q0 -35 -25 -60.5t-60 -25.5t-60 25.5t-25 60.5t25 60t60 25t60 -25t25 -60z" />
    <glyph glyph-name="Yacute" unicode="&#xdd;" horiz-adv-x="605" 
d="M627 664h-89l-161 -295l26 -55v-243q0 -37 -27 -64t-65 -27q-37 0 -64 27t-27 64v232l-220 437h324v-76h-86l99 -210l114 210h-89v76h265v-76zM452 942q0 -41 -49 -68l-175 -96l-54 61l133 133q42 42 75 42t51.5 -21t18.5 -51z" />
    <glyph glyph-name="Thorn" unicode="&#xde;" horiz-adv-x="649" 
d="M412 403q0 171 -92 171h-37v-341h33q21 0 32 4q64 23 64 166zM283 76h81v-76h-349v76h85v664h183v-90h31q93 0 149 -24q133 -57 133 -223t-133 -223q-56 -24 -149 -24h-31v-80z" />
    <glyph glyph-name="germandbls" unicode="&#xdf;" horiz-adv-x="713" 
d="M324 754q106 0 181 -66q71 -64 71 -148q0 -80 -53 -140q138 -79 138 -210q0 -90 -48 -151q-56 -70 -157 -70q-77 0 -147 39v151q46 -55 105 -55q28 0 46.5 19.5t18.5 55.5q0 115 -170 128v144q51 8 74 31q25 27 25 85q0 54 -27 85q-23 26 -55 26q-59 0 -59 -70v-608h-183
v529q0 69 25 115q60 110 215 110z" />
    <glyph glyph-name="agrave" unicode="&#xe0;" horiz-adv-x="640" 
d="M378 153v75q-32 15 -73 15t-63.5 -22.5t-22.5 -57.5t20 -54.5t49 -19.5q48 0 90 64zM630 0h-211q-61 -31 -146 -31q-108 0 -172 58q-58 54 -58 133q0 90 60 138t169 48q56 0 106 -13v75q0 87 -47 87q-41 0 -41 -52q0 -79 -75 -79q-36 0 -58.5 20.5t-22.5 55.5
q0 67 65 102q55 29 137 29q89 0 148 -43q54 -39 67 -103q4 -20 4 -46v-303h75v-76zM469 654l-54 -61l-175 96q-49 27 -49 68q0 30 18.5 51t51.5 21t75 -42z" />
    <glyph glyph-name="aacute" unicode="&#xe1;" horiz-adv-x="640" 
d="M378 153v75q-32 15 -73 15t-63.5 -22.5t-22.5 -57.5t20 -54.5t49 -19.5q48 0 90 64zM630 0h-211q-61 -31 -146 -31q-108 0 -172 58q-58 54 -58 133q0 90 60 138t169 48q56 0 106 -13v75q0 87 -47 87q-41 0 -41 -52q0 -79 -75 -79q-36 0 -58.5 20.5t-22.5 55.5
q0 67 65 102q55 29 137 29q89 0 148 -43q54 -39 67 -103q4 -20 4 -46v-303h75v-76zM462 757q0 -41 -49 -68l-175 -96l-54 61l133 133q42 42 75 42t51.5 -21t18.5 -51z" />
    <glyph glyph-name="acircumflex" unicode="&#xe2;" horiz-adv-x="640" 
d="M378 153v75q-32 15 -73 15t-63.5 -22.5t-22.5 -57.5t20 -54.5t49 -19.5q48 0 90 64zM630 0h-211q-61 -31 -146 -31q-108 0 -172 58q-58 54 -58 133q0 90 60 138t169 48q56 0 106 -13v75q0 87 -47 87q-41 0 -41 -52q0 -79 -75 -79q-36 0 -58.5 20.5t-22.5 55.5
q0 67 65 102q55 29 137 29q89 0 148 -43q54 -39 67 -103q4 -20 4 -46v-303h75v-76zM534 648l-53 -60l-153 90l-153 -90l-53 60l154 153q25 25 52 25t52 -25z" />
    <glyph glyph-name="atilde" unicode="&#xe3;" horiz-adv-x="640" 
d="M378 153v75q-32 15 -73 15t-63.5 -22.5t-22.5 -57.5t20 -54.5t49 -19.5q48 0 90 64zM630 0h-211q-61 -31 -146 -31q-108 0 -172 58q-58 54 -58 133q0 90 60 138t169 48q56 0 106 -13v75q0 87 -47 87q-41 0 -41 -52q0 -79 -75 -79q-36 0 -58.5 20.5t-22.5 55.5
q0 67 65 102q55 29 137 29q89 0 148 -43q54 -39 67 -103q4 -20 4 -46v-303h75v-76zM534 782q-26 -173 -120 -173q-34 0 -95.5 24.5t-74.5 24.5q-12 0 -16 -12q-2 -5 -7 -37h-83q26 173 120 173q35 0 97.5 -24.5t72.5 -24.5q12 0 16 12q2 5 7 37h83z" />
    <glyph glyph-name="adieresis" unicode="&#xe4;" horiz-adv-x="640" 
d="M378 153v75q-32 15 -73 15t-63.5 -22.5t-22.5 -57.5t20 -54.5t49 -19.5q48 0 90 64zM630 0h-211q-61 -31 -146 -31q-108 0 -172 58q-58 54 -58 133q0 90 60 138t169 48q56 0 106 -13v75q0 87 -47 87q-41 0 -41 -52q0 -79 -75 -79q-36 0 -58.5 20.5t-22.5 55.5
q0 67 65 102q55 29 137 29q89 0 148 -43q54 -39 67 -103q4 -20 4 -46v-303h75v-76zM545 694q0 -35 -25.5 -60.5t-60.5 -25.5t-59.5 25.5t-24.5 60.5t24.5 60t59.5 25t60.5 -25t25.5 -60zM291 694q0 -35 -25 -60.5t-60 -25.5t-60 25.5t-25 60.5t25 60t60 25t60 -25t25 -60z
" />
    <glyph glyph-name="aring" unicode="&#xe5;" horiz-adv-x="640" 
d="M378 153v75q-32 15 -73 15t-63.5 -22.5t-22.5 -57.5t20 -54.5t49 -19.5q48 0 90 64zM630 0h-211q-61 -31 -146 -31q-108 0 -172 58q-58 54 -58 133q0 90 60 138t169 48q56 0 106 -13v75q0 87 -47 87q-41 0 -41 -52q0 -79 -75 -79q-36 0 -58.5 20.5t-22.5 55.5
q0 67 65 102q55 29 137 29q89 0 148 -43q54 -39 67 -103q4 -20 4 -46v-303h75v-76zM453 726q0 -49 -35 -83.5t-84 -34.5t-84 34.5t-35 83.5t35 84t84 35t84 -35t35 -84zM371 731q0 54 -37 54t-37 -54t37 -54t37 54z" />
    <glyph glyph-name="ae" unicode="&#xe6;" horiz-adv-x="969" 
d="M490 524q63 47 164 47q164 0 232 -146q33 -71 33 -176v-17h-364q6 -105 101 -105q38 0 90.5 20.5t73.5 20.5q37 0 58.5 -20.5t21.5 -55.5q0 -55 -59 -84q-80 -39 -191 -39q-116 0 -185 62q-68 -62 -192 -62q-108 0 -172 58q-58 54 -58 133q0 90 60 138t169 48
q56 0 106 -13v75q0 87 -47 87q-41 0 -41 -52q0 -79 -75 -79q-36 0 -58.5 20.5t-22.5 55.5q0 67 65 102q55 29 137 29q96 0 154 -47zM733 350q-5 63 -28.5 104t-57.5 41q-36 0 -59 -39.5t-28 -105.5h173zM378 153v75q-32 15 -73 15t-63.5 -22.5t-22.5 -57.5t20 -54.5
t49 -19.5q48 0 90 64z" />
    <glyph glyph-name="ccedilla" unicode="&#xe7;" horiz-adv-x="659" 
d="M241 -18q-84 25 -133 87q-60 75 -60 196q0 159 94 240q77 66 193 66q51 0 99 -16v16h165v-217q0 -82 -84 -82q-33 0 -53 19q-9 10 -28 43q-44 79 -99 79q-45 0 -72 -33q-31 -36 -31 -108q0 -75 34 -113q28 -33 71 -33q32 0 66 27q19 15 77 76l132 -118
q-102 -104 -189 -130q78 -28 78 -109q0 -50 -38 -85.5t-91 -35.5q-51 0 -80.5 21.5t-29.5 56.5q0 23 15 39t41 16q12 0 30.5 -6t29.5 -6q26 0 26 26q0 23 -30 31q-15 4 -47 4h-102z" />
    <glyph glyph-name="egrave" unicode="&#xe8;" horiz-adv-x="647" 
d="M411 350q-5 63 -28.5 104t-57.5 41q-36 0 -59 -39.5t-28 -105.5h173zM334 127q38 0 90.5 20.5t73.5 20.5q37 0 58.5 -20.5t21.5 -55.5q0 -55 -59 -84q-80 -39 -191 -39q-139 0 -214 92q-66 81 -66 207t67 209q77 94 217 94q164 0 232 -146q33 -71 33 -176v-17h-364
q6 -105 101 -105zM481 654l-54 -61l-175 96q-49 27 -49 68q0 30 18.5 51t51.5 21t75 -42z" />
    <glyph glyph-name="eacute" unicode="&#xe9;" horiz-adv-x="647" 
d="M411 350q-5 63 -28.5 104t-57.5 41q-36 0 -59 -39.5t-28 -105.5h173zM334 127q38 0 90.5 20.5t73.5 20.5q37 0 58.5 -20.5t21.5 -55.5q0 -55 -59 -84q-80 -39 -191 -39q-139 0 -214 92q-66 81 -66 207t67 209q77 94 217 94q164 0 232 -146q33 -71 33 -176v-17h-364
q6 -105 101 -105zM446 757q0 -41 -49 -68l-175 -96l-54 61l133 133q42 42 75 42t51.5 -21t18.5 -51z" />
    <glyph glyph-name="ecircumflex" unicode="&#xea;" horiz-adv-x="647" 
d="M411 350q-5 63 -28.5 104t-57.5 41q-36 0 -59 -39.5t-28 -105.5h173zM334 127q38 0 90.5 20.5t73.5 20.5q37 0 58.5 -20.5t21.5 -55.5q0 -55 -59 -84q-80 -39 -191 -39q-139 0 -214 92q-66 81 -66 207t67 209q77 94 217 94q164 0 232 -146q33 -71 33 -176v-17h-364
q6 -105 101 -105zM533 648l-53 -60l-153 90l-153 -90l-53 60l154 153q25 25 52 25t52 -25z" />
    <glyph glyph-name="edieresis" unicode="&#xeb;" horiz-adv-x="647" 
d="M411 350q-5 63 -28.5 104t-57.5 41q-36 0 -59 -39.5t-28 -105.5h173zM334 127q38 0 90.5 20.5t73.5 20.5q37 0 58.5 -20.5t21.5 -55.5q0 -55 -59 -84q-80 -39 -191 -39q-139 0 -214 92q-66 81 -66 207t67 209q77 94 217 94q164 0 232 -146q33 -71 33 -176v-17h-364
q6 -105 101 -105zM544 694q0 -35 -25.5 -60.5t-60.5 -25.5t-59.5 25.5t-24.5 60.5t24.5 60t59.5 25t60.5 -25t25.5 -60zM290 694q0 -35 -25 -60.5t-60 -25.5t-60 25.5t-25 60.5t25 60t60 25t60 -25t25 -60z" />
    <glyph glyph-name="igrave" unicode="&#xec;" horiz-adv-x="530" 
d="M527 0h-510v157h167v322h-82v76h266v-398h159v-157zM368 654l-54 -61l-175 96q-49 27 -49 68q0 30 18.5 51t51.5 21t75 -42z" />
    <glyph glyph-name="iacute" unicode="&#xed;" horiz-adv-x="530" 
d="M527 0h-510v157h167v322h-82v76h266v-398h159v-157zM380 757q0 -41 -49 -68l-175 -96l-54 61l133 133q42 42 75 42t51.5 -21t18.5 -51z" />
    <glyph glyph-name="icircumflex" unicode="&#xee;" horiz-adv-x="530" 
d="M527 0h-510v157h167v322h-82v76h266v-398h159v-157zM482 648l-53 -60l-153 90l-153 -90l-53 60l154 153q25 25 52 25t52 -25z" />
    <glyph glyph-name="idieresis" unicode="&#xef;" horiz-adv-x="530" 
d="M527 0h-510v157h167v322h-82v76h266v-398h159v-157zM488 694q0 -35 -25.5 -60.5t-60.5 -25.5t-59.5 25.5t-24.5 60.5t24.5 60t59.5 25t60.5 -25t25.5 -60zM234 694q0 -35 -25 -60.5t-60 -25.5t-60 25.5t-25 60.5t25 60t60 25t60 -25t25 -60z" />
    <glyph glyph-name="eth" unicode="&#xf0;" horiz-adv-x="647" 
d="M597 636l-73 -27q58 -112 58 -304q0 -138 -53 -226q-68 -113 -214 -113q-123 0 -199 87q-68 79 -68 189q0 101 64 172q69 79 183 79q54 0 94 -15q0 40 -7 80l-78 -29l-25 69l81 30q-25 50 -74 50q-50 0 -102 -36l-17 73q62 40 146 40q98 0 170 -83l89 33zM313 417
q-88 0 -88 -167q0 -166 88 -166t88 166q0 167 -88 167z" />
    <glyph glyph-name="ntilde" unicode="&#xf1;" horiz-adv-x="661" 
d="M398 428q0 67 -48 67q-36 0 -57 -35.5t-21 -94.5v-365h-182v282q0 90 -16 153q-14 55 -49 120h194q13 -27 19 -42q61 58 163 58q157 0 177 -146q3 -22 3 -46v-303h75v-76h-333v76h75v352zM532 782q-26 -173 -120 -173q-34 0 -95.5 24.5t-74.5 24.5q-12 0 -16 -12
q-2 -5 -7 -37h-83q26 173 120 173q35 0 97.5 -24.5t72.5 -24.5q12 0 16 12q2 5 7 37h83z" />
    <glyph glyph-name="ograve" unicode="&#xf2;" horiz-adv-x="636" 
d="M588 270q0 -160 -92 -239q-72 -62 -178 -62t-178 62q-92 79 -92 239q0 154 92 236q75 65 178 65t178 -65q92 -82 92 -236zM410 283q0 212 -92 212t-92 -212q0 -196 92 -196t92 196zM467 654l-54 -61l-175 96q-49 27 -49 68q0 30 18.5 51t51.5 21t75 -42z" />
    <glyph glyph-name="oacute" unicode="&#xf3;" horiz-adv-x="636" 
d="M588 270q0 -160 -92 -239q-72 -62 -178 -62t-178 62q-92 79 -92 239q0 154 92 236q75 65 178 65t178 -65q92 -82 92 -236zM410 283q0 212 -92 212t-92 -212q0 -196 92 -196t92 196zM447 757q0 -41 -49 -68l-175 -96l-54 61l133 133q42 42 75 42t51.5 -21t18.5 -51z" />
    <glyph glyph-name="ocircumflex" unicode="&#xf4;" horiz-adv-x="636" 
d="M588 270q0 -160 -92 -239q-72 -62 -178 -62t-178 62q-92 79 -92 239q0 154 92 236q75 65 178 65t178 -65q92 -82 92 -236zM410 283q0 212 -92 212t-92 -212q0 -196 92 -196t92 196zM524 648l-53 -60l-153 90l-153 -90l-53 60l154 153q25 25 52 25t52 -25z" />
    <glyph glyph-name="otilde" unicode="&#xf5;" horiz-adv-x="636" 
d="M588 270q0 -160 -92 -239q-72 -62 -178 -62t-178 62q-92 79 -92 239q0 154 92 236q75 65 178 65t178 -65q92 -82 92 -236zM410 283q0 212 -92 212t-92 -212q0 -196 92 -196t92 196zM516 782q-26 -173 -120 -173q-34 0 -95.5 24.5t-74.5 24.5q-12 0 -16 -12q-2 -5 -7 -37
h-83q26 173 120 173q35 0 97.5 -24.5t72.5 -24.5q12 0 16 12q2 5 7 37h83z" />
    <glyph glyph-name="odieresis" unicode="&#xf6;" horiz-adv-x="636" 
d="M588 270q0 -160 -92 -239q-72 -62 -178 -62t-178 62q-92 79 -92 239q0 154 92 236q75 65 178 65t178 -65q92 -82 92 -236zM410 283q0 212 -92 212t-92 -212q0 -196 92 -196t92 196zM530 694q0 -35 -25.5 -60.5t-60.5 -25.5t-59.5 25.5t-24.5 60.5t24.5 60t59.5 25
t60.5 -25t25.5 -60zM276 694q0 -35 -25 -60.5t-60 -25.5t-60 25.5t-25 60.5t25 60t60 25t60 -25t25 -60z" />
    <glyph glyph-name="divide" unicode="&#xf7;" 
 />
    <glyph glyph-name="oslash" unicode="&#xf8;" horiz-adv-x="650" 
d="M416 325l-141 -217q21 -21 50 -21q92 0 92 196q0 28 -1 42zM234 247l145 221q-21 27 -54 27q-92 0 -92 -212q0 -24 1 -36zM114 65q-59 79 -59 205q0 154 92 236q75 65 178 65q54 0 107 -22l35 53l92 -58l-37 -57q73 -80 73 -217q0 -160 -92 -239q-72 -62 -178 -62
q-68 0 -123 27l-38 -58l-94 60z" />
    <glyph glyph-name="ugrave" unicode="&#xf9;" horiz-adv-x="667" 
d="M399 555h183v-487q0 -35 -27.5 -61.5t-64.5 -26.5q-54 0 -80 46q-46 -57 -140 -57q-157 0 -177 146q-3 22 -3 46v318h-75v76h258v-443q0 -67 48 -67q36 0 57 35.5t21 94.5v380zM459 654l-54 -61l-175 96q-49 27 -49 68q0 30 18.5 51t51.5 21t75 -42z" />
    <glyph glyph-name="uacute" unicode="&#xfa;" horiz-adv-x="667" 
d="M399 555h183v-487q0 -35 -27.5 -61.5t-64.5 -26.5q-54 0 -80 46q-46 -57 -140 -57q-157 0 -177 146q-3 22 -3 46v318h-75v76h258v-443q0 -67 48 -67q36 0 57 35.5t21 94.5v380zM491 757q0 -41 -49 -68l-175 -96l-54 61l133 133q42 42 75 42t51.5 -21t18.5 -51z" />
    <glyph glyph-name="ucircumflex" unicode="&#xfb;" horiz-adv-x="667" 
d="M399 555h183v-487q0 -35 -27.5 -61.5t-64.5 -26.5q-54 0 -80 46q-46 -57 -140 -57q-157 0 -177 146q-3 22 -3 46v318h-75v76h258v-443q0 -67 48 -67q36 0 57 35.5t21 94.5v380zM541 648l-53 -60l-153 90l-153 -90l-53 60l154 153q25 25 52 25t52 -25z" />
    <glyph glyph-name="udieresis" unicode="&#xfc;" horiz-adv-x="667" 
d="M399 555h183v-487q0 -35 -27.5 -61.5t-64.5 -26.5q-54 0 -80 46q-46 -57 -140 -57q-157 0 -177 146q-3 22 -3 46v318h-75v76h258v-443q0 -67 48 -67q36 0 57 35.5t21 94.5v380zM547 694q0 -35 -25.5 -60.5t-60.5 -25.5t-59.5 25.5t-24.5 60.5t24.5 60t59.5 25t60.5 -25
t25.5 -60zM293 694q0 -35 -25 -60.5t-60 -25.5t-60 25.5t-25 60.5t25 60t60 25t60 -25t25 -60z" />
    <glyph glyph-name="yacute" unicode="&#xfd;" horiz-adv-x="628" 
d="M224 33l8 22l-214 500h197l100 -298l107 298h226v-76h-79l-190 -445h-73q-34 -95 -69 -134q-42 -46 -111 -46q-55 0 -90 33t-35 76q0 37 21 59.5t58 22.5q36 0 55 -22q16 -19 16 -46q0 -10 -3 -20t-3 -13q0 -14 14 -14q28 0 65 103zM446 757q0 -41 -49 -68l-175 -96
l-54 61l133 133q42 42 75 42t51.5 -21t18.5 -51z" />
    <glyph glyph-name="thorn" unicode="&#xfe;" horiz-adv-x="658" 
d="M427 273q0 100 -30 161t-77 61q-29 0 -50 -17v-375q22 -58 59 -58q38 0 66 54q32 63 32 174zM610 274q0 -156 -93 -238q-75 -67 -182 -67q-34 0 -65 9v-127h81v-76h-349v76h85v820q0 38 26.5 64.5t64.5 26.5t65 -26.5t27 -64.5v-106q29 6 63 6q100 0 179 -65
q98 -82 98 -232z" />
    <glyph glyph-name="ydieresis" unicode="&#xff;" horiz-adv-x="628" 
d="M224 33l8 22l-214 500h197l100 -298l107 298h226v-76h-79l-190 -445h-73q-34 -95 -69 -134q-42 -46 -111 -46q-55 0 -90 33t-35 76q0 37 21 59.5t58 22.5q36 0 55 -22q16 -19 16 -46q0 -10 -3 -20t-3 -13q0 -14 14 -14q28 0 65 103zM531 694q0 -35 -25.5 -60.5
t-60.5 -25.5t-59.5 25.5t-24.5 60.5t24.5 60t59.5 25t60.5 -25t25.5 -60zM277 694q0 -35 -25 -60.5t-60 -25.5t-60 25.5t-25 60.5t25 60t60 25t60 -25t25 -60z" />
    <glyph glyph-name="dotlessi" unicode="&#x131;" horiz-adv-x="530" 
d="M527 0h-510v157h167v322h-82v76h266v-398h159v-157z" />
    <glyph glyph-name="Lslash" unicode="&#x141;" horiz-adv-x="703" 
d="M328 403v-263h75q79 0 111 24q44 34 60 139h74v-303h-503v251l-73 -61l-47 56l120 100v394h183v-242l74 62l47 -56z" />
    <glyph glyph-name="lslash" unicode="&#x142;" horiz-adv-x="479" 
d="M146 251l-74 -61l-47 56l121 100v259h-156v157h338v-264l74 62l47 -56l-121 -101v-250q0 -106 90 -106q33 0 61 13v-71q-47 -20 -107 -20q-74 0 -132 35q-64 39 -85 108q-9 30 -9 80v59z" />
    <glyph glyph-name="OE" unicode="&#x152;" horiz-adv-x="967" 
d="M432 380q0 140 -17 208q-23 90 -80 90t-80 -90q-17 -68 -17 -208q0 -139 17 -207q23 -89 80 -89t80 89q17 68 17 207zM843 740q32 0 55.5 -23.5t23.5 -55.5t-23.5 -55t-55.5 -23h-228v-138h60q54 0 72 17q13 13 13 47v38h76v-353h-76v46q0 35 -13 48q-18 18 -72 18h-60
v-149h314v-157h-458q-58 -34 -136 -34q-114 0 -183 70q-97 98 -97 324t97 324q69 70 183 70q54 0 91 -14h417z" />
    <glyph glyph-name="oe" unicode="&#x153;" horiz-adv-x="1005" 
d="M498 503q74 68 192 68q164 0 232 -146q33 -71 33 -176v-17h-364q6 -105 101 -105q38 0 90.5 20.5t73.5 20.5q37 0 58.5 -20.5t21.5 -55.5q0 -55 -59 -84q-80 -39 -191 -39q-115 0 -187 64q-74 -64 -181 -64q-106 0 -178 62q-92 79 -92 239q0 154 92 236q75 65 178 65
q106 0 180 -68zM769 350q-5 63 -28.5 104t-57.5 41q-36 0 -59 -39.5t-28 -105.5h173zM410 283q0 212 -92 212t-92 -212q0 -196 92 -196t92 196z" />
    <glyph glyph-name="Scaron" unicode="&#x160;" horiz-adv-x="654" 
d="M601 207q0 -103 -75.5 -172t-195.5 -69q-134 0 -248 103v224h76q11 -169 152 -169q45 0 76.5 20.5t31.5 58.5q0 36 -57 67l-144 78q-66 36 -96 72q-41 48 -41 119q0 99 67 157t185 58q102 0 214 -53v-192h-85q-19 88 -48 126q-33 43 -92 43q-36 0 -61.5 -23.5
t-25.5 -64.5q0 -61 79 -104l151 -82q71 -39 102 -80q35 -47 35 -117zM538 966l-154 -153q-25 -25 -52 -25t-52 25l-154 153l53 60l153 -90l153 90z" />
    <glyph glyph-name="scaron" unicode="&#x161;" horiz-adv-x="600" 
d="M542 154q0 -78 -68 -131.5t-159 -53.5q-137 0 -243 90v174h76q1 -62 45 -100q39 -35 92 -35q73 0 73 48q0 22 -17 34q-10 7 -44 18q-107 35 -154 70q-67 50 -67 127q0 74 52 123q56 53 149 53q42 0 76 -13v13h165v-228h-80q-32 96 -123 96q-56 0 -56 -35q0 -30 66 -51
q105 -33 149 -65q68 -50 68 -134zM502 781l-154 -153q-25 -25 -52 -25t-52 25l-154 153l53 60l153 -90l153 90z" />
    <glyph glyph-name="Ydieresis" unicode="&#x178;" horiz-adv-x="605" 
d="M627 664h-89l-161 -295l26 -55v-243q0 -37 -27 -64t-65 -27q-37 0 -64 27t-27 64v232l-220 437h324v-76h-86l99 -210l114 210h-89v76h265v-76zM531 879q0 -35 -25.5 -60.5t-60.5 -25.5t-59.5 25.5t-24.5 60.5t24.5 60t59.5 25t60.5 -25t25.5 -60zM277 879
q0 -35 -25 -60.5t-60 -25.5t-60 25.5t-25 60.5t25 60t60 25t60 -25t25 -60z" />
    <glyph glyph-name="Zcaron" unicode="&#x17d;" horiz-adv-x="624" 
d="M612 740l-324 -583h289v-157h-530v95l317 569h-99q-123 0 -127 -171h-76v247h550zM543 956l-154 -153q-25 -25 -52 -25t-52 25l-154 153l53 60l153 -90l153 90z" />
    <glyph glyph-name="zcaron" unicode="&#x17e;" horiz-adv-x="610" 
d="M567 0h-530v101l317 378h-102q-49 0 -70 -27t-26 -100h-76v203h474v-108l-242 -290h255v-157zM523 771l-154 -153q-25 -25 -52 -25t-52 25l-154 153l53 60l153 -90l153 90z" />
    <glyph glyph-name="florin" unicode="&#x192;" horiz-adv-x="560" 
d="M381 568l-2 -13h191v-157h-211l-39 -293q-40 -304 -262 -304q-72 0 -113 40q-33 33 -33 74q0 34 21 55.5t59 21.5q33 0 52 -18t19 -47q0 -5 -1.5 -11.5t-1.5 -8.5q0 -8 8 -8q17 0 33 31q18 35 26 95l49 373h-159v157h179l2 12q19 115 97 172q64 48 154 48q61 0 109 -25
q60 -31 60 -88q0 -35 -20 -56t-54 -21q-77 0 -77 65q0 9 2 20t2 15q0 14 -22 14q-46 0 -68 -143z" />
    <glyph glyph-name="circumflex" unicode="&#x2c6;" horiz-adv-x="505" 
d="M458 648l-53 -60l-153 90l-153 -90l-53 60l154 153q25 25 52 25t52 -25z" />
    <glyph glyph-name="caron" unicode="&#x2c7;" horiz-adv-x="505" 
d="M459 771l-154 -153q-25 -25 -52 -25t-52 25l-154 153l53 60l153 -90l153 90z" />
    <glyph glyph-name="breve" unicode="&#x2d8;" horiz-adv-x="476" 
d="M418 731q0 -55 -54.5 -96.5t-125.5 -41.5t-125.5 41.5t-54.5 96.5q0 35 18 63h92q-9 -15 -9 -34q0 -24 22.5 -39.5t56.5 -15.5t56.5 15.5t22.5 39.5q0 19 -9 34h92q18 -28 18 -63z" />
    <glyph glyph-name="dotaccent" unicode="&#x2d9;" horiz-adv-x="276" 
d="M223 694q0 -35 -25 -60.5t-60 -25.5t-60 25.5t-25 60.5t25 60t60 25t60 -25t25 -60z" />
    <glyph glyph-name="ring" unicode="&#x2da;" horiz-adv-x="344" 
d="M291 726q0 -49 -35 -83.5t-84 -34.5t-84 34.5t-35 83.5t35 84t84 35t84 -35t35 -84zM209 731q0 54 -37 54t-37 -54t37 -54t37 54z" />
    <glyph glyph-name="ogonek" unicode="&#x2db;" horiz-adv-x="407" 
d="M353 -197q-52 -52 -130 -52q-72 0 -120.5 40.5t-48.5 99.5q0 61 49 102t123 41v-64q-29 0 -47.5 -15t-18.5 -39q0 -23 18.5 -38t47.5 -15q66 0 68 66h59v-126z" />
    <glyph glyph-name="tilde" unicode="&#x2dc;" horiz-adv-x="462" 
d="M429 782q-26 -173 -120 -173q-34 0 -95.5 24.5t-74.5 24.5q-12 0 -16 -12q-2 -5 -7 -37h-83q26 173 120 173q35 0 97.5 -24.5t72.5 -24.5q12 0 16 12q2 5 7 37h83z" />
    <glyph glyph-name="hungarumlaut" unicode="&#x2dd;" horiz-adv-x="631" 
d="M318 756q0 -39 -49 -68l-161 -95l-60 68l125 125q42 42 75 42t51.5 -21t18.5 -51zM583 756q0 -39 -49 -68l-161 -95l-60 68l125 125q42 42 75 42t51.5 -21t18.5 -51z" />
    <glyph glyph-name="Delta" unicode="&#x394;" 
 />
    <glyph glyph-name="Delta" unicode="&#x2206;" 
 />
    <glyph glyph-name="Omega" unicode="&#x3a9;" 
 />
    <glyph glyph-name="Omega" unicode="&#x2126;" 
 />
    <glyph glyph-name="pi" unicode="&#x3c0;" 
 />
    <glyph glyph-name="endash" unicode="&#x2013;" horiz-adv-x="700" 
d="M620 280h-540v157h540v-157z" />
    <glyph glyph-name="emdash" unicode="&#x2014;" horiz-adv-x="1160" 
d="M1080 280h-1000v157h1000v-157z" />
    <glyph glyph-name="quoteleft" unicode="&#x2018;" horiz-adv-x="430" 
d="M303 759l27 -66q-11 -2 -43 -12q-66 -26 -66 -85q0 -24 8 -42q7 1 13 1q44 0 73 -30t29 -70q0 -49 -32 -81t-85 -32q-63 0 -102.5 51t-39.5 127q0 114 83 179q64 50 135 60z" />
    <glyph glyph-name="quoteright" unicode="&#x2019;" horiz-adv-x="430" 
d="M127 337l-27 66q11 2 43 12q66 26 66 85q0 24 -8 42q-6 -1 -13 -1q-44 0 -73 30t-29 70q0 49 32 81t85 32q63 0 102.5 -51t39.5 -127q0 -114 -83 -179q-64 -50 -135 -60z" />
    <glyph glyph-name="quotesinglbase" unicode="&#x201a;" horiz-adv-x="670" 
d="M615 360q0 -220 -97 -320q-71 -74 -183 -74t-183 74q-97 100 -97 320q0 226 97 324q69 70 183 70t183 -70q97 -98 97 -324zM433 380q0 140 -18 209q-23 89 -80 89t-80 -89q-18 -69 -18 -209q0 -139 18 -208q23 -88 80 -88t80 88q18 69 18 208z" />
    <glyph glyph-name="quotedblleft" unicode="&#x201c;" horiz-adv-x="763" 
d="M636 759l27 -66q-11 -2 -43 -12q-66 -26 -66 -85q0 -24 8 -42q7 1 13 1q44 0 73 -30t29 -70q0 -49 -32 -81t-85 -32q-63 0 -102.5 51t-39.5 127q0 114 83 179q64 50 135 60zM303 759l27 -66q-11 -2 -43 -12q-66 -26 -66 -85q0 -24 8 -42q7 1 13 1q44 0 73 -30t29 -70
q0 -49 -32 -81t-85 -32q-63 0 -102.5 51t-39.5 127q0 114 83 179q64 50 135 60z" />
    <glyph glyph-name="quotedblright" unicode="&#x201d;" horiz-adv-x="763" 
d="M127 337l-27 66q11 2 43 12q66 26 66 85q0 24 -8 42q-6 -1 -13 -1q-44 0 -73 30t-29 70q0 49 32 81t85 32q63 0 102.5 -51t39.5 -127q0 -114 -83 -179q-64 -50 -135 -60zM460 337l-27 66q11 2 43 12q66 26 66 85q0 24 -8 42q-6 -1 -13 -1q-44 0 -73 30t-29 70q0 49 32 81
t85 32q63 0 102.5 -51t39.5 -127q0 -114 -83 -179q-64 -50 -135 -60z" />
    <glyph glyph-name="quotedblbase" unicode="&#x201e;" horiz-adv-x="763" 
d="M127 -211l-27 66q11 2 43 12q66 26 66 85q0 24 -8 42q-6 -1 -13 -1q-44 0 -73 30t-29 70q0 49 32 81t85 32q63 0 102.5 -51t39.5 -127q0 -114 -83 -179q-64 -50 -135 -60zM460 -211l-27 66q11 2 43 12q66 26 66 85q0 24 -8 42q-6 -1 -13 -1q-44 0 -73 30t-29 70
q0 49 32 81t85 32q63 0 102.5 -51t39.5 -127q0 -114 -83 -179q-64 -50 -135 -60z" />
    <glyph glyph-name="dagger" unicode="&#x2020;" horiz-adv-x="725" 
d="M362 -225q-37 0 -64 26.5t-27 64.5v134l15 416h-35q-54 0 -72 -18q-13 -13 -13 -48v-46h-76v353h76v-38q0 -34 13 -47q18 -17 72 -17h35l-19 185h191l-19 -185h35q54 0 72 17q13 13 13 47v38h76v-353h-76v46q0 35 -13 48q-18 18 -72 18h-35l15 -416v-134q0 -37 -27 -64
t-65 -27z" />
    <glyph glyph-name="daggerdbl" unicode="&#x2021;" horiz-adv-x="641" 
d="M121 583v-80h-76v237h607q-147 -188 -212.5 -356t-78.5 -384h-184q20 346 160 583h-216z" />
    <glyph glyph-name="bullet" unicode="&#x2022;" horiz-adv-x="685" 
d="M343 615q106 0 181.5 -75.5t75.5 -181.5t-75.5 -181.5t-181.5 -75.5t-182 75.5t-76 181.5t76 181.5t182 75.5z" />
    <glyph glyph-name="ellipsis" unicode="&#x2026;" horiz-adv-x="1160" 
d="M1075 86q0 -49 -35 -84.5t-85 -35.5q-49 0 -84.5 35.5t-35.5 84.5q0 50 35.5 85t84.5 35q50 0 85 -35t35 -85zM700 86q0 -49 -35 -84.5t-85 -35.5q-49 0 -84.5 35.5t-35.5 84.5q0 50 35.5 85t84.5 35q50 0 85 -35t35 -85zM325 86q0 -49 -35 -84.5t-85 -35.5
q-49 0 -84.5 35.5t-35.5 84.5q0 50 35.5 85t84.5 35q50 0 85 -35t35 -85z" />
    <glyph glyph-name="perthousand" unicode="&#x2030;" horiz-adv-x="1349" 
d="M300 568q0 129 -53 129t-53 -129q0 -119 53 -119t53 119zM868 163q0 -103 -60 -154q-47 -40 -115 -40t-115 40q-60 51 -60 154q0 99 60 152q48 42 115 42t115 -42q60 -53 60 -152zM746 171q0 129 -53 129t-53 -129q0 -119 53 -119t53 119zM1277 163q0 -103 -60 -154
q-47 -40 -115 -40t-115 40q-60 51 -60 154q0 99 60 152q48 42 115 42t115 -42q60 -53 60 -152zM1155 171q0 129 -53 129t-53 -129q0 -119 53 -119t53 119zM420 597q2 -24 2 -37q0 -103 -60 -154q-47 -40 -115 -40t-115 40q-60 51 -60 154q0 83 42 134q35 41 91 55q21 5 52 5
h462l-401 -788h-100l321 631h-119z" />
    <glyph glyph-name="guilsinglleft" unicode="&#x2039;" horiz-adv-x="620" 
d="M112 311l254 353h-106q-56 0 -77 -38q-13 -25 -18 -89h-76v203h475v-100l-147 -204q79 -33 118 -97q33 -55 33 -121q0 -110 -81.5 -181t-205.5 -71q-111 0 -189 75q-61 59 -61 122q0 32 21.5 54.5t58.5 22.5q46 0 72 -47q39 -70 104 -70q43 0 70.5 24t27.5 62
q0 102 -163 102h-110z" />
    <glyph glyph-name="guilsinglright" unicode="&#x203a;" horiz-adv-x="690" 
d="M645 158h-76v91h-67v-179q0 -37 -27 -64t-65 -27q-37 0 -64 27t-27 64v115h-288v93l287 462h184v-415h67v90h76v-257zM319 325v249l-155 -249h155z" />
    <glyph glyph-name="fraction" unicode="&#x2044;" horiz-adv-x="570" 
d="M550 0h-510v157h167v430q-54 -25 -155 -51l-36 67q104 30 162 59q72 36 125 94l87 -30v-569h160v-157z" />
    <glyph glyph-name="trademark" unicode="&#x2122;" horiz-adv-x="875" 
d="M256 357q0 -23 -16.5 -39.5t-39.5 -16.5t-39.5 16.5t-16.5 39.5v286h-117v97h348v-97h-119v-286zM704 740h92v-376h52v-51h-164v207l-48 -105h-42l-47 104v-162q0 -23 -16.5 -39.5t-39.5 -16.5t-39.5 16.5t-16.5 39.5v383h90l90 -200z" />
    <glyph glyph-name="partialdiff" unicode="&#x2202;" horiz-adv-x="647" 
d="M597 636l-73 -27q58 -112 58 -304q0 -138 -53 -226q-68 -113 -214 -113q-123 0 -199 87q-68 79 -68 189q0 101 64 172q69 79 183 79q54 0 94 -15q0 40 -7 80l-78 -29l-25 69l81 30q-25 50 -74 50q-50 0 -102 -36l-17 73q62 40 146 40q98 0 170 -83l89 33zM313 417
q-88 0 -88 -167q0 -166 88 -166t88 166q0 167 -88 167z" />
    <glyph glyph-name="product" unicode="&#x220f;" 
 />
    <glyph glyph-name="summation" unicode="&#x2211;" 
 />
    <glyph glyph-name="radical" unicode="&#x221a;" horiz-adv-x="638" 
d="M551 540q0 -85 -68 -179l-148 -204h253v-157h-550v74l274 366q49 65 49 121q0 38 -23 70q-31 43 -92 43q-43 0 -69 -16.5t-26 -43.5q0 -25 19.5 -35.5t39.5 -20.5q20 -16 20 -49q0 -30 -22.5 -48t-57.5 -18q-44 0 -75 27q-37 32 -37 93q0 86 68.5 138.5t180.5 52.5
q114 0 187 -56q77 -59 77 -158z" />
    <glyph glyph-name="infinity" unicode="&#x221e;" horiz-adv-x="614" 
d="M155 740h241q37 0 52 9q24 14 42 61l83 -27q-26 -100 -64 -144q-49 -56 -141 -56h-171l-29 -128q61 43 142 43q111 0 183 -69q76 -73 76 -194q0 -113 -72 -189q-76 -80 -197 -80q-149 0 -271 174l151 100q62 -116 125 -116q39 0 62 33q20 29 20 72q0 54 -24 85
q-20 26 -50 26q-55 0 -98 -78l-162 27z" />
    <glyph glyph-name="integral" unicode="&#x222b;" 
 />
    <glyph glyph-name="approxequal" unicode="&#x2248;" 
 />
    <glyph glyph-name="approxequal" unicode="&#x22f2;" 
 />
    <glyph glyph-name="notequal" unicode="&#x2260;" 
 />
    <glyph glyph-name="lessequal" unicode="&#x2264;" horiz-adv-x="1100" 
d="M968 309q-49 -34 -136 -149q-24 -32 -51 -32q-47 0 -47 46q0 15 12 42l34 77h-690v130h690l-34 77q-12 27 -12 42q0 46 47 46q27 0 51 -32q43 -57 58 -75q42 -49 78 -74q25 -17 29 -21q13 -12 13 -28t-13 -28q-4 -4 -29 -21z" />
    <glyph glyph-name="greaterequal" unicode="&#x2265;" horiz-adv-x="410" 
d="M325 358q0 -49 -35 -84.5t-85 -35.5q-49 0 -84.5 35.5t-35.5 84.5q0 50 35.5 85t84.5 35q50 0 85 -35t35 -85z" />
    <glyph glyph-name="lozenge" unicode="&#x25ca;" 
 />
    <glyph glyph-name="apple" unicode="&#xf000;" 
 />
    <glyph glyph-name="fi" unicode="&#xf001;" horiz-adv-x="1046" 
d="M901 708q0 -45 -32.5 -76.5t-79.5 -31.5t-79 31.5t-32 76.5q0 44 32 75t79 31t79.5 -31t32.5 -75zM1043 0h-510v157h167v241h-347v-547h76v-76h-259v623h-166v157h166v7q0 69 25 115q29 54 87 83q52 27 110 27q65 0 111 -20v-80q-28 8 -61 8q-89 0 -89 -116v-24h531v-398
h159v-157z" />
    <glyph glyph-name="fl" unicode="&#xf002;" horiz-adv-x="1002" 
d="M686 192v438h-191q0 81 -66 81q-76 0 -76 -111v-45h205v-157h-205v-547h76v-76h-259v623h-166v157h166v7q0 69 25 115q29 54 87 83q52 27 110 27h476v-634q0 -106 90 -106q33 0 61 13v-71q-47 -20 -107 -20q-74 0 -132 35q-64 39 -85 108q-9 30 -9 80z" />
    <glyph glyph-name=".null" 
 />
    <glyph glyph-name="HT" 
 />
    <glyph glyph-name="LF" 
 />
    <glyph glyph-name="nonmarkingreturn" 
 />
    <glyph glyph-name="DLE" 
 />
    <glyph glyph-name="DC1" 
 />
    <glyph glyph-name="DC2" 
 />
    <glyph glyph-name="DC3" 
 />
    <glyph glyph-name="DC4" 
 />
    <glyph glyph-name="RS" 
 />
    <glyph glyph-name="US" 
 />
    <glyph glyph-name="DEL" 
 />
    <glyph glyph-name="glyph259" horiz-adv-x="500" 
 />
    </font>
</defs>
</svg>
