<?xml version="1.0" standalone="no"?>
<!DOCTYPE svg PUBLIC "-//W3C//DTD SVG 1.1//EN" "http://www.w3.org/Graphics/SVG/1.1/DTD/svg11.dtd" >
<svg xmlns="http://www.w3.org/2000/svg" xmlns:xlink="http://www.w3.org/1999/xlink" version="1.1">
<metadata>
Created by FontForge 20170731 at Tue Sep 16 18:56:22 2014
 By Aleksey,,,
Generated by Fontographer 3.5
</metadata>
<defs>
<font id="Nailfont" horiz-adv-x="150" >
  <font-face 
    font-family="Nailfont"
    font-weight="400"
    font-stretch="normal"
    units-per-em="1000"
    panose-1="0 0 0 0 0 0 0 0 0 0"
    ascent="800"
    descent="-200"
    x-height="587"
    cap-height="835"
    bbox="-22 -199.32 868.909 878.143"
    underline-thickness="17"
    underline-position="-125"
    unicode-range="U+000D-201D"
  />
<missing-glyph horiz-adv-x="500" 
 />
    <glyph glyph-name=".notdef" horiz-adv-x="500" 
 />
    <glyph glyph-name=".null" horiz-adv-x="0" 
 />
    <glyph glyph-name=".null" horiz-adv-x="0" 
 />
    <glyph glyph-name="nonmarkingreturn" unicode="&#xd;" horiz-adv-x="250" 
 />
    <glyph glyph-name="space" unicode=" " horiz-adv-x="415" 
 />
    <glyph glyph-name="exclam" unicode="!" 
d="M126 742q-4 -74 -7 -135.5t-5 -120.5t-4 -120t-5 -135q-1 -22 -6 -32.5t-10.5 -10.5t-10.5 11t-5 33q-1 74 -2 135t-2.5 119t-3.5 119t-5 135q-1 30 9.5 45.5t24 16t24 -14.5t8.5 -45zM123 64q0 -7 -2 -17t-7 -19t-12.5 -15.5t-17.5 -6.5q-16 0 -27 17t-11 37
q0 19 9.5 36.5t29.5 17.5q19 0 28 -17t10 -33z" />
    <glyph glyph-name="quotedbl" unicode="&#x22;" horiz-adv-x="331" 
d="M272 668q-11 -38 -26.5 -64t-37.5 -51q-4 -4 -9 -6t-8 -0.5t-3 6.5t6 14q14 20 27.5 45.5t13.5 57.5q0 8 -1 20t-13 23q-14 12 -26 23t-12 31t10.5 35.5t24.5 17.5q24 2 37 -16t18 -43.5t4 -52t-5 -40.5zM136 668q-11 -38 -26.5 -64t-37.5 -51q-4 -4 -9 -6t-8 -0.5
t-3 6.5t6 14q14 20 27.5 45.5t13.5 57.5q0 8 -1.5 20t-12.5 23q-14 12 -26.5 23t-12.5 31t11 35.5t25 17.5q24 2 37 -16t18 -43.5t4 -52t-5 -40.5z" />
    <glyph glyph-name="ampersand" unicode="&#x26;" horiz-adv-x="623" 
d="M596 134q-3 -11 -9.5 -26.5t-17 -31.5t-24.5 -31.5t-32 -27.5q-22 -15 -40.5 -13.5t-32.5 14.5q-20 18 -33 36.5t-24 38.5q-8 14 -11 14.5t-13 -9.5q-16 -16 -33.5 -32.5t-37.5 -30.5t-43 -23t-49 -9q-42 0 -71.5 19t-48 50t-27.5 69.5t-9 77.5q0 41 14 78.5t35 70
t45.5 58t43.5 42.5q6 6 5.5 10t-10.5 18q0 1 -10.5 16t-22.5 37.5t-22 49t-10 50.5q1 33 15 66.5t33.5 60t41.5 42.5t39 15q52 -3 82 -41.5t37 -90.5q4 -27 -5.5 -53t-24 -48.5t-30.5 -39t-25 -24.5q-8 -6 -6.5 -13t7.5 -18l136 -255q5 -7 9 -5t6 7q13 27 21.5 51t15 46.5
t12.5 45t13 48.5q7 27 -5.5 50t-34.5 28q-9 2 -18 1.5t-16.5 0t-12.5 3t-6 9.5q-2 11 6.5 12.5t14.5 1.5q22 1 38.5 1.5t32.5 1.5t33.5 2t40.5 2q6 1 12.5 -1.5t8.5 -8.5q3 -7 -4.5 -11.5t-11.5 -10.5q-6 -7 -11 -11t-9 -12q-19 -42 -31 -74.5t-23.5 -64.5t-24 -66
t-32.5 -79q-5 -11 -2.5 -21t8.5 -22q8 -15 15.5 -31.5t16.5 -29.5t21 -20.5t29 -4.5q22 4 33.5 17.5t22.5 32.5q9 16 17 16t3 -20zM276 730q-7 11 -15.5 22t-17.5 19.5t-19 11.5t-22 -3q-26 -13 -37 -35.5t-3 -56.5q5 -20 18 -43.5t26 -43.5q16 -24 35 -47q7 -4 9.5 -2.5
t8.5 7.5q38 38 40.5 85.5t-23.5 85.5zM207 435q-7 14 -10.5 15t-11.5 -10q-22 -29 -41 -62.5t-28.5 -69.5t-7 -73t22.5 -73q12 -22 26.5 -42.5t32.5 -34.5t39.5 -20t46.5 1q20 6 38.5 23.5t36.5 40.5q5 7 6 9t-4 12z" />
    <glyph glyph-name="quotesingle" unicode="'" horiz-adv-x="210" 
d="M141 682q-11 -38 -26.5 -64t-37.5 -51q-4 -4 -9 -6t-8 -0.5t-3 6.5t6 14q14 20 27.5 45.5t13.5 57.5q0 8 -1.5 20t-12.5 23q-14 13 -26.5 23.5t-12.5 30.5t11 35.5t25 17.5q24 2 37 -16t18 -43.5t4 -52t-5 -40.5z" />
    <glyph glyph-name="parenleft" unicode="(" horiz-adv-x="233" 
d="M180 735q-42 -71 -65 -161.5t-25 -200.5q-1 -54 3.5 -99.5t14 -87.5t24 -84t32.5 -90q5 -12 6.5 -22.5t-0.5 -14t-7.5 1t-16.5 22.5q-26 44 -45.5 86.5t-32.5 87.5t-18.5 93.5t-4.5 104.5q2 118 30.5 215t90.5 168q2 2 9.5 7.5t12.5 6.5t5 -5.5t-13 -27.5z" />
    <glyph glyph-name="parenright" unicode=")" horiz-adv-x="233" 
d="M204 371q1 -56 -4.5 -104.5t-18.5 -93.5t-32.5 -87.5t-45.5 -86.5q-10 -18 -16 -22.5t-8 -1t-0.5 14t6.5 22.5q18 48 32.5 90t24 84t14 87.5t3.5 99.5q-2 110 -25 200.5t-65 161.5q-13 21 -13 27.5t5 5.5t12.5 -6.5t9.5 -7.5q62 -71 90.5 -168t30.5 -215z" />
    <glyph glyph-name="comma" unicode="," horiz-adv-x="210" 
d="M141 -50q-11 -38 -26.5 -64t-37.5 -51q-4 -5 -9 -6.5t-8 0t-3 6.5t6 14q14 20 27.5 45.5t13.5 57.5q0 8 -1.5 20t-12.5 23q-14 13 -26.5 23.5t-12.5 30.5t11 35.5t25 17.5q24 2 37 -16t18 -43.5t4 -52t-5 -40.5z" />
    <glyph glyph-name="hyphen" unicode="-" horiz-adv-x="929" 
d="M866 452q4 -12 2.5 -33.5t-7.5 -30.5h-824q-5 14 -5.5 33.5t7.5 30.5h827z" />
    <glyph glyph-name="period" unicode="." 
d="M103 59q0 -7 -2 -17t-7 -19t-12.5 -15.5t-17.5 -6.5q-16 0 -27 17t-11 37q0 19 9.5 36.5t29.5 17.5q19 0 28 -17t10 -33z" />
    <glyph glyph-name="slash" unicode="/" horiz-adv-x="191" 
d="M44 -17q-4 -2 -13.5 -2.5t-19.5 -0.5t-19.5 0.5t-13.5 2.5l171 870q11 4 31.5 4t31.5 -4z" />
    <glyph glyph-name="zero" unicode="0" horiz-adv-x="442" 
d="M412 432q0 -73 -7 -131t-18 -102t-25.5 -76t-29.5 -54q-36 -53 -81 -70l-8 33q27 22 49 71q19 44 33 116.5t12 192.5q-1 60 -4 128t-15 126t-37 96.5t-69 38.5q-37 0 -58 -39t-32 -97.5t-14.5 -126.5t-3.5 -127q-1 -124 11.5 -198.5t28.5 -114.5t29.5 -53.5l14.5 -14.5
q11 -9 18 -17q7 -6 11 -11t0 -4q-6 1 -13.5 2.5t-14.5 2.5t-15 2q-38 15 -70 64q-19 26 -30.5 54.5t-22 70t-18.5 96.5t-11 125q-3 66 8.5 139.5t35.5 135t60.5 101.5t82.5 40q60 0 99 -38t62 -96.5t32.5 -129t9.5 -135.5z" />
    <glyph glyph-name="one" unicode="1" horiz-adv-x="271" 
d="M228 148q0 -25 -12 -54t-26.5 -52t-26.5 -36.5t-12 -7.5v162v555q0 15 -6 18t-23 -6q-22 -9 -40 -18q-18 -8 -33 -16t-22 -14q-6 -5 -8 3v9l181 141q15 11 21.5 9.5t6.5 -26.5v-667z" />
    <glyph glyph-name="two" unicode="2" horiz-adv-x="417" 
d="M386 0h-305q-23 0 -38 14t-11 44q7 57 31 104t57 95q23 34 51 66.5t53 72.5t43.5 92.5t21.5 125.5q1 26 -5.5 54t-19.5 51.5t-30.5 38.5t-38.5 15q-32 0 -58 -25t-45 -55q-22 -36 -40 -81l-19 19q26 58 49 96t44.5 61t42 32.5t41.5 9.5q44 0 75 -20t49.5 -51.5t26.5 -69
t7 -71.5q-3 -72 -28 -128.5t-57.5 -98.5t-63.5 -70.5t-46 -44.5q-17 -18 -36 -51.5t-30.5 -66.5t-9.5 -57t27 -24h112q25 0 53.5 -12t52 -26.5t36.5 -26.5t8 -12z" />
    <glyph glyph-name="three" unicode="3" horiz-adv-x="417" 
d="M383 252q0 -46 -18 -91.5t-46 -82.5t-62.5 -60.5t-68.5 -25.5q-26 -2 -51 13t-45 35q-23 22 -44 51v38q19 -22 38 -41q18 -18 37.5 -33.5t38.5 -24.5q9 -3 19 -5q9 -2 18 -2t18 4q27 13 46 40.5t30 60t15 65.5t2 56q-4 34 -13.5 72t-29.5 68.5t-52.5 47t-80.5 7.5
q-8 -2 -18 -1t-11 9q-2 10 9 14.5t19 6.5q67 21 103.5 65.5t31.5 108.5q-1 22 -5.5 43t-13 38t-22.5 30t-35 18q-25 6 -49 -10t-42 -39.5t-28.5 -46t-9.5 -29.5q-8 4 -8.5 7.5t-8.5 9.5q20 47 44 84q14 22 25 35t24.5 23.5t29 17t31.5 6.5q32 -1 59 -13.5t47 -34t31 -50
t11 -60.5q-1 -43 -20 -75.5t-40.5 -55.5t-38 -37.5t-12.5 -22.5q-3 -5 6 -6t25 -4.5t36 -13.5t37 -34t29 -66t13 -109z" />
    <glyph glyph-name="four" unicode="4" horiz-adv-x="466" 
d="M427 299q-5 -23 -20 -27.5t-25 -4.5q-16 0 -27 -6.5t-11 -35.5v-77q0 -25 -12 -54t-26.5 -52t-26.5 -36.5t-12 -7.5v222q0 9 -0.5 17.5t-4 15t-13 10.5t-27.5 4h-144q-12 0 -24 3t-19.5 10.5t-8.5 20.5t10 32l266 484q4 7 11 12t14 4.5t12 -7t5 -21.5v-426q0 -47 48 -46
q12 0 20.5 14t14.5 30q6 19 10 43l15 -5zM267 661q0 21 -7.5 26.5t-18.5 -13.5l-155 -299q-4 -8 -6.5 -15.5t-1 -13.5t10 -9.5t26.5 -3.5h100q32 0 42 10.5t10 39.5v278z" />
    <glyph glyph-name="five" unicode="5" horiz-adv-x="407" 
d="M388 290q0 -49 -12 -100.5t-39 -93.5t-69.5 -68.5t-103.5 -26.5q-28 0 -54.5 17.5t-47.5 38.5q-25 24 -48 55l9 31q24 -32 50 -58q24 -23 51.5 -39.5t55.5 -15.5q37 2 62 24t40 56.5t20 75.5t3 80q-2 30 -10 61t-21 57t-29.5 44t-34.5 23q-25 6 -49 5.5t-46 -14.5
q-15 -9 -23.5 -7.5t-12 8.5t-4 16.5t-0.5 16.5l14 328q0 14 3 20.5t7.5 8.5t11.5 1.5t16 -0.5h170q37 0 46 37q2 10 8 6t5 -10q-1 -4 -2 -17t-3 -27q-1 -16 -3 -35q-2 -22 -21 -31.5t-42 -9.5h-121q-32 0 -39 -9.5t-8 -27.5l-5 -171v-14t2.5 -12t9 -7.5t19.5 0.5
q35 8 77.5 1t80 -32t62.5 -70t25 -115z" />
    <glyph glyph-name="six" unicode="6" horiz-adv-x="500" 
d="M426 259q-1 -53 -14.5 -101.5t-37.5 -85t-59 -58.5t-81 -22q-63 0 -100 36.5t-55.5 93.5t-22 125.5t-0.5 132.5q3 75 18.5 134t39 105t52 80t58.5 58q69 56 155 77l-4 -27q-68 -18 -123 -68q-33 -27 -52 -56.5t-36 -71t-28.5 -96t-13.5 -124.5q-1 -56 4 -117.5t19.5 -114
t38 -88.5t57.5 -40q15 -2 30.5 0.5t26.5 9.5q24 15 37 42.5t19 58t7.5 60.5t1.5 49q0 29 -8 64.5t-22.5 67t-35 52.5t-46.5 22q-16 1 -33.5 -7.5t-33.5 -18.5q-18 -12 -35 -27v25q17 24 39 43q19 18 43.5 30.5t53.5 12.5q38 -1 65 -25t44 -61t25 -82t7 -88z" />
    <glyph glyph-name="seven" unicode="7" horiz-adv-x="459" 
d="M417 754q-24 -54 -47 -109q-13 -31 -22 -54t-18.5 -48t-18.5 -50t-16 -48q-32 -106 -50.5 -195.5t-23.5 -181.5q-2 -26 -12.5 -47.5t-38.5 -21.5q-23 0 -34 22t-11 45q0 30 8 72.5t23 91t36 100t46 100.5q14 26 35 69.5t41 85.5q24 50 49 104q14 27 5.5 42t-25.5 15h-147
q-39 0 -73.5 19t-84.5 52q-11 8 -3 11t24.5 4.5t36.5 1t33 -0.5h256q14 0 22.5 -7.5t12.5 -19t3.5 -25.5t-6.5 -27z" />
    <glyph glyph-name="eight" unicode="8" horiz-adv-x="433" 
d="M410 197q-3 -42 -17 -78.5t-37.5 -64t-56 -43t-71.5 -15.5q-42 0 -77 16.5t-60.5 43.5t-40 62t-13.5 72q0 36 6.5 62.5t17 47.5t25 37.5t30.5 32.5l22.5 22.5t24.5 13.5q3 0 1.5 -5.5t-6 -14.5l-9.5 -19t-8 -18q-9 -24 -15.5 -41t-10.5 -34.5t-6 -38t-2 -51.5
q0 -26 7.5 -55.5t23 -53.5t39 -40t53.5 -15q28 1 49.5 16t36 38.5t22 53t6.5 59.5q0 38 -14 65t-40 55q-20 22 -47.5 46t-54.5 49.5t-50.5 53t-37.5 55.5q-22 44 -31 85.5t-3 75.5t20 65t36 54t50.5 36.5t63.5 11.5q33 -1 60.5 -16.5t47.5 -39.5t31.5 -53.5t12.5 -58.5
q2 -41 -3 -68.5t-25 -59.5q-11 -17 -32.5 -38t-53.5 -24q-3 0 0 5.5t8 13.5t11.5 17.5t9.5 17.5q14 33 18.5 58t3.5 61q0 29 -7 58.5t-19 53.5t-28.5 39.5t-36.5 15.5q-26 0 -45.5 -13t-32.5 -34t-19.5 -47t-6.5 -52q0 -34 9 -66.5t35 -64.5q12 -16 33 -35.5t45.5 -42.5
t52 -49.5t52.5 -56.5q33 -38 44.5 -81.5t8.5 -81.5z" />
    <glyph glyph-name="nine" unicode="9" horiz-adv-x="476" 
d="M402 502q-1 -90 -14 -167t-42.5 -139.5t-79 -111.5t-124.5 -84q-17 -8 -32 -9t-40 0l-5 31q10 0 19 1t17 2t14 4q68 32 107 82.5t59 112t26 132t8 142.5q1 47 -3 100.5t-16.5 99t-35 75.5t-58.5 29q-38 -1 -62 -22t-36.5 -55t-16 -77t-1.5 -88q2 -33 12.5 -66.5t27 -61
t37.5 -45t44 -18.5q16 0 30 8t25 18q12 12 23 27l12 -37q-20 -24 -42 -42q-21 -17 -43 -29t-45 -10q-31 2 -56.5 22.5t-44 53t-29.5 75t-13 89.5q-1 32 8.5 82.5t32 98t58 82t86.5 34.5t88 -31.5t60.5 -80t34.5 -108.5t10 -119z" />
    <glyph glyph-name="colon" unicode=":" 
d="M103 502q0 -7 -2 -17t-7 -19t-12.5 -15.5t-17.5 -6.5q-16 0 -27 17t-11 37t9.5 37t29.5 17q19 0 28 -16.5t10 -33.5zM103 59q0 -7 -2 -17t-7 -19t-12.5 -15.5t-17.5 -6.5q-16 0 -27 17t-11 37q0 19 9.5 36.5t29.5 17.5q19 0 28 -17t10 -33z" />
    <glyph glyph-name="semicolon" unicode=";" horiz-adv-x="128" 
d="M103 502q0 -7 -2 -17t-7 -19t-12.5 -15.5t-17.5 -6.5q-16 0 -27 17t-11 37t9.5 37t29.5 17q19 0 28 -16.5t10 -33.5zM106 -50q-11 -38 -26.5 -64t-37.5 -51q-4 -5 -9 -6.5t-8 0t-3 6.5t6 14q14 20 27.5 45.5t13.5 57.5q0 8 -1 20t-13 23q-14 13 -26 23.5t-12 30.5
t10.5 35.5t24.5 17.5q24 2 37 -16t18 -43.5t4 -52t-5 -40.5z" />
    <glyph glyph-name="question" unicode="?" horiz-adv-x="302" 
d="M253 593q5 -31 3 -67.5t-10.5 -69t-23.5 -56t-36 -28.5t-34.5 -8.5t-21 -8.5t-11 -12t-3.5 -19q-1 -29 -0.5 -52.5t0.5 -57.5q0 -12 -4.5 -18t-9.5 -6t-9.5 6t-4.5 19v47v41.5v41.5v47q0 29 2.5 42t7.5 17t13 3t21 0q40 4 60 17t28 32.5t8 43.5t-1 49q-1 19 -5.5 40
t-13.5 38.5t-21 29t-28 11.5q-23 0 -36.5 -13.5t-32.5 -28.5q-26 -21 -41.5 -18t-23 18t-6.5 35t8 32q14 25 35 36.5t57 11.5q31 0 54 -17t38.5 -44.5t25.5 -62.5t16 -71zM140 62q0 -7 -2 -17t-7 -19t-12.5 -15.5t-17.5 -6.5q-16 0 -27 17t-11 37t9.5 37t29.5 17
q19 0 28 -16.5t10 -33.5z" />
    <glyph glyph-name="A" unicode="A" horiz-adv-x="546" 
d="M521 -8q-1 -5 -16.5 6t-34.5 30.5t-37 43t-25 43.5l-41 153q-5 17 -11.5 33t-28.5 16h-120q-19 0 -37 -0.5t-24 -21.5l-73 -297h-28l153 639l12 48t10.5 44t7 35t0.5 19q-4 12 -15.5 18.5t-24 10.5t-22 6.5t-9.5 8.5q0 5 21.5 6t46.5 0q29 -1 67 -3q9 0 11.5 -7.5
t4.5 -15.5l34 -126l140 -526zM267 684q-3 13 -12.5 17.5t-14.5 -17.5l-75 -301q-2 -12 5.5 -22.5t19.5 -10.5h125q14 0 19.5 13t2.5 27z" />
    <glyph glyph-name="B" unicode="B" horiz-adv-x="565" 
d="M530 212q0 -40 -11 -75.5t-32 -63.5t-53 -47t-75 -26q-23 -4 -57.5 -8t-64.5 6l-3 23q23 -7 48.5 -6.5t52.5 10.5q55 20 82 61t27 97q0 13 1 36.5t-3 51t-15.5 55.5t-36 50t-65.5 34.5t-103 8.5q-10 1 -17 -2t-12 -10t-5 -21v-239q0 -25 -12 -53.5t-26.5 -52t-26.5 -36.5
t-12 -8v162v542q0 32 -7.5 56t-33.5 45q-8 6 -19 10t-21 6t-17 3.5t-7 4.5q0 5 6 7t15.5 2.5t21 0t21.5 0.5h240q17 0 46.5 -11t58 -35t50.5 -61.5t24 -89.5q2 -47 -7 -78.5t-22.5 -51t-29.5 -30t-30 -17t-23.5 -10.5t-8.5 -12q1 -7 13 -13.5t30.5 -15.5t39 -23t38.5 -37
t29.5 -56.5t11.5 -82.5zM409 577q-1 82 -15 130.5t-36.5 73t-51.5 31t-60 5.5q-29 0 -43.5 -24t-14.5 -54v-245q0 -25 10 -36t26 -13q62 -7 98.5 9t55.5 40.5t25 49t6 33.5z" />
    <glyph glyph-name="C" unicode="C" horiz-adv-x="632" 
d="M588 183q-26 -60 -68 -103q-24 -27 -45.5 -41.5t-49.5 -25t-62.5 -15t-75.5 1.5q-55 8 -100.5 47t-77 97t-49 128t-17.5 140q0 75 21 153t59 140t91 101t117 36q31 -1 61.5 -11.5t55.5 -22.5q30 -14 57 -31q11 -10 18 -5t12 15t8.5 20t5.5 10q5 0 4 -25.5t1 -71.5
q1 -18 3.5 -40t4.5 -40.5t2 -31.5t-5 -14q-5 0 -9 8.5t-8 20t-7 23.5t-6 18q-7 17 -24.5 43t-42.5 50t-57 41t-67 17q-64 0 -104.5 -34.5t-64 -88t-33 -118.5t-11.5 -127q-2 -49 9.5 -113t35.5 -123.5t59.5 -105.5t81.5 -59q31 -9 58 -8t51 9.5t44.5 22t37.5 29.5
q39 36 69 89z" />
    <glyph glyph-name="D" unicode="D" horiz-adv-x="700" 
d="M661 445q-3 -107 -27 -188.5t-63.5 -137.5t-91.5 -86.5t-110 -34.5q-35 -3 -64 -5.5t-64 5.5l-1 22q23 -7 51 -4.5t56 7.5q75 16 118.5 59t66.5 93.5t30.5 99t10.5 76.5q4 43 2 95.5t-12.5 105.5t-31.5 102.5t-56 86t-85.5 55.5t-120.5 12q-21 0 -38 -5q-16 -5 -27 -15.5
t-11 -31.5v-94v-101v-101.5v-96.5v-216q0 -25 -12 -53.5t-26.5 -52t-26.5 -36.5t-12 -8v162v545q0 32 -7 55t-33 43q-7 5 -18 9t-21 7q-12 3 -25 5q-3 6 3 8.5t15.5 3t22 0.5h23.5h95q43 0 86.5 0.5t78.5 2.5q79 5 140 -33t103 -97t63 -130t19 -133z" />
    <glyph glyph-name="E" unicode="E" horiz-adv-x="561" 
d="M544 234q0 -29 -7 -61.5t-14 -83.5q-5 -39 -10.5 -58t-13 -26.5t-17 -7t-22.5 0.5h-125h-63h-54.5h-57.5h-55q-9 0 -20.5 -0.5t-21.5 -0.5t-17 1t-7 4q0 9 12 11.5t27 4.5t28 6t14 17q3 25 3 48v66v543q0 32 -7 57t-36 46q-8 6 -18.5 9t-20.5 5.5t-17 4t-7 4.5q2 5 8.5 7
t15.5 2t19.5 -0.5t19.5 -0.5h334q27 0 42.5 -2t23 -6.5t10 -12t3.5 -18.5q5 -47 9 -84q2 -23 3.5 -36t2 -24t0 -18.5t-1.5 -7.5q-3 -1 -8.5 15.5t-14.5 39.5t-22.5 47t-31.5 39q-39 32 -77.5 37.5t-88.5 0.5q-12 -1 -23 -1.5t-20 -6t-14.5 -19t-5.5 -40.5v-269
q0 -15 4.5 -20t32.5 -5h190v-29h-205q-17 0 -19.5 -12t-2.5 -25v-225v-50t6.5 -37t24 -24t53.5 -11q62 -4 100.5 8.5t63.5 36t40.5 56t31.5 68.5q3 6 7 17t7.5 19.5t6.5 10.5t3 -10z" />
    <glyph glyph-name="F" unicode="F" horiz-adv-x="515" 
d="M486 627q-3 -1 -8.5 15.5t-14.5 39.5t-22.5 47t-31.5 39q-39 31 -77 36.5t-89 0.5q-12 -1 -23 -1t-20 -5.5t-14.5 -19t-5.5 -40.5v-254v-15.5t3 -15t9.5 -11t19.5 -4.5h74q23 0 40 22.5t29 49.5t18.5 49t9.5 22q6 -1 5 -11t-1 -22v-138v-30.5v-26v-27t1 -34.5
q0 -14 -0.5 -26.5t-8.5 -10.5q-4 2 -6 25.5t-8.5 52t-19.5 52t-40 24.5h-83q-29 2 -35.5 -3t-6.5 -18q-1 -36 -1 -78v-78q0 -43 1 -85q0 -25 -12 -54t-26.5 -52t-26.5 -36.5t-12 -7.5v162v541q0 32 -7 57t-35 46q-8 6 -19 9.5t-20.5 5.5t-16.5 3.5t-7 4.5q2 10 22.5 9.5
t39.5 -0.5l334 -1q27 0 42.5 -2t23.5 -6.5t10 -11.5t3 -18q5 -47 9 -85q2 -22 3.5 -35t2 -24t0 -18.5t-1.5 -7.5z" />
    <glyph glyph-name="G" unicode="G" horiz-adv-x="638" 
d="M584 712q0 -25 0.5 -47.5t1 -39.5t-0.5 -27.5t-5 -10.5q-4 -1 -6.5 6.5t-4.5 18.5t-4.5 24t-6.5 23q-15 32 -32.5 60t-40 50t-50.5 35t-63 15q-64 3 -106 -29t-68.5 -84.5t-39 -117t-18.5 -126.5q-4 -49 3.5 -117t27 -132t51.5 -114.5t77 -65.5q26 -9 59 -5t63 17
t50.5 33t20.5 42l2 127v50v53v60q0 5 12 -8t26.5 -36.5t26.5 -52t12 -53.5v-20v-21v-26q0 -29 0.5 -63t0.5 -63.5t-0.5 -49t-1.5 -19.5q-3 0 -8 8t-11 17.5t-12.5 16t-11.5 3.5q-14 -7 -41 -17t-60.5 -17t-69.5 -7.5t-69 9.5q-59 19 -104 60.5t-74 98.5t-42.5 124.5
t-9.5 137.5q4 75 29 151.5t66.5 136.5t96.5 96t119 31q29 -3 59 -15t54 -25q29 -16 55 -35q12 2 19 8.5t11.5 13t8 11t8.5 4.5v-26q0 -13 0.5 -30.5t0.5 -40.5z" />
    <glyph glyph-name="H" unicode="H" horiz-adv-x="702" 
d="M697 9q0 -5 -6 -6.5t-15.5 -2t-21 0t-21.5 -0.5h-94h-41h-28.5h-23h-12.5q-13 1 -28.5 0.5t-15.5 7.5q0 3 21 8t47 18q22 11 33.5 19.5t17 18.5t6 23.5t0.5 33.5v238q0 12 -3 24.5t-20 12.5h-277q-17 0 -19.5 -12.5t-2.5 -24.5v-219q0 -25 -12 -54t-27 -52t-27 -36.5
t-12 -7.5v162v542q0 32 -7 56t-34 45q-8 6 -19 10t-21 6t-17 3.5t-7 4.5q0 5 6 6.5t15.5 2t21 0t21.5 0.5h94h41h28.5h23h12.5q13 -1 28.5 -1t15.5 -8q0 -3 -21 -8t-47 -17q-22 -11 -33.5 -19.5t-16.5 -19t-5.5 -24t-0.5 -33.5v-248q0 -15 4.5 -20t32.5 -5h247q29 0 33.5 5
t4.5 20v230q0 25 12 53.5t26.5 52t26.5 36.5t12 8v-162v-542q0 -32 7.5 -56t33.5 -46q8 -6 19 -9.5t21 -5.5t17 -3.5t7 -4.5z" />
    <glyph glyph-name="I" unicode="I" horiz-adv-x="334" 
d="M330 827q0 -4 -21 -9t-47 -17q-22 -10 -33.5 -19t-16.5 -19.5t-5.5 -24t-0.5 -33.5v-558q0 -25 -12 -53.5t-26.5 -52t-26.5 -36.5t-12 -8v162v542q0 32 -7.5 56t-34.5 45q-8 6 -19 10t-21 6t-17 3.5t-7 4.5q0 5 6.5 6.5t16 2t20.5 0t21 0.5h94h41h28.5h23h12.5
q13 -1 28.5 -0.5t15.5 -7.5z" />
    <glyph glyph-name="J" unicode="J" horiz-adv-x="367" 
d="M340 827q0 -4 -21 -9t-47 -17q-22 -10 -33.5 -19t-16.5 -19.5t-5.5 -24t-0.5 -33.5v-558q-7 -48 -31 -84.5t-61 -53.5q-26 -12 -48.5 -10t-51.5 12l8 25q17 -8 34 -5t34 11q26 14 32.5 42t6.5 75v542q0 32 -7.5 56t-34.5 45q-8 6 -19 10t-21 6t-17 3.5t-7 4.5
q0 5 6.5 6.5t16 2t20.5 0t21 0.5h94h41h28.5h23h12.5q13 -1 28.5 -0.5t15.5 -7.5z" />
    <glyph glyph-name="K" unicode="K" horiz-adv-x="668" 
d="M646 8q1 -8 -13.5 -8h-25.5l-202 -1q-6 0 -14.5 -0.5t-15.5 0t-11 3t-3 8.5q1 3 11.5 4.5t25 4t28 8t20.5 15.5q3 4 6.5 19t-5.5 29q-56 87 -101 156q-27 42 -43.5 66.5t-30.5 45.5t-24.5 35t-12.5 15q-10 6 -24 5.5t-14 -14.5v-252q0 -25 -12 -53.5t-26.5 -52
t-26.5 -36.5t-12 -8v162v542q0 32 -7.5 56t-34.5 45q-8 6 -19 10t-21 6t-17 3.5t-7 4.5q0 5 6 6.5t15.5 2t21 0t21.5 0.5h94h41h28.5h23h12.5q13 -1 28.5 -0.5t15.5 -7.5q0 -4 -21 -9t-47 -17q-22 -10 -33.5 -19t-16.5 -19.5t-5.5 -24t-0.5 -33.5v-261q0 -12 9 -14t21 2
t24 12.5t17 16.5l173 279q8 14 6 24.5t-10 19t-18.5 14.5t-18.5 10q-13 6 -28 11t-15 10q0 2 8.5 3t22 2t30.5 1h35q42 0 96 -1q11 0 23.5 0.5t7.5 -7.5q-4 -5 -14.5 -10.5t-28.5 -20.5q-13 -10 -25.5 -20.5t-24.5 -28.5l-182 -282l242 -369q11 -17 18.5 -29.5t21.5 -26.5
q8 -7 18 -11.5t19 -8t15.5 -6.5t6.5 -6z" />
    <glyph glyph-name="L" unicode="L" horiz-adv-x="511" 
d="M487 207q3 0 1 -26.5t-5 -58.5q-4 -38 -9 -85q-1 -10 -3.5 -17.5t-10 -12t-23 -6.5t-42.5 -2l-334 -1q-19 0 -39.5 -0.5t-23.5 9.5q0 3 7 4.5t17 3.5t20.5 5.5t18.5 9.5q29 21 36 46t7 57v541v163q0 5 12 -8t26.5 -36.5t26.5 -52t12 -54.5v-591q0 -27 5.5 -40.5t14 -18.5
t20 -5.5t23.5 -1.5q50 -5 88.5 0.5t77.5 36.5q18 15 31.5 39t22.5 47t14.5 39.5t8.5 15.5z" />
    <glyph glyph-name="M" unicode="M" horiz-adv-x="691" 
d="M685 825q0 -3 -8.5 -3.5t-19 -2t-21 -5.5t-14.5 -12q-4 -7 -6.5 -12.5t-4 -12.5t-2 -17t-0.5 -26v-587q0 -25 -12 -53.5t-26.5 -52t-26.5 -36.5t-12 -8v162v542v27.5t-7 13.5q-8 0 -13 -15.5t-7 -25.5l-166 -660q-3 -11 -7 -26t-11 -15q-8 0 -12 16t-8 30l-166 651
q-3 13 -6 24t-6 12q-6 1 -7 -15t-1 -29v-688h-23q1 186 1 334q0 89 -0.5 142t-0.5 97.5t-0.5 75.5t-1.5 35q0 18 -1 37.5t-3 36t-5.5 28.5t-8.5 15q-9 6 -20 9.5t-20.5 5.5t-16.5 4t-7 5q0 5 6.5 6.5t16 1.5t20.5 -0.5t21 0.5h73q16 0 24.5 -4t12 -11t4.5 -15t3 -16
l137 -564q3 -12 8.5 -24.5t12.5 -12.5q5 0 11 15.5t10 29.5l139 570q8 32 40 32h75q10 0 21 0.5t20.5 0t15.5 -2.5t6 -7z" />
    <glyph glyph-name="N" unicode="N" horiz-adv-x="666" 
d="M670 826q0 -1 -6.5 -4.5t-16.5 -7t-22 -7.5t-23 -7t-25.5 -12.5t-14.5 -35.5v-686v-22.5t-1 -21.5t-3 -16t-5 -6q-4 0 -12.5 8.5t-18 22t-19.5 29.5t-18 31l-298 565q-5 8 -14.5 18.5t-12.5 10.5q-8 -1 -10.5 -7.5t-2.5 -14.5v-663h-23v685q0 37 -7.5 67t-36.5 50
q-9 6 -20 9t-20.5 5.5t-16.5 4t-7 4.5q0 5 7 6.5t16.5 2.5t20.5 0.5t20 -0.5h69q16 0 26 -5.5t16 -13.5t9.5 -17t6.5 -16l312 -562q4 -8 8.5 -16.5t11.5 -8.5v556q0 14 -6 23.5t-14 15.5t-16 9t-13 4q-9 3 -21 6t-22.5 5.5t-18 5t-7.5 5.5q0 5 6 6.5t15.5 2t21 0t21.5 0.5
h65h49.5h26.5q12 -1 28 -0.5t16 -7.5z" />
    <glyph glyph-name="O" unicode="O" horiz-adv-x="656" 
d="M610 444q0 -86 -14.5 -152t-36 -114t-46.5 -80.5t-47.5 -52.5t-39.5 -29t-21 -11l-21 29q-4 7 4.5 8.5t24 9t35 27t36.5 61.5t29 112.5t12 179.5q0 60 -8 126t-29 121t-58.5 91t-96.5 36q-55 0 -93 -33.5t-62 -89.5t-35 -129.5t-10 -151.5q0 -75 11 -130t27 -94t35 -64.5
t35 -41.5t27 -24.5t10 -14.5l-3 -40q0 -6 -17.5 4t-42.5 34t-54.5 60t-54.5 83.5t-41.5 105t-16.5 122.5q0 76 18 153t53 139.5t88 102.5t122 40t121.5 -38.5t88 -97t53.5 -127.5t18 -130z" />
    <glyph glyph-name="P" unicode="P" horiz-adv-x="529" 
d="M493 631q0 -61 -21 -102.5t-52 -68.5t-68 -41t-68 -19.5t-52 -4.5t-21 4v24q0 4 15 3t37 1t48 9t48 25.5t36.5 52t14.5 88.5q0 37 -6.5 74t-22.5 66.5t-42.5 48t-67.5 18.5q-18 0 -33 -1.5t-26 -8.5t-17.5 -20.5t-6.5 -37.5v-594q0 -25 -12 -53.5t-27 -52t-27 -36.5
t-12 -8v706q0 32 -7 56t-34 45q-8 6 -19 10t-21 6q-12 2 -24 3q-2 7 4 9.5t15.5 2.5t21 -1t20.5 -1q28 0 63.5 0.5t67.5 0.5h76q39 0 78.5 -10t71 -34t51 -63t19.5 -96z" />
    <glyph glyph-name="Q" unicode="Q" horiz-adv-x="589" 
d="M584 -118q-23 -17 -52.5 -32t-58.5 -14q-40 1 -70.5 22.5t-55.5 49t-45.5 54.5t-41.5 40q-113 70 -168 175.5t-56 245.5q-1 74 15 147.5t50.5 133t87.5 96t126 36.5q69 0 118 -36t79.5 -92.5t44.5 -126t14 -137.5q0 -93 -24 -168.5t-53 -128.5t-54 -81t-27 -26l-21 22
q6 7 23 32t35 70.5t32 112t14 155.5q0 60 -7.5 124.5t-28.5 118t-58.5 88.5t-98.5 35q-59 1 -96.5 -32.5t-59 -86t-28.5 -116.5t-4 -123q2 -61 8 -123.5t23 -116.5t47.5 -96.5t81.5 -63.5q10 -5 22.5 -8t25.5 -6t25 -7.5t22 -12.5q21 -16 37 -36t30 -37t28 -28t30 -10
q22 -1 45 4t42 11q6 2 11.5 1t7 -4.5t-2 -9.5t-14.5 -15z" />
    <glyph glyph-name="R" unicode="R" horiz-adv-x="594" 
d="M588 58q3 -5 -5.5 -16t-24 -22t-34.5 -19.5t-36 -8.5q-18 -1 -31.5 7.5t-23 22t-16 31t-12.5 34.5q-31 97 -52.5 163t-38.5 103q-10 21 -26.5 29.5t-32 11t-26.5 3t-11 4.5v22q0 4 15 3t37 1t48 9t48 25.5t36.5 52t14.5 88.5q0 37 -6.5 74t-22 66.5t-42.5 48t-68 18.5
q-17 0 -32 -1.5t-26.5 -8.5t-18 -20.5t-6.5 -37.5v-594q0 -25 -12 -53.5t-26.5 -52t-26.5 -36.5t-12 -8v162v542q0 32 -7.5 56t-34.5 45q-7 6 -18 10t-21.5 6t-17.5 3.5t-7 4.5q0 5 6.5 7t16 2.5t20.5 0t21 0.5l204 -2q40 0 79 -10.5t70.5 -34.5t51 -62.5t19.5 -95.5
q0 -67 -21.5 -106.5t-48.5 -63t-52 -36.5t-31 -27q8 -13 23.5 -36t35.5 -58.5t42.5 -85.5t43.5 -118q6 -21 12 -29.5t21 -16.5q8 -4 17.5 -1.5t18 6t16 5t11.5 -5.5z" />
    <glyph glyph-name="S" unicode="S" horiz-adv-x="448" 
d="M418 176q-10 -36 -27 -68.5t-40.5 -57t-54.5 -39.5t-69 -18q-32 -2 -62 10.5t-55 29.5t-44 35.5t-29 28.5l19 13q8 -8 21.5 -22t31.5 -28t40 -25.5t47 -14.5q33 -5 59 4.5t53 36.5q21 21 33 53.5t16 66.5t2 63.5t-10 44.5q-16 30 -36 46t-47 38q-24 18 -50 34.5t-51 33
t-47 34t-38 38.5q-14 18 -25 39t-16 48t-1 60.5t20 76.5q22 59 65 86.5t100 25.5q34 -1 56.5 -13t40.5 -47q7 -16 16 -8q8 5 11 12t7 15q6 13 10 9.5t4 -8.5q-1 -39 4 -85.5t9 -104.5q2 -23 -6 -24t-10 10q-7 30 -22.5 70t-37.5 81q-15 27 -36 49t-49 22q-31 0 -54.5 -14.5
t-39 -38t-22.5 -53t-4 -59.5q3 -38 20.5 -66t41.5 -45q26 -18 54 -34t55.5 -32t53.5 -34t48 -40q41 -41 53 -104t-8 -131z" />
    <glyph glyph-name="T" unicode="T" horiz-adv-x="571" 
d="M548 630q0 -18 -1.5 -24.5t-4 -5t-5 8t-4.5 13.5q-9 34 -16.5 67t-19.5 59t-32 42t-53 15q-11 1 -22 1q-10 0 -20 -0.5t-17 -2.5q-14 -2 -16.5 -16t-2.5 -28v-612q0 -25 -12 -53.5t-26.5 -52t-26.5 -36.5t-12 -8v162v604q0 11 -5.5 27t-21.5 16h-72q-17 0 -33 -16.5
t-29.5 -40.5t-23.5 -50.5t-14 -46.5q-9 -45 -15.5 -45.5t-4.5 45.5l8 167q0 11 7 13t15 2h440q12 0 23 -2.5t12 -19.5z" />
    <glyph glyph-name="U" unicode="U" horiz-adv-x="573" 
d="M571 826q0 -3 -15 -5t-32 -9t-31.5 -19.5t-14.5 -36.5v-453q0 -53 -11.5 -108t-35.5 -99.5t-61.5 -72.5t-90.5 -27q-69 1 -113 33.5t-69 84.5t-34.5 116t-9.5 128v316v163q0 5 12 -8t26.5 -36.5t26.5 -52t12 -54.5v-336q0 -79 4 -137t18.5 -96.5t43.5 -57t79 -18.5
q42 0 76 20t57.5 52t36 73t12.5 84v481q0 26 -16 39t-35 19.5t-35 9.5t-16 8q0 7 11.5 7h19.5h163q8 0 15.5 -1t6.5 -7z" />
    <glyph glyph-name="V" unicode="V" horiz-adv-x="549" 
d="M561 825q-1 -2 -10 -4.5t-20.5 -9t-23 -19.5t-17.5 -36l-117 -466q-2 -7 -7 -31t-12.5 -56t-15.5 -67.5t-16 -65t-15 -48.5t-12 -19q-4 0 -14 29t-24.5 76t-32 107t-35.5 122q-41 147 -91 334q-6 21 -15 49t-18 54q-10 30 -21 61q14 0 35.5 -19t42 -44.5t36.5 -51
t20 -38.5l112 -411q6 -23 15 -44t14 -21t10 9.5t9 21.5q5 13 9 30l122 484q0 26 -16 39.5t-35 20t-35 9.5t-16 7q0 7 11.5 7h19.5h140q8 0 16.5 -1t6.5 -8z" />
    <glyph glyph-name="W" unicode="W" horiz-adv-x="832" 
d="M815 828q0 -4 -2.5 -4t-8.5 -2q-20 -7 -24 -26t-13 -54l-185 -710q-3 -8 -6 -20.5t-8 -11.5t-8 13.5t-5 18.5l-134 553q-2 8 -3.5 17t-6.5 8q-8 -2 -10 -8t-4 -13l-145 -548q-3 -11 -9 -26t-11 -15q-7 0 -19 45l-153 624q-5 21 -12 49.5t-13 54.5q-7 30 -14 62
q12 -1 31 -20t37 -44.5t32.5 -51t17.5 -39.5l98 -409q6 -23 15 -44t14 -21q4 0 9 9.5t9 21.5q5 13 10 30l84 327q19 74 16.5 117.5t-14.5 67t-27 31t-22 8.5q-5 2 -16.5 4t-11.5 7t13 5h20h192q5 0 13 -0.5t7 -5.5q-1 -6 -15.5 -6.5t-30.5 -3.5t-29.5 -13t-13.5 -36
q0 -15 4.5 -30.5t9.5 -33.5l102 -456q3 -15 9 -31t14 -16q5 0 10 15t9 29l120 444q5 18 5.5 37.5t-4.5 37t-16.5 31t-31.5 19.5q-9 2 -22 6t-12 6q1 5 6 6t10 1h115q8 0 18 -0.5t10 -5.5z" />
    <glyph glyph-name="X" unicode="X" horiz-adv-x="605" 
d="M584 12q2 -9 -8.5 -10.5t-19.5 -1.5h-201q-8 0 -18.5 0.5t-11.5 6.5q0 5 4 6.5t10.5 2t13.5 1t12 3.5q25 11 35 34t-1 46l-112 234q-5 11 -9.5 20t-14.5 9q-2 0 -9 -9t-10 -17l-64 -120q-19 -35 -32 -60t-27 -52t-28.5 -54t-26.5 -51h-32l202 373q14 29 0 57l-127 246
q-9 20 -22 46.5t-25 50.5q-15 28 -30 57q15 1 38.5 -15t47 -38.5t43 -45t26.5 -34.5l103 -188q1 -2 2.5 -5.5t3.5 -2.5q4 1 7 7l6 12l103 209q6 12 6.5 25.5t-5.5 25.5t-19 21.5t-35 13.5q-10 2 -20 5t-10 7q0 7 8.5 7h16.5h141h16.5t8.5 -7q0 -4 -6.5 -6.5t-18.5 -7.5
q-18 -7 -28 -28t-21 -44l-120 -241q-5 -12 -10 -24.5t0 -23.5l167 -330q16 -31 30 -56t44 -43q8 -5 17 -5.5t10 -5.5z" />
    <glyph glyph-name="Y" unicode="Y" horiz-adv-x="545" 
d="M528 827q-3 -3 -9 -5.5t-11 -6.5q-17 -12 -31 -36t-25 -50l-137 -336q-8 -17 -9 -26t-1 -23v-243v-27.5t6.5 -22t22 -16.5t46.5 -12q8 -1 19 -3.5t7 -12.5q-3 -5 -14 -6t-21 -1h-227q-10 0 -16.5 1.5t-8.5 6.5q-3 7 5 10.5t16 3.5q15 0 30.5 6t28 16.5t20 24.5t7.5 30
v193q0 31 -4 52t-16 49l-147 331q-7 17 -15.5 36t-15 36t-10 28t-0.5 11q6 0 25 -12.5t41.5 -30.5t41.5 -37t25 -33l120 -286q4 -10 7.5 -19.5t11.5 -9.5q5 0 9.5 11t8.5 20l117 289q11 26 -5.5 49.5t-40.5 37.5q-9 6 -21.5 8t-11.5 7q1 4 10 4.5t17 0.5h132q8 0 17.5 -0.5
t5.5 -6.5z" />
    <glyph glyph-name="Z" unicode="Z" horiz-adv-x="529" 
d="M485 20q0 -11 -9 -15.5t-20 -4.5h-429q-8 0 -10 6.5t0 16t6 20t7 17.5l351 704q4 8 7 16.5t4 16t-1.5 12.5t-9.5 5h-316v20h418q13 0 16 -9t-11 -38l-368 -727q-5 -9 -3 -18.5t25 -9.5h152q40 0 80 21.5t59 66.5l55 129q5 10 7.5 21.5t7.5 13.5q2 1 2.5 -7t-0.5 -16z" />
    <glyph glyph-name="backslash" unicode="\" horiz-adv-x="259" 
d="M256 -17q-5 -2 -14.5 -2.5t-19.5 -0.5t-19 0.5t-14 2.5l-168 870q11 4 31.5 4t32.5 -4z" />
    <glyph glyph-name="a" unicode="a" horiz-adv-x="439" 
d="M365 151q0 -24 -10.5 -52t-23.5 -51.5t-23.5 -37.5t-10.5 -9v294q0 22 -16 27t-39 5q-43 -1 -71 -18t-43.5 -42.5t-19.5 -56.5t1 -60q3 -19 8 -41.5t15 -40t26.5 -27t43.5 -3.5q8 2 15.5 7t14.5 11t12 10.5t7 4.5l21 -8q3 -1 -5 -11.5t-24.5 -23t-39 -22.5t-46.5 -10
q-27 0 -47.5 13t-35.5 35t-23.5 51t-10.5 60q-4 58 21.5 97t63 62.5t78.5 33.5t68 9q17 -2 21.5 10.5t4.5 23.5v111q0 23 -15.5 42.5t-48.5 21.5q-21 1 -39 -10.5t-31.5 -28t-22.5 -33t-13 -25.5q-10 -21 -17 -38t-17 -18q-8 -1 -8.5 7t0.5 15l13 109q1 8 14.5 16.5t34 15
t45.5 11t49 4.5q22 0 44 -8.5t40 -21.5t29 -28t11 -28v-354z" />
    <glyph glyph-name="b" unicode="b" horiz-adv-x="479" 
d="M442 286q2 -48 -9 -98.5t-36.5 -93t-66.5 -70.5t-99 -29q-18 0 -30.5 5.5t-24 12.5t-25 13t-32.5 6q-12 0 -19.5 -6t-12.5 -14.5t-9 -15.5t-9 -8q-4 0 -5.5 4.5t-2.5 11.5t-1 14.5v12.5v803q0 5 10.5 -9t23.5 -37.5t23.5 -51.5t10.5 -52v-179q0 -16 12.5 -12t32.5 14.5
t45 21.5t50 10q45 -2 77.5 -26.5t53.5 -61.5t31.5 -80.5t11.5 -84.5zM370 265q0 35 -9.5 75t-26 75.5t-38.5 59.5t-47 26q-9 1 -26.5 -1.5t-37 -11.5t-35.5 -26.5t-22 -47.5v-272q0 -21 8.5 -43.5t23.5 -41.5t36.5 -30t47.5 -10q36 2 60.5 24.5t39.5 57.5t21 79t5 87z" />
    <glyph glyph-name="c" unicode="c" horiz-adv-x="411" 
d="M393 183q5 -1 -3 -30.5t-29.5 -64t-56 -63t-82.5 -28.5q-52 0 -87 28.5t-57 71.5t-31.5 94.5t-9.5 96.5q0 49 14 103t41 99t65.5 74t86.5 29q25 0 47.5 -11t39.5 -27t27.5 -32.5t11.5 -27.5q2 -15 0 -38.5t-2 -53.5q0 -7 -3 -16t-11 -9q-9 -1 -13 12.5t-7 25.5
q-3 9 -7.5 33t-14.5 49t-26 44t-42 18q-36 0 -61 -22t-41.5 -55.5t-25 -73t-11.5 -75.5q-4 -42 0.5 -90t21 -88.5t48 -67.5t82.5 -27q35 0 56.5 20t34.5 43.5t20 42.5t12 18z" />
    <glyph glyph-name="d" unicode="d" horiz-adv-x="480" 
d="M348 -2q-8 -2 -8.5 4.5t-1.5 12.5q-1 9 -1.5 21t-1 22.5t-0.5 18t-1 9.5q-10 5 -19.5 -8.5t-24 -31.5t-36 -34t-56.5 -16q-39 0 -68.5 26t-49 62.5t-29.5 77t-10 70.5q0 65 12.5 120.5t35 97.5t53.5 66.5t69 27.5q24 2 46 -5.5t39 -14.5t27 -8.5t11 11.5v168
q0 24 10.5 52t23.5 51.5t23.5 37.5t10.5 9v-744q0 -8 6.5 -17.5t15.5 -18t18.5 -13.5t16.5 -4q8 1 15 -0.5t9.5 -5t-1 -7.5t-17.5 -8zM334 412q0 22 -9 42.5t-25.5 35.5t-39.5 23t-51 4q-22 -3 -40 -27.5t-31 -61t-20.5 -79.5t-7.5 -83q0 -28 7.5 -64t23.5 -68t40.5 -53.5
t58.5 -21.5q17 0 33.5 11t30 27t22 35.5t8.5 35.5v244z" />
    <glyph glyph-name="e" unicode="e" horiz-adv-x="427" 
d="M404 171q4 0 -6.5 -28t-33 -61t-56.5 -60t-76 -26q-47 1 -83 28t-61 67.5t-38 87t-14 85.5q-1 50 8.5 108t33 107.5t60.5 82.5t89 33q48 0 80.5 -27t53.5 -66t31 -83t12 -77q2 -14 -10 -22t-50 -8h-191v33h112q20 0 31.5 3t17.5 8.5t8 13t3 15.5q2 26 -1 56t-14 56
t-32 43t-54 17q-19 0 -39 -15.5t-36 -49.5t-26 -89t-10 -134q0 -27 7.5 -63.5t24 -69.5t43 -56t63.5 -23q34 1 58.5 19t40.5 40q19 25 32 57z" />
    <glyph glyph-name="f" unicode="f" horiz-adv-x="300" 
d="M311 796q0 -16 1.5 -35.5t1.5 -36.5t-3.5 -28.5t-13.5 -11.5t-14 20t-8.5 44t-13 43.5t-28.5 19.5q-19 0 -31.5 -16.5t-19 -41t-9 -53t-2.5 -52.5v-133q0 -9 2 -12t10 -3h96v-34h-99q-5 0 -7 -3.5t-2 -7.5v-305q0 -24 -10.5 -52t-23.5 -51.5t-23.5 -37.5t-10.5 -9v456
q0 8 -5 9t-13 1h-44v34h44q14 0 16 5t2 13v104q0 37 14 77t37 73t53.5 54t63.5 20q12 0 19.5 -6.5t12 -14.5t6.5 -16t2 -13z" />
    <glyph glyph-name="g" unicode="g" horiz-adv-x="429" 
d="M398 598q-11 -2 -24 -7t-25 -18q-19 -19 -21.5 -41.5t6.5 -44.5q8 -17 12.5 -28.5t7.5 -22.5t4 -23.5t1 -31.5q0 -43 -13 -76t-31.5 -55.5t-40.5 -34.5t-40 -14q-17 -2 -32 1t-30 5q-21 2 -39.5 -15t-21.5 -38q-2 -17 8 -27t25.5 -15t35 -7.5t35.5 -4.5
q68 -7 106.5 -32.5t59.5 -84.5q14 -39 10.5 -70.5t-27 -54.5t-67.5 -38t-113 -19q-31 -2 -60.5 8.5t-51.5 29t-33 41.5t-4 46q5 15 11.5 31t13.5 29q7 15 15 29l10 -13l-13 -26q-5 -12 -10 -22.5t-7 -17.5q-9 -27 1.5 -49.5t34.5 -37.5t59.5 -22t78.5 -3q68 6 95 44t4 109
q-5 13 -11 21.5t-18 13.5t-34 7.5t-58 3.5q-25 2 -51.5 7t-48 15.5t-35 28t-13.5 42.5q0 21 12 40t27 34q16 16 38 31q-46 19 -63 64t-17 97q-1 35 10.5 68t32 58.5t49 40t61.5 13.5q38 -2 60 -11t41 -29l2 22q1 10 1.5 20.5t0.5 20.5q-1 23 6.5 32.5t23.5 12.5q14 3 26.5 0
t26.5 -8q9 -3 9 -13t-8 -11zM290 386q0 26 -4 53t-13.5 49t-25.5 36t-42 13q-25 -1 -40.5 -16.5t-24.5 -38.5t-12 -49.5t-3 -50.5q0 -25 4 -51.5t13.5 -48t26 -35.5t40.5 -14q25 0 40.5 14.5t24.5 37t12.5 49.5t3.5 52z" />
    <glyph glyph-name="h" unicode="h" horiz-adv-x="490" 
d="M468 9q2 -7 -4 -8t-14 -1h-140q-11 0 -18 1.5t-5 9.5q1 4 6.5 5t12.5 1.5t14 2t11 6.5q11 11 12.5 28t1.5 33v286q0 21 -4 41.5t-13.5 37.5t-24.5 28.5t-37 13.5q-24 2 -43.5 -14.5t-33.5 -38.5t-22 -43.5t-8 -29.5v-218q0 -24 -11 -52t-23.5 -51.5t-23.5 -37.5t-11 -9
v705q0 19 -3.5 36.5t-21.5 26.5q-11 5 -24 4.5t-14 5.5q-3 11 13 17q27 10 49 20t45 20q14 6 19.5 0.5t5.5 -17.5v-341q0 -8 6.5 -13t17.5 9l21 28t18.5 20t21 12.5t27.5 4.5q30 0 55 -16.5t43 -42t28 -55.5t10 -56v-293q0 -14 4.5 -27t15.5 -22q5 -4 11.5 -5.5t13 -2t11 -2
t5.5 -7.5z" />
    <glyph glyph-name="i" unicode="i" horiz-adv-x="269" 
d="M175 705q0 -7 -2 -17.5t-7 -19.5t-12.5 -15.5t-17.5 -6.5q-16 0 -26.5 17.5t-11.5 36.5q-1 21 9 40t30 19q19 0 28 -19t10 -35zM241 12q0 -9 -10 -10.5t-20 -1.5h-150q-8 0 -17 2.5t-7 9.5q1 7 11.5 8t20.5 2q4 0 9.5 3.5t11 9.5t9.5 13t4 14v355q0 24 10.5 52.5t23.5 52
t23.5 37.5t10.5 9v-163v-305v-25t2 -24.5t7.5 -19t17.5 -9.5q13 -3 28 -2.5t15 -7.5z" />
    <glyph glyph-name="j" unicode="j" horiz-adv-x="222" 
d="M147 722q0 -7 -2 -17t-7 -19t-12.5 -15.5t-17.5 -6.5q-16 0 -27 17t-11 37t9.5 37t29.5 17q19 0 28 -16.5t10 -33.5zM163 58q0 -18 -5.5 -43t-15.5 -51t-23 -50.5t-27 -42.5q-14 -17 -26.5 -24.5t-22.5 -10.5q-11 -3 -21 -1v13q9 1 18 5q9 3 18 9.5t18 17.5q15 19 17 41
t2 38v507q0 20 -10.5 35.5t-30.5 18.5q-8 2 -10 8t7 8q17 5 33 10.5t30 10.5q15 5 29 11q10 4 15 -7t5 -22v-481z" />
    <glyph glyph-name="k" unicode="k" horiz-adv-x="505" 
d="M480 9q-2 -8 -10 -8.5t-19 -0.5h-120q-10 0 -21.5 1t-12.5 7q-1 9 9 11t18 3q17 1 22.5 12t0.5 20l-108 191q-5 8 -9.5 16.5t-9.5 8.5h-2.5t-3.5 -2l-41 -56v34l202 274h25l-128 -174q-8 -12 -6.5 -18.5t8.5 -17.5l127 -223q16 -27 27 -45.5t31 -20.5q6 -1 14 -2.5
t7 -9.5zM164 147q0 -25 -10.5 -53.5t-23.5 -52t-23.5 -36.5t-10.5 -8v162l-1 546q0 19 -2.5 37t-20.5 27q-10 5 -22.5 2.5t-17.5 2.5q-4 5 -1 11t10 8q36 14 57 22.5t41 19.5q14 7 19.5 1t5.5 -18v-671z" />
    <glyph glyph-name="l" unicode="l" horiz-adv-x="256" 
d="M231 12q0 -9 -10 -10.5t-20 -1.5h-150q-8 0 -17 2.5t-7 9.5q1 7 11.5 8t20.5 2q4 0 9.5 3.5t11 9.5t9.5 13t4 14v612q0 24 10.5 52t23.5 51.5t23.5 37.5t10.5 9v-163v-561v-25t2 -24.5t7.5 -19t17.5 -9.5q13 -3 28 -2.5t15 -7.5z" />
    <glyph glyph-name="m" unicode="m" horiz-adv-x="851" 
d="M827 12q0 -9 -10 -10.5t-20 -1.5h-151q-7 0 -16 2.5t-8 9.5q2 7 12 8t21 2q4 0 9.5 3.5t11 9.5t9.5 13t4 14v347q0 24 -8 46.5t-22.5 40t-34.5 28.5t-45 12q-28 1 -49 -13.5t-34.5 -38t-20 -53t-6.5 -57.5v-227q0 -25 -10.5 -54t-23.5 -52t-23.5 -36t-10.5 -8v385
q0 24 -8.5 50t-23.5 48.5t-35.5 39.5t-44.5 21q-11 2 -30 -9t-37 -31t-31 -45.5t-13 -51.5v-304q0 -23 9.5 -44.5t29.5 -33.5q4 -3 9 -2.5t9 0.5t7 -1.5t4 -8.5q0 -9 -6 -9.5t-15 -0.5h-152q-17 0 -17 11q0 8 6 7.5t14 1.5q14 3 24 15.5t10 29.5v376q0 20 -10 39t-29 20
q-9 2 -16 5q-7 2 -12 5t-6 6q-1 7 5 13.5t11 9.5l87 39q17 8 22.5 5.5t7.5 -19.5l4 -66q1 -16 15 -4t35 33.5t47 42t52 20.5q30 0 55 -20t43.5 -43.5t30.5 -42t15 -15.5q16 34 37 61q20 25 46.5 43t61.5 18q29 0 55.5 -18t46.5 -44.5t31.5 -58.5t11.5 -61v-309v-25t2 -24.5
t7.5 -19t16.5 -9.5q14 -3 29 -2.5t15 -7.5z" />
    <glyph glyph-name="n" unicode="n" horiz-adv-x="547" 
d="M522 10q1 -9 -5 -9.5t-16 -0.5h-152q-17 0 -17 11q0 8 6.5 7.5t14.5 1.5q14 3 24 15.5t10 29.5v328q0 13 -7.5 36.5t-22 47.5t-35 42.5t-47.5 21.5q-11 1 -30 -10.5t-37 -31t-31 -44.5t-13 -51v-257q0 -25 -10.5 -54t-23.5 -52t-23.5 -36t-10.5 -8v444q0 20 -10 39
t-29 20q-9 2 -16 5q-7 2 -12 5t-6 6q-1 7 5 13.5t11 9.5l87 39q17 8 22.5 5.5t7.5 -19.5l4 -66q1 -16 14.5 -4t34.5 33.5t47 42t53 20.5q33 0 60 -21.5t46 -53.5t29.5 -67.5t10.5 -64.5v-75v-66.5v-66.5v-75q0 -23 9 -44.5t30 -33.5q4 -3 8.5 -2.5t8.5 0.5t7 -1.5t4 -8.5z
" />
    <glyph glyph-name="o" unicode="o" horiz-adv-x="490" 
d="M458 289q0 -63 -22 -116t-51 -91.5t-57.5 -60.5t-40.5 -22l-13 27q5 2 21.5 12t35 36.5t34 74.5t19.5 127q2 44 -4.5 92.5t-23 88.5t-45 65.5t-70.5 23.5q-34 -2 -58.5 -28t-39.5 -64.5t-22 -85t-7 -88.5q0 -81 28 -145t94 -108q8 -6 4 -18.5t-13 -15.5q-4 -1 -34 14.5
t-63.5 50.5t-61 91t-27.5 137q0 55 16 109.5t44.5 98.5t67.5 71t85 27q47 0 84 -28.5t63.5 -72.5t41 -97.5t15.5 -104.5z" />
    <glyph glyph-name="p" unicode="p" horiz-adv-x="524" 
d="M477 315q1 -79 -18 -135.5t-48 -93.5t-63 -57.5t-63.5 -28t-49 -4.5t-19.5 12q-4 -4 -5.5 -0.5t-1.5 10.5t2 15.5t5 12.5q0 5 15 2.5t37.5 -3t48 6t46.5 30.5t32.5 70.5t6.5 125.5q-3 41 -7 84t-16 79.5t-35.5 60.5t-65.5 25q-21 1 -43 -4t-40 -15.5t-29.5 -26.5
t-11.5 -37v-455q0 -26 -11 -54.5t-23.5 -51.5t-23.5 -36t-11 -8v580q0 26 -8 52t-22 34q-6 3 -13.5 6.5t-12 7.5t-3 9t14.5 11l98 49q8 5 11 -1t4 -17v-19q0 -8 0.5 -15.5t2.5 -12.5q7 -23 18.5 -15.5t27 25.5t35.5 37t44 19q49 0 85.5 -24.5t60.5 -63.5t36.5 -88t12.5 -98z
" />
    <glyph glyph-name="q" unicode="q" horiz-adv-x="480" 
d="M452 578q-7 -10 -11 -31t-5.5 -45t-1.5 -47v-36v-580q0 -5 -10.5 8t-23.5 36t-23.5 51.5t-10.5 54.5v455q0 21 -11.5 37t-30 26.5t-40.5 15.5t-43 4q-42 -1 -68 -25t-39.5 -60.5t-16.5 -79.5t0 -84q6 -77 22.5 -122.5t37 -69.5t43 -31.5t41.5 -7.5t31 2t12 -3
q3 -4 5 -12.5t2 -15.5t-1.5 -10.5t-5.5 0.5q-73 -4 -131 26q-35 15 -55 36t-37 54.5t-28 80t-11 110.5q0 49 12 98t36.5 88t61 63.5t85.5 24.5q24 0 45 -15t39 -30.5t33 -24t27 4.5q14 15 31 35.5t30 35.5q3 4 8 5t7.5 -1t2 -7t-7.5 -14z" />
    <glyph glyph-name="r" unicode="r" horiz-adv-x="348" 
d="M325 441q-6 -32 -14 -30t-16 22q-4 11 -6.5 29t-6.5 35t-12 29t-22 12q-24 0 -40 -16t-25 -38t-12.5 -45.5t-3.5 -37.5v-254q0 -25 -10.5 -53.5t-23 -52t-23.5 -36.5t-11 -8v162v289q0 34 -11.5 48t-36.5 24q-8 3 -15 3.5t-9 6.5q-4 10 4.5 14t17.5 7l93 30q11 4 18 2.5
t7 -15.5v-35q4 -16 12.5 -9.5t23 21.5t34.5 30t48 15q17 0 27 -14.5t14.5 -36.5t4 -48.5t-5.5 -49.5z" />
    <glyph glyph-name="s" unicode="s" horiz-adv-x="392" 
d="M366 173q0 -36 -12 -68.5t-34.5 -57.5t-52.5 -40t-66 -15q-21 0 -43.5 9t-42 20.5t-33.5 22t-17 12.5v28q5 -4 19.5 -14.5t34 -21.5t41.5 -19.5t42 -8.5q28 0 49 10.5t34.5 28t19 39.5t1.5 45q-5 35 -25.5 59.5t-53.5 41.5q-29 15 -55 25.5t-47 23.5t-36.5 31.5
t-22.5 49.5q-9 38 -3 77.5t25.5 71t49.5 52t69 21.5q20 0 42.5 -7t41.5 -17.5t31.5 -24t13.5 -25.5l5 -100q0 -7 -1.5 -14t-4 -9.5t-6.5 0t-9 12.5q-7 17 -19 42.5t-29 49.5t-39 41.5t-50 18.5q-25 1 -44.5 -18.5t-28 -48t-2.5 -59.5t31 -53q17 -14 35 -23t36.5 -17
t37.5 -16.5t38 -20.5q32 -20 55.5 -53t24.5 -81z" />
    <glyph glyph-name="t" unicode="t" horiz-adv-x="314" 
d="M304 87q-14 -23 -29 -41q-15 -17 -31.5 -30t-35.5 -16q-27 -4 -49 7.5t-37 32t-23.5 47.5t-8.5 54v378q0 11 -1.5 23t-15.5 17q-1 3 -8.5 3.5t-15.5 1t-14.5 3.5t-5.5 11t6 10.5t15 8.5t24 21t33 48q11 18 16.5 41.5t7.5 45.5q3 26 3 52q2 14 13.5 15.5t11.5 -15.5v-187
q0 -12 0.5 -18t17.5 -6h102v-33h-102q-16 0 -17 -15.5t-1 -30.5v-370q0 -16 3 -33t9.5 -30.5t18 -22.5t27.5 -9q12 0 24 8t21 19q11 12 21 27z" />
    <glyph glyph-name="u" unicode="u" horiz-adv-x="524" 
d="M519 34q2 -8 -7 -14t-17 -8l-96 -18q-13 -2 -21.5 -0.5t-9.5 18.5l-1 44q0 12 -3.5 15t-8.5 0.5t-10 -7.5t-8 -10q-20 -30 -47.5 -45.5t-65.5 -15.5q-24 0 -47 12.5t-42 33t-31 47.5t-12 56v348q0 41 -7 53.5t-23 16.5l-27 9t-15 9q0 10 20 10h99q12 0 16 -12t4 -23v-394
q0 -22 9 -43.5t23 -38t30.5 -26.5t30.5 -10q24 0 45.5 13.5t37 35t24.5 48t9 51.5v243q0 24 10.5 52.5t23.5 52t23.5 37.5t10.5 9v-163v-308q0 -12 1 -23.5t6 -21.5t15 -17t28 -9q10 -2 20.5 -1.5t12.5 -5.5z" />
    <glyph glyph-name="v" unicode="v" horiz-adv-x="437" 
d="M268 45q-1 -4 -4 -11.5t-7 -15.5t-8.5 -14t-8.5 -6q-10 0 -17.5 16.5t-12.5 31.5l-133 465q-2 8 -5 16.5t-6 15.5q-3 9 -6 17q-11 8 -17 6.5t-8 6.5q-2 11 13.5 12.5t27.5 1.5h91q10 0 21.5 -1t12.5 -10q1 -7 -5.5 -7.5t-17.5 -2.5q-15 -3 -22 -10.5t-9.5 -16.5t-1.5 -19
t4 -20l101 -350q1 -5 4.5 -14.5t8.5 -9.5q4 0 7.5 11.5t5.5 19.5l115 430h36z" />
    <glyph glyph-name="w" unicode="w" horiz-adv-x="620" 
d="M610 583q0 -7 -4.5 -8.5t-12.5 -5.5q-11 -5 -16 -22t-9 -28l-121 -482q-3 -12 -7.5 -24.5t-15.5 -12.5q-10 0 -14 15.5t-7 28.5q-1 2 -4.5 16t-9 35.5t-12 49t-12.5 55.5q-16 66 -36 148q-2 5 -9 4t-9 -6l-89 -307q-4 -14 -9 -27.5t-18 -13.5q-9 0 -14.5 13.5t-8.5 25.5
l-127 453q-4 14 -7 25t-5.5 21.5t-5 21.5t-5.5 26q-1 6 12.5 -3.5t31 -25t33 -33t17.5 -26.5l86 -303q4 -12 8 -26.5t15 -15.5q6 0 10 10.5t7 20.5l58 196q6 24 6.5 42t-2.5 43q-1 11 -6 26t-10.5 30t-11.5 27t-10 16q-6 5 -13 6.5t-13.5 2.5t-11 2.5t-4.5 6.5q-2 8 10 8.5
t22 0.5h137q16 0 17 -7q2 -8 -8 -10.5t-19 -6.5t-13.5 -13t-6 -20.5t-0.5 -23t3 -20.5l70 -290q3 -8 4.5 -17.5t6.5 -9.5q7 0 10 8.5t5 16.5l70 295q2 10 1.5 21.5t-4 22.5t-8.5 19t-12 11q-12 5 -26 7t-12 8q0 6 11 7t21 1h85h15t7 -5z" />
    <glyph glyph-name="x" unicode="x" horiz-adv-x="441" 
d="M418 8q1 -6 -7 -7.5t-13 -1.5h-142q-7 0 -13.5 0.5t-7.5 5.5q-1 8 10 8.5t19 4.5q16 10 24.5 22.5t0.5 29.5l-81 165q-3 6 -5.5 13.5t-6.5 7.5q-5 0 -7.5 -7t-5.5 -12q-24 -43 -47 -85q-22 -39 -43.5 -78.5t-39.5 -73.5h-24l143 262q5 11 6 22t-4 21l-98 205
q-13 26 -24 48.5t-15 30.5q-1 3 13 -1.5t33 -15t38 -25t27 -31.5l66 -137q2 -5 5.5 -12.5t5.5 -7.5t2.5 3.5t3.5 7.5l76 140q10 17 5 34t-36 23q-7 1 -14.5 4t-6.5 6q1 6 6 7t11 1h100q6 0 12 -1.5t6 -7.5t-17 -11q-15 -6 -21.5 -18.5t-15.5 -26.5l-95 -175q-5 -8 -3.5 -12
t6.5 -15l112 -231q8 -15 11.5 -25t7.5 -17t9.5 -13t15.5 -12q6 -3 11.5 -6t6.5 -6z" />
    <glyph glyph-name="y" unicode="y" horiz-adv-x="350" 
d="M351 580q1 -5 -6.5 -5t-13.5 -4q-12 -7 -18.5 -22.5t-9.5 -28.5l-147 -555q-6 -22 -14 -45t-18.5 -41.5t-24 -30.5t-30.5 -13q-8 0 -16 5t-15 11q-8 7 -16 17q-1 1 0 5t3 8t4 10q6 -10 14 -18q6 -7 13.5 -12t15.5 -5q10 0 28 23t30 77l13 55q5 20 6 33.5t0 24t-4 19.5
t-6 21l-86 389q-4 13 -7 26q-4 12 -8 25.5t-8 27.5q-1 5 12 -1t30 -19t32.5 -30t18.5 -34l55 -283q2 -9 4 -17.5t6 -8.5q2 0 4 9.5t5 18.5l68 246q5 21 10 44t-2 36q-5 8 -8.5 15.5t-9.5 13.5q-8 7 -18 7t-10 5q-1 6 3.5 7t9.5 1h92q6 0 12 -1t7 -6z" />
    <glyph glyph-name="z" unicode="z" horiz-adv-x="391" 
d="M106 68q-7 -14 -4.5 -22.5t11.5 -13.5t24 -6.5t31 -1.5q27 1 45 4t31.5 9.5t25 16.5t23.5 24q9 11 18 32t16 43q9 25 16 54l16 -5l-15 -159q-2 -19 -14 -31.5t-35 -12.5l-240 -1q-14 0 -24.5 1t-15.5 5.5t-3.5 14.5t10.5 27l244 460q4 6 7 15t2.5 17.5t-6 14t-17.5 5.5
h-112q-23 0 -44 11t-33 17q-2 1 3 1.5t13.5 0.5h18.5h18h224q16 0 22.5 -3t8 -8t-1.5 -11l-6 -12z" />
    <glyph glyph-name="Adieresis" unicode="&#xc4;" horiz-adv-x="557" 
d="M522 212q0 -40 -11 -75.5t-32.5 -63.5t-53.5 -47t-75 -26q-23 -4 -57 -8t-65 6l-2 23q23 -7 48 -6.5t53 10.5q55 20 82 61t27 97q0 13 1 36.5t-3.5 51t-16 55.5t-36 50t-65.5 34.5t-103 8.5q-9 1 -16 -2t-12 -10t-5 -21v-239q0 -25 -11.5 -53t-25.5 -50.5t-26 -36.5
t-14 -11v163v542q0 32 -7.5 56t-34.5 45q-7 6 -18 10t-21 6t-17 3.5t-7 4.5q0 5 6 7t15.5 2.5t20.5 0t21 0.5h241q17 0 46.5 -11t58 -35t50.5 -61.5t23 -89.5q2 -47 -6.5 -78.5t-22 -51t-29.5 -30t-30 -17t-23 -10.5t-9 -12q1 -7 13 -13.5t30.5 -15.5t39 -23t38.5 -37
t29.5 -56.5t11.5 -82.5zM401 577q-1 82 -15 130.5t-36.5 73t-51.5 31t-60 5.5q-29 0 -43.5 -24t-14.5 -54v-245q0 -25 10 -36t26 -13q62 -7 98.5 9t55.5 40.5t25 49t6 33.5z" />
    <glyph glyph-name="Aring" unicode="&#xc5;" horiz-adv-x="720" 
d="M694 8q5 -7 -1 -9t-16.5 -1.5t-23 2t-21.5 0.5q-29 0 -62.5 -0.5t-63.5 -0.5h-69q-5 0 -9 1.5t-6 6.5q26 4 46 15q19 9 32.5 25t13.5 43l1 247q0 25 -3 45.5t-23 20.5h-275q-9 0 -15 -1t-6 -16v-239q0 -13 -8.5 -39t-20.5 -51.5t-25.5 -44t-23.5 -16.5v163v542
q0 32 -7 56t-34 45q-8 6 -19 10t-21 6q-12 3 -24 4q-2 6 4 9t16.5 3.5t22.5 0t21 -0.5h241q0 -6 -19 -16t-42 -22.5t-42 -27t-19 -29.5v-245q0 -25 2.5 -40.5t19.5 -15.5h261q15 0 22.5 0.5t11 4t4 10.5t0.5 20v212q0 13 8.5 39t20.5 51.5t25.5 43.5t23.5 16v-162v-544
q0 -32 7.5 -56t33.5 -45q8 -6 18.5 -10t19.5 -6q11 -3 23 -4z" />
    <glyph glyph-name="quotedblleft" unicode="&#x201c;" horiz-adv-x="289" 
d="M254 591q0 -20 -11 -36t-25 -17q-24 -2 -36.5 16t-18 43.5t-4.5 52t5 40.5q11 38 26.5 64t37.5 51q4 5 9 6.5t8.5 0t3.5 -6.5t-7 -14q-14 -20 -27 -45.5t-13 -57.5q0 -8 1 -20t13 -23q13 -13 25.5 -23.5t12.5 -30.5zM118 591q0 -20 -11 -36t-25 -17q-24 -2 -36.5 16
t-18 43.5t-4.5 52t5 40.5q11 38 26.5 64t37.5 51q4 5 9 6.5t8.5 0t3.5 -6.5t-7 -14q-14 -20 -27 -45.5t-13 -57.5q0 -8 1 -20t13 -23q13 -13 25.5 -23.5t12.5 -30.5z" />
    <glyph glyph-name="quotedblright" unicode="&#x201d;" horiz-adv-x="331" 
d="M272 668q-11 -38 -26.5 -64t-37.5 -51q-4 -4 -9 -6t-8 -0.5t-3 6.5t6 14q14 20 27.5 45.5t13.5 57.5q0 8 -1 20t-13 23q-14 12 -26 23t-12 31t10.5 35.5t24.5 17.5q24 2 37 -16t18 -43.5t4 -52t-5 -40.5zM136 668q-11 -38 -26.5 -64t-37.5 -51q-4 -4 -9 -6t-8 -0.5
t-3 6.5t6 14q14 20 27.5 45.5t13.5 57.5q0 8 -1.5 20t-12.5 23q-14 12 -26.5 23t-12.5 31t11 35.5t25 17.5q24 2 37 -16t18 -43.5t4 -52t-5 -40.5z" />
  </font>
</defs>
</svg>
