<?xml version="1.0" standalone="no"?>
<!DOCTYPE svg PUBLIC "-//W3C//DTD SVG 1.1//EN" "http://www.w3.org/Graphics/SVG/1.1/DTD/svg11.dtd" >
<svg xmlns="http://www.w3.org/2000/svg" xmlns:xlink="http://www.w3.org/1999/xlink" version="1.1">
<metadata>
Created by FontForge 20170731 at Fri Dec 13 12:51:13 2013
 By Aleksey,,,
Copyright 1990, 1991 FontBank, Inc.
</metadata>
<defs>
<font id="Parchment" horiz-adv-x="333" >
  <font-face 
    font-family="Parchment"
    font-weight="500"
    font-stretch="normal"
    units-per-em="1000"
    panose-1="2 0 6 4 6 0 0 2 0 3"
    ascent="800"
    descent="-200"
    x-height="456"
    cap-height="734"
    bbox="-102.442 -245 1004 817"
    underline-thickness="20"
    underline-position="-207"
    unicode-range="U+0020-2122"
  />
<missing-glyph horiz-adv-x="280" 
 />
    <glyph glyph-name=".notdef" horiz-adv-x="280" 
 />
    <glyph glyph-name=".null" horiz-adv-x="0" 
 />
    <glyph glyph-name="nonmarkingreturn" 
 />
    <glyph glyph-name="space" unicode=" " horiz-adv-x="290" 
 />
    <glyph glyph-name="exclam" unicode="!" horiz-adv-x="287" 
d="M43 92l5 7l35 32l20 13l33 5q5 4 8 5.5t7.5 0t12 -6.5t21.5 -14q3 -2 8.5 -3.5t22.5 -5.5q5 -1 9.5 -5.5t11.5 -15.5l7 -15l-4 -13v-11v-48q-2 -3 -7.5 -7t-23.5 -12l-29 -14l-24 -16l-7 3l-46 15l-11 4l-1 1q-12 6 -21.5 21t-17.5 43l-9 35v2zM56 575l7 20l-7 19l4 16
l-3 13l9 10v5l-9 13l27 15q-1 7 0 14q4 14 17.5 19.5t26.5 -2.5q8 -2 15 2t9 12q2 3 0 7q22 2 38.5 -8.5t35.5 -38.5q6 -9 10 -20t5 -23l-5 -36l-18 -13q15 -22 14.5 -45t-20.5 -58q-9 -16 -11 -27.5t2 -24.5l-8 -27l-14 -45q-2 -10 -2.5 -18.5t-1.5 -15.5v-4l-1 -31l-2 -35
q2 -14 -1 -27v-3l-1 -3q2 -11 -2 -17q-3 -8 -10.5 -10.5t-14.5 1.5q-11 5 -17 14l-7 9q-1 3 1.5 10.5t13.5 37.5q1 3 0.5 8t-3.5 17q-1 11 -3.5 19t-9.5 19l-2 4t-3 4l8 26q1 4 1.5 9.5t0.5 16.5l-13 25l11 8l-30 18q-2 21 -14 40l-10 17l-3 15q19 5 14 23q-3 12 -14 20
l-8 6h-2z" />
    <glyph glyph-name="numbersign" unicode="#" horiz-adv-x="600" 
d="M36 202l15 72h116l36 172h-115l15 72h116l42 202h72l-42 -202h86l43 202h72l-43 -202h115l-15 -72h-115l-37 -172h115l-15 -72h-115l-43 -202h-72l43 202h-87l-43 -202h-72l43 202h-115zM325 274l37 172h-87l-36 -172h86z" />
    <glyph glyph-name="dollar" unicode="$" horiz-adv-x="565" 
d="M69 219q8 9 17 17l35 -18l-6 -43l-3 -12q6 -14 7 -37q0 -6 8.5 -15t31.5 -20q7 -4 14 -5l6 -4q5 -4 11.5 -8.5t19.5 -9.5l12 -4t12 -2q10 -2 16.5 6.5t4.5 26.5q0 4 -2 10.5t-8 22.5q-2 4 -1.5 10.5t5.5 24.5q1 3 -2 8.5t-16 22.5q-1 1 -1 3.5t1 9t3.5 18t7.5 31.5
q1 5 3 13l-4 51l-28 16l-21 5q-17 17 -41 30q-4 2 -7.5 4t-8.5 4l-8 11l-5 7l-11 17l-7 10q-2 4 -6 8.5t-13 14.5l-14 22q-14 -2 -16.5 4.5t-0.5 36.5q0 5 -0.5 12t-2.5 26q-2 22 5.5 45.5t33.5 63.5q2 2 3 5t4 11q2 6 12.5 14t36.5 17q4 2 14 4l22 17q24 -8 43.5 5.5
t34.5 53.5q2 3 7 6t19 6l3 -15l8 -19q-11 -7 -12 -19.5t9 -23.5q8 -8 16.5 -8t11.5 5l3.5 7l3.5 7q7 13 22 10q19 -7 23 -23l21 -6q38 -14 57.5 -32t27.5 -40q6 -17 7.5 -29.5t-1.5 -23t-10 -20.5t-19 -22q-4 -3 -7 -9t-6 -19q-7 -6 -14.5 -5t-11.5 8q-8 14 -5 32q1 5 3 9
l4 8q1 9 -6 18t-17 10q4 21 -8 38t-35 23q-38 8 -49.5 4t-13.5 -29q0 -3 1 -8t3 -23q1 -4 0.5 -11.5t-4.5 -30.5q-1 -5 1 -13.5t10 -23.5v-30q-10 -34 7.5 -56t74.5 -39q6 -2 11.5 -4t10.5 -4q13 -6 21.5 -12.5t22.5 -20.5l3 -4l19 -21l9 -9t16 -15q8 -17 15.5 -34.5
t12.5 -34.5q-3 -18 0 -35q2 -8 4 -13l-3 -24q0 -12 -3 -22q-6 -24 -20 -44l-15 -10q-7 -19 -17 -28.5t-39 -21.5q-4 -2 -9 -6.5t-18 -18.5q-1 -1 -2.5 -1.5t-6 -1t-14 -1t-25.5 -1.5h-2l-44 -5l-9 -8q-1 -11 -0.5 -21.5t1.5 -21.5q1 -7 1.5 -13.5t2.5 -13.5l-36 -4
q-16 2 -19 10t1 34q2 12 -10 22.5t-39 15.5q-29 5 -48.5 12t-39.5 20l-12 21q-14 -1 -26.5 6t-20.5 19l10 9q-14 6 -22.5 19t-9.5 31t7 39t27 42zM147 593q-1 -12 -0.5 -21t4.5 -18t11.5 -19.5t19.5 -25.5q10 -12 16.5 -19.5t12.5 -12t12.5 -6.5t15.5 -3l10 25l-1 43l-2 16
l-4 30l-3 25v3l-8 26v1l3 18q0 2 -2.5 4t-6.5 2q-9 -1 -18 -4t-24 -14q-12 -8 -21.5 -21t-14.5 -29zM298 157q9 -14 9 -30t-8 -30q-6 -8 -6 -19q1 -9 8.5 -16t18.5 -6q13 0 27 9q32 23 41 34t9 14q-1 17 -0.5 22.5t2.5 7.5q13 17 10.5 30t-18.5 19q3 23 -5 29q-8 7 -13 11.5
t-8 9.5q-8 11 -14 17.5t-11 11t-10.5 7t-12.5 5.5l-15 -31v-33v-35z" />
    <glyph glyph-name="percent" unicode="%" horiz-adv-x="920" 
d="M322 84q7 25 10 58q17 13 25.5 32.5t7.5 40.5l20 66q22 43 36 90l14 49q11 39 18 64t11.5 39.5t7 22.5t5.5 13.5t7 12t11 18.5q5 8 9 21t9 36q4 14 5.5 28t2.5 28l23 33q35 -9 69 0q1 -26 -11 -51q-8 -17 -15.5 -34.5t-16 -41t-19 -56t-23.5 -78.5q-5 -19 -10 -37.5
t-9 -37.5q-14 -38 -24.5 -74.5t-20.5 -73.5q-9 -26 -14 -43t-10 -31l-16 -54l-2 -6q0 -2 -1 -5t-4 -9.5t-8 -17t-14 -28.5q-5 -8 -8.5 -22t-8.5 -41l-7 -3q-8 10 -20.5 13.5t-25.5 -1.5q-3 -1 -5.5 -2t-5.5 -3q-12 -3 -12 8q1 13 6 27q3 7 6 17t8 33zM40 429
q-11 40 -10.5 64t12.5 47l1 30v37l7 31l5 7l6 7q10 15 24 27l3 21q20 15 39 23q31 13 60 15t66 -8q4 -2 8 -2.5t9 -2.5q6 -5 12 -9t11 -8l7 -6l11 -9l15 -14l12 -11q7 -8 11.5 -14.5t7.5 -17t6 -27t7 -42.5l7 -45v-2q1 -19 -3 -44l-8 -42l3 -27q-10 -13 -15.5 -23.5
t-13.5 -35.5q-3 -8 -10.5 -18t-23.5 -22l-28 -21l-38 -16l-40 -6l-46 7l-31 11q-4 4 -7 7.5t-7 7.5q-30 36 -45 69q-5 11 -9.5 22.5t-9.5 25.5q-2 3 -2.5 6.5t-2.5 7.5zM555 151q-12 40 -11.5 64t13.5 47v30l1 37l7 31l5 7l5 7q6 8 11.5 14.5t12.5 12.5l3 21q10 7 19.5 12.5
t20.5 10.5q30 13 59.5 15t65.5 -8q5 -2 8.5 -2.5t8.5 -2.5q7 -5 12.5 -9t10.5 -8l8 -6l10 -9l15 -14l12 -11q7 -8 11.5 -14.5t8 -17t6.5 -27t7 -42.5l6 -45v-2q1 -10 0.5 -20.5t-2.5 -23.5l-8 -42l2 -27q-10 -13 -15.5 -23.5t-13.5 -35.5q-2 -8 -9.5 -18t-24.5 -22l-27 -20
l-39 -17l-40 -6l-46 7l-31 11q-3 4 -6.5 7.5t-6.5 7.5q-30 35 -46 69q-5 11 -9.5 22.5t-9.5 25.5q-1 3 -2 6.5t-2 7.5zM121 559q-3 -9 -5.5 -17.5t-3.5 -17.5q-3 -17 -2.5 -27.5t2.5 -17.5q4 -16 7.5 -28t5.5 -22.5t3 -21t2 -22.5l16 -36l19 -28q7 -9 15 -13q28 -16 46 -5.5
t32 48.5l13 35l18 66l6 42q-8 13 -8.5 20.5t1.5 12.5q10 17 12 21.5t1 6.5q-3 6 -6 13.5t-5 18.5q-3 14 -6 27t-8 27l-4 14l-6 19l-29 20l-19 15q-14 5 -27 1.5t-23 -12.5q-2 -4 -6 -10q-15 -23 -24 -48l-15 -38zM636 281q-7 -17 -10 -35q-4 -32 0 -45q4 -16 7.5 -28
t5.5 -22.5t3 -21t2 -22.5l16 -36l19 -28q7 -9 15 -13q28 -16 46 -5.5t32 48.5l13 35l18 66l6 42q-7 13 -8 20.5t2 12.5q9 17 11 21.5t1 6.5q-3 6 -6 13.5t-5 18.5q-3 14 -6 27t-7 27l-4 14l-6 19l-30 20l-19 15q-13 5 -26.5 1.5t-23.5 -12.5q-2 -4 -6 -10q-15 -23 -24 -48
l-15 -38z" />
    <glyph glyph-name="ampersand" unicode="&#x26;" horiz-adv-x="821" 
d="M40 276q2 8 4 11q-1 5 -1.5 10.5t0.5 10.5q3 25 21 45q2 20 11.5 32.5t34.5 26.5l32 16l3 2l22 11l22 10l-17 17q-10 13 -22 21q-15 8 -28 11q-9 10 -15 21q-11 19 -17 45q-8 35 -7 59t9 44l11 27q16 9 22.5 13t9.5 6l76 51h4h9.5t17.5 1q5 1 10.5 2t17.5 4l19 4
q7 -6 13.5 -10t14 -7t17.5 -6t24 -7q2 0 7.5 -3t29.5 -17q13 -8 20.5 -12t11.5 -7.5t7.5 -9.5t9.5 -16q2 -3 6.5 -7l13.5 -12q4 -3 4.5 -10.5t-6 -21t-22.5 -33.5t-46 -48q-13 -12 -27 -9q-10 2 -15.5 10t-3.5 13q5 7 9 14t9 14q2 4 2.5 12.5t-1.5 32.5q-3 33 -15 44t-44 9
q-4 0 -7 -0.5t-7 -1.5l-27 -16q-9 -1 -16 0l-5 1l-5 2l-29 -88l-5 -24l-1 -9l-4 -19q16 -38 57 -44l12 -1l4 -1q2 0 5 -3.5t14 -17.5q1 -2 5 -2.5t22 -3.5q7 -2 14 -8q8 -8 6.5 -17.5t-10.5 -14.5l-29 -7l-29 -8q-10 0 -19 4q-4 -7 -7.5 -13t-8 -12.5t-11 -15t-16.5 -20.5
q-2 -3 -6 -9.5t-15 -29.5q-16 -33 -17.5 -53.5t9.5 -40.5q-2 -39 23 -70q-5 -14 1 -21t32 -19l71 -34l2 -1q18 -5 41 -5q22 0 45 5q19 -7 37.5 -3.5t39.5 19.5q15 12 24.5 20t15.5 15.5t8.5 15t3.5 17.5l3 22l12 15q-3 29 7 55l-5 17l-9 24q2 26 -16.5 37t-67.5 6
q-21 -3 -33 -22q-18 -13 -10 -35q1 -5 6 -10l25 -10l-25 -23l-42 2l-30 17l-4 26l5 45q-3 28 10 57q2 5 4.5 9t5.5 8q10 5 18.5 10t17 10.5t18 13t22.5 18.5q35 30 77 21l3 2l-11 14q11 1 18.5 2t18 3t26.5 7t44 13q5 2 13.5 3t30.5 3q7 26 29 34q13 4 17 4q5 0 2 3
q-2 5 -3.5 9t-4.5 9q-8 12 -15 19t-14 11l1 21q11 10 25.5 14.5t30.5 2.5t31.5 -10t28.5 -23q10 -11 15 -25.5t5 -35.5v-6.5t-1 -6.5q-7 -8 -12 -20q-11 -25 -8 -51q-24 -26 -59 -32l-17 -10l-12 -6l-20 -12l-7 -4l-2 -1l-23 -11q-4 -2 -9 -5t-15 -8q-13 -1 -30 4l-6 2l-6 3
l1 -11l40 -20q22 -14 38 -35t27 -53q2 -5 3.5 -11t3.5 -11q-11 -14 -12 -25.5t6 -37.5q1 -5 0.5 -11t-3.5 -18l-1 -3l-1 -3l1 -1l-17 -18l-20 -26l-15 -17v-4l-13 -13l-7 -15l-11 -6l-20 -12q-12 -7 -19.5 -11t-15.5 -7t-19.5 -6t-32.5 -9q-8 -2 -16 -5t-16 -8q-1 0 -6 0.5
t-31 4.5q-8 2 -22 1.5t-44 -5.5q-5 0 -11 -2q-2 0 -4.5 1t-9.5 4t-20 9.5l-35 17.5q-2 1 -6.5 1.5t-26.5 5.5h-1l-32 11l-9 3l-27 8q-29 9 -51 28l-9 7.5t-7.5 8.5t-13.5 19.5t-27 41.5l-38 59q-2 9 0 23t11 41z" />
    <glyph glyph-name="parenleft" unicode="(" 
d="M54 399q-2 10 -4 15l-1 16v16v16v16l26 30l5 25l2 12l7 38v1q0 2 3 8t14 26q2 3 3.5 9t3.5 19q2 10 22 18q4 5 7.5 9t8.5 9q11 14 23.5 27t25.5 26q6 16 14.5 23.5t31.5 21.5q4 2 8 6.5t15 18.5q4 4 11.5 6.5t22.5 2.5l21 2q-11 -9 -19.5 -19t-16.5 -21l-10 -14l-10 -14
l-10 -14l-10 -13q-5 -15 -11 -23.5t-23 -26.5q-12 -12 -19 -44l-5 -38l-2 -24q-11 -11 -14 -27t5 -30l-19 -32l4 -34q0 -24 -3 -48q-2 -8 -2 -14q3 -26 3 -42l1 -23l1 -20q0 -5 1 -11.5t4 -20.5l6 -41l4 -39q-1 -7 -0.5 -13t2 -13.5t5 -18.5t9.5 -27q2 -5 3.5 -9t3.5 -9
l11 -24l4 -10l13 -34l1 -1q2 -3 5 -8t14 -20q3 -4 6 -10l10 -20q1 -2 2.5 -4t6 -6.5t13.5 -11.5t24 -19q3 -2 6 -7t11 -19l4 -24q-29 -4 -55 7q-15 7 -23.5 12t-14 11t-8.5 15t-6 24l-1 1l-44 37q-8 7 -16.5 15.5t-17.5 20.5q-8 9 -16 24q13 7 4 18q-3 4 -9 6
q-7 19 -16.5 32.5t-29.5 31.5q-8 7 -12.5 18.5t-6.5 34.5l-1 3l2 38v6q-2 25 -3 39.5t-3 22.5t-5 13.5t-9 14.5q-1 2 -2.5 3.5l-3.5 3.5q-1 1 1.5 3.5t11.5 13.5q5 5 7 18t-2 37z" />
    <glyph glyph-name="parenright" unicode=")" 
d="M0 816q30 4 55 -8q15 -6 23.5 -11t14 -11t8.5 -15t6 -24v-1l45 -37q8 -7 16.5 -15.5t17.5 -20.5q7 -11 15 -24q-11 -7 -4 -18q4 -5 9 -6q8 -19 17.5 -33t29.5 -31q7 -7 12 -18.5t7 -34.5v-3l-1 -38v-6q2 -26 3 -40t2.5 -22.5t4.5 -13.5t9 -14q3 -4 7 -7q0 -1 -2 -3.5
t-11 -13.5q-5 -5 -7 -18t2 -38q1 -3 1.5 -6.5t2.5 -7.5v-16l1 -16v-16v-16l-26 -30l-5 -25l-3 -13l-6 -37v-1q0 -2 -3 -8t-14 -26q-2 -4 -4 -9.5t-4 -18.5q-1 -5 -5.5 -9t-16.5 -9q-4 -5 -7.5 -9.5t-7.5 -9.5q-12 -14 -24 -27t-25 -25q-6 -16 -14.5 -23.5t-32.5 -21.5
q-3 -2 -7.5 -6.5t-15.5 -18.5q-3 -5 -10.5 -7t-22.5 -2l-21 -2q22 19 36 40l10 14l10 14l10 14l10 13q5 14 11 23t23 27q5 6 10 16.5t9 27.5l5 38l2 24q11 11 14 27t-5 30l19 32l-4 34q0 24 3 47q1 4 1 7.5t1 7.5q-2 13 -2.5 23.5t-1.5 18.5l-1 22v21q0 5 -1 11.5t-4 20.5
l-7 41l-3 39q1 7 0.5 13t-2 13.5t-5 18t-9.5 27.5q-2 5 -4 9t-4 9l-10 24l-4 10l-14 34v1q-2 3 -5 8t-14 20q-3 4 -6 10l-10 20q-1 2 -2.5 4t-6 6.5t-13.5 11.5t-24 19q-3 2 -6 7t-11 19z" />
    <glyph glyph-name="asterisk" unicode="*" horiz-adv-x="468" 
d="M29 534l29 80q18 2 32.5 -0.5t34.5 -13.5q12 -5 26 -4q2 0 2.5 -2.5t2.5 -11.5q1 -7 9 -7q9 1 16 9t12 30q3 11 3.5 21t-1.5 19q-2 14 -4.5 21t-4.5 12q-1 2 0.5 5t9.5 14q2 2 -2 9q18 14 40 14t40 -14q-2 -13 0 -22.5t9 -25.5q0 -2 0.5 -4t0 -7.5t-1.5 -15.5t-2 -27
q0 -4 1.5 -9.5t6.5 -19.5q11 9 22.5 10t30.5 -7l3 2l16 12q16 14 50 13q2 -5 3 -9.5t3 -9.5q5 -16 10.5 -31t12.5 -30q-14 -7 -26.5 -10.5t-35.5 -8.5q-3 -1 -8.5 -3.5t-20.5 -10.5l-18 -10l-9 -6q47 -44 64 -107q-13 -4 -18.5 -10t-19.5 -26q-3 -5 -9 -9t-19 -9
q-15 14 -25 27.5t-23 39.5q-3 7 -11 13.5t-26 14.5l-14 -14q-37 -37 -70 -81q-4 4 -7 7.5t-7 7.5q-23 22 -53 39q8 5 16 15q20 21 32 43.5t17 48.5q-5 7 -9 11.5t-10 7.5t-15 5.5t-25 6.5l-9 3z" />
    <glyph glyph-name="comma" unicode="," horiz-adv-x="257" 
d="M48 27q-7 7 -19 33l13 10l10 38q5 6 10.5 11.5l10.5 10.5l9 9l10 9q19 16 43 11l13 -6l44 -14q5 -14 11 -25.5t19 -27.5q4 -4 5.5 -10.5t0.5 -20.5l-6 -25l-7 -25l-17 -34l-32 -40l-15 -18l-3 -5q-7 -10 -13 -26q-11 -6 -21 -11.5t-21 -11.5q-11 -5 -20.5 -10t-20.5 -10
l5 15l-10 19q16 18 28 25q17 10 24 13t11 5q4 1 3.5 12.5t-10.5 50.5q-1 1 -1 2t-1 2l-20 4q-5 7 -8.5 11.5t-7.5 9.5l-7 8l-10 11v0z" />
    <glyph glyph-name="hyphen" unicode="-" horiz-adv-x="342" 
d="M29 203q22 30 25 66l-10 51l35 -14h42h36h35q5 1 12 2t25 5l28 6l9 2l39 3l8 -24l-10 -29l-20 -42q1 -16 -10.5 -26.5t-38.5 -14.5q-14 -3 -37 -1q-10 0 -20 3q-16 0 -37 3q-16 2 -21 3.5t-7 3.5q-8 5 -23 1t-45 -24z" />
    <glyph glyph-name="period" unicode="." horiz-adv-x="259" 
d="M29 92l5 7l35 32l20 13l33 5q5 4 8 5.5t7.5 0t12 -6.5t21.5 -14q3 -2 8.5 -3.5t22.5 -5.5q5 -1 9.5 -5.5t11.5 -15.5l7 -15l-4 -13v-11v-48q-2 -3 -7.5 -7t-23.5 -12l-29 -14l-24 -16l-7 3l-46 15l-11 4l-1 1q-12 6 -21.5 21t-17.5 43l-9 35v2z" />
    <glyph glyph-name="slash" unicode="/" horiz-adv-x="449" 
d="M36 20q2 13 5.5 22.5t14.5 26.5q1 1 2 13q1 13 -2 28q15 5 19.5 15t3.5 34q-2 15 19 34l7 16l5 15l5 14l5 14l4 14q7 12 13.5 24t12.5 24q6 13 11.5 26t10.5 27l4 24l7 14t5.5 13t5 16t5.5 23q1 3 2 7.5t4 11.5t8.5 18.5t13.5 29.5q3 5 5 13.5t5 26.5l1 1l16 22
q2 3 3.5 6t3.5 5q5 11 8 20.5t3 20.5q-2 4 -2 9v1l22 27q7 10 9 17q9 23 1 45l30 38q10 5 18 4t23 -9q9 -5 21.5 -4.5t27.5 9.5q0 -32 -16 -57l-12 -43q-8 -6 -12.5 -11t-7.5 -12.5t-5.5 -18t-5.5 -26.5q-2 -6 -5.5 -14t-12.5 -22l-13 -37l-11 -26l-8 -21l-2 -5l-4 -10
l-6 -12q-3 -15 -7 -31t-9 -31l-4 -35l-11 -20q-5 -5 -7.5 -8.5t-4.5 -7.5v-1l-13 -47q-2 -8 -6 -18t-12 -28q-6 -13 -9.5 -20.5t-7.5 -19t-10.5 -31.5t-18.5 -58q-5 -17 -10 -26t-13 -17q-10 -9 -14.5 -13t-8.5 -6l2 -26q0 -5 -2.5 -19t-9.5 -31q-2 -5 -4.5 -10.5
t-5.5 -10.5l-9 -4q-14 -1 -25 4t-19 13q-8 10 -9 12l-21 -21q-15 -3 -15 9q2 18 8 31z" />
    <glyph glyph-name="zero" unicode="0" horiz-adv-x="615" 
d="M26 356q-1 7 3.5 10.5t12.5 2.5l9 50v15v3v27v2q1 6 2 13t3 15l-3 30l11 7v42l2 32q8 -12 22.5 -12.5t24.5 10.5q15 15 5 34l4 33h4q18 3 24 20q11 5 19 8.5t16 7.5l20 11l6 3q8 4 19 6.5t30 1.5q12 -1 20.5 -0.5t15.5 2.5q14 3 20.5 4.5t10.5 3.5q2 1 5.5 -1t20.5 -13
q2 -2 5.5 -2t22.5 -1q5 -1 10.5 -3t16.5 -10l35 -13l-8 -8q3 -3 10 -5q6 0 9 1q17 -17 26 -39q4 -7 5 -14q2 -8 5 -11q5 -5 12.5 -4.5t12.5 5.5q8 -8 12.5 -13.5t7.5 -13.5t5.5 -22.5t7.5 -39.5q1 -5 3 -11t9 -21q2 -17 4.5 -29t7.5 -31q2 -5 3 -8.5t3 -8.5q1 -2 0.5 -6.5
t-2.5 -28.5v-11t2 -25q1 -5 0 -12t-5 -21q13 -16 9 -36t-22 -30l-3 -18l7 -24l-19 -20q-4 -9 -5.5 -17t-1.5 -22q0 -2 -1.5 -5.5t-5 -9.5t-10 -16t-17.5 -25q-2 -2 -4 -4.5t-4 -4.5l-31 -33l-32 -29l3 -8l-14 6q-7 -6 -13.5 -10t-15 -7.5t-20 -6t-28.5 -5.5q-12 -3 -23.5 -4
t-22.5 -2q-12 4 -24 6.5t-24 3.5h-25q-7 -2 -13 0q-21 2 -35 17q-2 7 -3.5 12t-5.5 9.5t-11.5 10.5t-21.5 17l-25 39l-4 7l-12 17l-4 15q-17 25 -26 51q-3 14 -6.5 22.5t-11.5 22.5q-2 3 -3.5 6t-3.5 6q-3 5 -3 17t9 35q1 1 -1.5 6t-14.5 31q-4 8 -4 18zM169 417
q-12 -16 -9 -24q5 -20 6 -24.5t0 -5.5q-17 -6 -18 -13t12 -27q10 -16 16 -35v-1l8 -75l1 -8l3 -28q3 -5 5.5 -10t5.5 -10q13 -18 27 -29l-13 -9q-3 -15 5.5 -28.5t24.5 -15.5l15 -21q40 -15 82 -8l23 17l12 32q10 21 18.5 32t22.5 21l-6 30q2 6 3 12t3 11q7 22 16 38l6 43
l17 34q-5 8 -5.5 16.5t5.5 16.5l-7 -1l-6 10q-11 7 -13 19q-2 19 14 26q6 2 7 2q17 25 7 38q-9 13 -11 17t-2 6q0 37 -1.5 50.5t-5.5 20.5q-14 28 -19 43t-7 35l-8 15l-26 19l-20 12l-20 21l-11 3q-31 11 -61 -5q-5 -3 -9 -6t-8 -7l-19 -31q-8 -12 -13 -20t-8 -14t-5 -12
t-3 -14l-4 -28l-19 -31v-11v-4l1 -23v-3q0 -12 -3 -27z" />
    <glyph glyph-name="one" unicode="1" horiz-adv-x="612" 
d="M146 650q32 26 67 34q4 1 7.5 1t6.5 1q13 2 24 4.5t19 5.5l4 1l33 18q5 3 13.5 6.5t25.5 8.5l9 11q6 4 13 2t10 -9q2 -5 0 -10l5 -10l-6 -47l-7 -48q1 -3 2 -10.5t7 -36.5q9 -37 -6 -84q-1 -7 -5 -16l4 -28q1 -6 1 -14v-22q3 -11 4 -20t1 -17v-32.5t-1.5 -21t-5 -15.5
t-8.5 -16q-5 -8 -3 -20t14 -25l1 -8l-1 -9q0 -21 -6 -42l-1 -24l1 -21q2 -40 12.5 -58.5t36.5 -32.5q4 -2 8 -3.5t9 -3.5l32 -19q1 -11 -4.5 -19.5t-13.5 -11.5l-32 5q-4 1 -10 1t-23 1q-7 0 -18.5 2.5t-43.5 12.5q-4 1 -9.5 1t-15 -1.5t-24.5 -6t-38 -11.5l-12 -3
q-17 -5 -23.5 -5.5t-13.5 0.5q-17 2 -25 17t0 32q5 2 8.5 4.5t8.5 4.5q14 6 27.5 11t27.5 8q9 13 12 25t4 34v7.5t-0.5 13t-1.5 22t-3 35.5v2l2 63q1 11 1 26t-1 47v21v6l1 1l3 28q3 24 0.5 37t-13.5 27l1 3l7 40q3 17 4.5 26t1 16t-3 14.5t-6.5 21.5q-4 12 -4 35
q1 5 -3 9.5t-9 6.5q-19 5 -35 -5z" />
    <glyph glyph-name="two" unicode="2" horiz-adv-x="612" 
d="M85 618q6 5 11 6l27 38l13 7l12 6l24 14l14 7l22 13l26 9l42 8l27 9q19 4 34.5 1t41.5 -19q3 -2 10.5 -2.5t34.5 1.5q7 0 20.5 -8t34.5 -34q8 -8 11.5 -14.5t8.5 -17.5q3 -8 5.5 -15t4.5 -15q5 -22 7.5 -34t2 -21.5t-4.5 -19.5t-11 -28q-2 -5 -4.5 -13t-4.5 -23l-26 -30
l-8 -23l-32 -33q-8 -8 -13.5 -14.5t-11.5 -14t-13 -18.5t-18 -28q-5 -7 -11.5 -16t-21.5 -26q-9 -10 -17 -18l-16 -16l12 -3l-21 -19q-10 -12 -16.5 -20t-12.5 -14q-17 -17 -23.5 -23t-10.5 -10q-2 -2 -5 -7t-8 -18l6 -6t6.5 -2t13.5 1.5l27 4.5q6 2 11.5 2t10.5 1
q7 0 13 -0.5t13 -1.5t16.5 -3t24.5 -5q4 -1 9.5 -1.5t19.5 0.5q-2 0 -2 2q0 3 2 3q2 1 7 1l51 -1l32 20q1 8 3.5 17t10.5 21q7 10 15 17q6 5 14 4.5t14 -5.5q8 -8 9 -16q-2 -7 -3 -13.5t-1 -13.5q-1 -7 -0.5 -13t1.5 -13l-18 -33l-2 -5l-2 -3q-2 -3 -3.5 -10.5t-6.5 -31.5
q-2 -7 -6 -16t-15 -24l-49 -9q-5 1 -9.5 1t-9.5 1q-21 2 -34 3t-22.5 1t-18 -1t-21.5 -4q-5 -1 -13.5 1t-33.5 10l-26 9l-14 -1h-13h-13h-13q-10 -5 -17.5 -7.5t-16 -4t-20.5 -2t-30 -0.5q-6 0 -15 -1.5t-26 -6.5q-14 12 -10 32.5t33 36.5q9 4 21 18q7 7 13 21l20 36
q38 30 57 76q6 23 20 44t41 44q5 4 9.5 7.5t9.5 7.5q-3 20 6 37.5t26 26.5q9 6 14 14q11 17 6 37l23 38q2 14 4 27.5t3 27.5v9.5t1 9.5q4 7 5 14q8 34 -8 50.5t-52 11.5q-2 0 -4 3.5t-3 14.5q-2 14 -10.5 17.5t-31.5 1.5l-27 -3l-32 -14q-30 -17 -58 -45q-16 -29 -44 -51
q-18 -2 -32 9.5t-13 31.5q0 23 21 39z" />
    <glyph glyph-name="three" unicode="3" horiz-adv-x="613" 
d="M68 591q-13 10 -16 23q-5 17 3 31.5t23 20.5q13 5 26 2q14 7 23.5 12.5t23.5 16.5q3 2 5.5 4.5t5.5 4.5q2 2 7.5 3t27.5 4q5 1 12 6t24 20l33 -2q11 -1 34 0q5 0 13 -3t31 -14q31 -15 45 -27.5t22 -29.5l1 -3l1 -3q11 -18 14 -33.5t2 -42.5q-1 -15 4 -31q0 -2 -4 -6
t-22 -16q-2 -1 -2.5 -5t-5.5 -22q-2 -10 -15 -22l-2 -1l-28 -19q-17 -11 -21.5 -19t0.5 -13q3 -4 5 -6t7.5 -4t16 -4.5l31.5 -7.5q8 -2 22.5 -11t38.5 -32l6 -6l2 -3l11 -16q17 -26 24 -42.5t12 -36.5l1 -8l1 -15q2 -26 -1 -43t-14 -37q-8 -14 -14 -22.5t-11 -13.5l-1 -1
l-39 -30q-6 -5 -14.5 -13t-23.5 -22l-27 -14l-11 -5l-66 -36q-5 -3 -10 -5q-9 -3 -15 -3.5t-26 0.5q-2 0 -7.5 -1.5t-28.5 -7.5q-2 -1 -4.5 -1.5t-10 -0.5h-20.5h-36h-24t-11 -1q-3 0 -5.5 2t-4.5 10q-5 11 6 23l46 6q8 2 17 4.5t26 10.5l40 3l12 11l9 22q45 -3 84 33
q19 18 29 43.5t12 67.5q1 27 0.5 42.5t-6 27.5t-18 23.5t-34.5 29.5q-16 13 -26.5 18.5t-20.5 7.5h-31q-7 -1 -20 0.5t-35 4.5q-5 1 -9 1.5t-9 2.5l5 20l-5 2q3 7 5 10.5t7 6.5t14.5 6.5l28.5 10.5q20 8 35 21q53 47 60 80t-16 53q7 22 -6 40.5t-35 20.5q-12 4 -24 6t-25 1
q-17 0 -30.5 -4t-36.5 -16l-16.5 -9t-10 -5.5t-8.5 -6l-12 -10.5l-5 -5q-2 -4 -6.5 -4.5t-8.5 1.5z" />
    <glyph glyph-name="four" unicode="4" horiz-adv-x="611" 
d="M21 299q2 3 5 6l6 6q16 16 37 31l27 36q13 14 22 26.5t20 32.5q2 2 5 5.5t17 16.5q2 2 4 5.5t13 19.5q5 7 13 14.5t23 18.5q10 30 32 53l7.5 7.5t8.5 6.5l17 13l8 11l12 15q14 18 21.5 31t13.5 30l23 26q7 12 20 24q5 5 13 10q14 8 27 2.5t16 -19.5q1 -5 1.5 -10t0.5 -10
l-5 -30l1 -53l-4 -31q-1 -5 0 -12t5 -19q-3 -8 -4 -15t0 -15t4 -17.5t9 -22.5v-2t-0.5 -5t-2 -11.5t-4.5 -20.5q-4 -15 0 -29v-2l11 -23q2 -3 3.5 -7.5t3.5 -14.5q15 7 23.5 12t13.5 10q11 10 17.5 15.5t10 8t4.5 3.5l2 2q1 3 6 3q9 -3 10.5 -8t-0.5 -26v-7t2 -18l-11 -39
l-15 -47q-3 -15 -12 -19l-27 -4q-5 -1 -11 -2t-17 -4l-7 -8q-7 -18 -1 -43q3 -11 4.5 -16t3.5 -8q0 -1 -0.5 -3t-4.5 -13h-1l6 -37q1 -15 0 -35q-1 -4 -2 -9.5t-3 -17.5q-2 -4 -2 -9.5t2 -16.5l-11 -35q-24 1 -34 0.5t-15 -1.5q-18 -3 -28.5 -5t-15 -1.5t-6 4t-1.5 9.5
q-1 8 -1.5 14.5t-1.5 13.5v3l-5 24q-2 9 -3.5 20t-3.5 28q3 10 4.5 18t2 16.5t-0.5 20t-2 29.5q0 6 0.5 15.5t3.5 26.5q-11 22 -40 26l-11 2l-15 2q-17 2 -30 3t-27.5 -0.5t-31.5 -5.5t-42 -10q-2 -1 -7 -0.5t-25 3.5q-2 0 -6.5 -0.5t-26.5 -4.5q-8 -3 -33 0zM192 375l26 -2
q28 -2 44 -2.5t36 1.5l4 20l4 20l3 18l4 18l9 25l-6 39q-26 4 -49.5 -10.5t-37.5 -46.5q-2 -4 -4 -10l-10.5 -15t-5.5 -9l-12 -25l-1 -1q-6 -11 -18 -18z" />
    <glyph glyph-name="five" unicode="5" horiz-adv-x="612" 
d="M56 -11q-10 6 -11.5 16t5.5 19l24 2l14 1l30 1h6q7 0 16 2t25 7q23 -3 45 5q10 4 14 6q4 1 7.5 2t7.5 2q28 10 46.5 19.5t30 19.5t16.5 21.5t7 25.5q2 2 4.5 5t4.5 5q7 9 11.5 16.5t7 15t2.5 16.5t-1 22q-1 5 2 10.5t11 15.5q2 10 2.5 20t-1.5 20q0 1 -0.5 5.5t-1.5 9.5
t-2 9t-1 6q-6 25 -12 39.5t-15 23.5t-24 13.5t-40 10.5q-3 1 -6 1t-5 1q-20 12 -46 7.5t-79 -34.5q-5 -2 -8 -5l-27 -25h-1q-2 -2 -5.5 -1t-11.5 10q-3 7 -4 11.5t0 10.5t4 14.5t9 23.5q1 2 1.5 8.5t2.5 33.5q1 7 3.5 17t10.5 27l3 42l15 30q-11 14 -14 32q-2 17 1 30
q7 14 10 29.5t3 30.5l-6 1l7 21q11 3 20 4.5t19 1.5t22.5 -1.5t32.5 -4.5q4 -1 12.5 0t36.5 3q4 1 11 0t25 -4q5 -1 11.5 0.5t20.5 6.5q6 2 10 3t9.5 1t13.5 -1t21 -4t35 11q14 9 22 25q13 -5 16.5 -17t-5.5 -26q-1 -2 -4 -5l-4 -40l-8 -20l-2 -4q-8 -24 -14.5 -30.5
t-26.5 -7.5q-4 -1 -11 0t-24 3h-2t-5 -1t-11.5 -3.5t-20.5 -6.5q-15 -5 -35.5 -6.5t-53.5 0.5q-31 2 -43 -1t-24 -17l-2 -31v-12v-13l-1 -15l-2 -16l15 6q24 6 48 3q19 4 35 5.5t45 1.5h28h12q2 -1 5 -2l6 -2q13 -6 22.5 -11.5t19 -13.5t22 -20.5t31.5 -32.5q3 -3 5.5 -6
t5.5 -7l20 -14q4 -14 4 -24.5t-2 -29.5q0 -4 -2 -12q0 -2 2 -5.5t12 -17.5q2 -3 4 -14.5t-3 -36.5q-2 -12 -6 -23.5t-17 -36.5q-3 -6 -4.5 -15.5t-0.5 -28.5q-17 -7 -32 -22q-15 -16 -23 -33q-2 -16 -10.5 -25.5t-28.5 -19.5q-5 -3 -15 -6.5t-38 -13.5q-5 -2 -14 -6.5
t-37 -20.5q-8 -5 -15 -6q-25 -8 -48 2q-25 0 -42 -13q-8 -5 -12 -10l-46 16l-9 -3q-11 -3 -17 -4t-11 -2q-15 -2 -22 -1t-13 5z" />
    <glyph glyph-name="six" unicode="6" horiz-adv-x="613" 
d="M63 257q0 4 -2.5 8.5t-12.5 14.5l5 48l5 31q5 10 8.5 18.5t7 19.5t6.5 26.5t8 39.5q1 2 3.5 8.5t15.5 30.5q3 5 5.5 11.5t6.5 20.5q0 1 1 2l4.5 4.5t10.5 10t20 18.5l2 2l30 38q19 25 36.5 36.5t46.5 21.5q8 2 11 3q-5 26 34 19q20 -3 28 5l1 1l7 11q4 5 15 12t40 15
q6 2 11 2.5t13.5 -0.5t24 -3.5t42.5 -7.5q14 -2 34 1q11 3 24 1q6 -1 9 -6.5t-1 -13.5q-14 -6 -24.5 -9t-27.5 -8q-4 -1 -7 -2t-7 -2q-3 0 -8.5 -3t-25.5 -15q-5 -2 -16 -5t-37 -6q-3 -1 -6 -1t-6 -1q-5 0 -11 -2.5t-17 -10.5l-36 -18l-35 -31q7 -15 -1 -28l-27 -15
q-36 -20 -50 -71q-1 -5 -1.5 -8.5t-1.5 -8.5q37 13 71 19q29 5 47.5 7.5t31 1t20.5 -7t16 -15.5q12 -1 22.5 -4.5t22 -11t25 -21t30.5 -33.5q3 -3 5.5 -6.5t5.5 -7.5q2 -21 9 -40.5t25 -52.5l6 -15q3 -11 3 -21t-4 -27q-1 -5 -3 -12.5t-10 -32.5q-2 -7 -4 -17t-4 -30
l-27 -43q-4 -12 -8.5 -20t-11.5 -15t-18.5 -14t-29.5 -17l-4 -2l-36 -21l-22 -4l-21 -4l-22 -4l-22 -4q-26 -3 -53 10l-36 9l-24 15q-26 10 -42 33l-40 27l-9 15q-7 11 -12.5 22t-10.5 23l-10 36q-3 12 -4.5 19t-2.5 13q-2 23 -3 33t-1 16zM190 302q-8 -20 -3 -30
q8 -14 9.5 -17.5t1.5 -5.5q-2 -4 -3.5 -9.5t-3.5 -18.5q-3 -21 1 -43q1 -4 1.5 -7t1.5 -7q0 -19 8 -37q9 -21 17 -32t16 -16q29 -20 40 -24t14 -2q8 4 12 5q11 5 16.5 6t13.5 2q9 1 18.5 3t17.5 7q19 11 30 26q3 12 4.5 18.5t1.5 11.5l2 29l1 2q4 12 6.5 18t3.5 9.5t0 6
l-3 7.5l-3 37v12q-1 17 -1.5 26.5t-0.5 14t-0.5 5.5t-0.5 2q-2 4 -5.5 9.5t-8.5 16.5q-13 23 -19 53q-2 3 -2 6.5t-1 7.5l-22 19l-52 17q-13 -10 -20.5 -15t-12.5 -8l-32 -20l-1 -1q-2 -2 -5 -4.5t-5 -4.5q-24 -23 -30.5 -39.5t-1.5 -35.5z" />
    <glyph glyph-name="seven" unicode="7" horiz-adv-x="611" 
d="M48 567q-2 3 -2 6.5t-1 6.5q6 10 11 18.5t10 17.5t10.5 19.5t13.5 26.5q3 8 6.5 14.5t6.5 13.5q1 4 4 7q10 13 15.5 19.5t11 8.5t14 1t25.5 -4q5 -1 12 1.5t20 10.5q13 -7 24 -9.5t33 -3.5l13 -1h25q6 0 14 -1l24 -3l44 3l32 12q16 -3 28 -3l60 1h7h22v-34
q-4 -5 -6.5 -11.5t-4.5 -12.5q-5 -13 -5 -26q-3 -5 -6 -9.5t-6 -9.5q-17 -29 -27.5 -48.5t-16.5 -33.5t-8.5 -25t-3.5 -22q-14 -6 -19 -18v-1l-1 -29q0 -5 -2 -15q-7 -34 -37 -52q5 -16 1.5 -26t-19.5 -30q-1 -1 -2 -3t-3 -8t-6.5 -18.5t-11.5 -34.5q-2 -3 -3.5 -7.5
t-6.5 -14.5q-3 -5 -4.5 -13t-3.5 -26q-1 -2 -4 -6t-17 -17q-3 -3 -4.5 -9t0.5 -18l-15 -31l-14 -27l-2 -4l-6 -16t-7 -19q-11 -14 -15.5 -21.5t-7.5 -13.5l-23 -49v-1l-37 4h-30q-4 0 -9.5 1t-16.5 4l10 32l4 11q5 8 8.5 15t8.5 13l3 4l18 21q3 4 6.5 9t8.5 14q7 12 11 23
l1 17l11 23l3 6l17 35l1 1q1 4 1.5 9.5t1.5 20.5q0 5 2 10t8 16l19 37q13 24 20.5 39t13 24.5t10.5 17t13 17.5l7 16l5 13l3 9l7 19q3 8 7 18t12 26l17 30l16 38q5 5 7 15q3 16 -13 21q-13 3 -25.5 1.5t-37.5 -9.5l-35 6q-25 5 -41 4t-33 -8q-44 12 -84 -24q-3 -2 -5.5 -5
t-5.5 -6l-17 -20l-2 -2q-5 -7 -16 -8t-28 8q-8 16 -11 32z" />
    <glyph glyph-name="eight" unicode="8" horiz-adv-x="610" 
d="M71 131q-2 5 -4 11t-7 20v10l6 14q1 14 3.5 26t9.5 28q9 20 14.5 32t11 20t12.5 13.5t19 13.5q2 2 5.5 6.5t13.5 19.5q14 22 39 33q4 2 1 5q-11 12 -23.5 21t-34.5 20q-3 1 -6 4.5t-8.5 13t-14 28t-22.5 48.5q-4 8 -4.5 28.5t7.5 49.5q3 11 7 20l6 10l3 27l40 29
q19 14 30.5 22t22 12.5t22.5 6.5t32 4q4 0 8 0.5t9 -0.5q21 0 30 -0.5t12 0t3.5 2.5t3.5 5q2 4 11.5 3t40.5 -10l52 -15q3 -2 6.5 -6.5t13.5 -17.5q3 -4 8.5 -7t18.5 -6q23 -10 38 -30.5t17 -46.5q4 -10 5 -19.5t0 -18.5l-1 -2l-13 -35q-2 -5 -4 -13t-4 -24l-24 -26
q-1 -20 -14 -30.5t-33 -8.5q-3 1 -6.5 1.5t-6.5 1.5l-6 -19q11 -4 25 3l-1 -22q13 -17 23.5 -28t33.5 -28q4 -2 7 -4.5t7 -4.5q1 -1 1.5 -2.5l2 -6t4 -13t6.5 -24.5q2 -6 6.5 -14t15.5 -24q1 -1 0.5 -6t-2.5 -32q-1 -4 0 -11l4 -28q2 -7 0 -17t-8 -28q-10 -25 -22 -41
q-7 -3 -13.5 -6t-12.5 -8q-5 -4 -10.5 -8t-10.5 -9q-15 6 -24 -0.5t-20 -30.5q-2 -5 -12.5 -9t-34.5 -5q-3 0 -6.5 0.5t-6.5 0.5q-17 3 -22.5 4t-9.5 3q-2 1 -3.5 -0.5l-6.5 -6.5q-7 -9 -15.5 -11t-27.5 1q-6 1 -13.5 2t-16.5 1l-27 1h-8h-19l-13 6l2 12q-33 9 -59 28
q-19 14 -30 26t-17 23v1zM208 584q-2 -25 8.5 -47t29.5 -36l34 -20q19 -17 44 -18t47 16q13 10 22 25l6 15l1 44q-16 26 -5 53q4 8 6 11l-27 28l-1 7l-28 3l-28 3l-4 1q-6 0 -12.5 -0.5t-12.5 -1.5q-42 -8 -66 -41zM209 269q-15 -11 -20 -29t1 -35l6 -25l-2 -2
q10 -9 11 -21.5t-7 -22.5l10 -48l52 -22q43 -18 62.5 -18.5t25.5 6.5l16 16t9 7q14 8 22.5 14t14 13t8.5 16.5t5 23.5q4 28 -10 57l-14 20q-9 23 -25 41q-11 11 -20 17.5t-17 11.5q-30 14 -45 23q-14 7 -21.5 10.5t-14.5 0.5t-15 -13.5t-22 -30.5q-2 -2 -3 -4.5t-3 -5.5h-4z
" />
    <glyph glyph-name="nine" unicode="9" horiz-adv-x="613" 
d="M56 -4q-16 2 -8 20q14 5 24.5 8.5t27.5 8.5q4 1 14 3q2 1 7.5 4t25.5 14q5 3 16 6t37 6q5 1 13 1q5 1 10.5 3.5t16.5 9.5l36 18l35 31q-7 17 2 29l27 15q17 10 30 28t19 43q3 7 3 17q-19 -7 -36.5 -12t-34.5 -8q-29 -5 -47.5 -7t-30.5 -0.5t-20 7t-16 15.5
q-12 1 -22.5 4.5t-22 11t-25 20.5t-30.5 33q-3 4 -6 7.5t-5 7.5q-2 20 -9 40t-25 52q-2 4 -3 7.5t-3 8.5q-3 11 -3 21t4 27l3 12t10 33q2 7 4 16.5t4 29.5l27 44q4 12 8.5 20t11.5 15t18.5 14t29.5 17l4 2l36 21l21 4l22 4l22 4l22 4q14 1 27 -1.5t25 -9.5l37 -9l24 -14
q25 -10 41 -33l40 -28q3 -3 5.5 -6.5t4.5 -7.5l12 -22t11 -23l10 -36q6 -24 6 -32q3 -23 3.5 -33t0.5 -16q0 -4 3 -8.5t13 -14.5l-5 -48l-6 -31q-5 -10 -8.5 -18.5t-6.5 -20t-6.5 -27t-7.5 -39.5q-1 -2 -3.5 -8t-16.5 -30q-2 -5 -4.5 -12t-6.5 -21l-1 -1l-4.5 -4.5
l-10.5 -10.5t-20 -19l-2 -2l-31 -38q-19 -24 -36 -36t-47 -21q-3 -1 -11 -3q7 -28 -33 -19q-20 3 -29 -6l-1 -1l-6 -10q-4 -5 -15.5 -12t-40.5 -16q-6 -2 -10.5 -2t-13 1t-24 3.5t-42.5 7.5q-6 1 -14.5 0.5t-19.5 -2.5q-12 -2 -24 0zM213 619q-4 -12 -5 -18t-1 -11l-3 -30
v-1q-9 -23 -10 -28t2 -13l3 -38l1 -11q1 -17 1.5 -26.5t0.5 -14t0.5 -6l0.5 -1.5q2 -4 5.5 -9.5t8.5 -16.5q6 -12 11 -25.5t8 -27.5q1 -4 1.5 -7t1.5 -7l22 -19l52 -17q13 9 20.5 14.5t12.5 8.5l31 20l1 1q8 6 11 9q24 23 30.5 39t1.5 36q5 11 4.5 18t-2.5 11q-8 15 -9 18.5
t-1 4.5q2 5 3.5 10.5t3.5 18.5q2 9 1.5 20.5t-2.5 22.5q-1 4 -1.5 7t-1.5 7q0 19 -8 37q-9 20 -17.5 31t-16.5 17q-29 19 -39.5 23t-14.5 3q-3 -2 -5.5 -3t-5.5 -2q-11 -5 -16.5 -6t-13.5 -2q-18 -1 -36 -11q-17 -9 -30 -26z" />
    <glyph glyph-name="colon" unicode=":" horiz-adv-x="287" 
d="M43 92l5 7l35 32l20 13l33 5q5 4 8 5.5t7.5 0t12 -6.5t21.5 -14q3 -2 8.5 -3.5t22.5 -5.5q5 -1 9.5 -5.5t11.5 -15.5l7 -15l-4 -13v-11v-48q-2 -3 -7.5 -7t-23.5 -12l-29 -14l-24 -16l-7 3l-46 15l-11 4l-1 1q-12 6 -21.5 21t-17.5 43l-9 35v2zM43 395l5 7l35 32l20 13
l33 6q5 4 8 5.5t7.5 0t12 -7t21.5 -14.5q3 -2 8.5 -3.5t22.5 -4.5q5 -1 9.5 -5.5t11.5 -15.5l7 -16l-4 -12v-12v-47q-2 -4 -7.5 -7.5t-23.5 -12.5l-29 -14l-24 -16l-7 3l-46 16l-11 3l-1 1q-12 7 -21.5 21.5t-17.5 43.5l-9 34v2z" />
    <glyph glyph-name="semicolon" unicode=";" horiz-adv-x="287" 
d="M43 395l5 7l35 32l20 13l33 6q5 4 8 5.5t7.5 0t12 -7t21.5 -14.5q3 -2 8.5 -3.5t22.5 -4.5q5 -1 9.5 -5.5t11.5 -15.5l7 -16l-4 -12v-12v-47q-2 -4 -7.5 -7.5t-23.5 -12.5l-29 -14l-24 -16l-7 3l-46 16l-11 3l-1 1q-12 7 -21.5 21.5t-17.5 43.5l-9 34v2zM62 27
q-7 7 -19 33l13 10l10 38q5 6 10.5 11.5l10.5 10.5l9 9l10 9q19 16 43 11l13 -6l44 -14q5 -14 11 -25.5t19 -27.5q4 -4 5.5 -10.5t0.5 -20.5l-6 -25l-7 -25l-17 -34l-32 -40l-15 -18l-3 -5q-7 -10 -13 -26q-11 -6 -21 -11.5t-21 -11.5q-11 -5 -20.5 -10t-20.5 -10l5 15
l-10 19q16 18 28 25q17 10 24 13t11 5q4 1 3.5 12.5t-10.5 50.5q-1 1 -1 2t-1 2l-20 4q-5 7 -8.5 11.5t-7.5 9.5l-7 8z" />
    <glyph glyph-name="question" unicode="?" horiz-adv-x="403" 
d="M45 608q2 42 10.5 56t25.5 12l18 24q9 5 16.5 8.5t15.5 5.5l6 2l24 8q4 2 10.5 4.5t17.5 7.5q13 -4 23 -5t31 -2q4 0 15.5 -3.5t35.5 -13.5q23 -11 49 -32q6 -10 11 -19.5t9 -20.5q2 -4 3 -7t2 -7q4 -5 8 -15q11 -28 2.5 -47t-27.5 -24q5 -9 4 -19.5t-8 -18.5
q-10 -10 -22 -10l-18 -31q-18 -2 -29 -7.5t-33 -24.5q-5 -4 -12 -7.5t-22 -7.5q-5 -2 -10 -5q-19 -11 -29.5 -20t-14.5 -21t-1 -28t12 -41l-4 -31q-1 -5 -1 -11.5v-20.5q-8 -9 -20 -11t-22 6t-12 19t4 22l1 11v7q1 9 1 19.5v23.5q-1 5 0 13.5t6 28.5l-8 42q-2 6 -3 16t-3 27
q17 8 34 12.5t46 9.5q8 1 17 7t25 22q37 37 29 78q-10 74 -84 72q-14 0 -27 -7q5 -5 9 -13q14 -25 7.5 -43.5t-35.5 -41.5q-2 -2 -4 -3l-4 -2l-41 13q-16 6 -25 18t-9 26zM36 92l5 7l35 32l20 13l33 5q5 4 8 5.5t7.5 0t12 -6.5t21.5 -14q3 -2 8.5 -3.5t22.5 -5.5
q5 -1 9.5 -5.5t11.5 -15.5l7 -15l-4 -13v-11v-48q-2 -3 -7.5 -7t-23.5 -12l-29 -14l-24 -16l-7 3l-46 15l-11 4l-1 1q-12 6 -21.5 21t-17.5 43l-9 35v2z" />
    <glyph glyph-name="A" unicode="A" horiz-adv-x="708" 
d="M44 54q5 1 9.5 5t9.5 15l-1 22q2 2 4 5t4 5q11 17 15.5 30t7.5 38q1 5 4 11t11 16q2 8 4.5 14t4.5 12q17 40 42 71l-12 3l-13 -12q-3 2 -5 4l17 23q3 4 9 23q5 9 7.5 15.5t4 14.5t2.5 20t3 32q1 20 7.5 35.5t21.5 33.5q3 4 3.5 10.5t-2.5 19.5q2 4 2.5 7.5t2.5 6.5
q5 16 10.5 28.5t17.5 34.5l4 6l4 6q3 5 4 12q2 19 1 23.5t-13 9.5q-5 2 2 12l7 -5l8 5l-16 5l-26 9q-5 2 -9 4t-9 4q-6 3 -8.5 9.5t0.5 14.5q5 11 14 16q7 4 13 5.5t13 0t17 -7t25 -14.5q7 -4 18 -3t31 12q20 -3 39.5 -4.5t39.5 0.5q7 0 13.5 0.5t13.5 1.5l28 5
q27 5 40 -1.5t17 -26.5v-30l-16 -9l-40 -4q-1 -5 -1 -14q-1 -20 4 -38.5t22 -48.5q2 -4 3 -11t-1 -27q0 -2 3.5 -6t20.5 -20q0 -1 1 -2.5t2.5 -7.5l4.5 -18t8 -34q2 -4 4 -10.5t9 -21.5q1 -2 2 -6.5t3 -24.5q1 -5 3.5 -11l7.5 -18l-2 -14q6 -5 11 -10.5t10 -12.5
q9 -13 13 -29q1 -18 6 -35t18 -40q2 -3 3 -5.5t3 -5.5l5 -14l5 -14q5 -11 9.5 -22t9.5 -22q2 -14 9 -22t16 -10q17 -5 22 -4l1 -1q0 -2 -0.5 -3t-0.5 -3q-4 -9 -13 -5q26 -23 57 -30l-11 -32q-9 -4 -17 -5q-9 -2 -18 -2.5t-18 -0.5q-9 -6 -19 -3h-1l-13 11q-5 5 -13 7.5
t-20 2.5q-16 1 -30 -5q-15 -6 -31 -6q-8 0 -16 1t-15 4l-12 -1l-15 -2h-4l-25 -1q-30 -2 -39 3.5t-6 21.5q17 10 21 33q1 4 8 6.5t33 5.5q5 1 8 7.5t1 23.5q-14 18 -17 40.5t5 43.5q-6 8 -10 14.5t-8 12.5l-9 15l-6 11l-2 2l-6 8l10 5l-15 23q-17 19 -41 26t-58 2l-10 -2
t-10 -3l-47 3q-17 3 -29 0t-21 -17t-17 -40.5t-15 -68.5q-1 -5 -3.5 -11.5t-13.5 -26.5q-2 -5 -2.5 -13t1.5 -24q-5 -15 1 -29.5t20 -22.5q12 4 31 -2q4 -2 7.5 -4t6.5 -5q8 -8 7.5 -18.5t-8.5 -18.5l-47 -7q-12 6 -24 6h-2l-25 -2q-4 -1 -11 -1t-28 2l-26 2h-11
q-8 -9 -20 -13t-26 1q-6 1 -12 6q-14 10 -9 29q3 10 12.5 17t28.5 9l22 4h5zM258 354q14 -8 20.5 -9t10.5 1t11.5 4.5t29.5 9.5l18 4.5t25 4.5l4 25q-10 15 -13 20.5t-4 8.5q-7 22 -12 35.5t-8 22.5t-5.5 13.5t-4.5 8.5l-20 38v1q-2 6 1 14l9 -13l10 5l-27 29q7 7 4 16
q-2 7 -8.5 10t-13.5 0q1 -4 1.5 -7t0.5 -7q2 -21 -3 -39q-5 -12 -7 -18t-4 -11l-9 -32q-14 -15 -17 -18.5t-2 -4.5q11 -11 12.5 -23t-4.5 -20q-16 -18 -19.5 -28t1.5 -25z" />
    <glyph glyph-name="B" unicode="B" horiz-adv-x="668" 
d="M2 722q17 7 24 9t12 3l19 -10l-6 -11q11 -2 21.5 -3t21.5 -2h14q20 8 42.5 11.5t44.5 1.5l25 -3q14 -2 25 -1.5t30 7.5q6 2 14 0.5t21 -7.5l9 17l34 5q20 -3 36.5 -8t42.5 -16l19 -9l12 -6l5 -2l25 -16q19 -11 24 -20.5t4 -29.5q-1 -3 3 -9.5t21 -31.5q8 -11 7.5 -28.5
t-11.5 -37.5q-2 -4 -4.5 -7.5t-5.5 -6.5q-2 -2 0 -5.5t10 -14.5q2 -3 -3.5 -8t-28.5 -19l-41 -23q5 -16 -11 -21q-3 -1 -9 -1l30 -19q9 0 15 -1.5t12.5 -4.5t14.5 -8t19 -13q1 -1 3 -2t7 -3t13.5 -5t22.5 -7q8 -2 17 -8.5t24 -21.5q1 -19 4.5 -34t12.5 -38q2 -4 2.5 -10.5
t-1.5 -19.5l9 -47q-8 -11 -14.5 -21.5t-11.5 -22.5q-2 -5 -4 -10.5t-4 -10.5q-5 -14 -12.5 -22t-29.5 -21q-2 -1 -5.5 -5t-12.5 -16q-2 -4 -8 -6t-18 -3l-40 -15q-7 -2 -13.5 -3.5t-11.5 -3.5l-5 -3l-20 -9q-11 -6 -33 -10q-18 -3 -36 -3q-5 -5 -12 -5t-12 5q-4 6 -4 12
l-42 -2q-10 0 -19.5 0.5t-21.5 1.5l-47 -15l-32 7q-26 7 -52 21l-14 -6q-7 -9 -18 -11.5t-40 1.5l-45 6l-5 1l-8 3l-12 13q9 15 19.5 23t32.5 16q3 1 7 5q14 16 21 26t8.5 18t-2 17t-10.5 24q-2 6 -3.5 13.5t0.5 16.5q1 16 14 30l-5 20v52l3 48l3 28.5t0.5 18t-2 19
t-4.5 30.5l-1 2l-1 31l-1 32l-1 19l-2 18v21l-1 21l9 4l-15 28q2 17 -5.5 32t-23.5 23l-46 9q-9 6 -14 16q-2 8 0 15t8 11l12 6t12 5zM212 548q9 -8 10 -18.5t-9 -26.5q-29 -54 32 -69q28 -6 54 3l19 8l19 8l20 8l19 8l16 33l-5 -1l-4 -1h-6h-6l9 9q23 30 14 62q-3 10 -8 16
q-13 20 -19 29.5t-7.5 13.5t-0.5 5.5t2 6.5l-34 13l-24 13q-32 10 -55 -7t-34 -62l-4 -26l-4 -26zM211 321q2 -4 2 -7q8 -24 9.5 -35t-0.5 -16q-8 -23 -9.5 -29t-0.5 -8q10 -25 11.5 -38.5t-1.5 -31.5l-3 -24v-2q-2 -43 35 -64q5 -3 10 -4.5t10 -3.5q36 21 80 9
q5 -2 11 -3.5t11 -4.5l26 12q-11 3 -16 14q15 3 24 9l1 1l22 16l24 18q0 12 2 14l2 4t3 4q22 40 15 89q-3 23 -4 30t-1 10v19v1l-20 6q-17 4 -44 20q-2 5 -4.5 9t-5.5 8q-21 24 -52 24l-17 -10l-9 3q-29 7 -47.5 10t-31 1.5t-20.5 -7.5t-16 -17z" />
    <glyph glyph-name="C" unicode="C" horiz-adv-x="708" 
d="M33 303q-2 5 -3 12t-1 22l6 11q1 5 1.5 9.5t1.5 9.5q2 17 2.5 33.5t-1.5 33.5q-1 10 -0.5 19t3.5 19.5t8.5 24.5t14.5 34q1 2 1 5.5t-2 15.5l36 29q0 10 4 15.5t22 20.5l25 22h1q5 3 24 9q2 1 6 4.5t15 15.5l19 21l1 2q3 4 9 7t20 6q14 -8 25 -6t34 17q13 10 35 0
q13 -5 15.5 -6t3.5 -3q2 0 2 1q2 4 2 7l-17 9l9 9q22 -8 46 -10h2l44 2q15 1 25.5 1t21.5 -2t23.5 -6.5t31.5 -11.5h1l32 -4q5 0 11.5 -1.5l19.5 -4.5l34 -36l5 -48q-3 -20 -1 -35l3 -21t3 -12q2 -6 -1 -10q-6 -10 -15 -7.5t-25 22.5l-12 15l-10 13q-2 4 -7 8t-17 15
q-2 2 -4.5 6t-10.5 20q-2 5 -12.5 14t-31.5 19q-17 8 -46 8.5t-80 -7.5l-30 -5q-20 -5 -33.5 -12.5t-30.5 -24.5q-2 -2 -4.5 -5t-4.5 -5l-38 -30q-27 -19 -25 -54q-8 -8 -12 -13.5t-5.5 -15t-1.5 -25.5t1 -44q0 -5 -2 -12t-7 -20q-1 -2 0 -5t6 -14q1 -2 -0.5 -6t-9.5 -20
l-1 -1l1 -6l-7 -38q6 -5 10 -8.5t6 -9.5t2.5 -14.5t1.5 -23.5q0 -2 2 -7t12 -28q3 -7 5 -17.5t4 -29.5q7 -9 11 -15t7 -11l13 -22l2 -4q2 -2 6.5 -5.5t20.5 -13.5l20 -12l8 -4q10 -10 20 -16t21.5 -9t26.5 -3t35 2q2 1 7.5 -0.5t20.5 -8.5q4 -2 10 -0.5t17 8.5q21 -6 43 -3
l5 2l5 1l-5 14l36 8q11 -2 20 5.5t7 19.5q0 3 -1 5l8 6l1 10l6 -6l4 -1h1q10 0 18 8.5t7 24.5q0 8 -0.5 10t-0.5 4l4 11q8 8 16 9q15 5 27.5 -4.5t14.5 -25.5l-8 -42l-17 3l-3 -15q-5 -21 -9 -32q-11 -27 -21.5 -37.5t-30.5 -15.5l-3 -1l-37 -2q-3 0 -10 -1t-30 -5
q-5 -1 -9.5 -1.5t-9.5 -0.5q-15 -1 -27 1.5t-25 7.5l-29 2q-1 -8 -7 -12l-37 7h-1h-24h-21l-1 -9q-23 2 -41 7.5t-47 20.5q-14 7 -22.5 11.5t-15 9t-13.5 11t-19 17.5q-5 5 -12 9t-24 10l-11 3l5 8l20 5l-19 23l-28 18l-19.5 12t-9.5 8t-4.5 10t-5.5 18l-10 27q0 10 -0.5 18
t-2.5 16.5t-5.5 19z" />
    <glyph glyph-name="D" unicode="D" horiz-adv-x="789" 
d="M26 657q-13 8 -35 18q10 29 37.5 39t86.5 0q6 -1 15 -0.5t26 3.5l44 1l22 1h5q5 1 10.5 2.5l16.5 4.5l16 4l16 6q5 2 12.5 3t21.5 2q10 -14 22.5 -17t38.5 2q10 2 17 3t12.5 0.5t12 -2.5t17.5 -6q2 -1 7 -2t30 -4q4 0 11 -2t27 -7q5 -1 11.5 -1.5t20.5 -2.5q5 0 11 -3.5
t16 -12.5q14 -11 22.5 -17t14.5 -10l39 -24l1 -1q2 -1 3.5 -5t9.5 -21q2 -2 6 -6.5t21 -16.5l21 -15l7 -4l2 -14l3 -15l2 -13l2 -14q-2 -5 -1 -9t8 -10q3 -2 3 -11t-4 -42q0 -2 2.5 -5.5t13.5 -20.5q2 -3 3.5 -9t2.5 -18q24 -30 -14 -61q-3 -2 -4 -11.5t1 -42.5v-7
q-9 -17 -12.5 -33t-2.5 -41q0 -5 -3 -11t-12 -16q-17 -12 -27.5 -22.5t-24.5 -27.5q-8 -10 -13 -17q-4 -5 -12.5 -10t-26.5 -11l-27 -18q-18 -5 -29.5 -11.5t-30.5 -21.5q-3 -2 -5.5 -4.5t-5.5 -4.5q-1 -1 -5.5 -1t-27.5 2q-2 0 -7 -0.5t-24 -4.5q-1 0 -3 -0.5t-7 -0.5
t-14.5 0.5t-25.5 1.5h-2l-83 -9l-8 -1l-30 -2q-7 -2 -11 -2.5t-9.5 0t-15.5 2t-28 4.5q-8 2 -19 2.5t-28 -0.5q-5 -1 -11 1.5t-23 10.5q-5 3 -12 1t-19 -11q-31 2 -57 -8q-1 -6 -6 -9.5t-11 -1.5q-8 2 -12 12.5t1 24.5q1 4 7 10l23 12l23 12q11 8 17.5 23t4.5 33
q-1 5 -1.5 9.5t-2.5 9.5l-6 25q7 6 10.5 13t4.5 16t-1 22t-6 32l-3 12q-2 4 1 11.5t14 28.5q1 2 -1.5 7t-16.5 29q-3 5 -3.5 14t3.5 26l7 23q-1 3 -1.5 6.5t-1.5 6.5q-2 24 4 42l-2 13l-1 4l-7 45q-2 9 -2 22.5t3 39.5q2 10 2 14q4 20 -6 34t-45 37zM208 443l5 -14
q7 -23 9 -33t1 -16q-2 -20 -2 -33.5t0.5 -25t3 -21.5t6.5 -22q8 -22 -4 -40q-3 -4 -9 -10q24 -25 17 -43q-9 -23 -9 -33.5t9 -23.5q0 -5 3 -11q9 -29 16 -37.5t12 -7.5q11 2 17 1.5t11 -1.5q33 -8 49.5 -6.5t34.5 15.5q14 -8 20.5 -8.5t10.5 1.5q20 16 41 23l14 6l11 5
q13 5 24 13l31 28q3 7 5.5 13t5.5 13q2 6 3.5 12.5t3.5 13.5q30 35 36 77l6 37q-1 18 -1 26.5t1 13.5q2 17 3 27l1.5 15t0.5 6.5v2.5q-4 16 -5 22.5t-2 10.5q-2 32 -7 45.5t-21 25.5l-1 20l-6 12q-5 12 -9.5 19.5t-10 13.5t-12.5 11t-17 12l-18 12l-9 5q-16 12 -34.5 19.5
t-46.5 9.5q-23 2 -31.5 5t-19.5 11q-20 10 -43 5q-45 -8 -63 -30t-18 -67q0 -9 1 -14l-10 3l1 -39q12 -14 10.5 -33t-15.5 -32v-7v-3z" />
    <glyph glyph-name="E" unicode="E" horiz-adv-x="660" 
d="M39 657q-38 -3 -51 1t-17 16h12h3q4 0 4 5l-16 10q2 23 19.5 29.5t62.5 -2.5h2h38h31l35 3l37 6l18 -3h75q9 -2 17 -3t18 -0.5t22.5 2.5t30.5 6l36 7q6 -6 10 -8q18 -10 35 -1q15 2 24.5 3t17.5 3l36 7l5 2q4 1 9 0q9 -2 10 -8t1 -34q0 -3 4 -8.5t21 -24.5q2 -2 2 -7.5
t1 -31.5q0 -3 1.5 -8t7.5 -20q3 -7 1 -16q-2 -11 -11.5 -16.5t-19.5 -0.5q-17 9 -34 35l-9 18q-14 8 -29 15t-30 12l-26 13l-2 4l-43 -7q-11 2 -22 3l-22 2t-22 1h-22h-3l-26 -1q-37 -2 -47 -12.5t-7 -45.5q1 -2 1 -4.5t1 -4.5l-4 -24q5 -7 7.5 -14.5t3.5 -14.5v-7v-5
q-2 -7 10 -14q-14 -17 -17 -39t5 -44q2 -3 3.5 -6l3.5 -7q16 -14 37 -18t53 6q12 4 22 9q8 -5 19 -10q36 -12 62.5 0.5t61.5 60.5q2 4 4.5 7.5t4.5 6.5q2 7 4 9q7 9 16 2q8 -5 11 -12q6 -10 8.5 -17t2 -14.5t-4 -18.5t-9.5 -29q-4 -10 -5 -44q8 -13 10.5 -26t-1.5 -33
q0 -2 2 -5.5t10 -9.5q-4 -11 -9 -16q-8 -10 -21 -12t-24 4q-15 6 -20 24q11 18 3.5 28t-39.5 23l-2.5 2.5t-4.5 8.5q-20 5 -38 2q-9 -1 -18 -3.5t-17 -6.5q-17 11 -36 15t-45 0q-5 0 -13 -2l-36 -25q3 -18 3 -32l-1 -5l-2 -30v-5t0.5 -13.5t1.5 -30.5t3 -55q1 -5 1 -14
t-1 -33l3 -9q6 -15 10.5 -22.5t10 -10t14 -1t22.5 6.5l31 9l20 -19q36 -2 67 14q29 -5 57 3.5t50 27.5q9 0 18 3q27 6 45 29q2 13 8 22q8 10 20 13.5t24 -1.5q13 -5 19 -17q-4 -25 -14 -52q-2 -4 -3.5 -8t-3.5 -8q-31 -27 -40 -64q-1 -2 -1 -3.5t-1 -3.5q-17 1 -30.5 -3
t-33.5 -17h-1.5t-5.5 1t-12 2.5t-22 4.5q-8 1 -23 1.5t-56 -1.5q-4 0 -10 1.5l-26 6.5l-33 -3q-5 0 -12.5 -0.5t-20.5 -0.5q-5 -2 -15 -4q-23 -6 -38 -8.5t-27.5 -2t-24.5 4.5t-28 11q-3 1 -8 2t-15.5 0t-27 -4t-43.5 -9l-8 -2t-9 -2q-7 -1 -15 0t-22 5q-14 3 -23 12
q-9 7 -8.5 18.5t13.5 22.5q16 14 33 14q20 -1 35 13t16 34q1 10 -4 24v39l-4 45q-1 2 1.5 7t13.5 17q2 3 -0.5 11t-17.5 36q-2 2 -0.5 6t7.5 14q-12 29 2 58l-2 43l11 46q-8 20 -11.5 41t-2.5 42l8 40l-6 12l-6 13l-5 10l-5 11l8 11l-26 20q-3 0 -5.5 -0.5t-5.5 -0.5z" />
    <glyph glyph-name="F" unicode="F" horiz-adv-x="534" 
d="M70 722q3 0 8 1t15 4q21 -21 52 -23q5 0 10 0.5t10 1.5q43 2 77 28q13 -7 24 -8h3h25q3 0 8.5 -0.5t22.5 -3.5h3.5t9 1t18.5 2t34 4q10 1 29 0q8 -1 14.5 -1.5t14.5 -2.5l48 5q16 -22 24 -40l4 -7l8 -18q2 -4 5 -9.5t10 -15.5l1 -22l-11 -30l-22 -6q-3 8 -7 13
q-18 32 -41.5 46t-61.5 17l-18 1h-10q-45 -7 -89 -3q-26 6 -48 -7.5t-27 -39.5q2 -13 3 -25.5t3 -26.5l3 -16l3 -14q2 -8 3.5 -16.5t3.5 -17.5v-8v-5v-12l-2 -25q-1 -5 -0.5 -13.5t2.5 -23.5q9 -6 17 -10q36 -17 63.5 -13t46.5 27q2 -1 5 -1.5t5 -1.5q15 -3 24 -3.5t15 3
t10.5 12.5t10.5 24l18 39q17 8 35 0.5t24 -25.5q4 -12 1 -25q-7 -4 -11 -13l-1 -1l3 -32q1 -8 -4 -31v-21q2 -29 7 -52l-22 -33l-14 -1l-9 32q-5 5 -8 11q-6 8 -11 16t-10 17q-11 10 -21.5 12t-33.5 0q-4 0 -17 4q-6 -3 -10.5 -4t-10.5 -1t-15 1.5t-25 3.5q-4 1 -10.5 0.5
t-20.5 -2.5q-17 -12 -23.5 -29t-4.5 -43l1 -6l3 -23q2 -15 2.5 -35.5t-2.5 -49.5q-5 -44 2.5 -63t32.5 -29q5 -3 14.5 -5t31.5 -5q4 0 8.5 -3t13.5 -14v-1h-11q8 -8 8 -18t-7 -18q-3 -5 -12 -8q-29 9 -61 12t-72 -2l-59 -7l-5 -1q-5 -1 -13 0.5t-25 9.5q-7 -2 -12.5 -5
t-14.5 -10q-4 -4 -14 -3.5t-33 8.5q-3 1 -5.5 2t-5.5 3q-5 11 -1 23t15 18t22 3q20 -2 33 11.5t11 32.5l10 3q4 7 6 16q6 26 5 50l5 16q-17 22 -14 51q-10 14 -9.5 25.5t10.5 33.5q1 2 0.5 6.5t-4.5 20.5l-4 19l-2 7l20 41l-5 19l-5 16l-1 4l-11 32l-4 15l-10 31
q16 11 16 29.5t-16 29.5q12 30 8 59q0 6 -3 14q-3 4 -6 7.5t-7 6.5q-11 11 -22.5 19t-24.5 15q-11 0 -17 5q-8 5 -9.5 14t4.5 17q5 7 12 11t24 6q7 2 16.5 2t27.5 -2z" />
    <glyph glyph-name="G" unicode="G" horiz-adv-x="791" 
d="M23 373q-1 16 -1.5 31t0.5 31l21 31q3 10 5.5 19.5t4.5 19.5q1 4 1.5 7t1.5 7q8 0 15 5l19 44q2 3 5 8.5t13 20.5l9 14l4 6l7 -11q11 3 16 10.5t10 27.5q0 1 5 2t31 9q5 2 12 6t19 12l-13 12q8 3 14.5 4.5t14.5 2.5t18.5 1.5t27.5 0.5l49 1l-2 9q-5 2 -6 6.5t2 7.5
l4.5 4.5t5 1.5t10.5 -0.5t19 -1.5q3 0 8.5 1.5t22.5 7.5q1 1 3.5 1t9 -1.5t18 -4.5t31.5 -9q4 -1 13 -0.5t29 4.5l12 3l47 11l-4 -10l-3 -17l49 -5q13 -7 22.5 -9.5t26.5 -4.5h17q8 0 13 -12t5 -50v-26v-1l-9 -25q-5 -14 -5 -22.5t8 -17.5l-39 9q-4 14 -15 23.5t-25 11.5
q-5 -3 -9 0q-7 4 -1 10q5 8 16 8q7 0 12 -5q-8 12 -14 18.5t-12 11.5l-93 36l-23 9l-4 1q-11 3 -16.5 5t-11.5 1.5t-16 -3t-31 -7.5q-5 -1 -14.5 -3t-30.5 -6q-9 -3 -16 -6.5t-13 -9.5t-13 -14.5t-17 -22.5q-7 -9 -20 -20t-41 -27l-18 -11l-9 -5q3 -3 5 -10q7 -23 -13 -36
q-8 -17 -10 -31.5t-2 -42.5q0 -5 -2 -14t-7 -26q-1 -2 0 -6.5t6 -21.5q2 -5 0.5 -11.5t-6.5 -17.5l6 -39q3 -17 5.5 -28.5t6 -20t8 -15.5t11.5 -15q29 -17 53 -47l8 -46l5 -19h27l44 -18l1 -1l14 -8q12 -7 20 -11t16 -5t19 0.5t28 4.5q2 1 7 0t19 -6l25 -9q9 -5 20.5 1
t19.5 25q38 21 47 71q2 5 2 11v12l1 6l-1 43q0 44 -16 61.5t-62 22.5q-5 0 -10.5 3.5t-13.5 14.5l-12 11l-3 27q4 13 14.5 21t24.5 8q11 0 20.5 -6t14.5 -16l12 1l12 1l12 1l13 1q14 2 28.5 3t29.5 1q12 0 19.5 -0.5t13.5 -1.5q34 -4 45 -17t3 -31q2 -17 1.5 -32.5
t-4.5 -32.5q-2 -14 -2.5 -24.5t0.5 -18.5l1 -26v-5q1 -5 -1.5 -10.5t-10.5 -16.5q-1 -1 2 -3.5t15 -11.5v-1v-38q0 -6 1 -14t6 -22l-2 -31l-29 -7l-29 -6h-1q-7 -1 -17.5 -1.5t-36.5 -1.5q-6 0 -15.5 -1.5t-37.5 -9.5q-5 -2 -14 -1.5t-36 2.5q-8 1 -17 -3t-26 -15l-14 8
l-25 7q-9 4 -21 4q-10 2 -6 -11q-10 2 -18 3t-17 2t-21 2t-30 3q-7 1 -13.5 1h-13.5q-12 0 -26.5 7.5t-33.5 27.5q-8 9 -18 18q-4 2 -7 -6q-7 3 -11.5 6t-9.5 5l-7 5l-19 13q-4 3 -10.5 7t-19.5 9q-11 5 -15.5 12t-11.5 29q-2 6 -10 14.5t-36 29.5l-9 39l-1 3l-15 42
q-3 9 -6 20t-5 25q-2 12 -3.5 24.5t-3.5 41.5z" />
    <glyph glyph-name="H" unicode="H" horiz-adv-x="787" 
d="M-8 6q-8 8 -7 18.5t11 18.5l40 25q17 4 25.5 14t14.5 33q8 28 9 43t-1 26q-5 27 -8 35.5t-5 13.5q0 1 0.5 2t4.5 3q5 2 9 -0.5t5 -7.5q2 18 -0.5 35.5t-10.5 34.5q6 12 8.5 20.5t3 19.5t-2 28t-7.5 47l3 28q2 24 1.5 38.5t-2.5 25.5t-4 17t-4 11q0 1 1 4.5t7 20.5
q3 11 2.5 27.5t-7.5 45.5q-1 2 -1.5 5t-1.5 5l-43 18l-25 39q3 6 5 8.5t6.5 3.5t12 0l22.5 -3q5 -1 12.5 -0.5t21.5 4.5q16 -3 29.5 -4.5t30.5 -0.5t41 4.5t61 10.5q18 3 43 -8q11 -5 23 -18q0 -6 -3 -12q-9 -22 -19.5 -26.5t-30.5 2.5q-11 4 -21 -5t-10 -29
q8 -14 6.5 -25.5t-12.5 -37.5q-3 -5 -2 -13.5t8 -22.5q-2 -8 -2 -13q-6 -37 -6.5 -59t5.5 -33.5t20 -15.5t38 -5q4 -1 10 0q7 -2 19 -4q29 -5 48.5 -5.5t39.5 1.5q42 14 80 21q16 -6 33 -6l16 2t16 4q7 15 11 25t5 23.5t0 36t-3 63.5v2l3 25l2 18l1 8q-6 14 -19.5 27
t-40.5 28q-5 2 -9 4t-9 4q-10 9 -12 21q-2 10 4 17.5t16 9.5q11 1 21 -0.5t27 -7.5q8 -2 11 -4h1l28 7h4h14t33.5 -0.5t61.5 -1.5h5l25 2q3 2 11 6q20 8 33.5 4t18.5 -14q11 -23 5 -35t-26 -17q-18 -4 -29.5 -7t-18 -6t-11 -7t-8.5 -10v-21q17 -33 3 -66v-36l-8 -26
q9 -25 11.5 -49t-2.5 -62l-3 -24l-1 -7q8 -20 9 -36.5t-6 -49.5q-1 -5 -0.5 -11.5t4.5 -23.5q0 -2 -2 -7.5t-11 -25.5q-2 -3 -2 -7.5t1.5 -13t5.5 -23t12 -37.5l7 -26q4 -10 9.5 -13.5t26.5 -10.5q9 -3 24 -18q7 0 13 -3q7 -5 9 -13.5t-3 -16.5q-7 -11 -24 -15t-58 4
q-6 0 -12 3q-23 -5 -43.5 -4.5t-58.5 7.5q-2 1 -8 -0.5t-32 -6.5q-6 -2 -14.5 -1.5t-25.5 2.5q-11 -5 -21 -4q-18 2 -27.5 17.5t-3.5 32.5q2 6 6 8.5t6 0.5q12 -4 22 -9q1 0 4.5 2.5t22.5 14.5q11 8 19 17q5 5 -1 11q-2 1 -8 3l7 16l7 16q5 10 9.5 18.5t9.5 17.5q-4 6 -5 9
q-25 47 -8 95q2 8 2 12q1 19 0.5 30.5t-4 16.5t-11.5 5.5t-20 -0.5q-1 0 -4.5 2.5t-20.5 13.5q-4 2 -10 3.5t-19 3.5l-42 -12l-9 3l-25 8q-14 5 -23.5 7.5t-20 3t-23.5 -1.5t-35 -5q-8 -2 -16 -3t-16 -3q-12 -1 -19 -3.5t-10.5 -10t-4 -21t-0.5 -35.5l-6 -30l-2 -10l-5 -21
q6 -21 7 -42.5t-1 -42.5q-6 -35 10 -70q12 -8 20.5 -11t15.5 -5q20 -5 27.5 -6t12.5 -1q6 0 9 -6q4 -14 -5 -22.5t-38 -14.5q-5 -1 -10.5 1.5t-17.5 13.5q-9 9 -20 1q-13 -8 -16 -27q-15 0 -28 3q-14 2 -26 6q-3 1 -5.5 1.5t-5.5 1.5q-28 8 -53 6.5t-60 -15.5
q-3 -2 -8.5 -0.5t-19.5 7.5q-10 5 -15 11z" />
    <glyph glyph-name="I" unicode="I" horiz-adv-x="315" 
d="M-7 3q-7 11 -4.5 22.5t12.5 17.5l26 6q2 0 8 2q32 11 43.5 28.5t11.5 51.5l-1 6l-3 35v2v38v42l-1 29l-2 31l-1 17l-1 31q7 16 8 28t-3 39q-1 5 0.5 12.5t7.5 21.5l-17 -7l4 26q1 5 2 8.5t2 8.5q5 22 7.5 37.5t1.5 26.5t-5 20t-11 18q5 37 -28 67q-2 2 -4.5 4t-4.5 4
l-41 27l-1 1q-2 6 1.5 13t13.5 9t20 0.5t29 -9.5q2 -2 8 -0.5t24 8.5q2 0 6 -2t21 -11q4 -2 10 -3t18 1q16 3 25 7q12 -3 21 -2t28 8l19 7l8 4l9 -4l-2 -14h33q13 0 23 -10q5 -6 5 -13t-2 -9q-8 -5 -15.5 -10.5t-15.5 -10.5q-3 -2 -5.5 -4t-4.5 -4q-34 -29 -43 -48t-4 -42
l4 -40l-8 -42q5 -11 6 -20.5t-1 -24.5q-1 -4 -2 -7t-3 -7q-1 -2 1.5 -4l12.5 -10q2 -1 0.5 -6t-6.5 -27q-2 -8 -3 -15.5t-2 -15.5q-3 -32 5 -65q-1 -11 -0.5 -21.5t2.5 -21.5q2 -8 4.5 -17t5.5 -18l-3 -6l-1 -3q0 -1 -0.5 -3t-1.5 -6.5t-2 -13.5t-2 -24v-5l-3 -26l14 -31
l5 -5l16 -13q17 -16 22.5 -28t4.5 -30q0 -5 -2 -13q-23 10 -52 15q-14 3 -24 3.5t-17.5 -1t-15 -6.5t-16.5 -13q-1 -1 -6.5 0.5t-30.5 6.5l-35 -5l-10 -2l-22 -2l7 10q-29 5 -58 -6l-1 20z" />
    <glyph glyph-name="J" unicode="J" horiz-adv-x="463" 
d="M22 53q-31 16 -44 45q2 8 4 13q9 19 28 28l8 15l4 10l9 21l1 3q4 9 12 18t24 18q13 4 20.5 -4t9.5 -32l1 -15q0 -12 -8 -30q-5 -12 -5 -18.5t2 -10.5l11 -9q6 -4 17 -19l12 -27q4 -2 12 -4q38 -11 58.5 2.5t33.5 56.5l11 37l1 4l-12 18l7 1l14 -13q2 1 5 4q12 12 2 27
q-5 6 -12.5 7.5t-14.5 -2.5l-11 43l4 14q13 -2 11 -14q6 2 8.5 3.5t1.5 7.5t-4.5 18.5t-10.5 35.5q-1 2 0.5 7t8.5 24q2 5 1 12t-6 21l-9 20q0 21 11 38l4 6t4 5l-7 45q-3 22 -3 38v5l1 34q1 17 -0.5 29t-4.5 20q-11 35 -39 46l4 10q-19 -1 -36 2t-22 5q-3 1 -8.5 -0.5
t-13.5 -7.5l-5 18q12 2 19 9.5t17 33.5q2 2 7 3t22 -1q3 0 8.5 -1t20.5 -5q3 -1 7 -1h11.5t19.5 1.5t31 3.5q4 1 7.5 1t7.5 1l40 -2l-4 -7q8 -3 12.5 -4t12 -0.5t21.5 3.5t41 9q16 4 23 3.5t12 -3.5l19 -13q4 -14 4 -22t-8 -16t-26 -17t-49 -24q-4 -2 -7 -8t-8 -23l-1 -2
l-2 -45q0 -8 -1.5 -17.5t-6.5 -27.5q-5 -17 -0.5 -33.5t16.5 -28.5q5 -15 4 -28t-9 -30q-6 -12 11 -31l-1 -44q1 -11 1 -18t-1.5 -16t-5.5 -21.5t-11 -33.5q-3 -11 -2 -30.5t9 -45.5q0 -2 -2 -7t-12 -28q-2 -5 -3.5 -12t-3.5 -24q-1 -7 -12 -19t-49 -36q-5 -3 -13 -7t-16 -7
q-13 -6 -24.5 -9t-19.5 -4h-3l-25 2l-29 1q-27 -18 -58 -4l-2 1l-28 18q-4 3 -10.5 6.5t-20.5 10.5q-3 2 -7.5 6t-12.5 14z" />
    <glyph glyph-name="K" unicode="K" horiz-adv-x="710" 
d="M89 723q5 2 13 0t22 -10q9 11 23 15.5t28 -0.5q7 4 15 0q5 -3 5.5 -9t-4.5 -10q30 10 62 15q5 1 11 1t11 1q8 3 15 2q19 -2 19 -21q0 -7 -0.5 -11t-4 -8t-10.5 -9t-19 -14q-5 -3 -9.5 -9t-12.5 -18q-15 -6 -20.5 -17t-4.5 -35l1 -23l1 -5q-11 -23 -11 -47.5t11 -47.5v-13
v-30l11 -4q4 17 12 28.5t28 24.5l7 4l19 11q3 2 8.5 6t22.5 18l22 17l9 7q2 10 5 15.5t16 22.5q2 3 5 9.5t11 28.5q7 19 25 38q3 4 1 11t-15 18q-12 -8 -26.5 -4.5t-22.5 17.5q-3 4 -5 12q-1 7 2 7q10 2 20 3t20 3q5 1 12 3t24 8q2 1 7 1t28 -1q6 0 15.5 1t30.5 6
q3 1 10.5 -0.5t36.5 -7.5q7 -2 17 -0.5t29 7.5q9 2 17 -3q20 -11 3 -43q-7 -11 -11.5 -16.5t-9.5 -7.5l-2 -1l-11 -3q-16 -4 -28 -6t-22 -4q-15 -8 -25 -20q-5 -5 -9 -11.5t-6 -13.5l-39 -31l-23 -16q-11 -7 -16 -10.5t-7.5 -6.5t-4.5 -8.5l-6 -16.5t-13.5 -24t-31.5 -31
q-3 -2 -2.5 -9.5t10.5 -22.5q2 -2 5.5 -6t15.5 -15q2 -2 4.5 -6.5t10.5 -20.5q1 -2 5.5 -5.5t25.5 -18.5q8 -6 14 -14q6 -10 8 -18t1 -31q0 -5 2.5 -11t9.5 -16q12 -18 28 -27q21 -23 36 -52l24 -18l18 -31h5q11 -16 23 -28.5t27 -25.5q12 -11 23.5 -18.5t24.5 -15.5
q7 -12 20 -22q13 -7 29 -9l8 -32q-11 -3 -20 -4.5t-17 -3.5h-3l-31 -4q-16 -2 -24.5 -2t-14.5 2t-10 7t-11 15q-1 2 -8.5 2.5t-41.5 0.5q-8 0 -17.5 5t-23.5 19q6 14 -1 22t-35 14q-10 3 -16 5.5t-10.5 7.5t-8 13.5t-7.5 22.5q-8 28 -32 39q4 -2 4 -5q0 -4 -3 -5
q-4 -2 -6.5 1t-8.5 17q-1 2 -4 7t-15 24l-2 2l-14 31l-18 40l-16 16l-15 15l-16 17l-15 17l-4 24q-4 -8 -11 -6l-10 10l-7 -1q-14 -10 -19 -22t-6 -36q0 -20 1.5 -27t6.5 -21q1 -2 2 -3.5t2 -3.5t-1.5 -6t-14.5 -18l3 -32q1 -5 1 -12.5t-2 -19.5l-4 -29v-4q-4 -14 13 -32
q8 -9 25 -16t46 -12q4 -1 8 -4t12 -14q8 -16 0.5 -31t-24.5 -20q-3 -1 -10 -1l-21 20l-41 1q-30 9 -57 -4l-41 8l-31 1l2 -10h-8l-7 1l-24 4t-23 6q-7 -7 -17 -5.5t-15 9.5q-7 13 1 23q23 0 38.5 10.5t28.5 36.5q7 12 9.5 20.5t3.5 15.5l-4 37q0 6 -0.5 14.5t-0.5 23.5
q15 13 16 28t-13 39q-2 4 -1.5 10t5.5 17l-7 17l-3 18l-2 18l-2 19l-2 18l7 -4l1 13l1 7q2 14 4 22t4 14q2 5 0.5 13.5t-7.5 23.5l-6 4l-10 -9l2 9l3 12q3 14 4.5 24t1.5 22t-1 28.5t-4 43.5l-3 30q-2 7 -3.5 10.5t-6.5 5.5t-13.5 3t-23.5 3q-20 2 -26 26q-3 12 5 27l3 5
l1 1l40 2q7 0 16 1t24 5z" />
    <glyph glyph-name="L" unicode="L" horiz-adv-x="616" 
d="M-7 695q5 22 20.5 29.5t47.5 3.5l9 -1l36 -5q18 -3 35 -3h43.5t28.5 1.5t21.5 4t21.5 6.5l23 8l13 5q12 3 21 -3q7 -4 11 -11.5t2 -15.5q0 -20 -11.5 -29.5t-39.5 -12.5q-5 -1 -14 -9t-20 -29q-6 -11 -8.5 -22.5t-2.5 -23.5v-33q-1 -5 -1 -10v-10q0 -21 6 -40l-5 -47
l5 -27q3 -14 5 -21.5t2 -12.5t-2.5 -9.5t-7.5 -11.5q-1 -1 1 -4.5t11 -20.5q3 -4 5 -13q2 -19 -14 -28l-3 -15q-4 -19 1 -42q-6 -35 8 -69q2 -5 5 -10l6 -10q-9 -11 -11.5 -24t1.5 -25t12.5 -22t22.5 -14q16 -5 29 -1q4 12 15 20t25 10t29.5 -3t30.5 -18q2 -2 8 -6
q12 -6 24.5 -4t39.5 17q5 2 11.5 6.5t19.5 12.5q3 2 6 3.5t6 3.5l34 22l28 25q6 5 12 11t13 11q3 3 9.5 1t10.5 -8q3 -5 2.5 -16.5t-6.5 -43.5q0 -2 -0.5 -3t-0.5 -2l-21 -24q1 -8 0 -15q-1 -23 -18 -43l-16 -6l-15 -7l-16 -6q-21 6 -38 5t-48 -12q-2 0 -5.5 -0.5t-15 0
t-32 1t-55.5 2.5q-9 1 -17.5 1t-17.5 2l-31 2h-3q-11 0 -30 -8l-14 4q-10 2 -18 2.5t-16.5 0t-20 -2t-27.5 -4.5q-6 -1 -22 -1t-45 4q-11 0 -21 3l-36 -3l-5 28q18 26 47 26q18 21 22 44q4 14 2 34l-1 23l-1 8l-6 63v1q0 1 1.5 5t12.5 23q1 2 2 5.5t3 11.5q-3 2 -7 4
q-9 2 -16.5 -4t-7.5 -15v19q16 24 22 49q-10 11 -11 21l1 36v13t-1 22v9q-9 20 7 41q1 1 1 2.5t-2 6.5t-6.5 14t-11.5 25q-3 7 -2 18.5t9 31.5q-9 35 -3 71l-40 28z" />
    <glyph glyph-name="M" unicode="M" horiz-adv-x="866" 
d="M17 12l-12 -2t-12 -3l12 40l43 17q6 16 11 32t9 34.5t7.5 42t6.5 53.5l4 36q-7 6 -10.5 10.5t-3.5 11.5t4 16.5t11 26.5q2 4 1.5 14.5t-5.5 47.5q0 2 1 6.5t7 21.5q1 3 1 6.5t-0.5 10t-2.5 17.5t-6 28q-1 4 1.5 10.5t10.5 20.5l1 38l-15 45l14 38l-8 33q-18 -5 -35 2
t-26 24l-7 20l21 5l6 2q13 4 18.5 6t9 2t7 -2t11.5 -5h1l34 4q6 1 17.5 1t40.5 -1q6 0 15 1.5t29 7.5l68 -9l44 -10l-17 -53q-7 4 -15 6t-16 0q-15 -2 -26 -10l13 -44l4 -29l15 -31l16 -34q5 -9 8.5 -18t7.5 -18q18 -39 29.5 -67t19 -49t12 -36.5t7.5 -30.5l5 -25
q1 -8 8.5 -13.5t23.5 -7.5l14 34l9 14l9 14q11 17 21 33.5t20 33.5l-24 -16l-1 21l23 37q25 21 25 54q0 5 -1 8v1l20 20q14 14 23.5 38t13.5 65l2 24l1 5l-17 20l9 18q-17 -11 -36 -6.5t-29 21.5q1 8 6 16q17 28 33.5 27.5t31.5 -20.5q8 -9 25.5 -10t55.5 13l26 10h1
q2 2 8 0.5t27 -6.5q5 -2 11 -1t19 6q2 1 6.5 -2.5t13.5 -18.5q2 -2 6.5 0.5t23.5 15.5q8 5 19 0.5t16 -18.5q5 -17 -11.5 -30.5t-60.5 -13.5q-5 0 -7.5 -6.5t-0.5 -24.5q-18 -17 -17 -41t21 -39q8 -6 14 -7q5 -15 3.5 -25.5t-9.5 -34.5q-3 -8 -3.5 -20t3.5 -30
q6 -20 6.5 -35t-4.5 -38l-6 -21q-1 -2 0 -4.5t6 -10.5q3 -13 4.5 -20.5t2 -18.5t1 -29t0.5 -51q0 -5 1 -14.5t3 -31.5q-1 -3 -1.5 -5.5t-0.5 -5.5q-3 -19 -3.5 -29t4.5 -18.5t17 -17.5t35 -25q3 -3 6.5 -5.5t6.5 -4.5l8 -5l8 -5v-7q0 -11 -2 -16t-12 -7t-32.5 -1.5
t-62.5 0.5q-6 0 -15.5 -1t-33.5 -4q-11 1 -19.5 1.5t-17.5 0.5t-19.5 -1t-25.5 -3q-18 -2 -36 -6q-4 -1 -10 1t-22 12l-5 41l54 13l6 17l7 16q4 10 8 19.5t8 19.5l2 10l2 9q2 11 3 21t1 21q-24 37 -18 81q1 4 1 7t2 7l11 58l-8 51q-3 13 -4.5 23t-0.5 22t4 27.5t8 41.5
q1 2 1 6.5t-1 18.5l-15 17q2 -16 -8 -28t-26 -14q2 -20 -1.5 -39.5t-11.5 -36.5l-18 -48q-5 -19 -12.5 -33.5t-24.5 -32.5l-7 -32q-1 -6 -3.5 -14t-7.5 -22q-17 -21 -24 -43t-6 -52v-1l-28 -47q-12 -20 -16.5 -34.5t-5.5 -38.5q-2 -11 0 -21q0 -11 -9 -17q-11 -7 -21 -4.5
t-15 11.5q-3 24 -14 46q-6 11 -12.5 20t-26.5 33q-7 8 -12.5 17.5t-10.5 22.5t-10 31.5t-10 44.5q-3 14 -4.5 28t-2.5 29l-29 24q-8 16 -12 29t-8 33q-1 8 -1.5 14.5t-1.5 13.5q0 1 -1 3t-5 6.5t-11 12t-20 21.5q-15 15 -14 40v3l2 12q2 11 -3 24t-19 24q-1 -38 -18 -74
l-6 -74l15 11q-4 -18 -6 -31.5t-2.5 -29t0.5 -35.5t3 -51l3 -41l-5 -40q-8 -62 11.5 -97t64.5 -44q-12 -23 -33 -36.5t-46 -15.5q-25 -1 -50 10q-16 13 -35 19t-39 4z" />
    <glyph glyph-name="N" unicode="N" horiz-adv-x="767" 
d="M203 699q7 3 27 -7q10 -18 24 -37q3 -3 9 -11v-5q10 -3 17 -9q24 -18 27 -47q3 -7 5.5 -11t7 -8t11.5 -9t20 -14q20 -14 36 -51q2 -3 8.5 -8t30.5 -21q4 -3 8 -10.5t13 -31.5q1 -2 7.5 -5.5t33.5 -14.5l22 -30q4 -5 9 -11t15 -17q24 -26 42 -54q1 0 3 2q4 4 3.5 9.5
t-5.5 8.5l14 -4l12 -37l19 10l-1 43l-3 82q-2 13 -3 20.5t-3 13.5q-1 3 -0.5 9.5t5.5 25.5q1 3 -1 9t-12 26q-1 1 0.5 6t7.5 30q2 7 1.5 17t-5.5 27q-13 -6 -23 6q-4 5 -4 11.5t5 11.5q3 5 10 7l-15 29l-36 6q-7 2 -13.5 3.5t-12.5 3.5q-7 3 -13 5.5t-13 6.5l3 12
q6 19 11 29t11.5 12.5t16 -1t25.5 -10.5h6t26 -2q15 -1 25 -1t17.5 0.5t14 2.5t14.5 6q14 -7 29.5 -5.5t28.5 9.5q15 5 29 -2t17 -23q3 -18 -11 -31q-5 -1 -11 -2t-11 -3q-27 -11 -39.5 -27.5t-17.5 -47.5q-2 -17 -3 -23.5t0 -10.5l6 -27l2 -8l3 -19l-6 -50q5 -17 5 -32
q0 -14 -5 -31l1 -13l1 -13l1 -13l1 -13l2 -2q2 -9 3 -16t1 -14.5t-1 -17t-4 -23.5q-1 -6 -0.5 -14t3.5 -22l2 -2q5 -12 3 -22t-11 -24q0 -1 -0.5 -3.5t0 -10t1 -22t2.5 -40.5q0 -4 -0.5 -10t-4.5 -23l5 -22l14 -11l-9 -44q-8 -7 -14 -9t-12 1t-13.5 12.5t-19.5 25.5
q-3 4 -10 8.5t-29 18.5q-1 0 -2 1.5t-3 5.5t-6.5 12t-12.5 23q-3 5 -8.5 11.5t-17.5 18.5q-17 10 -23 19l-2 2l-15 25q-14 22 -27 34t-37 23q-4 1 -7 2t-7 2q-5 2 -7 8.5t2 21.5q-4 14 -12.5 19.5t-31.5 10.5q-5 1 -10 4.5t-12 13.5q-9 14 -11 31q-2 18 -12.5 32.5
t-27.5 22.5l-26 13l-28 23q-8 10 -12.5 15.5t-7.5 10.5l-17 26l-1 1q-2 2 -6 5t-20 10q-6 3 -11 11.5t-8 26.5l-22 -10v-30l5 -48l5 -30q7 -15 9 -33q3 -27 -9 -50q4 -10 5 -19.5t1 -19.5q0 -5 -2 -13q1 -19 0 -34v-5l-4 -28q-1 -7 -1 -13v-13q1 -27 2.5 -43.5t5 -26
t8.5 -14.5t14 -9q1 0 1 -4t-2 -22q-2 -10 5.5 -20t24.5 -18q15 -2 26 -11.5t15 -23.5q-13 -3 -28 -1h-2l-26 5q-24 5 -44 3.5t-40 -8.5h-62q-5 -9 -15 -12.5t-20 0.5q-11 5 -16 16t0 23q17 17 40 7q5 8 11.5 12t22.5 8q5 1 11 10.5t14 38.5q3 8 4 21q1 11 -1 25.5t-7 45.5
l-3 12q1 5 1.5 9.5t0.5 9.5q2 16 2 32t-1 33l18 41l-2 10l-21 -8l-7 44q-2 10 -2 15q-2 12 1 24t8 23l-3 25l-10 -4q2 19 11 31q4 6 7 8q-5 2 -10 0q-9 -3 -11 -13q-2 5 -3 8.5t-0.5 8t3 11.5t6.5 19q4 11 -2 30t-26 45q-4 6 -8 10l-24 29q-12 2 -21 10t-11 20q-6 38 49 41
h7.5t15.5 -2.5t32 -6.5t57 -11q21 -5 56 2z" />
    <glyph glyph-name="O" unicode="O" horiz-adv-x="822" 
d="M51 429q2 3 4 6.5t4 6.5v18l-9 2l-17 -15q16 23 20 50q3 14 6 23t9.5 18.5t18 21l31.5 31.5q4 5 9 12.5t14 26.5q15 8 24.5 15t22.5 21q3 4 6.5 7.5t6.5 8.5l46 6q26 3 44 12l30 18l9 5l20 11h29h31q7 0 29 -7q2 -1 7 -1t24 2l53 -18l4 -1l49 -14q20 -6 32 -10t20.5 -8.5
t15.5 -11t18 -17.5q4 -3 10 -6.5t21 -8.5q2 -2 5 -7.5t11 -30.5q3 -8 5 -13.5t6 -10t10 -9.5t15 -12q2 -2 5.5 -7t15.5 -24q7 -12 11 -20t4 -14.5t-3 -13.5t-9 -17q0 -1 2 -4.5t13 -19.5q2 -4 2.5 -10.5t-2.5 -19.5q8 -14 8.5 -26t-4.5 -33l-5 -18l-2 -5l4 -44
q-6 -18 -16 -36q-10 -19 -22 -33l-7 -21l-17 -11q0 -4 1 -6q5 -8 13 -5q10 2 8 11l1 -15q-4 -10 -9 -17.5t-14 -15.5t-24.5 -18t-39.5 -24q-4 -2 -7.5 -4t-7.5 -4q-3 -4 -5.5 -7.5t-6.5 -6.5q-19 -21 -31 -32t-22.5 -16.5t-22 -5.5t-30.5 2h-1l-29 -13q-5 -2 -12.5 -4
t-21.5 -6q-17 2 -29.5 1t-33.5 -3l-15 -3q-3 -1 -8.5 0t-20.5 5q-3 1 -8.5 0t-18.5 -6q-2 -1 -4 0.5t-7 6.5l-3 3q-2 2 -2.5 4t-2.5 4q-1 2 -3.5 3.5t-10 3.5t-21.5 5t-37 8q-2 1 -5 3t-15 12q-3 2 -10 5t-27 8q-2 0 -6.5 5.5t-21.5 28.5q-2 3 -8.5 7t-28.5 15q-7 4 -13 14
t-11 30q-7 11 -12 20t-9 19.5t-8 25t-10 37.5l-6 26v1q-2 11 -3.5 23t-1.5 26q-14 22 -12 43.5t22 61.5zM188 390q-5 -14 -6 -20t1 -11q5 -23 6.5 -29.5t0.5 -9.5q-3 -14 -5 -22.5t-2.5 -12.5t-0.5 -5.5t1 -1.5q23 -18 30.5 -34.5t3.5 -39.5q27 -11 27 -27q1 -2 1 -4.5
t1 -4.5q2 -20 6.5 -32.5t12.5 -28.5l12 15l5 -18l14 -11q6 -2 12 -5t12 -5q45 -18 77.5 -26t55 -9.5t35.5 3.5t21 13l13 13q14 13 23.5 20.5t24.5 16.5l9 13q3 4 6 7.5t5 7.5q23 34 29.5 49.5t4.5 23.5q-1 3 -1.5 6.5t-1.5 6.5q-5 31 -2.5 51t12.5 40q-1 8 -2 14.5t-3 13.5
q-3 15 -9 27q4 20 2.5 39.5t-9.5 43.5q-2 4 -4 12q-5 12 -7 16t-4 6l-6 10l-6 10q-2 4 2 7q1 1 5 1q10 0 8 -9l8 4q-3 10 -9 18q-13 18 -37 21l13 5q-4 10 -6.5 15.5t-9.5 11.5t-20 14.5t-37 25.5l-27 18l7 1l7 1l8 2l9 1l-3 5h-23q-14 5 -20.5 6.5t-11.5 1.5
q-22 -1 -27.5 -1t-7.5 1q-20 7 -30.5 10t-19 2.5t-19 -6t-29.5 -15.5q-6 -4 -12.5 -8t-12.5 -9q-32 -25 -41.5 -36t-11.5 -17q-6 -28 -8.5 -36.5t-5.5 -12.5q-9 -13 -14 -19.5t-7.5 -10.5t-2.5 -7t1 -8q-7 -31 -1 -66z" />
    <glyph glyph-name="P" unicode="P" horiz-adv-x="671" 
d="M9 666q-3 1 -6.5 4t-9.5 11l30 37q30 6 56 -4l14 -1l28 -2q28 -2 44.5 -1.5t36.5 2.5l38 20h7.5t8.5 -1q22 -3 42 -14q23 8 46 8.5t61 -9.5q5 -1 9.5 -2t9.5 -3q15 -3 28 -2q16 0 29 4q9 4 23 4q34 0 55 -29l8 -6l8 -6q26 -21 41.5 -39t26.5 -36q11 -20 15 -37.5t2 -43.5
q0 -7 -2 -17q-1 -3 1 -7t9 -13q2 -5 3 -7t0 -5.5t-4 -10t-9 -18.5v-1l-6 -27q0 -3 -0.5 -5.5t-1.5 -5.5q-11 -32 -25.5 -49.5t-37.5 -25.5q-21 -18 -44 -25q-5 -1 -8.5 -2t-8.5 -2l-24 -7l-23 -6l-22 -6l-21 -6l-26 2q-26 8 -46 8h-5h-22h-10.5t-16.5 2q-17 -4 -31 5.5
t-17 26.5l17 20q12 -7 27 -9q20 -1 38 13q17 -1 32.5 0t35.5 3l16 2l14 2l-3 17q24 6 48 20q14 12 22 27.5t14 43.5q6 22 0 52q-3 21 -7.5 32.5t-16.5 31.5q-2 4 -5 11.5t-8 26.5q-2 8 -10.5 16t-28.5 16l-34 19l-46 6q-39 2 -74 -10q-13 -4 -22 -9q-3 -3 -9 -11
t-10.5 -16.5t-9.5 -16.5l-18 -42q-7 -17 -4.5 -31t14.5 -36q1 -2 2 -9.5t3 -41.5q1 -4 2 -10t6 -20l-14 -45l8 -41l1 -22v-12l-1 -31l-1 -1q0 -5 2 -13t9 -21q-5 -11 0 -20.5t16 -13.5l-16 -37q-2 -5 -4 -15q-2 -23 5 -36.5t28 -30.5q22 -18 36.5 -22t32.5 4q14 -2 21.5 -13
t4.5 -24q-3 -22 -25 -25v-4q-13 -6 -22 -4.5t-31 10.5q-6 2 -22.5 3.5t-64.5 -0.5h-10t-10 -1q-3 0 -8 1.5t-19 8.5q-25 1 -45 0q-26 -1 -43 -3q-25 -4 -34.5 -1t-16.5 15q-2 17 6 21.5t38 7.5q12 1 21 20.5t11 75.5q0 5 -3 13t-9 16l1 9h20l-7 32q1 3 1 6t1 6q3 52 -17 83
l-5 8l-1 1q-1 2 1.5 6t13.5 18q1 1 0.5 5t-5.5 22q-2 7 3 28q-2 16 -2.5 29t2.5 36q0 3 -0.5 9.5t-5.5 29.5q-3 13 -1.5 32t9.5 54q0 3 -4.5 10.5t-23.5 35.5q-2 2 -4 5t-4 5q-11 6 -18 9.5t-21 8.5l-12 3v0z" />
    <glyph glyph-name="Q" unicode="Q" horiz-adv-x="823" 
d="M42 451q2 4 2.5 10l1.5 18q5 11 6 20t-1 25q-1 5 2 11.5t12 14.5q25 19 36 50l30 41l44 11q2 12 7 20q8 16 23.5 24.5t32.5 9.5q10 7 17 9t28 5q2 1 7 2.5t19 9.5q5 2 13 2.5t22 -2.5q7 -3 12.5 -4.5t12 -1t14.5 2.5t21 5q7 2 20.5 1.5t50.5 -5.5q4 0 6 -1q1 0 3 0.5
t11 4.5q2 2 6.5 0.5t21.5 -9.5q14 -6 26 -8t32 -2q8 0 23 -12q19 -27 49 -50l2 -1l27 -17l9 -6l19 -13l22 -29q14 -19 17.5 -23.5t4.5 -6.5v-1l5 -33q2 -8 3.5 -15.5t5.5 -18.5t12 -26q10 -16 11.5 -34t-5.5 -35l13 -38q3 -10 1 -20t-7 -18q-5 -9 -10 -22q-12 -34 -6 -70
l-22 -37q-17 -46 -55 -75l-17 -18l-8 -9l-24 -29q-3 -4 -9 -8t-20 -10l-25 -10q-18 -4 -36 -8.5t-35 -10.5l-12 -4l-12 -4q-8 -11 -5.5 -20.5t18.5 -26.5l47 -49l26 -27q26 -16 58 -28l49 -5l33 -13v-47q-13 3 -23 3t-30 -4q-2 0 -6 0.5t-22 2.5h-10t-18 -2q-2 0 -6 1.5
t-22 7.5q-7 3 -21 3.5t-34 -4.5h-1l-29 13q-20 9 -32 15t-19.5 11.5t-12 11.5t-8.5 14q-1 2 -5.5 4t-24.5 8q-1 1 -3 4.5t-16 21.5q-3 5 -8 10l-16 16q-6 5 -10 15.5t-5 29.5q-7 14 -19 21h-1l-22 8q-8 2 -18 5.5t-27 10.5l-24 11l-11 5l-25 10l-2 1q-54 25 -79 71l-2 4
l-2 4q-16 15 -18 36q-2 6 0 13q-2 2 -3.5 4t-3.5 4q-12 13 -18.5 21t-9.5 15.5t-4.5 18t-4.5 30.5l-6 45q0 10 -1.5 19t-3.5 19q-2 5 -4.5 10.5t-4.5 11.5q-5 22 -2 43q2 8 4 15.5t8 25.5zM189 427q-1 -4 -1 -12q-2 -17 -2 -29t0.5 -21.5t2.5 -17.5t5 -17q1 -20 4 -27
q5 -11 7 -16t3 -10t1.5 -12.5t1.5 -23.5v-7l4 -42l6 3q10 -14 16 -22t11 -14l20 -25q6 -9 13 -29l28 -18l14 -3l39 -15q22 -9 37 -13.5t27 -5.5t21.5 2t20.5 9q11 3 16.5 6t8.5 5q14 13 17 16t5 4q29 10 40 17.5t13 11.5q10 23 14 31t8 12q19 18 26 30.5t9 29.5v12l9 47
q3 14 4 22t0 13q-2 19 -2.5 25t-0.5 9l2 28v1q-8 14 -9.5 18t-1.5 6l1 11l-1 1q-2 5 -9 5l-4 -13q-11 11 -11.5 25.5t10.5 25.5q2 11 0 23q-3 37 -32 64q-13 29 -33 49l-8.5 8.5t-8.5 7.5l29 1l-12 4.5t-6 3.5q-3 2 -5.5 4t-5.5 4q-29 21 -50 26.5t-41 0.5l-11 2q-7 4 -14 7
q-24 9 -50 -2q-5 -1 -10 -1.5t-10 -2.5q-30 -6 -57 -18q-11 -14 -19 -23t-16 -14l-22 -16v-1q-6 -20 -11.5 -27t-17.5 -10l-1 -23l-1 -11v-33q-2 -15 -9 -30z" />
    <glyph glyph-name="R" unicode="R" horiz-adv-x="746" 
d="M-4 666q-5 2 -6.5 9t3.5 26q5 9 12 14.5t19 7t30 -1t47 -9.5q6 -2 14.5 -2t25.5 2l38 9l33 7q21 5 34.5 4t27.5 -9l7 -4l18 5q12 -2 22 -3.5t21 -1.5t25.5 1t35.5 3q3 1 6.5 0.5t6.5 -0.5q34 -6 54 -9.5t31.5 -6.5t17.5 -6t11 -7l-13 -8q22 -10 32 -20q15 -13 23 -21.5
t11.5 -16t3.5 -17t-2 -25.5q0 -2 -0.5 -3t-0.5 -3q-1 -2 1.5 -6.5t13.5 -20.5q1 -1 0.5 -5.5t-2.5 -24.5l-5 -42l-6 -8q4 -3 6 -6q4 -7 1 -14.5t-10 -9.5q-11 -9 -21 -14t-24 -10q-9 -4 -16 -5q-8 -2 -14.5 -11t-11.5 -27l-26 -6l26 -33l10 -34q4 -15 6.5 -22.5t5.5 -13
t8.5 -11l17.5 -17.5q4 -3 7 -10t7 -21q35 -20 50 -56l27 -8l8 -35l9 -1l23 -20l23 -18l1 -1q7 -5 15 -9t19 -6q12 9 26.5 5.5t19.5 -17.5q5 -11 0 -22l-15 -14h-7l2 -7q-3 -2 -6 -2.5t-6 -2.5q-20 -7 -31.5 -10.5t-23.5 -2t-29 7.5t-47 18l-40 14l-39 30q-9 7 -13 10t-7 6.5
t-6.5 8t-9.5 14.5q-2 3 -5.5 6.5t-10.5 9.5t-18.5 14.5t-29.5 21.5q-2 2 -4 3t-4 3q-5 2 -9 8.5t-10 20.5l1 37l-10 5l-9 -36l-9 38l-7 27l-3 13l-3 16q-2 2 -3 3.5t-3 3.5q-20 25 -31.5 38.5t-20 18t-16.5 0.5t-20 -14q-6 -3 -11 0q-9 9 -12 21q-16 0 -25.5 -13t-4.5 -28
l23 23l-2 -27l-2 -50v-10v-14v-21l4 -2l-8 -18l5 -13q-1 -3 -1 -6t-1 -6q-2 -24 1.5 -37.5t11.5 -24.5q4 -5 8 -8.5t10 -6.5t14.5 -6t23.5 -8q8 -2 16 -8t22 -19l-5 -37q-14 -7 -23.5 -10.5t-22 -3.5t-32.5 3.5t-53 9.5q-4 1 -11 0.5t-26 -5.5q-8 -7 -15.5 -10t-15.5 -2.5
t-19 5t-26 12.5q-7 4 -17.5 1.5t-27.5 -14.5l-36 22q-3 15 6 26l31 14q20 9 29.5 20.5t11.5 28.5q-5 23 -10 42l-5 15l-4 15l24 22l-1 13l-3 29q-1 12 -2 19t-2 12.5t-2.5 10.5t-4.5 13q-2 3 -2.5 6t-2.5 6q-2 4 -0.5 10.5t9.5 17.5q29 17 -7 45q-4 4 -5.5 14.5t3.5 32.5
q1 5 5 13l-1 20q-7 10 -8 18q-6 25 6 46q-19 16 -20 35t16 51q3 4 -6 16.5t-46 28.5q-8 4 -15.5 6t-15.5 4zM225 594q1 -13 2 -19.5t3 -11.5q5 -13 8 -20.5t3 -13t-2 -9t-7 -8.5q5 -11 6.5 -17t-0.5 -9q-9 -27 -9 -40.5t9 -29.5q8 -6 16.5 -10t19 -5.5t25.5 -1.5t36 2
q12 2 23.5 6t24.5 13l37 16l11 24l3 6l13 29l1 2q5 8 9.5 16.5t11.5 18.5q-11 6 -14.5 9.5t-3.5 6.5q2 29 -1 43t-12 25q-11 8 -21 14.5t-24 13.5l-3 2l-27 13q-17 8 -22 10t-7 0q-30 -23 -60 -8l-28 -13v-27l-12 -5l-2 17l-8 5l-1 -14z" />
    <glyph glyph-name="S" unicode="S" horiz-adv-x="593" 
d="M40 144q-6 12 -3 24t14 19l-1 6l-4 21q-3 16 -1 26q3 18 21 20q7 1 13 -1.5t10.5 -10.5t8.5 -22t9 -36q1 -3 1 -5.5t1 -4.5q5 -20 8 -30t8 -16.5t13.5 -12.5l25.5 -18l1 -1l13 -11q1 -11 6.5 -13.5t28.5 -4.5q1 0 4 -2t19 -12q6 -4 26 -9l17 4l16 4l18 4l17 4l21 20
q5 2 11 7q32 22 38 38.5t-8 31.5q4 23 -4 44.5t-27 38.5q-8 6 -14 10q-7 3 -13 6.5t-13 7.5l-12 8l-12 8l-33 21q-26 18 -39.5 27.5t-21 12.5t-13 1t-15.5 -7t-18 3q-11 12 -9 29q-6 8 -11 13q-19 21 -46 27q-20 16 -30 39l-3 6l-3 7l21 4q-2 3 -4.5 6t-4.5 7
q-17 28 -22 49.5t-3 44.5l9 22q-2 17 6.5 31t23.5 20l9 9l9 9l10 9l11 10q2 17 12 22t37 6q4 0 9.5 1t16.5 5l11 3l31 6q20 5 29 6t14 2h1l40 1l49.5 1.5t26.5 -1t18.5 -7t23.5 -16.5l41 -29l10 -17q0 -20 2 -40t10 -60q1 -5 1.5 -9.5t2.5 -9.5q-1 -8 -5 -15t-12 -12
q-14 -8 -26.5 -3t-15.5 17q-4 16 -1 53q1 7 -3 16t-17 22q-19 19 -42 23q-4 2 -8 4.5t-9 4.5q-28 11 -56 8q-43 17 -80 -18q-29 -27 -34.5 -53t8.5 -60q5 -13 8.5 -20.5t9.5 -12.5t16 -10t28 -13q6 -2 9 -4q11 -6 18 -11.5t16 -15.5q2 -3 4.5 -5.5t4.5 -5.5l34 -10l5 -2
l26 -10q5 -2 12 -4t21 -5q20 -7 33 -27l3 -4l5 -10l35 -29q11 -9 18 -15.5t12 -14.5t10 -19t13 -29q1 -3 4 -7.5t11 -15.5q1 -2 2 -5t1.5 -10t-0.5 -19t-2 -31l-1 -26l-31 -36l-22 -12q-1 -5 -5 -15q-9 -23 -32 -34l8 -4q-6 -5 -10 -6l-1 -1l-27 -7q-4 -1 -11 -4t-30 -14
q-4 -2 -11.5 -3.5t-33.5 -7.5q-5 -2 -11 -4t-20 -9h-37h-5l-16 -1l1 9q-14 1 -24.5 -2t-24.5 -11q-2 -2 -7 -1t-16 6q-6 2 -14 7.5t-25 19.5q-2 2 -9.5 3t-39.5 4q-8 2 -18 6.5t-27 18.5q-8 14 -10.5 30t-0.5 38q0 5 2 15q-10 5 -13 13z" />
    <glyph glyph-name="T" unicode="T" horiz-adv-x="701" 
d="M-15 563q-3 4 -7 12l3 8l4 9l6 16l6 17l-7 27q13 13 20 26.5t12 36.5q0 4 8 8q9 4 16 -3l44 4q13 -4 22.5 -4t23.5 5q4 2 7 3t7 3q1 1 4.5 -2t19.5 -14q5 -4 14.5 -4.5t24.5 5.5l19 -5h25t22.5 -0.5t26.5 -1.5t36 -2q8 -1 17 -1.5t17 -1.5q3 -1 10.5 0t35.5 4q19 3 47 -1
q5 0 12.5 3.5t29.5 19.5h1.5t6 -1t13 -3t24.5 -6q4 -1 12 -1.5t37 -0.5q4 0 10 -1t21 -5q5 -1 11.5 0t19.5 6q6 -5 9.5 -8.5l5.5 -5.5l22 -72q2 -4 4 -10.5t8 -21.5q7 -11 7 -20q0 -17 -12.5 -28t-29.5 -8q-25 12 -37 35q-4 7 -6 14l-4 14q-11 5 -18.5 9t-17.5 12l-9 9
q-1 1 -5.5 1.5t-23.5 2.5q-5 1 -10 4t-15 11l-25 -6l-25 -5l-25 -5l-26 -4q-6 -5 -11 -11q-16 -19 -10 -42l3 -45l-2 -40l2 -23l2 -17l2 -13l1 -13l1 -18q0 -13 7 -42l-21 2q9 -17 10.5 -38.5t-6.5 -62.5l-2 -12t-3 -12q0 -2 1 -6.5t8 -28.5l9 -39l-18 9l6 -36q3 -21 6 -34
t6.5 -22t8.5 -15.5t14 -14.5l27 -3q9 -6 21 -22q5 -7 9 -16q2 -7 -2.5 -13t-18.5 -8q-3 -1 -9 0t-26 6q-5 1 -12 -1t-20 -9l-36 4l-36 5q-23 3 -34.5 -0.5t-22.5 -14.5q-4 -1 -7.5 -1t-7.5 -1q-11 -2 -22 -1.5t-23 2.5l18 19q-8 8 -19 9.5t-21 -4.5q-13 -6 -16 -21
q-10 -2 -18 4t-10 16t2.5 18.5t14.5 10.5l25 11q24 11 32 24t2 33q17 32 24 65q9 40 8.5 66t-8.5 52l10 50q6 15 1 31l-3 9l-3 45q0 3 -0.5 6t-0.5 6q-1 16 -1.5 26t0.5 18t2.5 15.5t4.5 18.5q1 1 0.5 5t-3.5 24q-1 8 -0.5 20.5t4.5 38.5q3 21 -3.5 30t-32.5 16
q-3 0 -5.5 0.5t-5.5 0.5q-10 -4 -18 -5.5t-17 -0.5t-19.5 4t-25.5 9q-4 1 -9.5 0.5t-19.5 -4.5q-6 -2 -14 -9q-18 -13 -28.5 -22.5t-16 -18.5t-7 -19.5t-1.5 -25.5q0 -9 -15 -16q-10 -5 -24 -0.5t-26 19.5z" />
    <glyph glyph-name="U" unicode="U" horiz-adv-x="739" 
d="M-13 695l3.5 3.5l3.5 3.5q11 15 28.5 19t58.5 -3q5 -1 13 -0.5t31 5.5h2t5 -1.5t12 -4t23 -6.5q32 -10 52 7q21 7 43 6h6.5t6.5 -1q18 7 36 -5q10 -8 13 -17q4 -10 2.5 -15.5t-4.5 -7.5q-14 -6 -28 -11.5t-28 -10.5q-3 -2 -6 -5.5t-11 -15.5q-18 -17 -26.5 -39.5
t-6.5 -47.5l3 -15q3 -8 5 -14.5t2 -13.5v-2l-3 -27v-13l-5 -4q-2 -14 1 -23.5t15 -31.5q3 -6 5 -15t3 -24q-9 -3 -17 -7l-3 -1l-3 -2q-2 -13 -0.5 -21.5t10.5 -30.5q2 -4 2.5 -10.5t-1.5 -18.5q8 -14 10.5 -25.5t3.5 -34.5q0 -6 2 -13.5t7 -19.5l16 -29q0 -21 12 -37t42 -31
q16 -9 38 -15q5 -2 10 -3l10 -2q5 -2 13 -4q12 -3 20.5 -4.5t16 -0.5t16 4.5t19.5 9.5q2 2 6 3l20 5q7 2 15 7.5t22 17.5q16 14 27 32l18 29q-6 10 -5.5 21.5t6.5 22.5q2 3 7 8q1 6 2 11.5t2 11.5q8 51 9.5 86t-0.5 69v53l-5 37l-5 34v2v4l1 34q1 24 -2.5 39.5t-11.5 29.5
q-2 4 -3 7q-8 16 -12 25t-8.5 12.5t-11 4.5t-19.5 2q-5 0 -9.5 3.5t-11.5 13.5l15 26q20 12 38 13q3 0 6 0.5t7 -0.5q9 -20 22 -21t47 12q3 1 10.5 0t36.5 -8q19 -4 50 3q5 2 10.5 -5t6.5 -27q-10 -8 -16 -12t-11 -7l-27 -18l-2 -1q-8 -5 -14 -15.5t-11 -30.5l-1 -2l1 -51
q0 -14 -1.5 -30.5t-4.5 -39.5q0 -2 1 -7.5t6 -27.5q0 -3 0.5 -6.5t0 -11.5t-2 -22t-3.5 -37q-1 -2 0 -7t4 -28q1 -5 0.5 -13.5t-2.5 -23.5q-7 -6 -10 -14.5t-1 -16.5v-2l6 -13q2 -2 2.5 -8t0.5 -24v-27v-6l-20 -30q-1 -6 -1.5 -11.5t-2.5 -11.5q-6 -21 -11 -33.5
t-12.5 -21.5t-20 -17t-33.5 -21l-46 -29q-12 2 -14 -9q-4 -11 7 -14q-30 -9 -60 2l-33 4l-32 4h-2h-13.5t-24.5 -2q-6 -1 -28 3v-5l-25 4l-14 16q-19 8 -37.5 13.5t-50.5 11.5q-3 1 -8 3t-18 10l-7 17l-7 17q-5 12 -8.5 23t-7.5 23l-9 37q-1 9 -2 16t-3.5 14t-5.5 15.5
t-9 20.5q-2 4 -4 7.5t-4 7.5q-1 2 -0.5 5t4.5 11l-4 14l-5 13l-5 14l-5 14q-1 20 2.5 32.5t14.5 35.5q2 3 3.5 6t3.5 6q3 3 2.5 7.5t-3.5 7.5q-11 11 -28 14l-7 38l20 -7q4 20 3 36t-9 46q-1 4 0 11.5t6 31.5q1 8 -6.5 26.5t-28.5 39.5q-17 15 -30 21q-20 8 -34 16
q-4 2 -1 7z" />
    <glyph glyph-name="V" unicode="V" horiz-adv-x="730" 
d="M13 668q-6 2 -13.5 6t-21.5 13q1 17 13.5 28.5t29.5 11.5q11 -1 22 -1.5t21 -1.5h50q34 2 50 0.5t26 -5.5l2 -1l7 -4q2 1 8 5q13 7 22 10.5t15.5 4.5t11.5 -1t12 -6q5 -3 9 -8h2q2 2 2.5 4.5t2.5 4.5q2 5 11 -4q11 -9 9.5 -21t-11.5 -17q-2 -1 -4.5 -1t-4.5 -1
q-21 -5 -32 -8t-14.5 -10.5t-1.5 -23t6 -45.5q1 -2 1 -4.5t1 -4.5l6 -17l5 -16l11 -34l19 -25v-32q18 -14 24.5 -29t5.5 -43q0 -9 -3 -16q0 -1 2.5 -2t15.5 -4q14 -2 16 -16q3 -19 -7 -32q13 -7 18 -24l1 -3l1 -3l-9 -3q2 -4 4.5 -7.5t4.5 -8.5q7 -12 12.5 -24.5t9.5 -26.5
l29 -16l11 11q7 9 12.5 17t9.5 17t7 21t7 29q1 4 4 10.5t14 23.5q3 5 3.5 13t-3.5 24q-7 2 -10.5 7.5t-1.5 11.5q2 8 8 12t14 1q2 0 4 -2q-4 -2 -4 -6.5t4 -7.5q4 -4 9 -1l1 29q0 2 2.5 8t11.5 27q3 5 4 13.5t-1 24.5q10 5 14 11.5t9 24.5l5 22l2 6l1 12l2 18q2 11 7 28
q1 2 0.5 6.5t-4.5 13.5l8 -4q-2 10 -4 16.5t-7.5 12.5t-16 13t-28.5 18q-6 4 -9 7q-3 2 -3 7t3 9q8 10 21 16q31 13 50 8q2 -2 4 -2.5t4 -1.5q29 -14 49 -15t40 7l30 -10l44 16l15 -20q5 -20 -4.5 -28.5t-41.5 -11.5q-5 0 -10.5 -5t-13.5 -19q-3 -2 -5.5 -3t-5.5 -3
q-23 -15 -30.5 -30t-3.5 -32l-9 5l-1 11l-5 -18l-2 -3l-22 -83l-1 -4q-1 -5 -5.5 -13t-18.5 -26q-2 -5 -3.5 -10.5t-3.5 -11.5q-14 -39 -31 -62l-2 -3l-3 -4h14l-5 -12l-5 -13l-5 -13l-4 -12l-14 -36l-15 -15q-17 -22 -28 -49l16 10q2 -2 2 -5q4 -9 -1 -17t-15 -10
q-10 -18 -16 -32t-13 -36q-2 -5 -2.5 -9t-2.5 -9q0 -1 -1 -2t-3 -4.5t-6.5 -10t-12.5 -18.5q-9 -12 -22 -47q-2 -13 -9 -25q-9 -14 -21.5 -15.5t-21.5 9.5l-5 14l-6 14l-7 15l-6 15q-9 47 -40 84q-8 16 -12 22.5t-6 10.5q-10 13 -15 20t-6 11t1.5 7t8.5 9q7 4 -7 12
q-11 18 -17 32l-2 4l-10 28q-5 16 -22 48q5 13 1.5 20.5t-23.5 27.5q-2 3 -4.5 8.5t-4.5 16.5q-2 19 -7.5 33.5t-16.5 36.5q-2 4 -3.5 11.5t-3.5 32.5q0 6 -5 9q-5 5 -11 2q-6 -2 -8 -8q-1 16 -4 28t-13 33v1l-4 27q-2 16 -5.5 23.5t-9.5 12.5q-5 4 -8.5 6.5t-8.5 4.5t-13 5
t-23 8z" />
    <glyph glyph-name="W" unicode="W" horiz-adv-x="994" 
d="M-18 710q5 13 19 15q35 -5 64 -6t64 4q5 0 10.5 0.5t10.5 1.5t13.5 0.5t34.5 -5.5q5 -1 12.5 1t23.5 8l-11 -22l27 9l22 -24q-22 -2 -40 -18q-15 -15 -17.5 -31t6.5 -48l10 -37q-1 -9 -1 -16t3 -14.5t9 -17.5t16 -26l14 -22q-2 -18 5.5 -34.5t21.5 -27.5q2 -14 5.5 -25
t14.5 -26q2 -3 2 -9t-1 -29q0 -2 1 -4t5 -8t11.5 -17t21.5 -29q2 -4 8 -10l2 -25q17 8 22 25q3 9 -1 22q12 30 41 48l1 41l15 36l10 45l-5 22q-9 14 -11.5 24.5t-2.5 36.5q0 1 -0.5 3.5t-3.5 9t-8.5 18t-15.5 32.5q-2 6 -4.5 15.5t-5.5 32.5q-1 2 -1.5 3.5t-2.5 3.5
q-15 25 -24 30.5t-17 0.5v-7q-4 4 -8.5 9t-10.5 14q-2 2 -3.5 5t-3.5 5q-3 6 0.5 14t11.5 12q13 6 29.5 4t45.5 -15q3 -1 5.5 -2t4.5 -2q1 -2 7 0.5t33 15.5h4t14.5 -1t34.5 -3.5t64 -6.5q4 -1 11 -1t27 1q8 -15 3 -31t-22 -22q-14 -5 -26 1l-21 -14q-4 -31 2 -63
q5 -25 17 -51l13 -27l9 -20l7 -82q10 -13 21.5 -25.5t23.5 -23.5q0 -2 -2 -4q-7 -11 -16 -2l9 -15l10 -15l9 -15l9 -15l12 -45l32 38l16 29q6 12 9.5 23.5t6.5 32.5q1 3 4 8t14 22q2 1 2 5.5t2 23.5q1 6 5 15.5t21 35.5q1 2 1.5 5.5t-0.5 14.5q7 15 10 30.5t5 31.5
q17 23 14 50q-2 29 -12 47t-36 39q-3 3 -6.5 5.5t-7.5 4.5q-2 2 -2 6t7 15q17 5 30.5 2.5t39.5 -17.5q2 -1 11 0t47 8l42 7q19 11 40 3q22 -7 30 -31l-14 -12l-9 -8l-15 -14l-7 -7q-7 -6 -16 -13t-26 -17l-6 -15l-5 -14l-5 -15l-5 -16q-7 -20 -12 -41l-10 -44l-7 -15l-4 -11
l-6 -18l-3 -8q0 -2 -1.5 -4.5t-6 -9.5t-13.5 -19t-24 -33q-5 -8 -11 -20.5t-16 -39.5l-9 -25v-1q-2 -5 -5.5 -9.5t-12.5 -12.5q7 -12 9 -27q2 -18 -8 -34l-22 -18q-9 -7 -13 -10.5t-6 -7t-3 -9t-4 -17.5q0 -2 -1.5 -5t-5 -9.5t-10 -18t-17.5 -29.5q-5 -8 -9 -22t-6 -42
q-12 -15 -28 -14.5t-24 15.5q-10 17 -11 35v4v24q0 5 -0.5 10.5t-3.5 16.5q-2 3 -5 6t-5 6q-12 17 -15 31t0 36q1 8 -5 16.5t-21 15.5q-17 16 -22 33l-1 1l-7 26q-2 9 -6 20t-12 28q-19 -7 -27 -20t-16 -49q0 -2 -0.5 -4t-0.5 -4q-10 -22 -19 -47q-5 -12 -9 -24l-8 -24
q1 -5 1 -16q-3 -24 -19 -40q-7 -2 -11 -4.5t-7 -7.5t-6 -13t-6 -21l-3.5 -7t-12.5 -21q-2 -2 -3 -6t-3 -14l8 -2q-1 -1 -1.5 -2t-1.5 -2q-6 -6 -15 -6t-14 7l-6 23l-7 22l-4 13l-4 13q-14 11 -20 23l-9 42q-2 8 -5 18.5t-10 27.5l-29 27l-16 57l-22 46q0 13 -4 22
q-2 8 -6.5 15t-9.5 14q-18 7 -25 27l-1 24q0 10 -3 19q-6 31 -23 54q5 20 -0.5 37t-22.5 36q-2 1 -3.5 6t-10.5 28q-1 2 -3 5t-5.5 9t-10.5 15.5t-19 26.5q-3 5 -6.5 11.5t-7.5 15.5q-2 6 -9.5 10t-22.5 6q-8 5 -11.5 13.5t-0.5 17.5z" />
    <glyph glyph-name="X" unicode="X" horiz-adv-x="799" 
d="M-7 40q6 4 12 6.5t11 4.5l6 2l20 6q7 1 15 6q9 5 14.5 8t12 9t17.5 16.5t31 30.5q4 3 9.5 7.5t19.5 15.5q5 4 11 10.5t17 20.5q3 4 10 6.5t24 4.5l5 11l-18 -4q-4 10 2.5 17.5t32.5 21.5q3 3 6 3q3 10 6.5 17t8.5 14t12 15t19 20q5 5 10.5 12t13.5 22q-5 23 -18 41
q-11 14 -26 23l-30 41q-6 6 -10.5 10t-8.5 10l-10 15t-15 26q-1 2 -2 5t-2 5q0 4 -9 -1q-4 -2 -4.5 -7t3.5 -8q-4 2 -6 4t-3.5 6t-3.5 12t-6 22q-2 6 -8.5 13t-22.5 16l-13 27l-27 29l-14 5l-9 4l-19 8l-6 2q-2 2 -7.5 3t-19.5 5q-3 0 -13 6l-14 31l2 16q5 2 10 3.5t10 2.5
q57 15 100 -13l13 2l-4 12q16 0 25.5 -0.5t17.5 -1.5l39 -5h5q7 -2 16.5 0t23.5 9q20 9 36 11.5t27.5 0.5t18 -7.5t7.5 -11.5q1 -3 -0.5 -9t-6.5 -18q-2 -6 11 -15l-12 -3q-58 -19 -27 -68q5 -8 11 -13t25 -18q3 -2 7 -7t14 -22l6 -9l14 -27q5 -8 10 -15t12 -13
q6 -7 15.5 -8t17.5 4q12 7 16 19l3 3l3 3q13 15 18 36q17 12 28 32l15 37l19 39l-11 21q-11 -3 -21 3t-12 17t3 19.5t15 11.5l23 11q4 -2 7 -3t7 -2q38 -12 58 -13.5t40 6.5q17 6 23 8.5t9 4.5l26 -12q16 -7 48 -10q5 -12 1 -22q-2 -6 -7.5 -10.5t-10.5 -3.5h-17
q-4 0 -8.5 -1.5t-13.5 -8.5t-24.5 -20t-40.5 -35l-20 -17l-1 -1q-5 -5 -9 -10.5t-9 -11.5q-1 -1 -3.5 -2.5t-15.5 -8.5q-8 -5 -15 -13.5t-14 -24.5l-33 -33l-18 -25l-20 -27l-6 -9q-11 -15 -7.5 -28.5t24.5 -32.5q8 -8 17.5 -13t20.5 -10q3 0 3 -3q2 -4 -1 -4q-2 -1 -3.5 -1
t-3.5 -1q-3 0 -1 -2q4 -8 8 -15t9 -14q11 -16 14 -20.5t5 -6.5l1 -1l42 -34l12 -10l30 -26q1 -14 4 -24t9.5 -19.5t18 -21t30.5 -28.5q12 -11 29 -33q0 -1 1.5 -1.5t5.5 -2.5t12 -5t23 -8q13 -5 22 -14q8 -8 8 -17t-8 -15q-16 -14 -40 -7q-4 1 -12 5q-16 -4 -25 -4
q-14 1 -19 1t-7 1q-2 0 -4.5 -2t-6.5 -10q-4 1 -8.5 2t-9.5 1q-25 4 -40 6t-26 2t-22 -2.5t-29 -7.5q-7 -2 -17 -1.5t-28 4.5q-14 -5 -26 4q-9 6 -12 16q-3 17 10 24q7 4 16 6q14 4 20 4.5t10 0.5q5 0 8 10t-2 40q-2 8 -4 11q-8 14 -20 23q-11 10 -25 16l-18 42
q-11 12 -20 21.5t-27 25.5q-5 4 -10 9.5t-14 18.5l-20 7q-13 -7 -23 -15q-5 -4 -10 -7.5t-10 -8.5l27 4l-28 -25q-3 -3 -6 -5.5t-6 -5.5q-17 -14 -35 -23q-12 -9 -18.5 -18.5t-13.5 -29.5l-5 -15l-1 -5l-12 -28l-4 -23l26 -15l25 -14h1q6 -6 9 -19l-35 -33l-46 7
q-27 4 -43.5 6t-28.5 2t-21 -2t-20 -5q-4 -2 -7 -2.5t-7 -2.5t-10.5 -0.5t-17.5 8.5l-13 -1h-13l-13 -1l-13 1z" />
    <glyph glyph-name="Y" unicode="Y" horiz-adv-x="699" 
d="M-4 671q-24 20 -18 50l23 19q11 -5 21.5 -8t21.5 -6q13 -3 22.5 -5t20.5 -3t28 -1.5t45 -0.5q21 0 32.5 -0.5t18 -0.5h8.5h4q3 -1 9 2t25 16q5 3 15 1t30 -16l10 -6q-6 -19 -17 -30.5t-33 -22.5q-4 -2 -6.5 -7t-3.5 -17q2 -3 8 -9q20 -23 28.5 -43t12.5 -50q0 -1 1 -3
t6 -8l15 -18t28 -33l1 -1l14 -25q3 -5 8 -12t14 -19l25 19l31 35q14 4 23.5 14.5t11.5 24.5q4 16 10 26.5t23 30.5q2 2 4.5 7.5t8.5 24.5l8 23l2 9l-14 17l-11 17l-33 26q-4 8 -3 14t9 10.5t23.5 7.5t41.5 5h11q11 -1 20 -1.5t20 0.5l14 1q2 0 9 -1t33 -7q7 -2 17 -1.5
t29 4.5l19 -14q-5 -21 -20.5 -35.5t-53.5 -29.5q-5 -2 -10 -8.5t-12 -21.5q-11 -18 -22 -31.5t-31 -33.5q-2 -3 -6.5 -10.5t-18.5 -33.5q-5 -10 -17.5 -23.5t-42.5 -41.5q-1 -1 -1.5 -2.5t-2 -5.5l-4.5 -12t-7 -22q-2 -4 -5.5 -10t-19.5 -28q-4 -6 -7 -15.5t-6 -28.5
q0 -4 -0.5 -11t-0.5 -25q0 -8 -1 -16.5t-4 -19.5q-2 -5 1 -11t14 -16q6 -22 -11 -36q-1 -1 -2 -1.5t-2 -1.5q-1 0 1.5 -4t13.5 -24q2 -2 3 -10l-6 -25l5 -8q-3 -9 -3.5 -15t4 -11.5t13.5 -11.5t26 -16q5 -3 11.5 -10t16.5 -21l3 -10q-10 -5 -16 -7.5t-15 -3t-23 0t-40 1.5
q-5 0 -13 -1t-26 -6q-10 -3 -17 -2.5t-22 6.5q-12 6 -35 -4q-6 5 -13 7.5t-14 3.5l-28 -5q-8 -2 -18 -3t-26 -1l-19 44q2 11 8 13.5t29 0.5l25 13q8 4 14.5 9t13.5 10q8 8 6.5 19.5t-14.5 20.5q12 14 17 31q3 12 2 22t-9 32v70v7l-1 24q-14 18 -22 29l-5 8l-13 22q-2 4 -6 9
t-12 16l-31 41q-2 3 -4 6.5t-4 6.5q-11 21 -15 45q-32 29 -44 68q-6 21 -24 38q-3 3 -11 9q-19 44 -65 57q-15 5 -29 5z" />
    <glyph glyph-name="Z" unicode="Z" horiz-adv-x="702" 
d="M14 4l10 20l3 6l12 26l1 1q2 3 6.5 7t15.5 12l17 13l6 4q7 4 18 23l26 35q3 15 8.5 24t22.5 27q2 2 4.5 6t10.5 19q2 4 6 8.5t14 13.5q1 2 2 6l5 20q2 5 5.5 9.5t14.5 11.5q12 16 21 26.5t27 28.5q3 2 5.5 5t5.5 5q5 5 10.5 17t16.5 47q1 4 3 10q2 9 10 18t25 19
q27 24 36 55q2 5 3 10.5t2 10.5q8 6 12 10q18 18 19 41q15 0 25 13q6 8 6.5 18.5t-5.5 19.5q-4 7 -8 9q-15 10 -29 7l12 -18q-14 -9 -24.5 -8t-39.5 14q-9 3 -16 2q-17 -3 -23 -15q-9 3 -15.5 5t-14.5 2.5t-18 0.5h-26q-2 0 -7 0.5t-21 2.5h-10t-17 -2l-41 -9l-7 -20
q-3 -3 -6 -6.5t-6 -6.5q-8 -11 -15.5 -21.5t-13.5 -21.5q-4 -12 -17 -18q-11 -5 -23 -2t-19 14q-5 8 -6 17t3 26q2 5 3 8.5t3 7.5l1 2l23 29l7 10l18 26q-8 11 -6 20.5t11 11.5q15 4 30 6l43 2h1l5 -9q5 -1 9.5 -1h8.5h2l24 3h8l18 1q15 1 25 2.5t30 6.5q3 0 9 2
q5 2 11.5 0.5t18.5 -6.5h29q10 -4 17.5 -6.5t16.5 -3t21 0t32 1.5q15 2 33 0t49 -9l21 -6h3.5t8 2t16 6t28.5 11q2 1 7 1.5t17 1.5q14 5 26 -3q13 -10 10 -27q-1 -3 -2 -5.5t-4.5 -6.5t-10.5 -10t-19 -18q-5 -5 -9 -13.5t-9 -26.5l-13 -10l-12 -11l-13 -10l-12 -12
q-3 -28 -23 -49q-3 -3 -11 -9q-10 -21 -24 -40l-6 -7l-12 -13q-4 -4 -14 -24q3 -18 -3 -30t-27 -30q-2 -2 -4.5 -6t-10.5 -20q-2 -3 -8 -9t-26 -23q-5 -5 -9 -13t-9 -26q-35 -20 -49 -58l-18 -18q-11 -11 -20.5 -22t-18.5 -22q-8 -9 12 -17q-6 -6 -8 -10q-13 -23 -14 -34
t4 -15h36q8 0 17.5 -1.5t23.5 -6.5q6 -2 10 -4l-3 -11q12 -1 21.5 -1t19 2.5t21.5 7.5t29 14q4 2 9.5 3t17.5 2q7 1 27 0q7 0 16 2.5t23 9.5l1 -13q45 18 67 63q13 26 20 33.5t18 9.5q22 2 30 -15q3 -7 4.5 -11.5t-1.5 -12.5t-10.5 -24.5t-22.5 -47.5q-2 -3 -2.5 -9.5
t-2.5 -24.5l-6 -15q-8 -14 -14.5 -21.5t-15.5 -10.5t-21 -1.5t-31 6.5h-7t-19 -2q-4 0 -10 1t-17 6q-2 1 -5.5 -0.5t-9.5 -8.5q-10 -2 -19 -2.5t-19 0.5q-20 3 -33 10q-50 20 -100 0l-38 3l-3 -13l-34 7q-26 11 -55 9l-20 -4l-20 -5l-19 -5l-20 -5q-26 10 -52 4
q-4 -1 -8 -1.5t-8 -2.5z" />
    <glyph glyph-name="underscore" unicode="_" horiz-adv-x="562" 
d="M-7 0v36h576v-36h-576z" />
    <glyph glyph-name="a" unicode="a" horiz-adv-x="483" 
d="M29 84q3 27 17 50q2 4 4.5 7.5t5.5 6.5l10 9l7 5l15 12t9 6q2 2 5.5 6t14.5 20q1 2 6 5.5t15 9t27 13t43 17.5q5 2 11.5 6t19.5 14q4 2 13.5 3.5t32.5 -0.5q3 -1 6 -1t6 -1q-1 11 -5 18t-15 21q-3 2 -4 10t-2 31q0 8 -8.5 15.5t-29.5 10.5l-34 -7l-29 2l-14 -5l-14 -6
l-12 -5l-13 -6q-9 -14 -23 -14q-13 -1 -24 11q-9 13 -2.5 25.5t38.5 35.5q5 3 9.5 5.5t16.5 7.5q4 2 7.5 3t8.5 3l2 1l34 11q21 7 36.5 10.5t29 4t27.5 -1.5t31 -6q5 -1 11 -0.5t20 2.5l25 -13q4 -14 10.5 -25t24.5 -31q2 -2 4 -4.5t4 -4.5q14 -16 14 -34v-2l-8 -35
q-2 -6 -2.5 -15t0.5 -26l5 -27q1 -17 0.5 -29.5t-3.5 -34.5q0 -5 -0.5 -8.5t-1.5 -8.5q-2 -8 1 -13q5 -20 8.5 -28t8 -9.5t11 1t17.5 5.5q4 1 9.5 0.5t16.5 -3.5q-3 -13 -7 -23t-10.5 -19.5t-16 -19.5t-24.5 -23q-2 -2 -4.5 -4t-5.5 -4q-26 -20 -38.5 -24t-22.5 1l-1 1
l-12 15q-5 6 -12.5 13t-18.5 15q-2 2 -3.5 5t-3.5 14q-2 9 -10 7q-11 0 -19 -8q-9 -11 -17.5 -16t-31.5 -12q-5 -2 -12 -5.5t-20 -11.5q-5 -3 -13 -3t-23 5l-25 -9l-31 3l-7 17l-13 -3q-11 10 -17.5 18.5t-19.5 26.5l-12 18zM153 107q-1 -14 9.5 -24t24.5 -8q6 0 14 5
q29 -2 52.5 13.5t37.5 47.5q4 7 5 14l-2 27l-2 29l-11 8l-8 -4l-17 -9q-14 -8 -19 -9.5t-7 -1.5q-33 -5 -47.5 -14.5t-24.5 -31.5q-8 -21 -5 -42z" />
    <glyph glyph-name="b" unicode="b" horiz-adv-x="571" 
d="M0 653l8 38q8 1 15 1.5t12 0.5l3 -1l25 -2h6l26 -2l15 10l23 4q3 2 5.5 3t5.5 3q40 19 54.5 21.5t20.5 -5.5v-1l-9 -34q-2 -6 -1.5 -15.5t4.5 -24.5q-11 -9 -14 -23.5t5 -37.5q1 -6 5 -12q5 -16 2.5 -26t-13.5 -35q-6 -12 -6.5 -34t8.5 -67q1 -4 1.5 -7t1.5 -7l42 19
l18 9l23 -2l6 16l2 12q25 5 49 3t65 -14q24 -8 38.5 -13t24 -12t17 -17.5t18.5 -29.5q9 -15 11 -39l13 -25q6 -11 9 -16t3 -8.5t-2.5 -10t-8.5 -20.5q-2 -5 -4 -11.5t-6 -20.5q12 -16 6 -35l-7 -13l-1 -2l-11 -27q-9 -20 -20.5 -35.5t-29.5 -31.5q-5 -5 -11 -9t-12 -9l-6 -4
l-6 -4q-11 -13 -26 -19t-32 -3l-9 -4l-40 -15l-20 -8q-19 -1 -29.5 -1.5t-18.5 -1.5l-49 -4l-31 11l-10 4l-20 6l-16 2v1l-16 -2l-8 8q-4 2 -5 3q-22 11 -44 8l12 27l17 17l-14 47q-4 11 -3 18t6 27q2 5 1.5 10.5t-3.5 16.5l-2 37q9 12 10 27.5t-7 28.5q5 22 5.5 42.5
t-4.5 50.5q-2 6 -2 11l1 21v13v33t-1 42q-1 7 0 16.5t4 32.5q-2 14 -3 22t-1 13l1 34v1q1 2 -4.5 4.5t-28.5 10.5zM190 220q0 -30 7 -57l3 -21l-5 -45l16 -20q15 -5 22 -6.5t11 -3.5q23 -8 28 -10t5 -1q9 5 16.5 8.5t14.5 5.5q29 8 40.5 19t13.5 32q13 15 21 33
q5 12 6.5 20.5t1.5 16.5l-1 14v13l1 57v1q-4 24 -13 36.5t-27 17.5l-20 39l-28 3q-22 3 -42 -5.5t-33 -26.5l-29 -3q6 -35 6 -71l-16 -31z" />
    <glyph glyph-name="c" unicode="c" horiz-adv-x="443" 
d="M29 226l10 36q-9 14 -6 23.5t22 28.5q1 2 2.5 6.5t7.5 25.5q3 9 10 18.5t21 23.5l32 33l40 5q-3 11 2 21t16 14q17 5 29 -8q18 5 32 6t43 -4q4 0 10.5 -0.5t23.5 0.5h1l38 -10q5 -2 14 -4t25 -4l5 -19l-18 -35l-14 -19q-24 -31 -34.5 -36t-23.5 10l-24 20q-17 17 -38 23
q-17 6 -29.5 7.5t-22.5 -2.5t-19.5 -14t-20.5 -27q-5 -8 -7.5 -16.5t-3.5 -19.5l10 -30l-12 -44q16 -31 3 -64q12 -20 29 -35q3 -2 6 -5t6 -5q14 -5 22.5 -12.5t17.5 -26.5q4 -8 18.5 -11.5t53.5 -1.5q27 2 45.5 9.5t40.5 24.5q3 2 9.5 3t19.5 -1l-28 -39q-4 -5 -7.5 -9.5
t-7.5 -9.5q-11 -12 -21 -20.5t-21.5 -14.5t-26.5 -10.5t-36 -8.5l-45 -9l-48 8l-48 9l-27 25q-13 -2 -22 7.5t-7 22.5q0 3 1 5q-12 12 -21 24.5t-14.5 29.5t-8.5 40t-4 56v10z" />
    <glyph glyph-name="d" unicode="d" horiz-adv-x="577" 
d="M35 274q2 5 2 13t-2 23l13 17q9 4 15 8.5t11.5 11t10.5 15.5t12 23q15 30 32.5 43.5t41.5 15.5q17 2 27.5 3t20.5 2l35 5l11 2q20 3 36.5 1t39.5 -11q13 -5 21.5 -1.5t9.5 11.5q3 10 1 22q-1 14 1 25t7 25q1 2 -0.5 7t-7.5 26q-2 5 -1.5 12.5t3.5 23.5q1 7 -9 14.5
t-47 23.5q-4 2 -7 3t-7 2l-18 6l-1 1q1 16 9.5 21t32.5 7q5 1 10.5 3t15.5 9q6 7 11.5 11t12.5 6t17 3.5t26 2.5q6 1 13.5 3.5t21.5 10.5l45 20q-8 -18 -5 -33.5t18 -35.5q2 -2 0.5 -6t-8.5 -13q-8 -11 -19 -14l3 -7l7 -19q4 -11 6.5 -17.5t1.5 -12.5t-4.5 -15t-9.5 -25
l6 -36q2 -6 2.5 -14.5t2.5 -22.5l4 -18l-2 -9l-2 -8l-3 -11l-3 -11q10 -7 9.5 -14t-9.5 -30q-2 -5 6 -19q5 -14 3 -29q-1 -7 -2.5 -13.5t-5.5 -13.5q2 -14 3.5 -23.5t6.5 -26.5q1 -2 1.5 -5t1.5 -5v-1l-10 -59l-1 -5l-2 -20l17 -6q-12 -14 -6.5 -22.5t36.5 -27.5l40 -27
q-32 -33 -74 -41l-37 -8l-27 -8q-12 -3 -18.5 -4.5t-12 0.5t-10.5 8t-13 17l-6 9q-1 2 -5 1t-21 -5l-25 -6q-7 -2 -14 -5.5l-15 -7.5l-33 -9l-47 -21q-3 13 -13 18l-30 1q-5 1 -12 2t-19 6l-19 10l-18 9l-19 11q-17 9 -32 25q-5 5 -8 10l-6 10q5 -2 11 1t8 8q5 12 -5 21
q-23 8 -31 31q-2 5 -2.5 8.5t-0.5 9t1 13t3 20.5q1 3 0 9.5t-5 26.5q0 2 0.5 7t5.5 28zM158 198q-2 -20 7 -32.5t40 -31.5q2 -2 3.5 -2.5t3.5 -1.5h-6h-5q-12 -2 -24 -6q14 -17 36 -28.5t57 -18.5q26 -5 38.5 -3t24.5 13q7 3 14 8q19 13 30 35l2 38l5 5l-1 26l-1 11l-1 24v1
q0 12 3 29q-5 13 -7.5 20t-4.5 12l-13 27q-1 32 -12 49.5t-42 28.5q-6 2 -11.5 3t-11.5 2q-22 -22 -55 -33l-8 -2t-9 -1q-2 -8 -8 -8q-19 -32 -19 -66q-6 -6 -9.5 -11.5t-5.5 -12t-3 -16t-2 -23.5l-1 -27l-3 -3z" />
    <glyph glyph-name="e" unicode="e" horiz-adv-x="420" 
d="M166 426q13 19 33 25t32.5 8.5t23 0.5t22 -9.5t28.5 -20.5q5 -3 12 -7.5t24 -12.5q9 -4 21 -22q6 -10 9 -21t1 -27q0 -6 4 -14.5t21 -28.5q5 -6 0 -17t-27 -20l-35 -15q-12 -6 -18.5 -9t-10.5 -4.5t-5.5 -2.5t-3.5 -1l-31 -3q-31 -3 -52.5 -16.5t-39.5 -41.5q-2 -2 -3 -5
t-3 -5l8 -12l8 -12l12 -18l11 -19l13 -22q22 -10 45.5 -9t44.5 12q12 -6 19 -3t24 19q4 5 13 7q7 0 11.5 -4.5t5.5 -9.5q0 -5 -2 -10t-9 -12.5t-20 -18.5t-34 -27q-10 -7 -27 -13t-40 -8q-35 -4 -56 -5.5t-34.5 -0.5t-21.5 5t-15 11q-31 16 -43 46l-31 33l-17 20l-1 46l-1 3
l-2 26q-4 50 2 82t25 67q12 21 19.5 34t13 21t9 11.5t6.5 5.5l31 11l10 4zM159 348q-9 -13 -15 -26.5t-8 -31.5q-1 -3 -1 -6.5v-6.5q-1 -11 0 -17.5t3 -11.5q4 -12 16.5 -17t26.5 3q8 5 12 11q5 2 10.5 4.5t10.5 5.5q31 19 55 50v1l4 37l-16 47l-13 1l-13 1l-12 1l-13 1
q-13 4 -25.5 -1t-18.5 -17q-8 -14 -3 -28z" />
    <glyph glyph-name="f" unicode="f" horiz-adv-x="326" 
d="M-13 405q0 1 -0.5 2t-0.5 2l11 24q4 4 8 6t9.5 1t14 -5t22.5 -11q4 -3 9 0q7 3 10 4.5t4.5 6t2.5 13l3 25.5q1 5 3 12.5t8 23.5q3 7 2.5 20t-8.5 42q-1 1 1.5 3.5t13.5 17.5q2 2 4 7.5t10 22.5q3 8 18.5 23.5t50.5 41.5q4 2 7.5 4.5t6.5 4.5q12 1 21.5 2t19 4t20.5 7.5
t27 12.5q5 3 10.5 6t10.5 7l27 -11q20 -9 31 -14.5t14 -13.5t-1 -20.5t-14 -34.5q-7 -15 -18 -31q-14 -23 -30.5 -25.5t-36.5 20.5q-8 9 -10 18q0 5 -6 11q-12 10 -26 0l-22 -24l-8 -30l-4 -16q2 -14 0 -25t-10 -29q-2 -6 -0.5 -16.5t10.5 -27.5l7 -12l1 -1q0 -3 -1 -8
q19 2 34.5 0.5t44.5 -9.5q5 -2 14 -1.5t26 3.5q9 1 15.5 -6t4.5 -16q-1 -9 -10 -14l2 -32l-31 6q-7 9 -16 10q-2 1 -7 1l-9 12q-4 -1 -7.5 -2t-8.5 -3q-28 -11 -40.5 -17.5t-16 -14.5t-1 -20.5t4.5 -36.5q1 -5 0 -11.5t-5 -21.5q8 -32 -3 -63l-1 -9q9 -17 12 -30l2 -64v-10
l3 -27l16 -11l9 -5l25 -15q8 -4 15 -13q5 -5 3.5 -11t-6.5 -9q-6 -5 -15 -3t-16.5 3t-17 0.5t-23 -1.5t-34.5 -4q-5 -1 -12 0t-24 5l-9 8h-5l-4 -1h-2l-15 -3q-11 -3 -20 -3q-26 -3 -41 -3t-27 2q-3 1 -6.5 1t-6.5 1l3 31l37 6q4 3 7 5.5t6 5.5q22 21 27 41t-2 52
q-1 2 0.5 7t6.5 23q2 6 0.5 13.5t-9.5 20.5q-4 25 0 49l3 9q-2 14 -1.5 25.5t3.5 34.5q1 5 0 12t-6 21q2 20 -12.5 25t-56.5 -3q-3 0 -4 -1q-2 -1 -6 3t-9 18z" />
    <glyph glyph-name="g" unicode="g" horiz-adv-x="511" 
d="M50 301q3 4 6 10.5t8 19.5l-1 1l9 32l37 29l5 19q13 10 25 15q20 11 34.5 16.5t23.5 7.5h1l61 -3q21 -2 49 0q3 0 9 -0.5t25 -5.5q5 -2 13 -1.5t22 5.5q8 -8 17 -8q8 -1 15 3t11 11q4 6 7 9t8 2.5t14 -4t26 -10.5q2 0 5.5 0.5t23.5 2.5h13q24 -4 33 -19q5 -9 3.5 -19
t-9.5 -17q-13 -10 -28 -13.5t-48 -4.5q-5 -1 -10.5 -4t-16.5 -13l-4 -2l9 -40q12 -12 14 -29t-7 -33l-11 -18q-14 -4 -19.5 -17.5t2.5 -25.5q4 -6 12 -11l-16 -26q-23 -8 -41 -16t-44 -25q-5 -2 -11.5 -4.5t-20.5 -4.5q-16 -2 -33 0l-37 -6q-8 -2 -15 -4t-15 -4q-5 -2 -8 -7
t-1 -12q1 -5 3.5 -9t5.5 -7q9 -4 17.5 -6.5t20 -4t28.5 -1.5h43h2l49 -6l11 -1q18 -25 48 -29l3 -2l2 1q3 -2 6.5 -4.5t6.5 -5.5q34 -27 44.5 -47t5.5 -44l2 -34q-6 -8 -8 -11q-12 -18 -15 -38q-12 -8 -19 -11.5t-13 -5.5l-32 -14h-2q-2 -1 -3.5 -3l-7.5 -10l-1 -1l-26 -3
q-6 -1 -16.5 -4.5t-36.5 -16.5q-4 -2 -7 -4l-35 4q-16 2 -33 0l-34 -4q-4 2 -7.5 6t-4.5 10q-1 4 0 8q-19 1 -31.5 0.5t-36.5 -4.5l-12 -3q-13 -3 -29.5 9t-37.5 54q-1 2 -3 8l12 5q-19 16 -17 40q2 22 19 35l34 26q23 -1 42 13t25 37q-4 1 -7 2l-6 2q-18 6 -30 16
q-13 0 -21 8q-8 7 -9.5 17t3.5 19q5 11 12 15.5t28 14.5q5 2 9.5 5.5t12.5 11.5l3 3l1 1l-25 14l-12 8l-13 8q-29 17 -29 46q-19 4 -30.5 19.5t-9.5 34.5q-10 14 -7 25.5t23 31.5zM176 359q-21 -24 -16 -54q1 -12 8 -23l-5 -33l31 -32l-1 -2l-3 -18l8 1q2 -3 7 -8
q38 -43 70 -19q5 3 7.5 5.5l4.5 4.5q6 6 10 8q5 3 9 -1q1 -2 1 -3t1 -3q12 11 15 24q2 5 4 29.5t0 70.5q-1 2 -1 4.5t-1 4.5q-9 27 -14 37t-10 12q-19 10 -28 15t-15 6t-11.5 -0.5l-16.5 -4.5q-23 -5 -30.5 -11.5t-10.5 -21.5q5 5 1 11t-10 4q-2 -1 -4 -3zM166 -86
q-18 -8 -23 -25t6 -31q3 -4 6.5 -7t7.5 -7q19 -16 26 -20t12 -3q32 5 54.5 5t40.5 -2q19 -3 30 -4.5t18 -1.5t11.5 1.5t11.5 4.5q17 8 24.5 26t1.5 39q-3 8 -7 13l-29 22l-22 7l5 9l-36 9l2 -13q-15 5 -22.5 6t-12.5 -1l-28 -7t-13 -2h-29.5t-16.5 -1.5t-9.5 -5.5t-8.5 -11z
" />
    <glyph glyph-name="h" unicode="h" horiz-adv-x="608" 
d="M44 619q-29 9 -39 23t-5 31q17 5 31.5 7t40.5 2q1 0 2.5 0.5t7 2.5t16.5 7t30 13l4 2l23 9l10 18q17 5 22 -3.5t4 -38.5q0 -4 0.5 -10t2.5 -25q2 -17 1.5 -30.5t-4.5 -36.5v-6t1 -23q1 -7 0 -16.5t-5 -25.5q2 -11 3.5 -20.5t1.5 -17.5v-6l-1 -44l-1 -49q6 -8 16.5 -9
t18.5 5q7 5 8 12l24 44l22 10l46 10l34 -2l31 -3h2q11 0 21 1t20 3q9 2 20 -3t27 -20l1 -3l-11 -10l9 -13l16 -22q15 -20 22 -31.5t13 -27.5l-1 -14l3 -11l-4 -43q-5 -44 -7 -60t-4 -24l-1 -3l-5 -18q-2 -4 -2.5 -8t-1.5 -8q-4 -28 -3.5 -46.5t6 -29t17.5 -15t30 -4.5
q7 0 7 -7q0 -13 -8 -23l-24 -12l-34 12l-30 -8l-19 -10l-3 11q-14 -5 -25.5 -5.5t-30.5 4.5l-26 -3l-8 -1h-18l-21 8q-2 16 7 29q3 13 15.5 18t23.5 -2q8 5 14 12q20 20 22.5 40t-8.5 37q16 3 25 16.5t6 29.5q-6 5 -14 1q-5 -3 -5 -7q-2 15 -1.5 25t2.5 18q3 19 4.5 26.5
t3.5 12.5h-1l-16 32q-3 5 -7.5 14t-12.5 26l-10 23l-25 6l-10 3l-33 10h-2q-19 2 -47 -21q-16 -13 -25.5 -24t-15 -23t-6 -26t1.5 -32q0 -5 -0.5 -10.5t-3.5 -16.5l-7 -39q3 -14 5 -22.5t4 -15.5l9 -31l2 -4q2 -6 1 -15t-7 -25q12 -19 31 -32q13 -8 28 -13l7 -6
q0 -13 -8 -18t-28 -3h-27l-11 -1h-12q-23 -2 -43 -3t-51 1q-6 1 -15.5 0t-31.5 -4q-3 0 -8 0.5t-16 3.5q-7 6 -8 13t1 8q8 5 15.5 8.5t15.5 8.5q14 6 25 33q9 28 0 53q14 38 2 74q-1 10 -1 19v17v6l3 30v34q-1 5 -1.5 8.5t-0.5 8t1.5 10.5t3.5 17l1 2l-1 28v48l-10 28
q-4 21 -2.5 42.5t6.5 42.5l-6 28l-8 48l1 5q-10 2 -14 4z" />
    <glyph glyph-name="i" unicode="i" horiz-adv-x="283" 
d="M200 462l10 -11l-10 -33q-8 -23 -8 -30.5t5 -17.5l4 -27l4 -25v-3q1 -10 1.5 -19.5t-1.5 -20.5q-1 -11 -3 -21t-5 -21l-1 -15q5 -20 5.5 -39t-4.5 -53q0 -6 -2 -16q6 -35 31 -58l42 -11q17 -10 15 -30q-2 -15 -16 -22.5t-28 0.5l-24 8l-33 1l-22 -4q-19 1 -34 15
q-21 -12 -44 -16.5t-56 -2.5l-18 3v27l-3 10q29 4 53 25q7 6 13 13l15 33l-2 27l-1 11l-6 37v1q1 2 2 6t4 14v2t-1 5.5t-2 13.5t-4 24q-3 19 0 49q2 17 0 35q-2 14 -14 21t-30 2q-16 -4 -25 7q-8 7 -8 17t7 17q8 8 17 12t31 10q4 1 9.5 4t17.5 12q2 2 8 2t31 -2q2 0 6.5 2
t27.5 11zM128 711q6 1 14.5 2.5t23.5 6.5q2 5 6.5 8.5t9.5 4.5q6 2 12.5 -1t5.5 -5q-1 -8 -2 -16.5t-3 -16.5q-1 -2 0 -7l5 -25v-6.5t-1 -21.5q-1 -2 -0.5 -7t2.5 -22q1 -13 1 -20t-5.5 -10.5t-16.5 -4.5t-30 -1q-5 0 -13.5 -1t-29.5 -4h-40l4 48l1 27q-7 10 -8 20
q-3 17 4 31t21 20h1z" />
    <glyph glyph-name="j" unicode="j" horiz-adv-x="265" 
d="M165 730q6 9 17 11q9 2 17.5 -2.5t11.5 -12.5l-1 -37q0 -8 1 -19.5t4 -29.5l-1 -34l-21 -9q-37 -21 -81 -27l-40 4q-5 9 -7 15t-2 14t2.5 20.5t6.5 34.5q5 24 6 37t-1 21q0 2 7 3.5t37 4.5zM-69 -95q2 1 3.5 2t3.5 3q8 9 19 14t23 6h9t9 -2l15 -14l-8 -26q-7 -22 -4 -31
t23 -21q10 -6 22 -6t12 11q0 5 -3 8l22 34q1 11 3 23l4 24q1 4 1.5 8t1.5 8l-2 36l-2 29l-1 6q-1 11 -3 23.5t-5 26.5q4 11 5.5 20.5t2.5 17.5l-6 92q-2 17 -2 28.5t-1 19.5q0 8 -2 17.5t-9 29.5q5 8 5 19t-5 19q-8 11 -20.5 15t-25.5 -2q-10 -4 -18 0q-10 3 -14 12t-1 18
t11 14q5 6 9 9.5t9.5 5.5t14 3t22.5 2q2 0 6 2t25 13q1 1 3 1.5t7 2t14 4t25 6.5q7 2 16 5.5t26 11.5q5 2 12.5 2.5t23.5 -1.5l3 -20l-12 -27v-16l2 -4l1 -4q5 -16 3.5 -36t-10.5 -63q-1 -5 0.5 -12.5t6.5 -24.5l-5 -42l6 -49l7 -23q-1 -14 -3 -26.5t-4 -23.5l-3 -14l-3 -13
q-2 -9 -0.5 -30t10.5 -65q1 -2 1.5 -5t1.5 -5q2 -6 0 -16t-11 -28l-10 -13l-10 -13l-10 -12l-10 -13l2 -12l-21 -6q-18 -27 -39 -48l-36 -20q0 9 -9 15t-22 1q-4 -2 -7.5 -4.5t-5.5 -7.5q-9 2 -15.5 3.5t-11.5 1.5q-14 2 -19.5 2.5t-9.5 0.5q-7 0 -19 8.5t-26 31.5
q-5 6 -8 16q-17 12 -12.5 27t32.5 40z" />
    <glyph glyph-name="k" unicode="k" horiz-adv-x="564" 
d="M42 687q19 2 38.5 5t39.5 8l41 29q5 12 17.5 14t22.5 -6q-9 -28 -8 -54q11 -10 14.5 -23.5t-1.5 -27.5q-14 -48 -9 -98l10 -31q1 -17 -2 -32.5t-11 -36.5q-1 -2 1 -9t10 -39q2 -8 1.5 -19t-4.5 -32l-3 -17l-2 -8q-2 -5 -0.5 -12.5t6.5 -19.5l44 26l12 27q14 2 22 8t19 24
q2 4 8 6.5t18 3.5q11 27 40 38q10 3 22 3l33 -5q13 8 20.5 14.5t12.5 11.5l22 24l1 1q2 3 8 4t18 -4q14 -5 20 -15t4 -22q-25 -27 -59 -31l-27 -29q-19 -6 -34 -18l-4 -3l-15 -15q-12 -12 -21 -17q-5 -4 -5 -14t12 -32l1 -3l17 -22q2 -2 4 -6.5t7 -13.5q10 7 19.5 3.5
t16.5 -17.5h1l8 -30q2 -5 4.5 -11.5t7.5 -18.5q-5 -20 3.5 -31.5t37.5 -25.5q4 -2 10 -5.5t24 -17.5q5 -5 13.5 -8t25.5 -7q14 -13 11.5 -28.5t-17.5 -22.5q-8 -3 -15.5 -5t-15.5 -1q-25 0 -38 8h-13l-13 1h-20t-20 -1h-8h-9q-26 -1 -53 -2.5t-53 -4.5l-16 26q-9 10 -6 21.5
t17 16.5q24 8 45 5q10 0 6 18q-2 4 -8.5 12t-29.5 31q-5 5 -8 7l-23 24q-2 4 -6 14q-11 21 -30 36q0 12 -9 15q-7 2 -12.5 -1.5t-6.5 -10.5q-7 -4 -10.5 -7.5t-4 -9t1 -15t4.5 -24.5q1 -5 -2 -14t-14 -32q-3 -6 -1 -14t10.5 -16.5t23 -16t37.5 -11.5q8 -2 12 -12.5t-4 -27.5
q-6 -11 -18 -15.5t-25 0.5l-30 10q-20 5 -38.5 5t-50.5 -5l-22 -3l-5 -1l-19 -8q-14 2 -23.5 4.5t-29.5 11.5q-2 1 -5.5 1.5t-11.5 2.5q2 32 26 52q8 -4 13 -4q17 -2 24 8.5t8 36.5q0 4 2 9.5t7 16.5l-2 48q-2 14 -1.5 25t3.5 30q1 4 0 9t-5 16v29.5t1 21.5l4 40v5
q1 2 -0.5 7t-7.5 28q-1 5 -1.5 12.5t1.5 21.5q9 29 4 63q1 6 1 12.5v12.5q0 14 -1 28.5t-4 28.5q2 8 0 16q-4 25 -14 33.5t-40 13.5q-9 2 -14.5 5.5t-8.5 8.5q-4 8 -2 15.5t10 12.5q2 2 17 6z" />
    <glyph glyph-name="l" unicode="l" horiz-adv-x="268" 
d="M-5 632q-5 11 0.5 20.5t18.5 10.5q20 0 37.5 7.5t31.5 21.5q26 5 46 15q3 2 6.5 4t7.5 4q11 7 27 10q15 3 27 2l5 -7l-1.5 -18t-2.5 -11q-6 -29 -8 -37t-3 -11q-1 -2 1 -5.5t10 -20.5q1 -2 1.5 -4.5t-0.5 -9t-3 -18.5t-6 -31q-1 -5 1 -12t10 -24l-5.5 -5.5t-2.5 -5.5
t-1.5 -13t-1.5 -28q0 -5 -1 -12t-4 -18q-1 -4 0.5 -10t7.5 -17q5 -20 5 -36v-5v-18q0 -5 0.5 -12.5t2.5 -21.5q0 -5 -1 -11.5t-6 -19.5q-4 -17 -1 -35t14 -33q-3 -10 -5.5 -20.5t-4.5 -20.5l-2 -12l-2 -11l12 -12q-5 -7 -8 -14q-8 -26 4.5 -46.5t50.5 -35.5q6 -3 12 -3
q3 -1 4.5 -6t-1.5 -18q-4 -13 -14 -20.5t-23 -7.5l-37 6l-9 11l-41 -17q-17 9 -34 12q-18 3 -36 0h-15q-15 0 -29.5 -1.5t-28.5 -3.5l5 34l28 -2l11 12l11 12l11 12l12 11l-5 31q-11 15 -10.5 30.5t11.5 45.5q1 2 2 4.5t2 5.5l-10 25q0 20 6 40q2 8 4 12q-3 12 -5 22.5
t-1.5 23t3 28.5t7.5 40q1 5 -1 13.5t-11 28.5q8 22 9 41t-6 52l-1 4l-7 29l-2 13l-5 25l-15 22q-8 -3 -17.5 -2t-18.5 7q-4 3 -7 6.5t-5 8.5z" />
    <glyph glyph-name="m" unicode="m" horiz-adv-x="862" 
d="M27 350q-5 2 -10.5 5.5t-16.5 12.5q-5 19 5.5 26t38.5 5q5 0 11.5 3.5t16.5 13.5q20 5 35 9.5t40 15.5q5 2 12.5 3l22.5 3l8 10q7 0 10 -3v-1l-4 -27q-3 -16 12 -41q4 1 12 5q13 5 23 12t24 21q2 2 4.5 5t4.5 5t11.5 5t42.5 11q27 6 38.5 7.5t23.5 -0.5q21 -2 41 -13
l37 -19l2 -23l5 -26q13 -8 20 -4t23 26q1 2 4.5 4.5t19.5 13.5q19 12 38 36q4 5 14 6.5t30 -5.5h10q9 0 14 -1q29 -2 49.5 -7t35 -14t24 -22t15.5 -31q4 -10 6.5 -19.5t4.5 -20.5q4 -29 4 -44.5t-7 -37.5v-1l2 -26v-1v-25q0 -14 1 -26.5t3 -23.5l3 -15l2 -11q1 -3 1 -9
t-2 -27q-2 -12 7 -25q5 -9 17.5 -16.5t34.5 -11.5q13 -2 11 -17q-1 -6 -10 -13.5t-35 -15.5q-24 -6 -48 7q-20 6 -35.5 5t-40.5 -9q-7 -2 -29 3q-1 2 -2 3t-2 3q-12 11 -28.5 10t-26.5 -15l-12 25q-3 16 5.5 21.5t34.5 7.5q15 1 28.5 21.5t9.5 52.5q-1 5 -2 10.5t-3 10.5
q2 20 1 36t-7 42q0 2 1 8.5t6 32.5q2 8 1 19.5t-6 31.5q-3 2 -6 4.5t-7 4.5q-28 20 -56 20.5t-63 -16.5q-4 -2 -7.5 -4t-6.5 -4q-2 -3 -2.5 -6.5t-1.5 -6.5q-8 -25 -12 -39.5t-5.5 -24t-0.5 -15.5t4 -14q1 -6 5 -13q1 -2 -1.5 -6t-15.5 -20q-9 -11 9 -32l11 -50
q6 -29 16 -39.5t30 -9.5q8 3 16.5 -0.5t11.5 -11.5q4 -8 1 -16.5t-11 -12.5l-1 -1l-1 -1l-16 -11q-16 -10 -34 -8t-32 14l-2 8l-51 -9h-29h-32l-31 5l-13 -3q-12 2 -18.5 11.5t-1.5 20.5q2 8 9 12q15 -3 26 1q11 5 17 14.5t5 20.5q-3 8 -4 15t-1 15q0 15 6 30l4 38l11 42
l-9 44q0 4 0.5 7.5t-0.5 7.5q-1 37 -23.5 56.5t-64.5 15.5q-21 -2 -36.5 -14.5t-30.5 -43.5l-5.5 -5.5t-11.5 -9.5q-1 -1 -0.5 -6t5.5 -29q1 -5 1.5 -8.5t0.5 -8.5q2 -28 -10 -51q0 -5 -0.5 -10t-0.5 -10q0 -16 2.5 -30.5t7.5 -28.5v-21l36 -29q9 0 16 -4q6 -5 8 -12.5
t-3 -14.5q-4 -6 -7 -9t-8 -3.5t-15 1t-28 4.5q-3 1 -9 1t-23 -2q-4 -1 -10 0t-24 6q-5 2 -11.5 0.5t-19.5 -7.5l-24 -8l-32 -3l-17 -6l-20 11q-4 13 -4.5 21.5t6 16.5t21 18.5t39.5 26.5q5 3 7.5 11.5t3.5 29.5q0 3 -1.5 10.5t-6.5 36.5q-2 7 -2 17t2 30l9 25l-12 43l-9 27
q8 11 4 20l-45 18v0z" />
    <glyph glyph-name="n" unicode="n" horiz-adv-x="577" 
d="M135 0q-41 0 -68 5t-53 16l5 24q18 2 32 12t21 26q2 6 3.5 11t1.5 11t-0.5 15.5t-1.5 26.5v7t1 12.5t3 23t5 39.5v10.5t-2 28.5t-5 32.5t-13 21.5q8 25 -10 43q-15 17 -37 15q7 5 8.5 13t-3.5 15q14 3 24 6t18 6q17 6 25.5 9.5t13.5 6.5q2 2 9 2t31 -2q16 -2 37 21
q2 2 3.5 5t3.5 5q4 6 9 3q10 -3 15 -13q-1 -16 -1.5 -23t-2.5 -12q-2 -10 -4.5 -19t-4.5 -18q0 -2 3.5 -5.5t9.5 -3.5q6 -1 9.5 0t5.5 4.5t4 11.5t5 22q0 3 5 10q6 8 16.5 10t19.5 -5q23 18 50 23t74 0q30 -4 53.5 -19t38 -36.5t18 -48t-5.5 -52.5l-13 -46l2 -16l2 -17
l2 -15l1 -16q-7 -5 -5.5 -8.5t14.5 -20.5q6 -8 5 -21t-12 -29q-7 -10 -8 -21t3 -21t12.5 -17.5t21.5 -10.5t24 0q5 -15 -6.5 -22.5t-50.5 -7.5q-5 0 -13 1t-25 5l-12 3q-2 0 -5.5 -1.5t-20.5 -9.5h-28q-5 0 -14 -0.5t-29 -4.5q-16 -3 -27.5 4t-12.5 16q0 4 0.5 7.5t5 7
t13 8.5t23.5 13q2 2 3 4.5t3 12.5l16 48l4 45q-2 12 -2.5 21t-1.5 17l-3 19l-3 14q-1 5 -1 12.5t1 21.5q9 15 8 30.5t-10 27.5q-26 33 -49.5 38t-50.5 -14q-8 -6 -11 -10l-36 -35q-4 -7 -6 -13.5t-3.5 -14.5t-2.5 -20t-1 -31v-19t1 -27q1 -5 1 -14l4 -41q1 -4 -1 -12
t-10 -31q-5 -12 10 -29l27 -14q4 -2 9 -5.5t14 -10.5l4 -10l-40 -20l-4 4l11 13q-14 1 -23.5 -0.5t-30.5 -9.5q-5 -2 -12 -2.5t-30 -0.5z" />
    <glyph glyph-name="o" unicode="o" horiz-adv-x="574" 
d="M30 212q0 5 2 15q-1 5 -1 16q0 17 2 29.5t6.5 24t13 22.5t22.5 25l8 8l23 30q3 14 12 23t35 21q5 2 11.5 3.5t23.5 4.5q2 0 5 1.5l19 9.5q6 2 14 4t20 3q8 2 17 1.5t18 -2.5l-3 13q10 -1 19 -1.5t17 -2.5l36 -6q19 -3 31 -6.5t21 -8t15 -10.5t13 -16q18 -19 42 -37
q3 -2 6.5 -4.5t7.5 -4.5l19 -19l7 -22q22 -40 30 -88l3 -21q-4 -12 -7 -24l-6 -24l-5 -23l-5 -24q-1 -11 -1 -16t-5.5 -10.5t-19 -15t-40.5 -30.5q-6 -5 -12.5 -10.5t-13.5 -13.5q-1 -2 -6.5 -3.5t-28.5 -7.5l-7 -3.5t-21 -13.5q-4 -2 -15 -5t-41 -7q-9 -1 -19 -1.5t-20 0.5
q-32 1 -55 5.5t-46 14.5q-32 14 -55.5 32t-41.5 40l-24 27l-9 25q-5 13 -7.5 21.5t-4 17t-1 18.5t1.5 26zM168 283q-2 -5 -2.5 -8.5t-2.5 -8.5q-6 -31 -1.5 -55t18.5 -44q-7 -9 -9 -16.5t2.5 -18t16 -24t32.5 -34.5q3 -3 9 -7t24 -13q14 -8 24.5 -11.5t20 -3t19.5 5.5t22 15
q5 4 16.5 16t17.5 19q21 23 30 48.5t9 65.5v15q-4 15 -6.5 23t-4.5 13l-13 33l-1 2q-5 25 -7 29.5t-12 -0.5q-2 20 -16.5 33t-34.5 14l18 15q-19 16 -42 20q-29 5 -55.5 -7t-60.5 -49q-4 -5 -7 -8.5t-6 -7.5z" />
    <glyph glyph-name="p" unicode="p" horiz-adv-x="598" 
d="M26 368q-12 3 -26 1q1 17 14 29t30 12q12 4 21 5t26 0q6 0 10 -1q1 0 3 2t13 10l25 18q28 13 55 6q0 -5 -2 -13q-3 -19 -12 -37q3 -14 13 -19.5t21 0.5q16 7 27 23q10 13 14.5 20t6.5 12q0 2 5.5 2.5t28.5 -1.5q5 0 10.5 3.5t13.5 14.5q12 2 24 2.5t23 0.5q3 0 15.5 -1
t15.5 -1q20 -2 31.5 -4t20 -6t16 -11.5t19.5 -20.5l25 -28q16 -13 22 -26.5t9 -42.5q1 -5 6 -12t18 -16q0 -5 0.5 -9.5t0.5 -9.5q0 -37 -13 -71q-2 -16 -4 -31t-6 -30l-7 -7l-11 -14l-12 -13l-6 -9q-8 -9 -14 -19.5t-12 -21.5l-14 -7l-11 -6l-17 -10l-7 -4q-13 -9 -38 -16
q-2 0 -10 -14q-43 2 -83 13l-18 2l-11 1l-18 2l-11 2q-43 6 -45 -26l9 -20q-4 -16 -3.5 -30.5t5.5 -36.5l3 -14l2 -6l-3 -17l18 -27l13 -10q15 11 33 5.5t25 -22.5q-11 -30 -40.5 -40.5t-68.5 6.5q-5 2 -9.5 5t-9.5 7q-12 -1 -20 -1t-14 -2q-18 -2 -25.5 -3.5l-12.5 -2.5
q-2 -1 -6 -0.5t-14 4.5l-4 8q-4 6 -14.5 6t-28.5 -16q-8 -6 -14 -1q-12 8 -13 19t8 21q8 11 19.5 14t22.5 0q28 -8 31 16q3 28 -4 54l-7 34q11 7 12 20t-10 21q1 17 2 32.5t0.5 32t-2 36.5t-4.5 46q-2 14 -2.5 22t0 14.5t1.5 14t4 21.5q1 3 1 8.5t-1 22.5l-3 26l-10 -14
q-6 8 -4 13t14 16q8 8 6.5 24.5t-22.5 46.5q-13 18 -35 24zM213 125q1 -12 3 -18t6 -9q8 -7 12.5 -11t6.5 -7q9 -11 14.5 -17.5t10 -10t9 -4.5t11.5 -1q10 0 17 4q11 8 19.5 12.5t15.5 7.5q27 11 43.5 19.5t25.5 17.5t12.5 20.5t4.5 28.5q0 8 -1 12l-10 45l11 -8q-4 -5 2 -9
q5 -3 7 2l-12 29q2 9 2.5 15t-0.5 13t-4.5 16.5t-9.5 24.5l-13 34q-15 5 -22.5 8t-12.5 8q-14 12 -23.5 19t-19.5 8.5t-21.5 -1.5t-29.5 -11q-14 -7 -26 -15q-3 -2 -6.5 -4.5t-6.5 -4.5q-8 -11 -10.5 -16.5t-2.5 -9.5v-30t-2 -10q-6 -12 -9.5 -19.5t-3 -15.5t4 -19.5
t11.5 -30.5q2 -5 5 -10v-5l1 -4v-16l-21 21h-5z" />
    <glyph glyph-name="q" unicode="q" horiz-adv-x="577" 
d="M33 198q4 10 8 14q-6 11 -7 19q-9 39 16 72l7 41q20 5 34.5 19t20.5 34l-4 11q14 6 25 9t30 5h7.5t8.5 1q1 0 3 0.5t5.5 3.5t10 8.5t17.5 15.5q5 5 14.5 6.5t26.5 -0.5q5 0 12.5 -2t21.5 -7q2 0 7 0.5t25 3.5q8 2 23.5 -3.5t37.5 -22.5h6q5 0 32 3q23 2 40 -1q3 -1 8.5 3
t25.5 21q3 3 9 3.5t20 -3.5l-10 -37q1 -4 1.5 -7t0.5 -7q0 -21 -14 -38l3 -31v-19q-10 -7 -10 -18.5t9 -18.5l2 -2l2 -1l-13 -48q2 -5 2.5 -9.5t2.5 -9.5q7 -31 8 -59l-3 -47v-37l-4 -44l4 -12l-8 -19l7 -32v-42v-45l26 -5q2 -11 14 -15q3 -2 6 0l-6 -9q20 -5 29 -26
q7 -14 1.5 -24t-23.5 -12q-9 -2 -15.5 -2.5t-13 -0.5t-16 1.5t-24.5 3.5q-5 1 -12.5 0.5t-30.5 -2.5q-4 -1 -12.5 1t-36.5 10q-7 2 -17 1t-29 -9q-5 -1 -11 -0.5t-16 3.5t-17 9q-5 5 -3 12t13 13q6 2 8 2l-6 10l-11 3l16 10q8 -8 18.5 -6.5t15.5 12.5l1 1l2 9q3 12 19 19
q5 18 7 35.5t4 35.5l-8 48v24l-1 24q-27 -24 -61 -35q-30 -11 -49 -10.5t-46 11.5q-5 2 -14 2t-26 -4q-1 -1 -2 -1t-2 -1q-3 -1 -7.5 3.5l-21.5 21.5q0 1 -3.5 1h-18.5q-7 0 -20 7.5t-36 30.5q-6 5 -11 11l-3 5l-4 7l-16 10l5 37q-8 13 -10 28t4 29zM160 148l7 -16l8 -15
l8 -16q5 -23 27 -37q10 -7 15.5 -8.5t9.5 -0.5q3 1 6 1t6 1q21 3 31.5 4t26.5 -1l21 9l28 28l18 19l3 2q9 12 14 27q-13 30 -10 58q2 8 3 14t3 13l1 8l2 9q2 11 2.5 21t1.5 19l-7 36l-24 31q-26 32 -47.5 37t-38.5 -12q-22 -3 -38 -10l-12 -6l-29 -23l-3 -3
q-14 -11 -23 -18.5t-13.5 -15t-5 -15.5t1.5 -18q3 -14 4 -21.5t1 -12.5v-1l-3 -36l-2 -34z" />
    <glyph glyph-name="r" unicode="r" horiz-adv-x="369" 
d="M15 -5q-9 3 -15 9q-7 13 -3 24.5t11 12.5q11 1 20.5 1.5t20.5 0.5q5 0 12 4.5t16 18.5l-1 45l10 46l-11 13l9 19q-6 21 -6.5 38t3.5 49q1 2 0 6.5t-4 17.5q-3 12 -5.5 19.5t-7.5 13.5t-13 10.5t-20 10.5l-27 14q2 9 5 15t8.5 10.5t15.5 8.5t25 9q4 1 10 4t21 11
q2 1 6.5 1.5t28.5 4.5q6 2 13 4t15 6q14 6 26 18l25 1l6 -35v-50l10 -3q35 15 52 51q18 22 43 27q22 4 36.5 4t22.5 -6t11 -19t3 -35q1 -5 -0.5 -16.5t-3.5 -20.5q-5 -19 -10 -29t-13.5 -12t-22 2.5t-36.5 15.5q-6 4 -9 5q-7 4 -21.5 0t-39.5 -24q-20 -17 -25 -29t0 -24
l7 -33q-8 -15 -9.5 -27t0.5 -38q0 -5 -1.5 -12.5t-6.5 -21.5q-4 -8 -4 -19q-2 -17 4.5 -31t17.5 -22h1l41 -9l15 -5t24 -10l12 1q-2 -23 -18 -32.5t-58 -11.5q-9 -1 -18.5 0t-39.5 6q-5 2 -13.5 2h-25.5q-3 0 -9.5 1.5t-26.5 9.5q-7 3 -26 -3q-14 -5 -23 -18l-6 2l1 6
q-16 -7 -29 -3z" />
    <glyph glyph-name="s" unicode="s" horiz-adv-x="420" 
d="M55 172l26 -17q1 -10 5 -23q5 -17 14 -32t21 -29q3 -2 5.5 -2.5t5.5 -2.5q33 -18 54.5 -20t39.5 8q4 1 12 5q25 14 29.5 26.5t-1.5 17.5q-4 4 -8.5 7.5t-9.5 6.5l-15 9l-11 7q-5 3 -10.5 7.5t-16.5 15.5q-2 2 -7 3.5t-26 7.5l-1.5 1t-5.5 4.5l-12 10.5t-22 20
q-3 3 -8.5 7.5t-19.5 13.5q-8 5 -15.5 14.5t-18.5 26.5q-2 11 -3 18t-3 13l-8 26l-1 6q-2 4 -1.5 10.5t3.5 18.5l19 17l23 20l24 21l18 15l18 14l21 17q33 2 62 -10l41 6q15 -13 30.5 -17t39.5 -2q11 0 23 -12q15 -17 9 -38q-3 -17 0 -35q2 -8 4 -13l-5 -53q-8 -2 -13 -2
q-12 0 -20.5 7.5t-10.5 19.5q-5 14 -13.5 27t-18.5 23q-21 21 -32.5 27t-16.5 5l-61 -12l-14 -38q1 -19 12 -28.5t37 -14.5q1 0 5 -3l24 -18q4 -3 10.5 -6.5t24.5 -12.5q1 0 2 -1l5 -5l12 -12l23 -23l6 -6t15 -12q4 -3 6 -6q18 -21 25 -45t2 -42q-6 -22 -10 -35.5t-8.5 -22
t-10.5 -12.5t-15 -8q-19 -20 -40 -37l-18 -1l-12 -1h-22h-8q-4 1 -10.5 0t-25.5 -6q-5 -2 -12.5 -0.5t-21.5 6.5l-26 -2l-14 -4l-19 20h-43l-27 16q2 18 2 32t-2 34q-1 5 -1.5 10t-1.5 10v1.5t1.5 6l4.5 13.5t9 26l1 3z" />
    <glyph glyph-name="t" unicode="t" horiz-adv-x="342" 
d="M7 410q8 4 12.5 6.5t10.5 9t15.5 18.5t26.5 35q5 6 15.5 15t39.5 31q4 2 7.5 8t11.5 23l27 36q10 1 15 0.5t6 -5.5t-1 -15.5t-5 -29.5q-1 -2 0 -6.5t5 -15.5q7 -28 6 -58q18 -9 36 -11t54 3l15 3l14 16q13 2 19.5 -6t3.5 -28q-2 -11 -4 -17t-4 -11q-5 -1 -11 -1.5
t-12 -1.5q-29 -2 -46 1t-33 10q-23 -3 -32 -22v-1l-6 -26q-1 -4 -2.5 -9t-6.5 -16q-2 -4 -2 -10t2 -17l15 -6q-5 -7 -7.5 -12.5t-3 -12t0.5 -15.5t4 -22v-2l-3 -35v-17q0 -6 0.5 -11t2 -11t3.5 -14.5t6 -21.5q1 -4 1.5 -9.5t0.5 -19.5q5 3 8 -2q4 -7 -4 -9l7 -19
q11 -6 22.5 -9t20.5 -3q24 0 38.5 0.5t22.5 3.5t11 10t6 19q0 5 6 3q11 -4 14 -15.5t-7 -24.5q-9 -11 -16.5 -18.5t-19.5 -15.5q-23 -17 -35 -23.5t-21 -8.5h-1l-37 -3q-6 0 -14.5 -1t-23.5 -4l-33 9l-11 14l-15 7l-21 38q-2 5 -4.5 10t-4.5 10q-16 42 -22 71.5t-4 49.5
q3 24 6.5 34t8.5 14l2 1q-15 10 -18 27v1l5 32v1l2 33q1 22 -1 32t-7 17q-9 13 -23.5 14t-25.5 -10z" />
    <glyph glyph-name="u" unicode="u" horiz-adv-x="575" 
d="M4 417q-1 16 11 26.5t28 5.5q17 -15 33.5 -16.5t50.5 7.5q2 1 7.5 1t31.5 -2q6 0 14.5 1t25.5 4l10 -2q-14 -34 -3 -69q2 -17 0 -34t-7 -34l-1 -14l-1 -14v-14v-14l-11 -33q2 -17 5.5 -30t13.5 -33q2 -5 2.5 -12t-1.5 -21l20 -24l29 -7l-15 -12q10 -2 17 -2q34 -1 47 7.5
t11 27.5q27 30 36 70q14 5 17 19t-7 25q-9 9 -20 9l10 35l-1 49l-11 9l3 33q2 23 -15 35t-43 4q-2 -1 -4 -1.5t-4 -1.5q-3 2 -4 7q0 6 5 9q6 3 11 -2q-13 10 -26 3q-5 11 -2 20t14 12q10 4 20 4t41 -2q19 0 47 -11q4 1 5.5 5t-0.5 7q-3 4 -8 4q35 -14 77 1q5 2 8.5 3t7.5 3
q9 3 15 1q11 -3 11 -14q-2 -12 -4 -19q-1 -4 -2 -7.5t-1 -8.5q-3 -17 -2 -34t7 -49q1 -5 2 -10.5t3 -10.5q-16 -4 -20.5 -14t-5.5 -44l-2 -42q1 -22 10 -46q-5 -25 8.5 -46.5t39.5 -30.5q5 -2 11 -3t11 -1l12 -26q-4 -8 -6.5 -12t-8 -6t-16.5 -4t-31 -6q-5 -1 -14 -4
t-30 -11q-5 -2 -14.5 -3.5t-32.5 -0.5q-4 0 -8.5 -3t-13.5 -12l-8 16q-2 5 -9 14q-14 18 -25 26t-21.5 7.5t-23 -10.5t-28.5 -29q-5 -5 -12.5 -9t-23.5 -9h-24q-36 0 -69 -6q-34 9 -61 25q-8 11 -13 27q-3 15 -0.5 27.5t13.5 29.5q1 1 -1.5 6t-12.5 31q-2 4 -2.5 11t-2.5 29
q0 3 -8 18q-1 17 4 36l1 4l4 11l1 5q3 12 3 24l5 42l1 12v13l2 13l1 13q-3 10 -7 16q-13 20 -33.5 24.5t-38.5 -6.5q-4 5 -4 15z" />
    <glyph glyph-name="v" unicode="v" horiz-adv-x="501" 
d="M239 440q3 1 6 -2.5t7 -15.5q-5 -2 -8 -5l-34.5 -27t-13.5 -16.5t3.5 -17t16.5 -29.5v-1l2 -7l-11 -3v-5q15 -7 23 -24q7 -17 4 -32l20 -26q-2 -17 3.5 -33t17.5 -28q7 1 11 2.5t7.5 5.5t7 11l9.5 19q1 1 3.5 4t14.5 16q3 3 6 8t8 15l-5 13l19 26l-4 25q7 14 10 29.5
t3 30.5q-3 17 -13 26t-36 17q-10 2 -6 28l40 5l48 -4q16 -6 28.5 -5t35.5 11q8 3 20 1t28 -13q6 -13 0 -24l-34 -18q-10 -6 -16 -10.5t-11 -12.5t-11 -23t-17 -41q-3 -7 -8.5 -16t-18.5 -28l2 -26q-3 -2 -6.5 -3.5t-5.5 -3.5q-18 -14 -23 -38q2 -23 -9 -43q-6 -12 -15 -21
q-6 -7 -10.5 -12.5t-8.5 -12.5t-7.5 -16.5t-8.5 -23.5q-2 -5 -5.5 -10.5t-11.5 -16.5q0 -11 -7 -32q-5 -12 -11 -19q-7 -9 -19.5 -8.5t-22.5 11.5q-22 25 -12 59q2 6 3 8q0 1 -1 3t-5.5 6.5t-14 12t-25.5 20.5q-4 3 -6.5 10t-5.5 25l-22 41q-6 31 -16 56q-14 34 -26 53.5
t-29 36.5l9 5q-8 11 -16.5 18.5t-22.5 17.5q-6 4 -12 13t-11 28q-2 4 -7 7t-19 6q-2 1 -2 5.5t8 16.5q7 11 13 16.5t15 5.5t23.5 -5.5t40.5 -15.5q16 -6 28 -6t39 6q3 1 10.5 0.5t33.5 -2.5q25 -3 44 2z" />
    <glyph glyph-name="w" unicode="w" horiz-adv-x="785" 
d="M45 375q-25 20 -59 25l3 42q29 16 58 2q9 2 15.5 3.5t14 1.5t18 -1t28.5 -3l46 -5q15 2 21.5 2.5t10.5 1.5q15 3 24 4t14 -0.5t7.5 -6t5.5 -13.5q1 -2 5 -3.5t17 -0.5q5 0 3 -5q-2 -7 -3 -10t-4.5 -5.5t-11.5 -5l-24 -7.5q-23 -8 -28 -19.5t4 -36.5l27 -71l2 -5
q10 -24 13 -31t5 -10l2 -3l15 -18q2 -3 5.5 -8t8.5 -15l33 28l8 25q-5 11 -2.5 17t19.5 24q3 3 5 9t4 19l12 46q9 14 4.5 29.5t-15.5 17.5q-8 2 -16 3t-16 3q-8 1 -14.5 8.5t-6.5 18.5q0 14 15 22l12 -3q16 -3 25.5 -4t17.5 0t15.5 4t19.5 8q4 2 18.5 1.5t49.5 -8.5
q6 -2 14.5 -1t24.5 5l21 -9l-4 -34l-29 5q2 11 -9 13q-6 1 -11 -4q-5 -26 10 -47l17 -43q17 -26 6 -58q0 -9 1 -17.5t4 -17.5t8.5 -20.5t13.5 -27.5q4 -8 7 -12q1 -5 5 -7t9 0q5 1 9 7v1l4 15q0 1 0.5 2t3.5 5.5t8.5 12.5t14.5 22q5 8 12.5 25.5t15.5 44.5q4 11 5 20
q12 13 12 32q-1 20 -16.5 33.5t-35.5 11.5q-2 0 -10 5q-12 8 -12.5 17.5t7.5 15.5l-4 9q10 5 17 7.5t16 2.5t21.5 -2.5l32.5 -6.5h7t13.5 1t28 3t49.5 6h6.5t18.5 -2l11 -5v-43l-43 -31l-4 -2q-21 -14 -32 -21.5t-17 -16t-9 -22t-8 -39.5q-1 -7 -6 -15t-19 -22l-3 -8l-8 -21
q-5 -13 -8 -21t-6 -14.5t-7 -12.5t-9 -14q-3 -5 -6.5 -9t-7.5 -9q-1 -1 -1.5 -5t-4.5 -24q-1 -4 -3.5 -9t-9.5 -14l-33 -40l15 -4l-19 -14l-22 -26l-25 15l-20 22q-18 20 -22 29.5t2 24.5l-6 19q1 19 -7 31.5t-32 29.5q-3 2 -3.5 10t3.5 35q1 6 -5.5 12t-23.5 11l-3 -5
l-10 -18q-11 -19 -17.5 -29.5t-11.5 -18.5l-15 -21l-3 -4l-2 -4t-2 -8t-2 -17t-3 -29q-1 -8 -7.5 -19.5t-23.5 -28.5q-2 -15 -12 -26.5t-25 -14.5l-16 -5l-8 20l-6 12q-16 34 -36 68q-3 5 -6.5 14.5t-11.5 34.5q0 1 -1 3t-4 6.5t-9 12.5t-16 22l-1 2l-6 12l-24 27l-5 17
l-3 9l-7 27l-14 42l-12 33l-21 29v0z" />
    <glyph glyph-name="x" unicode="x" horiz-adv-x="524" 
d="M48 380q-17 1 -30 11.5t-18 27.5q1 17 13 27.5t29 8.5q13 -2 24 -12l36 9l53 -9l15 11q9 -4 18 -13q3 -3 7 -9q4 2 8 3.5t9 3.5q11 4 22.5 6t23.5 1l19 -6l7 -13q-3 -20 -18 -33t-35 -12q2 -17 6.5 -28t20.5 -35q3 -5 7 -9.5t8 -9.5q5 -5 13.5 -5.5t16.5 4.5q10 7 12 23
l10 36l25 22q-4 16 -17.5 25t-30.5 7l14 31l4.5 6t6 1.5t12.5 -3t25 -6.5q3 -1 11 -0.5t39 5.5q2 1 6.5 0.5t20.5 -2.5q10 -2 27 4q12 4 23.5 7.5t23.5 6.5q3 1 7 -8t2 -26q-2 -11 -2.5 -15.5t-4 -7t-11 -3.5t-22.5 -4q-3 -1 -8 -3.5t-23 -12.5l-23 -13l-7 -4
q-6 -15 -13.5 -23t-30.5 -22q-8 -4 -20 -22q-5 -6 -8 -13t-5 -14q-11 -24 0 -44l18 -21q5 -6 8 -10t5.5 -9t4.5 -11.5t5 -17.5q5 -19 24 -41t58 -47q5 -2 8.5 -4.5t8.5 -4.5l35 -28q3 -48 -59 -32q-3 1 -9 0.5t-25 -5.5q-5 -1 -11.5 1.5t-17.5 10.5l-15 -3l-15 -4l-15 -2
l-16 -3l-34 1q-9 -3 -20 0t-19 12q-7 7 -9 17q-3 12 7 16q11 4 26 7q8 0 5 21q1 25 -31 34q-5 2 -9 10.5t-6 34.5l-29 -7q-9 -8 -13 -15.5t-10 -29.5q-1 -4 -3.5 -9t-9.5 -14q2 -20 13.5 -31.5t39.5 -17.5q2 -1 3 -4.5t-2 -13.5q-3 -11 -13.5 -16t-20.5 0q-8 4 -13 5.5
t-11.5 2t-16.5 -1t-26 -3.5q-6 -2 -15 -1.5t-26 2.5q-15 -5 -26 -3.5t-35 12.5q-4 2 -10.5 3t-18.5 2q-1 3 -1.5 5.5t-0.5 5.5q-2 18 15 26q15 8 30 -3l33 23l22 16l20 21l20 25q4 4 7 8t7 8l16 24t15 24q-9 56 -55 101q-6 5 -12 10.5t-13 10.5l-24 44l-36 22v0z" />
    <glyph glyph-name="y" unicode="y" horiz-adv-x="503" 
d="M34 382q-16 15 -41 18l5 38l38 12q16 -8 31 -10t40 1l15 2l4 1l-7 -9l19 3l19 3l18 3l18 3l43 -10l3 -24q-8 -13 -15.5 -22t-15.5 -17l-10 -10q-6 -6 -2 -18q10 -13 19.5 -25.5t17.5 -26.5q9 -14 14 -21.5t7 -14t2 -14t-1 -20.5q-2 -19 23 -41l21 -27l14 39q6 23 3 47
l3 11h7l4 -17l3 6q8 14 6 29.5t-12 27.5q13 7 20 19.5t5 27.5q3 7 1 17q-2 11 -10.5 18.5t-19.5 7.5l7 21q-5 -5 -11.5 -5t-11.5 5q-8 6 -6 17q19 8 34 11.5t44 6.5q5 1 11.5 3t20.5 8q16 -2 25 -3t16 -2l42 -2q3 0 16 -9q-10 -6 -12.5 -16.5t2.5 -19.5q-4 1 -12 1
q-14 0 -24.5 -8.5t-13.5 -22.5q-11 -8 -16.5 -16.5t-13.5 -28.5q-2 -5 -6.5 -11t-14.5 -15l7 -31q-6 -15 -9 -30q-2 -8 -3.5 -15.5t-3.5 -15.5l-27 -33l-27 -28l11 -7l-19 -45q1 -31 -23 -54q-1 -5 -2 -10.5t-3 -10.5q-13 -35 -41 -57q-3 -19 -9 -36t-17 -36l-11 -18l-3 -5
q-2 -4 -3.5 -10t-1.5 -17l-11 -33l-36 -15l-48 -1l-23 16q7 10 13.5 19t13.5 18q7 8 14 15.5t15 15.5q14 26 34 48q3 4 6.5 7.5t6.5 7.5l4 9q5 9 8 18t6 19q2 10 3.5 16t1.5 12q2 23 -3.5 35.5t-19.5 17.5l-3 -11l-13 11v11.5t-1 10.5q-6 48 -35 82h10q-2 4 -2.5 8t-2.5 9
q-7 20 -14 33.5t-13 21.5l-3 3l-19 20q-4 4 -8 9.5l-12 16.5l-11 35l-5 8l-6 7q-12 18 -27 38z" />
    <glyph glyph-name="z" unicode="z" horiz-adv-x="522" 
d="M122 135q5 2 8.5 8.5t6.5 22.5q37 28 45 74q10 11 17 18t20 18q2 2 5 3.5t5 3.5q1 1 1.5 2l2.5 5t6 11t10 20q4 6 10.5 13.5t17.5 16.5q7 5 15 10q-3 15 -8.5 23t-17 10t-31.5 -1t-53 -11l-42 -11l-14 -24l-1 -1l-15 -21q-20 -29 -31.5 -34.5t-25.5 4.5q-10 8 -11 20.5
t8 22.5q7 25 23 50q2 4 5 7.5t5 7.5l-4 26q18 22 44 24q9 1 21 -2l26 -2q44 9 90 0q19 -1 33 -3t37 -6q5 -2 15 -4q5 -2 18 0.5t45 14.5q4 2 7 2.5t6 2.5q13 -2 25 -3l24 -2h17q-2 -11 4 -18q10 -13 24 -10q-7 -12 -13.5 -21t-19.5 -22q-2 -2 -5.5 -8t-12.5 -25
q-4 -8 -12.5 -14.5t-26.5 -12.5q-10 -7 -17 -13.5t-13 -15t-12 -20.5t-13 -29q-5 -12 -20 -28t-55 -48q-2 -1 -3 -5t-5 -21q-1 -4 -4.5 -8.5t-12.5 -11.5q-21 -23 -32 -52q28 0 54 -14l36 -2q32 -1 48.5 3.5t33.5 18.5l10 29l35 31l41 13q6 -29 -4 -54q-10 -16 -13.5 -29
t-3.5 -35q0 -6 2 -16q1 -5 -8.5 -13t-38.5 -13q-4 0 -7 -0.5t-7 0.5q-12 -3 -21.5 -3.5t-21 2t-25.5 8.5t-34 16q-4 2 -10 1t-23 -8q-13 0 -20.5 -0.5t-13.5 -1.5q-20 -4 -26 -4.5t-9 -2.5l-23 9q-42 17 -98 7l-5 -1l-26 -7q-5 -1 -12 -2t-20 -3q-15 6 -19.5 19t3.5 24
t19.5 20.5t32.5 20.5q3 2 6.5 7.5t13.5 25.5q2 4 8.5 7.5t29.5 13.5z" />
    <glyph glyph-name="cent" unicode="&#xa2;" horiz-adv-x="473" 
d="M46 266q2 6 2.5 16t-3.5 27q7 4 10.5 10t6.5 12.5t7.5 14t12.5 15.5l1 1l22 23l15 34l49 11l21 9q-2 12 5.5 17t31.5 4l-4 30q0 3 -2 10t-4 15.5t-3.5 16.5t-0.5 12q3 9 11 12q-5 5 -5.5 11.5t3.5 11.5l26 8q3 2 8 4t13 8l10 -12q0 -19 3 -37l4 -23q-19 -7 -14 -26
q5 -16 16 -25q8 -8 13.5 -12t11.5 -6t15 -3t24 -2q2 0 6.5 -2t25.5 -11q5 -2 12.5 -4t21.5 -4q21 -36 18 -82q-1 -5 -1.5 -8.5t-1.5 -8.5l-36 -21q-14 4 -33 -7q-9 -6 -15 2q-9 9 -9 22l-10 39l-20 33l-25 -7l8 -27q1 -37 0 -69q-1 -28 -2.5 -54.5t-5.5 -38.5q-1 -2 -1 -13
l5 -31q-7 -16 -5 -33l6 -26l-9 -10q6 -14 23 -16q15 0 24 12l20 4q8 10 14 16.5t13 11.5q10 7 16 12t6 11l17 16l16 -35q0 -8 -1 -12q-2 -14 -11.5 -23.5t-31.5 -17.5q-2 -1 -12.5 -13.5t-33.5 -23.5q-6 -3 -13.5 -9t-19.5 -17l-28 8q1 -27 0 -52l-2 -13l-1 -13l13 -42
l-1 -17q-9 -3 -18 -3q-16 1 -24 2.5t-11 6t-2 14t4 25.5q1 5 1.5 12t1.5 24l-4 42l-10 1l-11 2q-11 2 -20 5t-20 7q-18 -2 -31.5 4.5t-41.5 29.5q-8 6 -14.5 14t-14.5 18l-12 32q-4 8 -5 12q-10 27 -15 45t-6 32.5t2 28.5t9 33zM170 298q-5 -13 -6.5 -18t-1.5 -8
q2 -25 2 -37.5t-2 -20.5l-3 -27v-1q3 -15 19 -21q35 -21 49 -60l15 -2l4 33q2 29 -15 50q3 23 2 42v29q1 12 5 24t2 24l-3 20q5 28 5 52v9t-1 9h1q-18 3 -33.5 -5.5t-26.5 -30.5q-2 -4 -3 -7l-14 -15l7 -19z" />
    <glyph glyph-name="sterling" unicode="&#xa3;" horiz-adv-x="680" 
d="M75 287q-5 -1 -12 -1t-27 2q5 5 7.5 9t4 9t1.5 13v22q0 10 3.5 21.5t12.5 26.5q5 9 10.5 16.5t11.5 14.5q4 1 10 3q20 5 44 7q12 16 8 30t-27 36q-2 1 -1 5t6 18q1 2 -1 7.5t-10 21.5q-1 2 1.5 6.5t13.5 25.5q11 19 8 53q0 1 3 2t17 5q12 4 23 17.5t20 39.5q1 5 13 11.5
t50 17.5q13 4 23 5l12 2l26 3q14 2 22.5 2.5t15 0t14 -3t19.5 -7.5q1 0 2 -0.5t5.5 -0.5t14 0.5t26.5 0.5q17 1 22 -2.5t16 -18.5q2 -2 8.5 -3t32.5 -3q14 -1 20 -5.5t14 -22.5q2 -2 6 -3.5t19 -3.5q1 -1 2 -3.5t7 -13.5q5 -10 24 -15q-14 -3 -23.5 -6.5t-19 -13
t-21.5 -26.5t-31 -47l-20 -30q-2 14 -5 25t-11 28q-1 2 -1 7t1 24q0 6 -2 9q-2 8 -7.5 11t-19.5 8q-2 1 -5 5.5t-8 22.5q0 1 -4 2t-22 8q-3 1 -7.5 4t-14.5 11q-5 4 -16 3.5t-32 -11.5l-12 -6t-6.5 -4.5t-5 -7t-6.5 -11.5q-2 -5 -6.5 -9.5t-12.5 -10.5t-11.5 -8.5t-4 -5.5
t1.5 -8t6 -14q1 -1 0.5 -3t-3.5 -10q-1 -2 0 -6t5 -16q1 -2 -0.5 -6t-6.5 -15q0 -1 2 -3.5t12 -13.5q1 -1 0 -5t-4 -24q-1 -4 1 -13t11 -31q1 -2 1.5 -5t2.5 -5q4 -2 7 -2.5t7 -2.5q21 -6 33.5 -9.5t23 -3t21.5 4t30 10.5q21 8 35.5 8.5t29.5 -4.5q-2 -14 -8 -21.5
t-26 -18.5q-1 0 -1.5 -7t-2.5 -41q0 -10 -5 -23t-19 -33q-4 3 -12 7q-22 10 -45.5 10t-44.5 -10l9 -19l7 -21q3 -12 9 -18q1 -1 -0.5 -2.5t-7.5 -8.5q-1 -1 -1 -3.5t2 -13.5q1 -5 -3 -13t-20 -31q-5 -7 -12 -14.5t-17 -13.5q5 3 10.5 4.5t11.5 3.5q19 5 32 6.5t23 -0.5
t19 -8.5t21 -16.5q2 -1 5.5 -2t17.5 -4q2 -1 6.5 -3.5t15.5 -10.5q1 -1 7 -1h35q4 0 10.5 -1t23.5 -5q13 -3 32.5 4.5t39.5 25.5l7 7l5 6l4 4q3 -19 22 -24q3 -1 10 -1q-4 -12 -10 -19t-21 -18q-5 -3 -9.5 -11t-13.5 -31q-1 -1 -4.5 -2.5t-20.5 -8.5q-6 -3 -13.5 -10.5
t-20.5 -27.5q0 -1 -4.5 -1h-24.5q-6 0 -15.5 -2t-33.5 -10q-4 -2 -9.5 -1.5t-15 3t-24.5 8.5t-37 17q-5 2 -8.5 4.5t-7.5 4.5l-19 11l-2 1q-2 2 -8 2.5t-27 2.5l-33 2h-10q-12 0 -36 6l-20 -6q-3 -1 -10 -2t-33 -6q-11 -2 -32.5 -9t-45.5 -19l-9 -5l-8 -4l-29 47q12 4 22 8
t21 9q30 14 50 28t32.5 29t19 32t8.5 38q1 17 0 28t-6 34l-11 46q-6 6 -8 9.5t-9.5 3.5t-26.5 -2.5t-60 -8.5z" />
    <glyph glyph-name="copyright" unicode="&#xa9;" horiz-adv-x="790" 
d="M51 330q0 72 27 134.5t74 109.5t109.5 74t134.5 27t134.5 -27t109.5 -74t74 -109.5t27 -134.5t-27 -134.5t-74 -109.5t-109.5 -74t-134.5 -27t-134.5 27t-109.5 74t-74 109.5t-27 134.5zM91 330q0 -63 24 -118.5t65.5 -97t97 -65.5t118.5 -24t118.5 24t97 65.5t65.5 97
t24 118.5t-24 118.5t-65.5 97t-97 65.5t-118.5 24t-118.5 -24t-97 -65.5t-65.5 -97t-24 -118.5zM544 518l4 -128h-20q-2 9 -6.5 22t-13 26.5t-20.5 25.5t-28 19q-42 17 -81 7.5t-65 -43.5q-28 -35 -36.5 -82.5t1.5 -91t38.5 -74t73.5 -32.5q23 -1 41 0.5t33.5 6t30 13.5
t31.5 23l12 10l11 -18q-11 -11 -27.5 -27t-42 -28.5t-60.5 -17t-82 7.5q-56 15 -88 58.5t-39 97t12 106t64 85.5q32 23 62 30.5t56.5 6t47.5 -8t36 -9.5q14 -3 24 0.5t12 14.5h19z" />
    <glyph glyph-name="registered" unicode="&#xae;" horiz-adv-x="790" 
d="M740 325q0 -72 -27 -134.5t-74 -109t-110 -74t-134 -27.5q-72 0 -134.5 27t-109.5 74t-74 109.5t-27 134.5q0 71 27 134t73.5 110t109.5 74t135 27q71 0 134 -27t110 -74t74 -110t27 -134zM700 325q0 63 -24 118.5t-65.5 97t-97.5 65.5t-119 24t-118.5 -24t-97 -65.5
t-65 -97.5t-23.5 -119t24 -118.5t65 -97t97 -65t119 -23.5t118.5 24t97 65t65.5 97t24 119zM343 198q0 -18 15 -23.5t32 -5.5v-18h-160v18q17 0 33 6t16 20v288q0 11 -1.5 17t-6 9t-13 3.5t-23.5 0.5v18h167q20 0 40 -1.5t37 -8.5q12 -5 27.5 -14.5t24.5 -25.5
q10 -17 11 -34.5t-3 -33.5t-12 -28.5t-16 -19.5t-26 -17t-44 -11l120 -154q8 -11 17 -12.5t19 -1.5v-18h-95l-133 177h-26v-130zM343 351q16 1 34 1t38 7q67 21 59 83q-2 20 -9 32.5t-16 19t-18 9.5t-15 3l-53 4q-8 0 -14 -5.5t-7 -14.5z" />
    <glyph glyph-name="emdash" unicode="&#x2014;" horiz-adv-x="562" 
d="M-7 252v108h576v-108h-576z" />
    <glyph glyph-name="quoteleft" unicode="&#x2018;" horiz-adv-x="257" 
d="M34 484q-3 4 -4.5 10.5t-0.5 20.5l5 25l8 25l17 34l32 40l15 18l3 5q7 10 13 26q11 6 20.5 12t20.5 11q11 6 20.5 11t20.5 10l-5 -16l11 -19q-9 -10 -16 -15.5t-13 -9.5q-17 -10 -23.5 -13t-11.5 -5q-2 -1 -3.5 -3.5t-0.5 -9t3.5 -18.5t8.5 -31q0 -2 0.5 -2.5t0.5 -2.5
l21 -4q5 -6 8.5 -11t7.5 -9l7 -9l9 -11q5 -5 9.5 -12t10.5 -21l-13 -9l-11 -39q-5 -5 -10 -11t-10 -11l-10 -9l-9 -9q-20 -16 -43 -10l-13 5l-44 14q-5 15 -11.5 26.5t-19.5 26.5z" />
    <glyph glyph-name="quoteright" unicode="&#x2019;" horiz-adv-x="257" 
d="M48 600q-8 9 -19 34l13 9l10 38q5 6 10.5 11.5l10.5 10.5l9 10l10 8q18 16 43 11l13 -5l44 -15q5 -14 11 -25.5t19 -27.5q7 -7 6 -30l-6 -26l-7 -25l-17 -33l-32 -40l-15 -19l-3 -5q-4 -5 -7 -11t-6 -14q-11 -7 -21 -12.5t-21 -11.5q-11 -5 -20.5 -10t-20.5 -10l5 15
l-10 20q17 17 28 24q17 10 24 13t11 5q4 1 3.5 13t-10.5 50q-1 1 -1 2t-1 2l-20 4q-5 7 -8.5 11.5t-7.5 9.5l-7 9l-10 10v0z" />
    <glyph glyph-name="trademark" unicode="&#x2122;" horiz-adv-x="890" 
d="M338 673l3 -97l-18 -1q2 33 -16.5 53t-60.5 22l-37 1v-312q0 -17 13.5 -22.5t36.5 -5.5v-18h-160v18q23 0 37 5.5t14 22.5v312l-37 -1q-42 -2 -60.5 -22t-16.5 -53l-18 1l3 97h317zM484 673l132 -288l126 288h112v-18q-16 0 -32.5 -2.5t-16.5 -22.5v-291
q0 -17 13.5 -22.5t36.5 -5.5v-18h-160v18q23 0 37 5.5t14 22.5v277l-134 -323h-18l-144 307v-261q0 -17 14 -22.5t37 -5.5v-18h-129v18q23 0 37 5.5t14 22.5v281q0 14 -4 21.5t-10.5 10.5t-16.5 3h-22v18h114z" />
  </font>
</defs>
</svg>
